<svg xmlns="http://www.w3.org/2000/svg" width="1135" height="346.702" viewBox="0 0 1135 346.702">
  <g id="Grupo_1064865" data-name="Grupo 1064865" transform="translate(-246 -7720.033)">
    <g id="Trazado_601012" data-name="Trazado 601012" transform="translate(246 7720.033)" fill="#fff">
      <path d="M 189.5 330.5 L 0.5 330.5 L 0.5 0.5 L 189.5 0.5 L 189.5 330.5 Z" stroke="none"/>
      <path d="M 1 1 L 1 330 L 189 330 L 189 1 L 1 1 M 0 0 L 190 0 L 190 331 L 0 331 L 0 0 Z" stroke="none" fill="#000"/>
    </g>
    <path id="Trazado_601018" data-name="Trazado 601018" d="M-10.819-6.135a7.546,7.546,0,0,1-.694,3.313A5.132,5.132,0,0,1-13.487-.6,5.494,5.494,0,0,1-16.4.176a5.572,5.572,0,0,1-2.9-.751,5.123,5.123,0,0,1-1.973-2.149,7.329,7.329,0,0,1-.743-3.208v-.721a7.58,7.58,0,0,1,.69-3.318,5.119,5.119,0,0,1,1.978-2.219,5.533,5.533,0,0,1,2.931-.782,5.479,5.479,0,0,1,2.9.773A5.211,5.211,0,0,1-11.536-10a7.362,7.362,0,0,1,.716,3.274Zm-3.138-.536a5.381,5.381,0,0,0-.637-2.9,2.044,2.044,0,0,0-1.824-.989q-2.32,0-2.452,3.48l-.009.94a5.535,5.535,0,0,0,.624,2.892A2.041,2.041,0,0,0-16.4-2.232a2.016,2.016,0,0,0,1.8-.993,5.383,5.383,0,0,0,.642-2.856Zm7.813,4.3h5.37V0H-9.229V-12.8h3.085ZM3.612-4.342V0H.527V-12.8H5.634a5.948,5.948,0,0,1,2.6.541A4.074,4.074,0,0,1,9.98-10.718a4.2,4.2,0,0,1,.62,2.263,3.7,3.7,0,0,1-1.34,2.993A5.561,5.561,0,0,1,5.581-4.342Zm0-2.382H5.634A1.906,1.906,0,0,0,7-7.172a1.665,1.665,0,0,0,.47-1.266A2.059,2.059,0,0,0,6.987-9.87a1.712,1.712,0,0,0-1.318-.545H3.612Zm18.677-3.691H18.448V0H15.363V-10.415H11.593V-12.8h10.7Z" transform="translate(341 7842.033)" fill="#12263f"/>
    <path id="Trazado_601013" data-name="Trazado 601013" d="M-31.512-5.023h-4.773V0h-1.5V-11.375h7.047v1.234h-5.547V-6.25h4.773Zm7.391,4.188A3.07,3.07,0,0,1-26.6.156a2.628,2.628,0,0,1-2.059-.785,3.4,3.4,0,0,1-.715-2.324v-5.5h1.445v5.461q0,1.922,1.563,1.922A2.163,2.163,0,0,0-24.16-2.3V-8.453h1.445V0H-24.09Zm7.109.992a3.693,3.693,0,0,1-2.8-1.129,4.19,4.19,0,0,1-1.078-3.02v-.266a5.073,5.073,0,0,1,.48-2.246,3.748,3.748,0,0,1,1.344-1.547,3.378,3.378,0,0,1,1.871-.559,3.166,3.166,0,0,1,2.563,1.086,4.7,4.7,0,0,1,.914,3.109v.6h-5.727a3,3,0,0,0,.73,2.02,2.3,2.3,0,0,0,1.777.77,2.517,2.517,0,0,0,1.3-.312,3.259,3.259,0,0,0,.93-.828l.883.688A3.55,3.55,0,0,1-17.012.156Zm-.18-7.578a1.928,1.928,0,0,0-1.469.637A3.1,3.1,0,0,0-19.395-5h4.234v-.109a2.753,2.753,0,0,0-.594-1.707A1.815,1.815,0,0,0-17.191-7.422Zm6.516-1.031.047,1.063A3.08,3.08,0,0,1-8.1-8.609q2.68,0,2.7,3.023V0H-6.84V-5.594a1.946,1.946,0,0,0-.418-1.352,1.675,1.675,0,0,0-1.277-.437,2.086,2.086,0,0,0-1.234.375,2.546,2.546,0,0,0-.828.984V0h-1.445V-8.453ZM-1.254-10.5v2.047H.324v1.117H-1.254v5.242a1.171,1.171,0,0,0,.211.762.888.888,0,0,0,.719.254,3.5,3.5,0,0,0,.688-.094V0A4.19,4.19,0,0,1-.746.156,1.8,1.8,0,0,1-2.207-.43,2.517,2.517,0,0,1-2.7-2.094V-7.336H-4.238V-8.453H-2.7V-10.5ZM5.52.156a3.693,3.693,0,0,1-2.8-1.129,4.19,4.19,0,0,1-1.078-3.02v-.266A5.073,5.073,0,0,1,2.125-6.5,3.748,3.748,0,0,1,3.469-8.051,3.378,3.378,0,0,1,5.34-8.609,3.166,3.166,0,0,1,7.9-7.523a4.7,4.7,0,0,1,.914,3.109v.6H3.09a3,3,0,0,0,.73,2.02,2.3,2.3,0,0,0,1.777.77,2.517,2.517,0,0,0,1.3-.312,3.259,3.259,0,0,0,.93-.828l.883.688A3.55,3.55,0,0,1,5.52.156ZM5.34-7.422a1.928,1.928,0,0,0-1.469.637A3.1,3.1,0,0,0,3.137-5H7.371v-.109a2.753,2.753,0,0,0-.594-1.707A1.815,1.815,0,0,0,5.34-7.422Zm10.07,5.18a1.064,1.064,0,0,0-.441-.91,4.249,4.249,0,0,0-1.539-.559,7.277,7.277,0,0,1-1.742-.562,2.479,2.479,0,0,1-.953-.781,1.869,1.869,0,0,1-.309-1.078A2.193,2.193,0,0,1,11.3-7.891a3.432,3.432,0,0,1,2.246-.719,3.532,3.532,0,0,1,2.332.742,2.357,2.357,0,0,1,.895,1.9H15.324a1.3,1.3,0,0,0-.5-1.023,1.888,1.888,0,0,0-1.27-.43,1.976,1.976,0,0,0-1.234.344,1.082,1.082,0,0,0-.445.9.877.877,0,0,0,.414.789,5.1,5.1,0,0,0,1.5.508,7.8,7.8,0,0,1,1.754.578,2.558,2.558,0,0,1,1,.809,1.988,1.988,0,0,1,.324,1.152,2.163,2.163,0,0,1-.906,1.816A3.8,3.8,0,0,1,13.6.156,4.257,4.257,0,0,1,11.8-.2a2.922,2.922,0,0,1-1.223-1A2.42,2.42,0,0,1,10.137-2.6h1.445a1.5,1.5,0,0,0,.582,1.152,2.258,2.258,0,0,0,1.434.426,2.331,2.331,0,0,0,1.316-.332A1.02,1.02,0,0,0,15.41-2.242ZM22.348-4.3a4.952,4.952,0,0,1,.922-3.129,2.915,2.915,0,0,1,2.414-1.184,2.932,2.932,0,0,1,2.352,1.016V-12H29.48V0H28.152l-.07-.906A2.943,2.943,0,0,1,25.668.156a2.887,2.887,0,0,1-2.395-1.2,5.008,5.008,0,0,1-.926-3.141Zm1.445.164a3.749,3.749,0,0,0,.594,2.25,1.92,1.92,0,0,0,1.641.813A2.108,2.108,0,0,0,28.035-2.3V-6.187a2.125,2.125,0,0,0-1.992-1.2,1.929,1.929,0,0,0-1.656.82A4.128,4.128,0,0,0,23.793-4.133ZM35.23.156a3.693,3.693,0,0,1-2.8-1.129,4.19,4.19,0,0,1-1.078-3.02v-.266a5.073,5.073,0,0,1,.48-2.246A3.748,3.748,0,0,1,33.18-8.051a3.378,3.378,0,0,1,1.871-.559,3.166,3.166,0,0,1,2.563,1.086,4.7,4.7,0,0,1,.914,3.109v.6H32.8a3,3,0,0,0,.73,2.02,2.3,2.3,0,0,0,1.777.77,2.517,2.517,0,0,0,1.3-.312,3.259,3.259,0,0,0,.93-.828l.883.688A3.55,3.55,0,0,1,35.23.156Zm-.18-7.578a1.928,1.928,0,0,0-1.469.637A3.1,3.1,0,0,0,32.848-5h4.234v-.109a2.753,2.753,0,0,0-.594-1.707A1.815,1.815,0,0,0,35.051-7.422ZM-19.5,24V12.625h3.211a5.169,5.169,0,0,1,2.625.656A4.438,4.438,0,0,1-11.9,15.148a6.078,6.078,0,0,1,.629,2.781v.727a6.1,6.1,0,0,1-.621,2.82,4.369,4.369,0,0,1-1.773,1.859A5.5,5.5,0,0,1-16.352,24ZM-18,13.859v8.914h1.578a3.435,3.435,0,0,0,2.7-1.078,4.452,4.452,0,0,0,.965-3.07v-.664a4.522,4.522,0,0,0-.91-3.012,3.24,3.24,0,0,0-2.582-1.09ZM-4.016,24a3.036,3.036,0,0,1-.2-.891,3.225,3.225,0,0,1-2.406,1.047,2.984,2.984,0,0,1-2.051-.707,2.287,2.287,0,0,1-.8-1.793,2.39,2.39,0,0,1,1-2.051,4.733,4.733,0,0,1,2.824-.73h1.406v-.664A1.623,1.623,0,0,0-4.7,17a1.821,1.821,0,0,0-1.336-.449,2.108,2.108,0,0,0-1.3.391,1.151,1.151,0,0,0-.523.945H-9.3a2,2,0,0,1,.449-1.223,3.066,3.066,0,0,1,1.219-.934,4.1,4.1,0,0,1,1.691-.344,3.342,3.342,0,0,1,2.289.73A2.635,2.635,0,0,1-2.8,18.133v3.891a4.757,4.757,0,0,0,.3,1.852V24Zm-2.4-1.1a2.54,2.54,0,0,0,1.289-.352,2.127,2.127,0,0,0,.883-.914V19.9H-5.375q-2.656,0-2.656,1.555a1.316,1.316,0,0,0,.453,1.063A1.742,1.742,0,0,0-6.414,22.9ZM1.43,13.5v2.047H3.008v1.117H1.43v5.242a1.171,1.171,0,0,0,.211.762.888.888,0,0,0,.719.254,3.5,3.5,0,0,0,.688-.094V24a4.19,4.19,0,0,1-1.109.156A1.8,1.8,0,0,1,.477,23.57a2.517,2.517,0,0,1-.492-1.664V16.664H-1.555V15.547H-.016V13.5Zm2.727,6.2a4.993,4.993,0,0,1,.488-2.234A3.643,3.643,0,0,1,6,15.93a3.7,3.7,0,0,1,1.988-.539,3.565,3.565,0,0,1,2.793,1.2,4.6,4.6,0,0,1,1.066,3.18v.1a5.036,5.036,0,0,1-.473,2.215,3.589,3.589,0,0,1-1.352,1.527,3.743,3.743,0,0,1-2.02.547,3.556,3.556,0,0,1-2.785-1.2A4.575,4.575,0,0,1,4.156,19.8Zm1.453.172a3.616,3.616,0,0,0,.652,2.258,2.088,2.088,0,0,0,1.746.852,2.075,2.075,0,0,0,1.75-.863,3.955,3.955,0,0,0,.648-2.418,3.61,3.61,0,0,0-.66-2.254,2.1,2.1,0,0,0-1.754-.863,2.075,2.075,0,0,0-1.727.852A3.925,3.925,0,0,0,5.609,19.867Zm12.977,1.891a1.064,1.064,0,0,0-.441-.91,4.249,4.249,0,0,0-1.539-.559,7.277,7.277,0,0,1-1.742-.562,2.479,2.479,0,0,1-.953-.781,1.869,1.869,0,0,1-.309-1.078,2.193,2.193,0,0,1,.879-1.758,3.432,3.432,0,0,1,2.246-.719,3.532,3.532,0,0,1,2.332.742,2.357,2.357,0,0,1,.895,1.9H18.5a1.3,1.3,0,0,0-.5-1.023,1.888,1.888,0,0,0-1.27-.43,1.976,1.976,0,0,0-1.234.344,1.082,1.082,0,0,0-.445.9.877.877,0,0,0,.414.789,5.1,5.1,0,0,0,1.5.508,7.8,7.8,0,0,1,1.754.578,2.558,2.558,0,0,1,1,.809,1.988,1.988,0,0,1,.324,1.152,2.163,2.163,0,0,1-.906,1.816,3.8,3.8,0,0,1-2.352.684,4.257,4.257,0,0,1-1.8-.359,2.922,2.922,0,0,1-1.223-1,2.42,2.42,0,0,1-.441-1.395h1.445a1.5,1.5,0,0,0,.582,1.152,2.258,2.258,0,0,0,1.434.426,2.331,2.331,0,0,0,1.316-.332A1.02,1.02,0,0,0,18.586,21.758Z" transform="translate(341 7902.033)" fill="#12263f"/>
    <path id="Trazado_600974" data-name="Trazado 600974" d="M69.625,333.656v32.012c0,14.733,28.664,26.676,64.023,26.676s64.023-11.943,64.023-26.676V333.656Z" transform="translate(475.977 7608.604)" fill="#528fd8"/>
    <path id="Trazado_601702" data-name="Trazado 601702" d="M64.023,0c35.359,0,64.023,11.943,64.023,26.676S99.383,53.353,64.023,53.353,0,41.409,0,26.676,28.664,0,64.023,0Z" transform="translate(545.602 7915.584)" fill="#0573ce"/>
    <path id="Trazado_600975" data-name="Trazado 600975" d="M69.625,209.406v32.012c0,14.733,28.664,26.676,64.023,26.676s64.023-11.943,64.023-26.676V209.406H69.625Z" transform="translate(475.977 7690.172)" fill="#528fd8"/>
    <path id="Trazado_601703" data-name="Trazado 601703" d="M64.023,0c35.359,0,64.023,11.943,64.023,26.676S99.383,53.353,64.023,53.353,0,41.409,0,26.676,28.664,0,64.023,0Z" transform="translate(545.602 7872.902)" fill="#0573ce"/>
    <path id="Trazado_600976" data-name="Trazado 600976" d="M69.625,85.156v32.012c0,14.733,28.664,26.676,64.023,26.676s64.023-11.943,64.023-26.676V85.156Z" transform="translate(475.977 7771.74)" fill="#528fd8"/>
    <path id="Trazado_601704" data-name="Trazado 601704" d="M64.023,0c35.359,0,64.023,11.943,64.023,26.676S99.383,53.353,64.023,53.353,0,41.409,0,26.676,28.664,0,64.023,0Z" transform="translate(545.602 7830.22)" fill="#b2caec"/>
    <path id="Trazado_600977" data-name="Trazado 600977" d="M191.8,26.167c5.5,3.936,8.643,8.512,8.643,13.394,0,14.733-28.664,26.676-64.023,26.676-15.9,0-30.445-2.415-41.64-6.412,11.089,7.943,31.738,13.283,55.381,13.283,35.359,0,64.023-11.943,64.023-26.676C214.188,38.323,205.506,31.059,191.8,26.167Z" transform="translate(459.46 7810.465)" fill="#82aee3"/>
    <path id="Trazado_600978" data-name="Trazado 600978" d="M69.625,360.332v5.335c0,14.733,28.664,26.676,64.023,26.676s64.023-11.943,64.023-26.676V333.655" transform="translate(475.977 7608.605)" fill="none" stroke="#000" stroke-linecap="round" stroke-linejoin="round" stroke-miterlimit="10" stroke-width="2"/>
    <path id="Trazado_601709" data-name="Trazado 601709" d="M0,0V14.653" transform="translate(545.602 7942.261)" fill="none" stroke="#000" stroke-linecap="round" stroke-width="2"/>
    <path id="Trazado_600979" data-name="Trazado 600979" d="M100.687,423.191c7.616,4.773,18.822,8.465,32.012,10.407" transform="translate(455.585 7549.827)" fill="none" stroke="#000" stroke-linecap="round" stroke-linejoin="round" stroke-miterlimit="10" stroke-width="2"/>
    <g id="Grupo_1064299" data-name="Grupo 1064299" transform="translate(657.643 7974.272)">
      <line id="Línea_377" data-name="Línea 377" fill="none" stroke="#000" stroke-linecap="round" stroke-linejoin="round" stroke-miterlimit="10" stroke-width="2"/>
    </g>
    <g id="Grupo_1064301" data-name="Grupo 1064301" transform="translate(641.637 7979.608)">
      <line id="Línea_378" data-name="Línea 378" fill="none" stroke="#000" stroke-linecap="round" stroke-linejoin="round" stroke-miterlimit="10" stroke-width="2"/>
    </g>
    <path id="Trazado_600980" data-name="Trazado 600980" d="M69.625,209.406v32.012c0,14.733,28.664,26.676,64.023,26.676s64.023-11.943,64.023-26.676V209.406" transform="translate(475.977 7690.172)" fill="none" stroke="#000" stroke-linecap="round" stroke-linejoin="round" stroke-miterlimit="10" stroke-width="2"/>
    <path id="Trazado_600981" data-name="Trazado 600981" d="M100.687,298.941c7.616,4.773,18.822,8.465,32.012,10.407" transform="translate(455.585 7631.395)" fill="none" stroke="#000" stroke-linecap="round" stroke-linejoin="round" stroke-miterlimit="10" stroke-width="2"/>
    <g id="Grupo_1064303" data-name="Grupo 1064303" transform="translate(657.643 7931.59)">
      <line id="Línea_379" data-name="Línea 379" fill="none" stroke="#000" stroke-linecap="round" stroke-linejoin="round" stroke-miterlimit="10" stroke-width="2"/>
    </g>
    <g id="Grupo_1064305" data-name="Grupo 1064305" transform="translate(641.637 7936.925)">
      <line id="Línea_380" data-name="Línea 380" fill="none" stroke="#000" stroke-linecap="round" stroke-linejoin="round" stroke-miterlimit="10" stroke-width="2"/>
    </g>
    <path id="Trazado_600982" data-name="Trazado 600982" d="M398,134.447c9.507-4.655,15.244-10.688,15.244-17.279V85.156" transform="translate(260.405 7771.74)" fill="none" stroke="#000" stroke-linecap="round" stroke-linejoin="round" stroke-miterlimit="10" stroke-width="2"/>
    <path id="Trazado_600983" data-name="Trazado 600983" d="M69.625,85.156v32.012c0,14.733,28.664,26.676,64.023,26.676a132.582,132.582,0,0,0,37.265-4.982" transform="translate(475.977 7771.74)" fill="none" stroke="#000" stroke-linecap="round" stroke-linejoin="round" stroke-miterlimit="10" stroke-width="2"/>
    <path id="Trazado_600984" data-name="Trazado 600984" d="M100.687,174.691c7.616,4.773,18.822,8.465,32.012,10.407" transform="translate(455.585 7712.962)" fill="none" stroke="#000" stroke-linecap="round" stroke-linejoin="round" stroke-miterlimit="10" stroke-width="2"/>
    <path id="Trazado_600985" data-name="Trazado 600985" d="M83.713,17.48c11.735-6.085,29.743-9.98,49.935-9.98,35.359,0,64.023,11.943,64.023,26.676s-28.664,26.676-64.023,26.676S69.625,48.91,69.625,34.176c0-3.349,1.482-6.555,4.186-9.508" transform="translate(475.977 7822.72)" fill="none" stroke="#000" stroke-linecap="round" stroke-linejoin="round" stroke-miterlimit="10" stroke-width="2"/>
    <g id="Grupo_1064307" data-name="Grupo 1064307" transform="translate(657.643 7888.908)">
      <line id="Línea_381" data-name="Línea 381" fill="none" stroke="#000" stroke-linecap="round" stroke-linejoin="round" stroke-miterlimit="10" stroke-width="2"/>
    </g>
    <g id="Grupo_1064309" data-name="Grupo 1064309" transform="translate(641.637 7894.243)">
      <line id="Línea_382" data-name="Línea 382" fill="none" stroke="#000" stroke-linecap="round" stroke-linejoin="round" stroke-miterlimit="10" stroke-width="2"/>
    </g>
    <path id="Trazado_600986" data-name="Trazado 600986" d="M70.906,193.875a12.09,12.09,0,0,0-1.281,5.335c0,14.733,28.664,26.676,64.023,26.676s64.023-11.943,64.023-26.676a12.09,12.09,0,0,0-1.281-5.335" transform="translate(475.977 7700.368)" fill="none" stroke="#000" stroke-linecap="round" stroke-linejoin="round" stroke-miterlimit="10" stroke-width="2"/>
    <path id="Trazado_600987" data-name="Trazado 600987" d="M70.906,318.125a12.09,12.09,0,0,0-1.281,5.335c0,14.733,28.664,26.676,64.023,26.676s64.023-11.943,64.023-26.676a12.09,12.09,0,0,0-1.281-5.335" transform="translate(475.977 7618.8)" fill="none" stroke="#000" stroke-linecap="round" stroke-linejoin="round" stroke-miterlimit="10" stroke-width="2"/>
    <path id="Trazado_600989" data-name="Trazado 600989" d="M-1554-4827h82.055" transform="translate(1990 12711.533)" fill="none" stroke="#707070" stroke-width="1"/>
    <path id="Trazado_601710" data-name="Trazado 601710" d="M6.5,0,13,12H0Z" transform="translate(522.5 7878.033) rotate(90)"/>
    <path id="Trazado_600988" data-name="Trazado 600988" d="M-1554-4827h82.055" transform="matrix(0.891, 0.454, -0.454, 0.891, -118.837, 12959.214)" fill="none" stroke="#707070" stroke-width="1"/>
    <path id="Trazado_601700" data-name="Trazado 601700" d="M6.5,0,13,12H0Z" transform="matrix(-0.454, 0.891, -0.891, -0.454, 767.974, 7986.303)"/>
    <path id="Trazado_601021" data-name="Trazado 601021" d="M-15.387,0V-11.375h3.359a5.269,5.269,0,0,1,2.676.672A4.581,4.581,0,0,1-7.543-8.8,6.051,6.051,0,0,1-6.9-5.969v.57a6.026,6.026,0,0,1-.645,2.844A4.526,4.526,0,0,1-9.383-.664,5.513,5.513,0,0,1-12.113,0Zm1.977-9.781v8.2h1.289a2.968,2.968,0,0,0,2.387-.973,4.237,4.237,0,0,0,.848-2.793v-.633a4.347,4.347,0,0,0-.8-2.828,2.853,2.853,0,0,0-2.336-.977ZM-.066,0A2.93,2.93,0,0,1-.285-.789,2.955,2.955,0,0,1-2.5.156,2.982,2.982,0,0,1-4.582-.57a2.325,2.325,0,0,1-.8-1.8,2.4,2.4,0,0,1,1-2.074,4.865,4.865,0,0,1,2.871-.723H-.348v-.555A1.481,1.481,0,0,0-.715-6.77a1.456,1.456,0,0,0-1.117-.395,1.672,1.672,0,0,0-1.062.324,1,1,0,0,0-.414.824h-1.9a2.107,2.107,0,0,1,.461-1.3,3.071,3.071,0,0,1,1.254-.949,4.4,4.4,0,0,1,1.77-.344,3.547,3.547,0,0,1,2.367.746,2.661,2.661,0,0,1,.906,2.1v3.813a4.321,4.321,0,0,0,.32,1.82V0ZM-2.152-1.367a2.159,2.159,0,0,0,1.059-.273,1.827,1.827,0,0,0,.746-.734V-3.969H-1.371A2.8,2.8,0,0,0-2.957-3.6a1.189,1.189,0,0,0-.531,1.039,1.109,1.109,0,0,0,.363.871A1.407,1.407,0,0,0-2.152-1.367Zm8.07-9.141v2.055H7.41v1.406H5.918v4.719a1.039,1.039,0,0,0,.191.7.888.888,0,0,0,.684.215,2.924,2.924,0,0,0,.664-.078V-.023a4.676,4.676,0,0,1-1.25.18Q4.02.156,4.02-2.258V-7.047H2.629V-8.453H4.02v-2.055ZM13.91,0a2.93,2.93,0,0,1-.219-.789,2.955,2.955,0,0,1-2.219.945A2.982,2.982,0,0,1,9.395-.57a2.325,2.325,0,0,1-.8-1.8,2.4,2.4,0,0,1,1-2.074,4.865,4.865,0,0,1,2.871-.723h1.164v-.555a1.481,1.481,0,0,0-.367-1.051,1.456,1.456,0,0,0-1.117-.395,1.672,1.672,0,0,0-1.062.324,1,1,0,0,0-.414.824H8.77a2.107,2.107,0,0,1,.461-1.3,3.071,3.071,0,0,1,1.254-.949,4.4,4.4,0,0,1,1.77-.344,3.547,3.547,0,0,1,2.367.746,2.661,2.661,0,0,1,.906,2.1v3.813a4.321,4.321,0,0,0,.32,1.82V0ZM11.824-1.367a2.159,2.159,0,0,0,1.059-.273,1.827,1.827,0,0,0,.746-.734V-3.969H12.605A2.8,2.8,0,0,0,11.02-3.6a1.189,1.189,0,0,0-.531,1.039,1.109,1.109,0,0,0,.363.871A1.407,1.407,0,0,0,11.824-1.367ZM-30.055,21.188l1.75-8.562h1.961L-28.969,24h-1.891l-2.164-8.3L-35.234,24h-1.9l-2.625-11.375H-37.8l1.766,8.547,2.172-8.547H-32.2ZM-20.289,24a2.93,2.93,0,0,1-.219-.789,2.955,2.955,0,0,1-2.219.945A2.982,2.982,0,0,1-24.8,23.43a2.325,2.325,0,0,1-.8-1.8,2.4,2.4,0,0,1,1-2.074,4.865,4.865,0,0,1,2.871-.723h1.164v-.555a1.481,1.481,0,0,0-.367-1.051,1.456,1.456,0,0,0-1.117-.395,1.672,1.672,0,0,0-1.062.324,1,1,0,0,0-.414.824h-1.9a2.107,2.107,0,0,1,.461-1.3,3.071,3.071,0,0,1,1.254-.949,4.4,4.4,0,0,1,1.77-.344,3.547,3.547,0,0,1,2.367.746,2.661,2.661,0,0,1,.906,2.1v3.813a4.321,4.321,0,0,0,.32,1.82V24Zm-2.086-1.367a2.16,2.16,0,0,0,1.059-.273,1.827,1.827,0,0,0,.746-.734V20.031h-1.023a2.8,2.8,0,0,0-1.586.367,1.189,1.189,0,0,0-.531,1.039,1.109,1.109,0,0,0,.363.871A1.407,1.407,0,0,0-22.375,22.633Zm10.117-5.352a4.7,4.7,0,0,0-.773-.062,1.741,1.741,0,0,0-1.758,1V24h-1.9V15.547h1.813l.047.945a2.139,2.139,0,0,1,1.906-1.1,1.777,1.777,0,0,1,.672.109Zm4.773,6.875A3.928,3.928,0,0,1-10.41,23.02a4.124,4.124,0,0,1-1.121-3.027v-.234a5.072,5.072,0,0,1,.488-2.262,3.716,3.716,0,0,1,1.371-1.551A3.625,3.625,0,0,1-7.7,15.391a3.318,3.318,0,0,1,2.668,1.1,4.658,4.658,0,0,1,.941,3.117v.766H-9.617a2.539,2.539,0,0,0,.7,1.656,2.1,2.1,0,0,0,1.543.609A2.571,2.571,0,0,0-5.25,21.586l1.023.977a3.418,3.418,0,0,1-1.355,1.176A4.244,4.244,0,0,1-7.484,24.156Zm-.227-7.242a1.6,1.6,0,0,0-1.262.547,2.835,2.835,0,0,0-.613,1.523h3.617v-.141A2.307,2.307,0,0,0-6.477,17.4,1.586,1.586,0,0,0-7.711,16.914Zm6.961-.445A2.971,2.971,0,0,1,1.6,15.391q2.7,0,2.742,3.086V24h-1.9V18.547a1.669,1.669,0,0,0-.379-1.238,1.549,1.549,0,0,0-1.113-.363,1.829,1.829,0,0,0-1.7,1.016V24h-1.9V12h1.9ZM5.906,19.7A4.984,4.984,0,0,1,6.4,17.457a3.6,3.6,0,0,1,1.383-1.531,3.9,3.9,0,0,1,2.047-.535,3.692,3.692,0,0,1,2.777,1.1,4.333,4.333,0,0,1,1.152,2.922l.008.445a5.029,5.029,0,0,1-.48,2.234,3.551,3.551,0,0,1-1.375,1.523,3.925,3.925,0,0,1-2.066.539A3.667,3.667,0,0,1,6.98,22.965a4.563,4.563,0,0,1-1.074-3.176Zm1.9.164A3.406,3.406,0,0,0,8.344,21.9a1.752,1.752,0,0,0,1.5.738,1.733,1.733,0,0,0,1.5-.75,3.762,3.762,0,0,0,.535-2.2,3.362,3.362,0,0,0-.551-2.031,1.759,1.759,0,0,0-1.5-.75,1.743,1.743,0,0,0-1.477.738A3.691,3.691,0,0,0,7.8,19.859Zm12.688,3.313a2.944,2.944,0,0,1-2.375.984,2.624,2.624,0,0,1-2.082-.8,3.423,3.423,0,0,1-.707-2.328V15.547h1.9V21q0,1.609,1.336,1.609a1.876,1.876,0,0,0,1.867-.992v-6.07h1.9V24H20.539ZM29,21.7a.861.861,0,0,0-.418-.773,4.445,4.445,0,0,0-1.387-.469,7.129,7.129,0,0,1-1.617-.516,2.158,2.158,0,0,1-1.422-1.992,2.25,2.25,0,0,1,.922-1.828,3.644,3.644,0,0,1,2.344-.734,3.792,3.792,0,0,1,2.449.75,2.38,2.38,0,0,1,.934,1.945h-1.9a1.17,1.17,0,0,0-.406-.91,1.557,1.557,0,0,0-1.078-.363,1.682,1.682,0,0,0-1.02.289.911.911,0,0,0-.395.773.769.769,0,0,0,.367.68,5.049,5.049,0,0,0,1.484.488,7.027,7.027,0,0,1,1.754.586,2.484,2.484,0,0,1,.945.816,2.082,2.082,0,0,1,.309,1.156,2.2,2.2,0,0,1-.945,1.848,4.031,4.031,0,0,1-2.477.707,4.371,4.371,0,0,1-1.852-.375,3.047,3.047,0,0,1-1.266-1.031,2.441,2.441,0,0,1-.453-1.414h1.844a1.338,1.338,0,0,0,.508,1.035,1.973,1.973,0,0,0,1.242.363,1.92,1.92,0,0,0,1.141-.285A.883.883,0,0,0,29,21.7Zm7.242,2.453a3.928,3.928,0,0,1-2.926-1.137A4.124,4.124,0,0,1,32.2,19.992v-.234a5.072,5.072,0,0,1,.488-2.262,3.716,3.716,0,0,1,1.371-1.551,3.625,3.625,0,0,1,1.969-.555,3.318,3.318,0,0,1,2.668,1.1,4.658,4.658,0,0,1,.941,3.117v.766H34.109a2.539,2.539,0,0,0,.7,1.656,2.1,2.1,0,0,0,1.543.609,2.571,2.571,0,0,0,2.125-1.055l1.023.977a3.418,3.418,0,0,1-1.355,1.176A4.244,4.244,0,0,1,36.242,24.156Zm-.227-7.242a1.6,1.6,0,0,0-1.262.547,2.835,2.835,0,0,0-.613,1.523h3.617v-.141A2.307,2.307,0,0,0,37.25,17.4,1.586,1.586,0,0,0,36.016,16.914Z" transform="translate(610 7787.033)" fill="#12263f"/>
    <path id="Trazado_600991" data-name="Trazado 600991" d="M5.206,28.212l.281,60.467A2.123,2.123,0,0,0,6.6,90.537L54.9,115.825a2.134,2.134,0,0,0,1.005.253h0a2.155,2.155,0,0,0,.5.437,2.115,2.115,0,0,0,2.094.044L106.186,90.7a2.127,2.127,0,0,0,1.113-1.865V25.922c0-.018-.007-.035-.007-.055s0-.03,0-.047c0-.061-.027-.116-.031-.175a2.341,2.341,0,0,0-.066-.344c-.025-.078-.058-.147-.09-.222a1.96,1.96,0,0,0-.147-.287,2.025,2.025,0,0,0-.148-.2,2.064,2.064,0,0,0-.215-.23,1.989,1.989,0,0,0-.2-.157c-.045-.031-.083-.075-.133-.1a1.535,1.535,0,0,0-.147-.064c-.041-.021-.074-.051-.115-.069L56.865.167a2.126,2.126,0,0,0-1.778.059L6.514,25.548a2.123,2.123,0,0,0-1.166,1.885c0,.013.006.024.006.035A2.138,2.138,0,0,0,5.206,28.212Zm95.074-2.057L57.472,50.09,12.14,27.462,56.117,4.455ZM59.615,111.134V53.752l43.443-24.278v58.09Z" transform="translate(975.794 7781.773)"/>
    <path id="Trazado_601019" data-name="Trazado 601019" d="M-10.129-5.391a6.979,6.979,0,0,1-.578,2.934A4.371,4.371,0,0,1-12.359-.52a4.545,4.545,0,0,1-2.473.676A4.556,4.556,0,0,1-17.3-.52a4.438,4.438,0,0,1-1.672-1.926,6.761,6.761,0,0,1-.6-2.883v-.641a6.919,6.919,0,0,1,.59-2.937,4.433,4.433,0,0,1,1.664-1.949,4.531,4.531,0,0,1,2.465-.676,4.57,4.57,0,0,1,2.465.668,4.377,4.377,0,0,1,1.66,1.922,6.9,6.9,0,0,1,.594,2.918Zm-1.977-.594a4.973,4.973,0,0,0-.715-2.9,2.339,2.339,0,0,0-2.027-1.008,2.332,2.332,0,0,0-2,1,4.876,4.876,0,0,0-.738,2.84v.656a4.935,4.935,0,0,0,.73,2.9,2.352,2.352,0,0,0,2.027,1.023,2.325,2.325,0,0,0,2.02-1,5.041,5.041,0,0,0,.707-2.922Zm5.922,4.406H-1.02V0H-8.16V-11.375h1.977Zm13.2-1.07H2.605L1.684,0H-.371l4.3-11.375H5.7L10,0H7.941ZM3.16-4.242h3.3L4.809-8.961Zm10.109.016V0H11.293V-11.375h4.352a4.4,4.4,0,0,1,3.027.992,3.334,3.334,0,0,1,1.121,2.625,3.224,3.224,0,0,1-1.1,2.6,4.617,4.617,0,0,1-3.074.93Zm0-1.586h2.375a2.339,2.339,0,0,0,1.609-.5,1.823,1.823,0,0,0,.555-1.434,1.967,1.967,0,0,0-.562-1.473A2.168,2.168,0,0,0,15.7-9.781H13.27Z" transform="translate(1006 7855.587)" fill="#fff"/>
    <path id="Trazado_601016" data-name="Trazado 601016" d="M-41.754-3.7A4.107,4.107,0,0,1-43.1-.863,4.581,4.581,0,0,1-46.215.156a4.436,4.436,0,0,1-2.395-.645,4.231,4.231,0,0,1-1.6-1.832,6.611,6.611,0,0,1-.586-2.758V-6.141a6.659,6.659,0,0,1,.57-2.836,4.3,4.3,0,0,1,1.637-1.891,4.566,4.566,0,0,1,2.465-.664,4.386,4.386,0,0,1,3.031,1.023,4.276,4.276,0,0,1,1.336,2.891h-1.969a2.81,2.81,0,0,0-.715-1.77,2.363,2.363,0,0,0-1.684-.543,2.309,2.309,0,0,0-1.98.941,4.7,4.7,0,0,0-.707,2.762v1.008a4.988,4.988,0,0,0,.66,2.813,2.191,2.191,0,0,0,1.934.969,2.555,2.555,0,0,0,1.75-.523A2.729,2.729,0,0,0-43.723-3.7Zm6.7,2.875a2.944,2.944,0,0,1-2.375.984,2.624,2.624,0,0,1-2.082-.8,3.423,3.423,0,0,1-.707-2.328V-8.453h1.9V-3q0,1.609,1.336,1.609a1.876,1.876,0,0,0,1.867-.992v-6.07h1.9V0H-35Zm11.188-3.312a5.078,5.078,0,0,1-.879,3.133A2.863,2.863,0,0,1-27.16.156a2.758,2.758,0,0,1-2.312-1.07L-29.566,0h-1.719V-12h1.9v4.359a2.748,2.748,0,0,1,2.211-.969,2.9,2.9,0,0,1,2.43,1.148,5.162,5.162,0,0,1,.883,3.211Zm-1.9-.164a3.589,3.589,0,0,0-.484-2.062,1.613,1.613,0,0,0-1.406-.687,1.763,1.763,0,0,0-1.734,1.078v3.484a1.781,1.781,0,0,0,1.75,1.1,1.6,1.6,0,0,0,1.375-.664,3.477,3.477,0,0,0,.5-2.008Zm3.133,0a4.984,4.984,0,0,1,.492-2.238,3.6,3.6,0,0,1,1.383-1.531,3.9,3.9,0,0,1,2.047-.535,3.692,3.692,0,0,1,2.777,1.1,4.333,4.333,0,0,1,1.152,2.922l.008.445a5.029,5.029,0,0,1-.48,2.234A3.551,3.551,0,0,1-16.625-.383a3.925,3.925,0,0,1-2.066.539,3.667,3.667,0,0,1-2.863-1.191,4.563,4.563,0,0,1-1.074-3.176Zm1.9.164A3.406,3.406,0,0,0-20.191-2.1a1.752,1.752,0,0,0,1.5.738,1.733,1.733,0,0,0,1.5-.75,3.762,3.762,0,0,0,.535-2.2,3.362,3.362,0,0,0-.551-2.031,1.759,1.759,0,0,0-1.5-.75,1.743,1.743,0,0,0-1.477.738A3.691,3.691,0,0,0-20.73-4.141Zm11.2-.148a5.026,5.026,0,0,1,.906-3.137A2.9,2.9,0,0,1-6.2-8.609a2.759,2.759,0,0,1,2.172.938V-12h1.9V0H-3.848l-.094-.875A2.8,2.8,0,0,1-6.215.156a2.887,2.887,0,0,1-2.4-1.2A5.21,5.21,0,0,1-9.535-4.289Zm1.9.164a3.519,3.519,0,0,0,.5,2.012,1.61,1.61,0,0,0,1.41.723,1.793,1.793,0,0,0,1.7-1.039V-6.039A1.766,1.766,0,0,0-5.715-7.055a1.622,1.622,0,0,0-1.422.73A3.918,3.918,0,0,0-7.637-4.125ZM3.574.156A3.928,3.928,0,0,1,.648-.98,4.124,4.124,0,0,1-.473-4.008v-.234A5.072,5.072,0,0,1,.016-6.5,3.716,3.716,0,0,1,1.387-8.055a3.625,3.625,0,0,1,1.969-.555,3.318,3.318,0,0,1,2.668,1.1,4.658,4.658,0,0,1,.941,3.117v.766H1.441a2.539,2.539,0,0,0,.7,1.656,2.1,2.1,0,0,0,1.543.609A2.571,2.571,0,0,0,5.809-2.414l1.023.977A3.418,3.418,0,0,1,5.477-.262,4.244,4.244,0,0,1,3.574.156ZM3.348-7.086a1.6,1.6,0,0,0-1.262.547,2.835,2.835,0,0,0-.613,1.523H5.09v-.141A2.307,2.307,0,0,0,4.582-6.6,1.586,1.586,0,0,0,3.348-7.086Zm8.719,2.8a5.026,5.026,0,0,1,.906-3.137A2.9,2.9,0,0,1,15.4-8.609a2.759,2.759,0,0,1,2.172.938V-12h1.9V0H17.754L17.66-.875A2.8,2.8,0,0,1,15.387.156a2.887,2.887,0,0,1-2.4-1.2A5.21,5.21,0,0,1,12.066-4.289Zm1.9.164a3.519,3.519,0,0,0,.5,2.012,1.61,1.61,0,0,0,1.41.723,1.793,1.793,0,0,0,1.7-1.039V-6.039a1.766,1.766,0,0,0-1.687-1.016,1.622,1.622,0,0,0-1.422.73A3.919,3.919,0,0,0,13.965-4.125ZM26.5,0a2.93,2.93,0,0,1-.219-.789,2.955,2.955,0,0,1-2.219.945A2.982,2.982,0,0,1,21.988-.57a2.325,2.325,0,0,1-.8-1.8,2.4,2.4,0,0,1,1-2.074,4.865,4.865,0,0,1,2.871-.723h1.164v-.555a1.481,1.481,0,0,0-.367-1.051,1.456,1.456,0,0,0-1.117-.395,1.672,1.672,0,0,0-1.062.324,1,1,0,0,0-.414.824h-1.9a2.107,2.107,0,0,1,.461-1.3,3.071,3.071,0,0,1,1.254-.949,4.4,4.4,0,0,1,1.77-.344,3.547,3.547,0,0,1,2.367.746,2.661,2.661,0,0,1,.906,2.1v3.813a4.321,4.321,0,0,0,.32,1.82V0ZM24.418-1.367a2.159,2.159,0,0,0,1.059-.273,1.827,1.827,0,0,0,.746-.734V-3.969H25.2a2.8,2.8,0,0,0-1.586.367,1.189,1.189,0,0,0-.531,1.039,1.109,1.109,0,0,0,.363.871A1.407,1.407,0,0,0,24.418-1.367Zm8.07-9.141v2.055H33.98v1.406H32.488v4.719a1.039,1.039,0,0,0,.191.7.888.888,0,0,0,.684.215,2.924,2.924,0,0,0,.664-.078V-.023a4.676,4.676,0,0,1-1.25.18q-2.188,0-2.187-2.414V-7.047H29.2V-8.453H30.59v-2.055ZM34.84-4.3a4.984,4.984,0,0,1,.492-2.238,3.6,3.6,0,0,1,1.383-1.531,3.9,3.9,0,0,1,2.047-.535,3.692,3.692,0,0,1,2.777,1.1,4.333,4.333,0,0,1,1.152,2.922l.008.445a5.029,5.029,0,0,1-.48,2.234A3.551,3.551,0,0,1,40.844-.383a3.925,3.925,0,0,1-2.066.539,3.667,3.667,0,0,1-2.863-1.191A4.563,4.563,0,0,1,34.84-4.211Zm1.9.164A3.406,3.406,0,0,0,37.277-2.1a1.752,1.752,0,0,0,1.5.738,1.733,1.733,0,0,0,1.5-.75,3.762,3.762,0,0,0,.535-2.2,3.362,3.362,0,0,0-.551-2.031,1.759,1.759,0,0,0-1.5-.75,1.743,1.743,0,0,0-1.477.738A3.691,3.691,0,0,0,36.738-4.141ZM49.043-2.3a.861.861,0,0,0-.418-.773,4.445,4.445,0,0,0-1.387-.469,7.129,7.129,0,0,1-1.617-.516A2.158,2.158,0,0,1,44.2-6.047a2.25,2.25,0,0,1,.922-1.828,3.644,3.644,0,0,1,2.344-.734,3.792,3.792,0,0,1,2.449.75,2.38,2.38,0,0,1,.934,1.945h-1.9a1.17,1.17,0,0,0-.406-.91,1.557,1.557,0,0,0-1.078-.363,1.682,1.682,0,0,0-1.02.289.911.911,0,0,0-.395.773.769.769,0,0,0,.367.68,5.049,5.049,0,0,0,1.484.488,7.027,7.027,0,0,1,1.754.586,2.484,2.484,0,0,1,.945.816A2.082,2.082,0,0,1,50.91-2.4a2.2,2.2,0,0,1-.945,1.848,4.031,4.031,0,0,1-2.477.707,4.371,4.371,0,0,1-1.852-.375A3.047,3.047,0,0,1,44.371-1.25a2.441,2.441,0,0,1-.453-1.414h1.844a1.338,1.338,0,0,0,.508,1.035,1.973,1.973,0,0,0,1.242.363,1.92,1.92,0,0,0,1.141-.285A.883.883,0,0,0,49.043-2.3Z" transform="translate(1026 7919.033)" fill="#12263f"/>
    <path id="Trazado_600989-2" data-name="Trazado 600989" d="M-1554-4827h82.055" transform="translate(2638.5 12711.533)" fill="none" stroke="#707070" stroke-width="1"/>
    <path id="Trazado_601701" data-name="Trazado 601701" d="M6.5,0,13,12H0Z" transform="translate(1171 7878.033) rotate(90)"/>
    <g id="Trazado_601020" data-name="Trazado 601020" transform="translate(1191 7720.033)" fill="#fff">
      <path d="M 189.5 330.5 L 0.5 330.5 L 0.5 0.5 L 189.5 0.5 L 189.5 330.5 Z" stroke="none"/>
      <path d="M 1 1 L 1 330 L 189 330 L 189 1 L 1 1 M 0 0 L 190 0 L 190 331 L 0 331 L 0 0 Z" stroke="none" fill="#000"/>
    </g>
    <path id="Trazado_601022" data-name="Trazado 601022" d="M-21.41-4.333a4.673,4.673,0,0,1-.721,2.36,4.35,4.35,0,0,1-1.85,1.586A6.3,6.3,0,0,1-26.7.176a5.025,5.025,0,0,1-3.973-1.644,6.786,6.786,0,0,1-1.45-4.641v-.633a7.746,7.746,0,0,1,.655-3.292,4.961,4.961,0,0,1,1.885-2.18,5.26,5.26,0,0,1,2.848-.769,5.516,5.516,0,0,1,3.744,1.226,4.844,4.844,0,0,1,1.608,3.379H-24.46a2.292,2.292,0,0,0-.589-1.679,2.422,2.422,0,0,0-1.687-.51,1.843,1.843,0,0,0-1.687.861,5.536,5.536,0,0,0-.562,2.751v.905a6.126,6.126,0,0,0,.514,2.927,1.882,1.882,0,0,0,1.771.879,2.369,2.369,0,0,0,1.626-.5,2.126,2.126,0,0,0,.6-1.591ZM-14.73,0a3.344,3.344,0,0,1-.281-.853A2.754,2.754,0,0,1-17.3.176a3.374,3.374,0,0,1-2.285-.813,2.588,2.588,0,0,1-.94-2.043A2.66,2.66,0,0,1-19.38-5.019a5.821,5.821,0,0,1,3.322-.791h.914v-.5q0-1.31-1.134-1.31a.925.925,0,0,0-1.055,1.037h-2.962a2.659,2.659,0,0,1,1.173-2.241,4.927,4.927,0,0,1,2.993-.861,4.323,4.323,0,0,1,2.874.888,3.086,3.086,0,0,1,1.081,2.435v4.21a4.311,4.311,0,0,0,.4,2V0Zm-1.854-1.934a1.652,1.652,0,0,0,.918-.237,1.487,1.487,0,0,0,.523-.536V-4.228H-16q-1.547,0-1.547,1.389a.848.848,0,0,0,.272.655A.986.986,0,0,0-16.585-1.934Zm14.88-2.751a5.735,5.735,0,0,1-1,3.538A3.2,3.2,0,0,1-5.4.176,2.742,2.742,0,0,1-7.55-.782V3.656h-2.962V-9.51h2.769l.088.879A2.742,2.742,0,0,1-5.414-9.686a3.224,3.224,0,0,1,2.733,1.3,5.805,5.805,0,0,1,.976,3.564Zm-2.962-.185q0-2.531-1.477-2.531a1.394,1.394,0,0,0-1.406.756V-2.9a1.439,1.439,0,0,0,1.424.791q1.415,0,1.459-2.443ZM4.957,0a3.344,3.344,0,0,1-.281-.853A2.754,2.754,0,0,1,2.391.176,3.374,3.374,0,0,1,.105-.637a2.588,2.588,0,0,1-.94-2.043A2.66,2.66,0,0,1,.308-5.019,5.821,5.821,0,0,1,3.63-5.81h.914v-.5q0-1.31-1.134-1.31A.925.925,0,0,0,2.355-6.583H-.606A2.659,2.659,0,0,1,.567-8.824,4.927,4.927,0,0,1,3.56-9.686,4.323,4.323,0,0,1,6.434-8.8,3.086,3.086,0,0,1,7.515-6.363v4.21a4.311,4.311,0,0,0,.4,2V0ZM3.1-1.934a1.652,1.652,0,0,0,.918-.237,1.487,1.487,0,0,0,.523-.536V-4.228H3.683q-1.547,0-1.547,1.389a.848.848,0,0,0,.272.655A.986.986,0,0,0,3.1-1.934Zm10.16-2.892a5.809,5.809,0,0,1,.976-3.56,3.211,3.211,0,0,1,2.725-1.3,2.731,2.731,0,0,1,2.145,1V-13.5h2.971V0H19.415l-.149-1.02a2.8,2.8,0,0,1-2.32,1.2,3.205,3.205,0,0,1-2.689-1.3A5.993,5.993,0,0,1,13.263-4.825Zm2.962.185q0,2.531,1.477,2.531a1.458,1.458,0,0,0,1.406-.826V-6.557A1.419,1.419,0,0,0,17.719-7.4q-1.371,0-1.485,2.215ZM28.362.176A4.889,4.889,0,0,1,24.82-1.129a4.507,4.507,0,0,1-1.354-3.4v-.246a5.84,5.84,0,0,1,.541-2.575,3.955,3.955,0,0,1,1.578-1.727,4.763,4.763,0,0,1,2.461-.611A4.117,4.117,0,0,1,31.21-8.442a4.887,4.887,0,0,1,1.16,3.467v1.151H26.481a2.135,2.135,0,0,0,.694,1.257,2.066,2.066,0,0,0,1.389.457,2.662,2.662,0,0,0,2.2-.984l1.354,1.6A3.784,3.784,0,0,1,30.546-.277,5.3,5.3,0,0,1,28.362.176ZM28.028-7.4q-1.3,0-1.547,1.723H29.47v-.229a1.467,1.467,0,0,0-.36-1.1A1.434,1.434,0,0,0,28.028-7.4ZM-31.4,20.482h-1.67V25h-3.085V12.2h5.036a5.617,5.617,0,0,1,3.56,1.011,3.426,3.426,0,0,1,1.283,2.856,4.163,4.163,0,0,1-.541,2.215,3.837,3.837,0,0,1-1.692,1.424l2.672,5.159V25h-3.3Zm-1.67-2.382h1.951a1.754,1.754,0,0,0,1.323-.461,1.781,1.781,0,0,0,.444-1.288,1.8,1.8,0,0,0-.448-1.3,1.737,1.737,0,0,0-1.318-.47h-1.951Zm13.122,7.075a4.889,4.889,0,0,1-3.542-1.305,4.507,4.507,0,0,1-1.354-3.4v-.246a5.84,5.84,0,0,1,.541-2.575,3.955,3.955,0,0,1,1.578-1.727,4.763,4.763,0,0,1,2.461-.611A4.117,4.117,0,0,1-17.1,16.558a4.887,4.887,0,0,1,1.16,3.467v1.151h-5.889a2.135,2.135,0,0,0,.694,1.257,2.066,2.066,0,0,0,1.389.457,2.662,2.662,0,0,0,2.2-.984l1.354,1.6a3.784,3.784,0,0,1-1.569,1.217A5.3,5.3,0,0,1-19.947,25.176Zm-.334-7.576q-1.3,0-1.547,1.723h2.988v-.229a1.467,1.467,0,0,0-.36-1.1A1.434,1.434,0,0,0-20.281,17.6Zm14.361,2.716a5.735,5.735,0,0,1-1,3.538,3.2,3.2,0,0,1-2.694,1.323,2.742,2.742,0,0,1-2.153-.958v4.438h-2.962V15.49h2.769l.088.879a2.742,2.742,0,0,1,2.241-1.055,3.224,3.224,0,0,1,2.733,1.3,5.805,5.805,0,0,1,.976,3.564Zm-2.962-.185q0-2.531-1.477-2.531a1.394,1.394,0,0,0-1.406.756V22.1a1.439,1.439,0,0,0,1.424.791q1.415,0,1.459-2.443Zm3.894.026a5.613,5.613,0,0,1,.554-2.536,3.96,3.96,0,0,1,1.591-1.709,4.791,4.791,0,0,1,2.435-.6,4.373,4.373,0,0,1,3.366,1.323,5.076,5.076,0,0,1,1.23,3.6v.105a4.925,4.925,0,0,1-1.235,3.529A4.384,4.384,0,0,1-.391,25.176a4.434,4.434,0,0,1-3.261-1.217,4.761,4.761,0,0,1-1.327-3.3Zm2.962.185a3.538,3.538,0,0,0,.413,1.934,1.376,1.376,0,0,0,1.222.615q1.582,0,1.617-2.435v-.3q0-2.558-1.635-2.558-1.485,0-1.608,2.206Zm13.271-2.171-.976-.07a1.752,1.752,0,0,0-1.793.879V25H5.515V15.49H8.292l.1,1.222a2.294,2.294,0,0,1,2.083-1.4,2.888,2.888,0,0,1,.826.105ZM16.2,13.126V15.49h1.564v2.057H16.2V21.9a1.111,1.111,0,0,0,.193.747,1.037,1.037,0,0,0,.765.211A4.345,4.345,0,0,0,17.9,22.8v2.118a5.466,5.466,0,0,1-1.67.255,3.1,3.1,0,0,1-2.259-.721,2.954,2.954,0,0,1-.729-2.188v-4.72H12.028V15.49h1.213V13.126Zm7.33,12.05a4.889,4.889,0,0,1-3.542-1.305,4.507,4.507,0,0,1-1.354-3.4v-.246a5.84,5.84,0,0,1,.541-2.575,3.955,3.955,0,0,1,1.578-1.727,4.763,4.763,0,0,1,2.461-.611,4.117,4.117,0,0,1,3.164,1.244,4.887,4.887,0,0,1,1.16,3.467v1.151H21.652a2.135,2.135,0,0,0,.694,1.257,2.066,2.066,0,0,0,1.389.457,2.662,2.662,0,0,0,2.2-.984l1.354,1.6a3.784,3.784,0,0,1-1.569,1.217A5.3,5.3,0,0,1,23.533,25.176ZM23.2,17.6q-1.3,0-1.547,1.723H24.64v-.229a1.467,1.467,0,0,0-.36-1.1A1.434,1.434,0,0,0,23.2,17.6ZM33.71,22.328a.684.684,0,0,0-.4-.606,6.016,6.016,0,0,0-1.5-.475,6.853,6.853,0,0,1-1.828-.646,3.062,3.062,0,0,1-1.1-.971,2.319,2.319,0,0,1-.378-1.31,2.628,2.628,0,0,1,1.081-2.158,4.453,4.453,0,0,1,2.83-.848,4.934,4.934,0,0,1,3.023.853,2.666,2.666,0,0,1,1.143,2.241H33.614q0-1.143-1.2-1.143a1.194,1.194,0,0,0-.782.259.8.8,0,0,0-.316.646.737.737,0,0,0,.387.642,3.654,3.654,0,0,0,1.235.4,10.671,10.671,0,0,1,1.49.378,2.706,2.706,0,0,1,2.145,2.646,2.491,2.491,0,0,1-1.156,2.118,5.068,5.068,0,0,1-2.993.817,5.172,5.172,0,0,1-2.18-.439,3.645,3.645,0,0,1-1.494-1.2,2.707,2.707,0,0,1-.536-1.591h2.769a1.145,1.145,0,0,0,.439.962,1.808,1.808,0,0,0,1.081.3,1.422,1.422,0,0,0,.91-.246A.787.787,0,0,0,33.71,22.328Z" transform="translate(1286 7875.033)" fill="#12263f"/>
    <path id="Trazado_601017" data-name="Trazado 601017" d="M-5.98-5.078h-4.672v3.5h5.461V0h-7.437V-11.375h7.383v1.594h-5.406v3.141H-5.98Zm10.773-4.7H1.246V0H-.715V-9.781H-4.23v-1.594H4.793Zm3.469,8.2h5.164V0H6.285V-11.375H8.262Z" transform="translate(481 7864.033)" fill="#12263f"/>
    <path id="Trazado_600988-2" data-name="Trazado 600988" d="M0,0H82.055" transform="matrix(0.891, -0.454, 0.454, 0.891, 687.951, 7885.242)" fill="none" stroke="#707070" stroke-width="1"/>
    <path id="Trazado_601706" data-name="Trazado 601706" d="M6.5,0,13,12H0Z" transform="matrix(0.454, 0.891, -0.891, 0.454, 762.072, 7840.18)"/>
    <path id="Trazado_601705" data-name="Trazado 601705" d="M36,0C55.882,0,72,6.716,72,15S55.882,30,36,30,0,23.284,0,15,16.118,0,36,0Z" transform="translate(777 7835.877)" fill="#0573ce"/>
    <path id="Trazado_600963" data-name="Trazado 600963" d="M69.625,85.156v18c0,8.284,16.118,15,36,15s36-6.716,36-15v-18Z" transform="translate(707.375 7741.721)" fill="#528fd8"/>
    <path id="Trazado_601708" data-name="Trazado 601708" d="M36,0C55.882,0,72,6.716,72,15S55.882,30,36,30,0,23.284,0,15,16.118,0,36,0Z" transform="translate(777 7811.877)" fill="#b2caec"/>
    <path id="Trazado_600964" data-name="Trazado 600964" d="M149.338,26.167c3.09,2.213,4.86,4.786,4.86,7.531,0,8.284-16.118,15-36,15a71.414,71.414,0,0,1-23.414-3.606c6.235,4.466,17.846,7.469,31.14,7.469,19.882,0,36-6.716,36-15C161.924,33,157.043,28.918,149.338,26.167Z" transform="translate(687.076 7789.315)" fill="#82aee3"/>
    <path id="Trazado_600969" data-name="Trazado 600969" d="M398,112.872c5.346-2.617,8.571-6.01,8.571-9.716v-18" transform="translate(442.429 7741.721)" fill="none" stroke="#000" stroke-linecap="round" stroke-linejoin="round" stroke-miterlimit="10" stroke-width="1.5"/>
    <path id="Trazado_600970" data-name="Trazado 600970" d="M69.625,85.156v18c0,8.284,16.118,15,36,15a74.55,74.55,0,0,0,20.954-2.8" transform="translate(707.375 7741.721)" fill="none" stroke="#000" stroke-linecap="round" stroke-linejoin="round" stroke-miterlimit="10" stroke-width="1.5"/>
    <path id="Trazado_600971" data-name="Trazado 600971" d="M100.687,174.691c4.282,2.684,10.583,4.76,18,5.852" transform="translate(682.313 7669.48)" fill="none" stroke="#000" stroke-linecap="round" stroke-linejoin="round" stroke-miterlimit="10" stroke-width="1.5"/>
    <path id="Trazado_600972" data-name="Trazado 600972" d="M77.547,13.111C84.145,9.69,94.271,7.5,105.625,7.5c19.882,0,36,6.716,36,15s-16.118,15-36,15-36-6.716-36-15a7.936,7.936,0,0,1,2.354-5.346" transform="translate(707.375 7804.377)" fill="none" stroke="#000" stroke-linecap="round" stroke-linejoin="round" stroke-miterlimit="10" stroke-width="1.5"/>
    <g id="Grupo_1064295" data-name="Grupo 1064295" transform="translate(840 7844.877)">
      <line id="Línea_374" data-name="Línea 374" fill="none" stroke="#000" stroke-linecap="round" stroke-linejoin="round" stroke-miterlimit="10" stroke-width="1.5"/>
    </g>
    <g id="Grupo_1064297" data-name="Grupo 1064297" transform="translate(831 7847.877)">
      <line id="Línea_375" data-name="Línea 375" fill="none" stroke="#000" stroke-linecap="round" stroke-linejoin="round" stroke-miterlimit="10" stroke-width="1.5"/>
    </g>
    <path id="Trazado_600973" data-name="Trazado 600973" d="M70.345,193.875a6.8,6.8,0,0,0-.72,3c0,8.284,16.118,15,36,15s36-6.716,36-15a6.8,6.8,0,0,0-.72-3" transform="translate(707.375 7654.002)" fill="none" stroke="#000" stroke-linecap="round" stroke-linejoin="round" stroke-miterlimit="10" stroke-width="1.5"/>
    <path id="Trazado_601008" data-name="Trazado 601008" d="M-32.121,0V-11.375h3.211a5.169,5.169,0,0,1,2.625.656,4.438,4.438,0,0,1,1.762,1.867,6.078,6.078,0,0,1,.629,2.781v.727a6.1,6.1,0,0,1-.621,2.82A4.369,4.369,0,0,1-26.289-.664,5.5,5.5,0,0,1-28.973,0Zm1.5-10.141v8.914h1.578a3.435,3.435,0,0,0,2.7-1.078,4.452,4.452,0,0,0,.965-3.07v-.664a4.522,4.522,0,0,0-.91-3.012,3.24,3.24,0,0,0-2.582-1.09ZM-16.637,0a3.036,3.036,0,0,1-.2-.891A3.225,3.225,0,0,1-19.246.156,2.984,2.984,0,0,1-21.3-.551a2.287,2.287,0,0,1-.8-1.793,2.39,2.39,0,0,1,1-2.051,4.733,4.733,0,0,1,2.824-.73h1.406v-.664A1.623,1.623,0,0,0-17.316-7a1.821,1.821,0,0,0-1.336-.449,2.108,2.108,0,0,0-1.3.391,1.151,1.151,0,0,0-.523.945h-1.453a2,2,0,0,1,.449-1.223,3.066,3.066,0,0,1,1.219-.934,4.1,4.1,0,0,1,1.691-.344,3.342,3.342,0,0,1,2.289.73,2.635,2.635,0,0,1,.859,2.012v3.891a4.757,4.757,0,0,0,.3,1.852V0Zm-2.4-1.1a2.54,2.54,0,0,0,1.289-.352,2.127,2.127,0,0,0,.883-.914V-4.1H-18q-2.656,0-2.656,1.555A1.316,1.316,0,0,0-20.2-1.484,1.742,1.742,0,0,0-19.035-1.1Zm7.844-9.4v2.047h1.578v1.117h-1.578v5.242a1.171,1.171,0,0,0,.211.762.888.888,0,0,0,.719.254,3.5,3.5,0,0,0,.688-.094V0a4.19,4.19,0,0,1-1.109.156A1.8,1.8,0,0,1-12.145-.43a2.517,2.517,0,0,1-.492-1.664V-7.336h-1.539V-8.453h1.539V-10.5ZM-2.707,0a3.036,3.036,0,0,1-.2-.891A3.225,3.225,0,0,1-5.316.156,2.984,2.984,0,0,1-7.367-.551a2.287,2.287,0,0,1-.8-1.793,2.39,2.39,0,0,1,1-2.051,4.733,4.733,0,0,1,2.824-.73h1.406v-.664A1.623,1.623,0,0,0-3.387-7a1.821,1.821,0,0,0-1.336-.449,2.107,2.107,0,0,0-1.3.391,1.151,1.151,0,0,0-.523.945H-8a2,2,0,0,1,.449-1.223,3.066,3.066,0,0,1,1.219-.934,4.1,4.1,0,0,1,1.691-.344,3.342,3.342,0,0,1,2.289.73,2.635,2.635,0,0,1,.859,2.012v3.891a4.757,4.757,0,0,0,.3,1.852V0Zm-2.4-1.1a2.54,2.54,0,0,0,1.289-.352,2.127,2.127,0,0,0,.883-.914V-4.1H-4.066q-2.656,0-2.656,1.555A1.316,1.316,0,0,0-6.27-1.484,1.742,1.742,0,0,0-5.105-1.1ZM2.137-8.453l.039.938A3.122,3.122,0,0,1,4.684-8.609,2.417,2.417,0,0,1,7.1-7.25a3.2,3.2,0,0,1,1.1-.984,3.242,3.242,0,0,1,1.6-.375q2.781,0,2.828,2.945V0H11.176V-5.578a1.941,1.941,0,0,0-.414-1.355,1.823,1.823,0,0,0-1.391-.449,1.916,1.916,0,0,0-1.336.48,1.949,1.949,0,0,0-.617,1.293V0H5.965V-5.539a1.613,1.613,0,0,0-1.8-1.844A1.934,1.934,0,0,0,2.215-6.172V0H.77V-8.453ZM20.02,0a3.036,3.036,0,0,1-.2-.891A3.225,3.225,0,0,1,17.41.156a2.984,2.984,0,0,1-2.051-.707,2.287,2.287,0,0,1-.8-1.793,2.39,2.39,0,0,1,1-2.051,4.733,4.733,0,0,1,2.824-.73h1.406v-.664A1.623,1.623,0,0,0,19.34-7,1.821,1.821,0,0,0,18-7.445a2.108,2.108,0,0,0-1.3.391,1.151,1.151,0,0,0-.523.945H14.73a2,2,0,0,1,.449-1.223A3.066,3.066,0,0,1,16.4-8.266a4.1,4.1,0,0,1,1.691-.344,3.342,3.342,0,0,1,2.289.73,2.635,2.635,0,0,1,.859,2.012v3.891a4.757,4.757,0,0,0,.3,1.852V0Zm-2.4-1.1a2.54,2.54,0,0,0,1.289-.352,2.127,2.127,0,0,0,.883-.914V-4.1H18.66Q16-4.1,16-2.547a1.316,1.316,0,0,0,.453,1.063A1.742,1.742,0,0,0,17.621-1.1ZM27.59-7.156a4.331,4.331,0,0,0-.711-.055A1.9,1.9,0,0,0,24.949-6V0H23.5V-8.453H24.91l.023.977a2.251,2.251,0,0,1,2.016-1.133,1.477,1.477,0,0,1,.641.109ZM31.27-10.5v2.047h1.578v1.117H31.27v5.242a1.171,1.171,0,0,0,.211.762.888.888,0,0,0,.719.254,3.5,3.5,0,0,0,.688-.094V0a4.19,4.19,0,0,1-1.109.156A1.8,1.8,0,0,1,30.316-.43a2.517,2.517,0,0,1-.492-1.664V-7.336H28.285V-8.453h1.539V-10.5Z" transform="translate(813 7885.377)" fill="#12263f"/>
    <path id="Trazado_601698" data-name="Trazado 601698" d="M36,0C55.882,0,72,6.716,72,15S55.882,30,36,30,0,23.284,0,15,16.118,0,36,0Z" transform="translate(777 7987.308)" fill="#0573ce"/>
    <path id="Trazado_600963-2" data-name="Trazado 600963" d="M69.625,85.156v18c0,8.284,16.118,15,36,15s36-6.716,36-15v-18Z" transform="translate(707.375 7893.152)" fill="#528fd8"/>
    <path id="Trazado_601699" data-name="Trazado 601699" d="M36,0C55.882,0,72,6.716,72,15S55.882,30,36,30,0,23.284,0,15,16.118,0,36,0Z" transform="translate(777 7963.308)" fill="#b2caec"/>
    <path id="Trazado_600964-2" data-name="Trazado 600964" d="M149.338,26.167c3.09,2.213,4.86,4.786,4.86,7.531,0,8.284-16.118,15-36,15a71.414,71.414,0,0,1-23.414-3.606c6.235,4.466,17.846,7.469,31.14,7.469,19.882,0,36-6.716,36-15C161.924,33,157.043,28.918,149.338,26.167Z" transform="translate(687.076 7940.747)" fill="#82aee3"/>
    <path id="Trazado_600969-2" data-name="Trazado 600969" d="M398,112.872c5.346-2.617,8.571-6.01,8.571-9.716v-18" transform="translate(442.429 7893.152)" fill="none" stroke="#000" stroke-linecap="round" stroke-linejoin="round" stroke-miterlimit="10" stroke-width="1.5"/>
    <path id="Trazado_600970-2" data-name="Trazado 600970" d="M69.625,85.156v18c0,8.284,16.118,15,36,15a74.55,74.55,0,0,0,20.954-2.8" transform="translate(707.375 7893.152)" fill="none" stroke="#000" stroke-linecap="round" stroke-linejoin="round" stroke-miterlimit="10" stroke-width="1.5"/>
    <path id="Trazado_600971-2" data-name="Trazado 600971" d="M100.687,174.691c4.282,2.684,10.583,4.76,18,5.852" transform="translate(682.313 7820.912)" fill="none" stroke="#000" stroke-linecap="round" stroke-linejoin="round" stroke-miterlimit="10" stroke-width="1.5"/>
    <path id="Trazado_600972-2" data-name="Trazado 600972" d="M77.547,13.111C84.145,9.69,94.271,7.5,105.625,7.5c19.882,0,36,6.716,36,15s-16.118,15-36,15-36-6.716-36-15a7.936,7.936,0,0,1,2.354-5.346" transform="translate(707.375 7955.808)" fill="none" stroke="#000" stroke-linecap="round" stroke-linejoin="round" stroke-miterlimit="10" stroke-width="1.5"/>
    <g id="Grupo_1064295-2" data-name="Grupo 1064295" transform="translate(840 7996.308)">
      <line id="Línea_374-2" data-name="Línea 374" fill="none" stroke="#000" stroke-linecap="round" stroke-linejoin="round" stroke-miterlimit="10" stroke-width="1.5"/>
    </g>
    <g id="Grupo_1064297-2" data-name="Grupo 1064297" transform="translate(831 7999.308)">
      <line id="Línea_375-2" data-name="Línea 375" fill="none" stroke="#000" stroke-linecap="round" stroke-linejoin="round" stroke-miterlimit="10" stroke-width="1.5"/>
    </g>
    <path id="Trazado_600973-2" data-name="Trazado 600973" d="M70.345,193.875a6.8,6.8,0,0,0-.72,3c0,8.284,16.118,15,36,15s36-6.716,36-15a6.8,6.8,0,0,0-.72-3" transform="translate(707.375 7805.433)" fill="none" stroke="#000" stroke-linecap="round" stroke-linejoin="round" stroke-miterlimit="10" stroke-width="1.5"/>
    <path id="Trazado_601009" data-name="Trazado 601009" d="M-32.121,0V-11.375h3.211a5.169,5.169,0,0,1,2.625.656,4.438,4.438,0,0,1,1.762,1.867,6.078,6.078,0,0,1,.629,2.781v.727a6.1,6.1,0,0,1-.621,2.82A4.369,4.369,0,0,1-26.289-.664,5.5,5.5,0,0,1-28.973,0Zm1.5-10.141v8.914h1.578a3.435,3.435,0,0,0,2.7-1.078,4.452,4.452,0,0,0,.965-3.07v-.664a4.522,4.522,0,0,0-.91-3.012,3.24,3.24,0,0,0-2.582-1.09ZM-16.637,0a3.036,3.036,0,0,1-.2-.891A3.225,3.225,0,0,1-19.246.156,2.984,2.984,0,0,1-21.3-.551a2.287,2.287,0,0,1-.8-1.793,2.39,2.39,0,0,1,1-2.051,4.733,4.733,0,0,1,2.824-.73h1.406v-.664A1.623,1.623,0,0,0-17.316-7a1.821,1.821,0,0,0-1.336-.449,2.108,2.108,0,0,0-1.3.391,1.151,1.151,0,0,0-.523.945h-1.453a2,2,0,0,1,.449-1.223,3.066,3.066,0,0,1,1.219-.934,4.1,4.1,0,0,1,1.691-.344,3.342,3.342,0,0,1,2.289.73,2.635,2.635,0,0,1,.859,2.012v3.891a4.757,4.757,0,0,0,.3,1.852V0Zm-2.4-1.1a2.54,2.54,0,0,0,1.289-.352,2.127,2.127,0,0,0,.883-.914V-4.1H-18q-2.656,0-2.656,1.555A1.316,1.316,0,0,0-20.2-1.484,1.742,1.742,0,0,0-19.035-1.1Zm7.844-9.4v2.047h1.578v1.117h-1.578v5.242a1.171,1.171,0,0,0,.211.762.888.888,0,0,0,.719.254,3.5,3.5,0,0,0,.688-.094V0a4.19,4.19,0,0,1-1.109.156A1.8,1.8,0,0,1-12.145-.43a2.517,2.517,0,0,1-.492-1.664V-7.336h-1.539V-8.453h1.539V-10.5ZM-2.707,0a3.036,3.036,0,0,1-.2-.891A3.225,3.225,0,0,1-5.316.156,2.984,2.984,0,0,1-7.367-.551a2.287,2.287,0,0,1-.8-1.793,2.39,2.39,0,0,1,1-2.051,4.733,4.733,0,0,1,2.824-.73h1.406v-.664A1.623,1.623,0,0,0-3.387-7a1.821,1.821,0,0,0-1.336-.449,2.107,2.107,0,0,0-1.3.391,1.151,1.151,0,0,0-.523.945H-8a2,2,0,0,1,.449-1.223,3.066,3.066,0,0,1,1.219-.934,4.1,4.1,0,0,1,1.691-.344,3.342,3.342,0,0,1,2.289.73,2.635,2.635,0,0,1,.859,2.012v3.891a4.757,4.757,0,0,0,.3,1.852V0Zm-2.4-1.1a2.54,2.54,0,0,0,1.289-.352,2.127,2.127,0,0,0,.883-.914V-4.1H-4.066q-2.656,0-2.656,1.555A1.316,1.316,0,0,0-6.27-1.484,1.742,1.742,0,0,0-5.105-1.1ZM2.137-8.453l.039.938A3.122,3.122,0,0,1,4.684-8.609,2.417,2.417,0,0,1,7.1-7.25a3.2,3.2,0,0,1,1.1-.984,3.242,3.242,0,0,1,1.6-.375q2.781,0,2.828,2.945V0H11.176V-5.578a1.941,1.941,0,0,0-.414-1.355,1.823,1.823,0,0,0-1.391-.449,1.916,1.916,0,0,0-1.336.48,1.949,1.949,0,0,0-.617,1.293V0H5.965V-5.539a1.613,1.613,0,0,0-1.8-1.844A1.934,1.934,0,0,0,2.215-6.172V0H.77V-8.453ZM20.02,0a3.036,3.036,0,0,1-.2-.891A3.225,3.225,0,0,1,17.41.156a2.984,2.984,0,0,1-2.051-.707,2.287,2.287,0,0,1-.8-1.793,2.39,2.39,0,0,1,1-2.051,4.733,4.733,0,0,1,2.824-.73h1.406v-.664A1.623,1.623,0,0,0,19.34-7,1.821,1.821,0,0,0,18-7.445a2.108,2.108,0,0,0-1.3.391,1.151,1.151,0,0,0-.523.945H14.73a2,2,0,0,1,.449-1.223A3.066,3.066,0,0,1,16.4-8.266a4.1,4.1,0,0,1,1.691-.344,3.342,3.342,0,0,1,2.289.73,2.635,2.635,0,0,1,.859,2.012v3.891a4.757,4.757,0,0,0,.3,1.852V0Zm-2.4-1.1a2.54,2.54,0,0,0,1.289-.352,2.127,2.127,0,0,0,.883-.914V-4.1H18.66Q16-4.1,16-2.547a1.316,1.316,0,0,0,.453,1.063A1.742,1.742,0,0,0,17.621-1.1ZM27.59-7.156a4.331,4.331,0,0,0-.711-.055A1.9,1.9,0,0,0,24.949-6V0H23.5V-8.453H24.91l.023.977a2.251,2.251,0,0,1,2.016-1.133,1.477,1.477,0,0,1,.641.109ZM31.27-10.5v2.047h1.578v1.117H31.27v5.242a1.171,1.171,0,0,0,.211.762.888.888,0,0,0,.719.254,3.5,3.5,0,0,0,.688-.094V0a4.19,4.19,0,0,1-1.109.156A1.8,1.8,0,0,1,30.316-.43a2.517,2.517,0,0,1-.492-1.664V-7.336H28.285V-8.453h1.539V-10.5Z" transform="translate(816 8038.308)" fill="#12263f"/>
    <path id="Trazado_600989-3" data-name="Trazado 600989" d="M-1554-4827h82.055" transform="translate(2421 12670.533)" fill="none" stroke="#707070" stroke-width="1"/>
    <path id="Trazado_601707" data-name="Trazado 601707" d="M6.5,0,13,12H0Z" transform="translate(953.5 7837.033) rotate(90)"/>
    <path id="Trazado_600989-4" data-name="Trazado 600989" d="M-1554-4827h82.055" transform="translate(2421 12818.387)" fill="none" stroke="#707070" stroke-width="1"/>
    <path id="Trazado_601697" data-name="Trazado 601697" d="M6.5,0,13,12H0Z" transform="translate(953.5 7984.887) rotate(90)"/>
    <path id="Trazado_600991-2" data-name="Trazado 600991" d="M5.206,28.212l.281,60.467A2.123,2.123,0,0,0,6.6,90.537L54.9,115.825a2.134,2.134,0,0,0,1.005.253h0a2.155,2.155,0,0,0,.5.437,2.115,2.115,0,0,0,2.094.044L106.186,90.7a2.127,2.127,0,0,0,1.113-1.865V25.922c0-.018-.007-.035-.007-.055s0-.03,0-.047c0-.061-.027-.116-.031-.175a2.341,2.341,0,0,0-.066-.344c-.025-.078-.058-.147-.09-.222a1.96,1.96,0,0,0-.147-.287,2.025,2.025,0,0,0-.148-.2,2.064,2.064,0,0,0-.215-.23,1.989,1.989,0,0,0-.2-.157c-.045-.031-.083-.075-.133-.1a1.535,1.535,0,0,0-.147-.064c-.041-.021-.074-.051-.115-.069L56.865.167a2.126,2.126,0,0,0-1.778.059L6.514,25.548a2.123,2.123,0,0,0-1.166,1.885c0,.013.006.024.006.035A2.138,2.138,0,0,0,5.206,28.212Zm95.074-2.057L57.472,50.09,12.14,27.462,56.117,4.455ZM59.615,111.134V53.752l43.443-24.278v58.09Z" transform="translate(975.794 7930.319)"/>
    <path id="Trazado_601014" data-name="Trazado 601014" d="M-10.129-5.391a6.979,6.979,0,0,1-.578,2.934A4.371,4.371,0,0,1-12.359-.52a4.545,4.545,0,0,1-2.473.676A4.556,4.556,0,0,1-17.3-.52a4.438,4.438,0,0,1-1.672-1.926,6.761,6.761,0,0,1-.6-2.883v-.641a6.919,6.919,0,0,1,.59-2.937,4.433,4.433,0,0,1,1.664-1.949,4.531,4.531,0,0,1,2.465-.676,4.57,4.57,0,0,1,2.465.668,4.377,4.377,0,0,1,1.66,1.922,6.9,6.9,0,0,1,.594,2.918Zm-1.977-.594a4.973,4.973,0,0,0-.715-2.9,2.339,2.339,0,0,0-2.027-1.008,2.332,2.332,0,0,0-2,1,4.876,4.876,0,0,0-.738,2.84v.656a4.935,4.935,0,0,0,.73,2.9,2.352,2.352,0,0,0,2.027,1.023,2.325,2.325,0,0,0,2.02-1,5.041,5.041,0,0,0,.707-2.922Zm5.922,4.406H-1.02V0H-8.16V-11.375h1.977Zm13.2-1.07H2.605L1.684,0H-.371l4.3-11.375H5.7L10,0H7.941ZM3.16-4.242h3.3L4.809-8.961Zm10.109.016V0H11.293V-11.375h4.352a4.4,4.4,0,0,1,3.027.992,3.334,3.334,0,0,1,1.121,2.625,3.224,3.224,0,0,1-1.1,2.6,4.617,4.617,0,0,1-3.074.93Zm0-1.586h2.375a2.339,2.339,0,0,0,1.609-.5,1.823,1.823,0,0,0,.555-1.434,1.967,1.967,0,0,0-.562-1.473A2.168,2.168,0,0,0,15.7-9.781H13.27Z" transform="translate(1006 8004.132)" fill="#fff"/>
    <path id="Trazado_601015" data-name="Trazado 601015" d="M-41.754-3.7A4.107,4.107,0,0,1-43.1-.863,4.581,4.581,0,0,1-46.215.156a4.436,4.436,0,0,1-2.395-.645,4.231,4.231,0,0,1-1.6-1.832,6.611,6.611,0,0,1-.586-2.758V-6.141a6.659,6.659,0,0,1,.57-2.836,4.3,4.3,0,0,1,1.637-1.891,4.566,4.566,0,0,1,2.465-.664,4.386,4.386,0,0,1,3.031,1.023,4.276,4.276,0,0,1,1.336,2.891h-1.969a2.81,2.81,0,0,0-.715-1.77,2.363,2.363,0,0,0-1.684-.543,2.309,2.309,0,0,0-1.98.941,4.7,4.7,0,0,0-.707,2.762v1.008a4.988,4.988,0,0,0,.66,2.813,2.191,2.191,0,0,0,1.934.969,2.555,2.555,0,0,0,1.75-.523A2.729,2.729,0,0,0-43.723-3.7Zm6.7,2.875a2.944,2.944,0,0,1-2.375.984,2.624,2.624,0,0,1-2.082-.8,3.423,3.423,0,0,1-.707-2.328V-8.453h1.9V-3q0,1.609,1.336,1.609a1.876,1.876,0,0,0,1.867-.992v-6.07h1.9V0H-35Zm11.188-3.312a5.078,5.078,0,0,1-.879,3.133A2.863,2.863,0,0,1-27.16.156a2.758,2.758,0,0,1-2.312-1.07L-29.566,0h-1.719V-12h1.9v4.359a2.748,2.748,0,0,1,2.211-.969,2.9,2.9,0,0,1,2.43,1.148,5.162,5.162,0,0,1,.883,3.211Zm-1.9-.164a3.589,3.589,0,0,0-.484-2.062,1.613,1.613,0,0,0-1.406-.687,1.763,1.763,0,0,0-1.734,1.078v3.484a1.781,1.781,0,0,0,1.75,1.1,1.6,1.6,0,0,0,1.375-.664,3.477,3.477,0,0,0,.5-2.008Zm3.133,0a4.984,4.984,0,0,1,.492-2.238,3.6,3.6,0,0,1,1.383-1.531,3.9,3.9,0,0,1,2.047-.535,3.692,3.692,0,0,1,2.777,1.1,4.333,4.333,0,0,1,1.152,2.922l.008.445a5.029,5.029,0,0,1-.48,2.234A3.551,3.551,0,0,1-16.625-.383a3.925,3.925,0,0,1-2.066.539,3.667,3.667,0,0,1-2.863-1.191,4.563,4.563,0,0,1-1.074-3.176Zm1.9.164A3.406,3.406,0,0,0-20.191-2.1a1.752,1.752,0,0,0,1.5.738,1.733,1.733,0,0,0,1.5-.75,3.762,3.762,0,0,0,.535-2.2,3.362,3.362,0,0,0-.551-2.031,1.759,1.759,0,0,0-1.5-.75,1.743,1.743,0,0,0-1.477.738A3.691,3.691,0,0,0-20.73-4.141Zm11.2-.148a5.026,5.026,0,0,1,.906-3.137A2.9,2.9,0,0,1-6.2-8.609a2.759,2.759,0,0,1,2.172.938V-12h1.9V0H-3.848l-.094-.875A2.8,2.8,0,0,1-6.215.156a2.887,2.887,0,0,1-2.4-1.2A5.21,5.21,0,0,1-9.535-4.289Zm1.9.164a3.519,3.519,0,0,0,.5,2.012,1.61,1.61,0,0,0,1.41.723,1.793,1.793,0,0,0,1.7-1.039V-6.039A1.766,1.766,0,0,0-5.715-7.055a1.622,1.622,0,0,0-1.422.73A3.918,3.918,0,0,0-7.637-4.125ZM3.574.156A3.928,3.928,0,0,1,.648-.98,4.124,4.124,0,0,1-.473-4.008v-.234A5.072,5.072,0,0,1,.016-6.5,3.716,3.716,0,0,1,1.387-8.055a3.625,3.625,0,0,1,1.969-.555,3.318,3.318,0,0,1,2.668,1.1,4.658,4.658,0,0,1,.941,3.117v.766H1.441a2.539,2.539,0,0,0,.7,1.656,2.1,2.1,0,0,0,1.543.609A2.571,2.571,0,0,0,5.809-2.414l1.023.977A3.418,3.418,0,0,1,5.477-.262,4.244,4.244,0,0,1,3.574.156ZM3.348-7.086a1.6,1.6,0,0,0-1.262.547,2.835,2.835,0,0,0-.613,1.523H5.09v-.141A2.307,2.307,0,0,0,4.582-6.6,1.586,1.586,0,0,0,3.348-7.086Zm8.719,2.8a5.026,5.026,0,0,1,.906-3.137A2.9,2.9,0,0,1,15.4-8.609a2.759,2.759,0,0,1,2.172.938V-12h1.9V0H17.754L17.66-.875A2.8,2.8,0,0,1,15.387.156a2.887,2.887,0,0,1-2.4-1.2A5.21,5.21,0,0,1,12.066-4.289Zm1.9.164a3.519,3.519,0,0,0,.5,2.012,1.61,1.61,0,0,0,1.41.723,1.793,1.793,0,0,0,1.7-1.039V-6.039a1.766,1.766,0,0,0-1.687-1.016,1.622,1.622,0,0,0-1.422.73A3.919,3.919,0,0,0,13.965-4.125ZM26.5,0a2.93,2.93,0,0,1-.219-.789,2.955,2.955,0,0,1-2.219.945A2.982,2.982,0,0,1,21.988-.57a2.325,2.325,0,0,1-.8-1.8,2.4,2.4,0,0,1,1-2.074,4.865,4.865,0,0,1,2.871-.723h1.164v-.555a1.481,1.481,0,0,0-.367-1.051,1.456,1.456,0,0,0-1.117-.395,1.672,1.672,0,0,0-1.062.324,1,1,0,0,0-.414.824h-1.9a2.107,2.107,0,0,1,.461-1.3,3.071,3.071,0,0,1,1.254-.949,4.4,4.4,0,0,1,1.77-.344,3.547,3.547,0,0,1,2.367.746,2.661,2.661,0,0,1,.906,2.1v3.813a4.321,4.321,0,0,0,.32,1.82V0ZM24.418-1.367a2.159,2.159,0,0,0,1.059-.273,1.827,1.827,0,0,0,.746-.734V-3.969H25.2a2.8,2.8,0,0,0-1.586.367,1.189,1.189,0,0,0-.531,1.039,1.109,1.109,0,0,0,.363.871A1.407,1.407,0,0,0,24.418-1.367Zm8.07-9.141v2.055H33.98v1.406H32.488v4.719a1.039,1.039,0,0,0,.191.7.888.888,0,0,0,.684.215,2.924,2.924,0,0,0,.664-.078V-.023a4.676,4.676,0,0,1-1.25.18q-2.188,0-2.187-2.414V-7.047H29.2V-8.453H30.59v-2.055ZM34.84-4.3a4.984,4.984,0,0,1,.492-2.238,3.6,3.6,0,0,1,1.383-1.531,3.9,3.9,0,0,1,2.047-.535,3.692,3.692,0,0,1,2.777,1.1,4.333,4.333,0,0,1,1.152,2.922l.008.445a5.029,5.029,0,0,1-.48,2.234A3.551,3.551,0,0,1,40.844-.383a3.925,3.925,0,0,1-2.066.539,3.667,3.667,0,0,1-2.863-1.191A4.563,4.563,0,0,1,34.84-4.211Zm1.9.164A3.406,3.406,0,0,0,37.277-2.1a1.752,1.752,0,0,0,1.5.738,1.733,1.733,0,0,0,1.5-.75,3.762,3.762,0,0,0,.535-2.2,3.362,3.362,0,0,0-.551-2.031,1.759,1.759,0,0,0-1.5-.75,1.743,1.743,0,0,0-1.477.738A3.691,3.691,0,0,0,36.738-4.141ZM49.043-2.3a.861.861,0,0,0-.418-.773,4.445,4.445,0,0,0-1.387-.469,7.129,7.129,0,0,1-1.617-.516A2.158,2.158,0,0,1,44.2-6.047a2.25,2.25,0,0,1,.922-1.828,3.644,3.644,0,0,1,2.344-.734,3.792,3.792,0,0,1,2.449.75,2.38,2.38,0,0,1,.934,1.945h-1.9a1.17,1.17,0,0,0-.406-.91,1.557,1.557,0,0,0-1.078-.363,1.682,1.682,0,0,0-1.02.289.911.911,0,0,0-.395.773.769.769,0,0,0,.367.68,5.049,5.049,0,0,0,1.484.488,7.027,7.027,0,0,1,1.754.586,2.484,2.484,0,0,1,.945.816A2.082,2.082,0,0,1,50.91-2.4a2.2,2.2,0,0,1-.945,1.848,4.031,4.031,0,0,1-2.477.707,4.371,4.371,0,0,1-1.852-.375A3.047,3.047,0,0,1,44.371-1.25a2.441,2.441,0,0,1-.453-1.414h1.844a1.338,1.338,0,0,0,.508,1.035,1.973,1.973,0,0,0,1.242.363,1.92,1.92,0,0,0,1.141-.285A.883.883,0,0,0,49.043-2.3Z" transform="translate(1026 8066.579)" fill="#12263f"/>
  </g>
</svg>
