<svg xmlns="http://www.w3.org/2000/svg" width="120" height="120" viewBox="0 0 120 120">
  <g id="Grupo_1064650" data-name="Grupo 1064650" transform="translate(-945.5 -4617)">
    <g id="Elipse_8313" data-name="Elipse 8313" transform="translate(945.5 4617)" fill="#fff" stroke="#ff6148" stroke-width="1">
      <circle cx="60" cy="60" r="60" stroke="none"/>
      <circle cx="60" cy="60" r="59.5" fill="none"/>
    </g>
    <g id="prioridad" transform="translate(973.283 4644.783)">
      <g id="Grupo_1064648" data-name="Grupo 1064648" transform="translate(20.522 0.944)">
        <path id="Trazado_601274" data-name="Trazado 601274" d="M182.419,24.333H167.11a4.041,4.041,0,0,1-4.041-4.041V11.545A4.041,4.041,0,0,1,167.11,7.5h15.309a4.041,4.041,0,0,1,4.041,4.041v8.747A4.041,4.041,0,0,1,182.419,24.333Z" transform="translate(-163.069 -7.504)" fill="#f6e266"/>
        <path id="Trazado_601275" data-name="Trazado 601275" d="M182.419,205.969H167.11a4.041,4.041,0,0,1-4.041-4.041v-8.747a4.041,4.041,0,0,1,4.041-4.041h15.309a4.041,4.041,0,0,1,4.041,4.041v8.747A4.041,4.041,0,0,1,182.419,205.969Z" transform="translate(-163.069 -166.282)" fill="#dd636e"/>
        <path id="Trazado_601276" data-name="Trazado 601276" d="M182.419,387.6H167.11a4.041,4.041,0,0,1-4.041-4.041v-8.747a4.041,4.041,0,0,1,4.041-4.041h15.309a4.041,4.041,0,0,1,4.041,4.041v8.747a4.041,4.041,0,0,1-4.041,4.041Z" transform="translate(-163.069 -325.058)" fill="#61a2f9"/>
        <path id="Trazado_601277" data-name="Trazado 601277" d="M171.351,24.338h-4.24A4.042,4.042,0,0,1,163.07,20.3V11.55a4.041,4.041,0,0,1,4.041-4.04h4.24a4.041,4.041,0,0,0-4.041,4.04V20.3A4.042,4.042,0,0,0,171.351,24.338Z" transform="translate(-163.07 -7.509)" fill="#eab14d"/>
        <path id="Trazado_601278" data-name="Trazado 601278" d="M171.35,205.976h-4.24a4.042,4.042,0,0,1-4.041-4.041v-8.748a4.041,4.041,0,0,1,4.041-4.04h4.24a4.041,4.041,0,0,0-4.041,4.04v8.748A4.042,4.042,0,0,0,171.35,205.976Z" transform="translate(-163.069 -166.289)" fill="#c10a54"/>
        <path id="Trazado_601279" data-name="Trazado 601279" d="M171.35,387.612h-4.24a4.042,4.042,0,0,1-4.041-4.041v-8.748a4.041,4.041,0,0,1,4.041-4.04h4.24a4.041,4.041,0,0,0-4.041,4.04v8.748A4.042,4.042,0,0,0,171.35,387.612Z" transform="translate(-163.069 -325.066)" fill="#4073c8"/>
      </g>
      <g id="Grupo_1064649" data-name="Grupo 1064649" transform="translate(0)">
        <path id="Trazado_601280" data-name="Trazado 601280" d="M225.981,32.022a1.143,1.143,0,0,0-1.061-.711h0a1.143,1.143,0,0,0-1.06.713l-.008.021-3.36,8.823a.944.944,0,1,0,1.764.672l.605-1.589h4.1l.6,1.587a.944.944,0,1,0,1.766-.666l-3.33-8.823Zm-2.4,6.041,1.339-3.514,1.326,3.514Z" transform="translate(-192.688 -27.371)"/>
        <path id="Trazado_601281" data-name="Trazado 601281" d="M227.745,212.947a.944.944,0,0,0-.944.944v8.949a.944.944,0,0,0,.944.944h0s2.39-.011,3.049-.011a3.351,3.351,0,0,0,1.975-6.06,3,3,0,0,0-2.429-4.766Zm3.053,8.938c-.385,0-1.363,0-2.11.007v-2.934l.716,0H230.8a1.465,1.465,0,1,1,0,2.93Zm.661-5.935a1.117,1.117,0,0,1-1.115,1.115l-.943,0h-.712v-2.233h1.656A1.117,1.117,0,0,1,231.459,215.95Z" transform="translate(-198.259 -186.148)"/>
        <path id="Trazado_601282" data-name="Trazado 601282" d="M224.943,396.471a3.511,3.511,0,0,1,1.973.6.944.944,0,1,0,1.057-1.564,5.419,5.419,0,1,0-3.03,9.911,4.464,4.464,0,0,0,3.542-1.6.944.944,0,1,0-1.446-1.213,2.58,2.58,0,0,1-2.1.926,3.531,3.531,0,0,1,0-7.061Z" transform="translate(-191.898 -344.926)"/>
        <path id="Trazado_601283" data-name="Trazado 601283" d="M60.81,12.038a12.292,12.292,0,0,0-8.749-3.624h-7.2V4.985A4.991,4.991,0,0,0,39.872,0H37.637a.944.944,0,1,0,0,1.888h2.235a3.1,3.1,0,0,1,3.1,3.1v8.748a3.1,3.1,0,0,1-3.1,3.1H24.563a3.1,3.1,0,0,1-3.1-3.1V4.985a3.1,3.1,0,0,1,3.1-3.1h9.3a.944.944,0,1,0,0-1.888h-9.3a4.99,4.99,0,0,0-4.985,4.985v8.748a4.99,4.99,0,0,0,4.985,4.985h6.71v4.142H24.563a4.99,4.99,0,0,0-4.985,4.985v3.43h-7.2a12.373,12.373,0,0,0,0,24.746H15.5l-1.62,1.62a.944.944,0,0,0,1.335,1.335l3.232-3.232a.944.944,0,0,0,0-1.335l-3.232-3.232a.944.944,0,1,0-1.335,1.335l1.62,1.62H12.373a10.485,10.485,0,1,1,0-20.971h7.2v3.43a4.99,4.99,0,0,0,4.985,4.985h6.711v4.143h-6.71a4.968,4.968,0,0,0-4.441,2.718.944.944,0,0,0,1.681.86,3.088,3.088,0,0,1,2.76-1.689H39.872a3.1,3.1,0,0,1,3.1,3.1v8.748a3.1,3.1,0,0,1-3.1,3.1H24.563a3.1,3.1,0,0,1-3.1-3.1v-6.86a.944.944,0,0,0-1.888,0v6.86a4.99,4.99,0,0,0,4.985,4.985H39.872a4.99,4.99,0,0,0,4.985-4.985V50.7a4.99,4.99,0,0,0-4.985-4.984H33.161V41.576h6.711a4.99,4.99,0,0,0,4.985-4.985V27.844a4.99,4.99,0,0,0-4.985-4.985H33.161V18.717h6.711a4.99,4.99,0,0,0,4.985-4.985V10.3h7.2a10.485,10.485,0,1,1,0,20.971H48.933l1.62-1.62a.944.944,0,0,0-1.335-1.335L45.986,31.55a.944.944,0,0,0,0,1.335l3.232,3.232a.944.944,0,0,0,1.335-1.335l-1.62-1.62h3.128A12.373,12.373,0,0,0,60.81,12.038ZM42.969,27.843v8.747a3.1,3.1,0,0,1-3.1,3.1H24.563a3.1,3.1,0,0,1-3.1-3.1V27.843a3.1,3.1,0,0,1,3.1-3.1H39.872a3.1,3.1,0,0,1,3.1,3.1Z" transform="translate(0)"/>
      </g>
    </g>
  </g>
</svg>
