<svg xmlns="http://www.w3.org/2000/svg" xmlns:xlink="http://www.w3.org/1999/xlink" width="120" height="120" viewBox="0 0 120 120">
  <defs>
    <clipPath id="clip-path">
      <rect id="Rectángulo_374074" data-name="Rectángulo 374074" width="69" height="69" transform="translate(560.5 4609)" fill="#fff" stroke="#707070" stroke-width="1"/>
    </clipPath>
  </defs>
  <g id="Grupo_1064852" data-name="Grupo 1064852" transform="translate(-535.5 -4583)">
    <g id="Elipse_8312" data-name="Elipse 8312" transform="translate(535.5 4583)" fill="#fff" stroke="#ff6148" stroke-width="1">
      <circle cx="60" cy="60" r="60" stroke="none"/>
      <circle cx="60" cy="60" r="59.5" fill="none"/>
    </g>
    <g id="Enmascarar_grupo_317" data-name="Enmascarar grupo 317" clip-path="url(#clip-path)">
      <g id="flujo-de-trabajo" transform="translate(560.5 4609)">
        <g id="Grupo_1064853" data-name="Grupo 1064853">
          <path id="Trazado_601653" data-name="Trazado 601653" d="M5.019,56.194H25.531a1.888,1.888,0,0,1,1.888,1.888V63.73a1.888,1.888,0,0,1-1.888,1.888H5.019A1.888,1.888,0,0,1,3.131,63.73V58.082a1.888,1.888,0,0,1,1.888-1.888Z" fill="#01d0fb"/>
          <path id="Trazado_601654" data-name="Trazado 601654" d="M12.368,12.136H5.019a1.888,1.888,0,0,1-1.888-1.888V2.9A1.888,1.888,0,0,1,5.019,1.011h7.349A1.888,1.888,0,0,1,14.256,2.9v7.349A1.888,1.888,0,0,1,12.368,12.136Z" fill="#ffd15b"/>
          <path id="Trazado_601655" data-name="Trazado 601655" d="M55.576,25.786l-5.2,5.2a1.888,1.888,0,0,1-2.67,0l-5.2-5.2a1.888,1.888,0,0,1,0-2.67l5.2-5.2a1.888,1.888,0,0,1,2.67,0l5.2,5.2A1.888,1.888,0,0,1,55.576,25.786Z" fill="#fd8087"/>
          <path id="Trazado_601656" data-name="Trazado 601656" d="M32.552,12.136a5.562,5.562,0,1,1,5.562-5.562,5.562,5.562,0,0,1-5.562,5.562Z" fill="#01d0fb"/>
          <path id="Trazado_601657" data-name="Trazado 601657" d="M55.576,62.241l-5.2,5.2a1.888,1.888,0,0,1-2.67,0l-5.2-5.2a1.888,1.888,0,0,1,0-2.67l5.2-5.2a1.888,1.888,0,0,1,2.67,0l5.2,5.2A1.888,1.888,0,0,1,55.576,62.241Z" fill="#fd8087"/>
          <path id="Trazado_601658" data-name="Trazado 601658" d="M13.437,23l5.2-5.2a1.888,1.888,0,0,1,2.67,0L26.5,23a1.888,1.888,0,0,1,0,2.67l-5.2,5.2a1.888,1.888,0,0,1-2.67,0l-5.2-5.2A1.888,1.888,0,0,1,13.437,23Z" fill="#97da7b"/>
          <path id="Trazado_601659" data-name="Trazado 601659" d="M37.944,36.647a5.562,5.562,0,1,1-5.562,5.562A5.562,5.562,0,0,1,37.944,36.647Z" fill="#ffd15b"/>
          <path id="Trazado_601660" data-name="Trazado 601660" d="M5.019,56.194H25.531a1.888,1.888,0,0,1,1.888,1.888V63.73a1.888,1.888,0,0,1-1.888,1.888H5.019A1.888,1.888,0,0,1,3.131,63.73V58.082a1.888,1.888,0,0,1,1.888-1.888Z" fill="#01d0fb"/>
          <path id="Trazado_601661" data-name="Trazado 601661" d="M12.368,12.136H5.019a1.888,1.888,0,0,1-1.888-1.888V2.9A1.888,1.888,0,0,1,5.019,1.011h7.349A1.888,1.888,0,0,1,14.256,2.9v7.349A1.888,1.888,0,0,1,12.368,12.136Z" fill="#ffd15b"/>
          <path id="Trazado_601662" data-name="Trazado 601662" d="M32.552,12.136a5.562,5.562,0,1,1,5.562-5.562,5.562,5.562,0,0,1-5.562,5.562Z" fill="#01d0fb"/>
          <path id="Trazado_601663" data-name="Trazado 601663" d="M55.576,62.241l-5.2,5.2a1.888,1.888,0,0,1-2.67,0l-5.2-5.2a1.888,1.888,0,0,1,0-2.67l5.2-5.2a1.888,1.888,0,0,1,2.67,0l5.2,5.2A1.888,1.888,0,0,1,55.576,62.241Z" fill="#fd8087"/>
          <path id="Trazado_601664" data-name="Trazado 601664" d="M13.437,23l5.2-5.2a1.888,1.888,0,0,1,2.67,0L26.5,23a1.888,1.888,0,0,1,0,2.67l-5.2,5.2a1.888,1.888,0,0,1-2.67,0l-5.2-5.2A1.888,1.888,0,0,1,13.437,23Z" fill="#97da7b"/>
          <path id="Trazado_601665" data-name="Trazado 601665" d="M37.944,36.647a5.562,5.562,0,1,1-5.562,5.562A5.562,5.562,0,0,1,37.944,36.647Z" fill="#ffd15b"/>
          <path id="Trazado_601666" data-name="Trazado 601666" d="M55.576,23.117l-5.2-5.2a1.888,1.888,0,0,0-2.67,0l-.013.014,3.834,3.834a1.888,1.888,0,0,1,0,2.67l-5.183,5.183,1.362,1.362a1.888,1.888,0,0,0,2.67,0l5.2-5.2a1.888,1.888,0,0,0,0-2.67Z" fill="#fe646f"/>
          <path id="Trazado_601667" data-name="Trazado 601667" d="M25.531,56.194H23.373v4.974a1.888,1.888,0,0,1-1.888,1.888H3.131v.674a1.888,1.888,0,0,0,1.888,1.888H25.531a1.888,1.888,0,0,0,1.888-1.888V58.082A1.888,1.888,0,0,0,25.531,56.194Z" fill="#01c0fa"/>
          <path id="Trazado_601668" data-name="Trazado 601668" d="M12.368,1.011H10.131a1.885,1.885,0,0,1,.079.539V8.9a1.888,1.888,0,0,1-1.888,1.888H3.21a1.888,1.888,0,0,0,1.809,1.348h7.349a1.888,1.888,0,0,0,1.888-1.888V2.9a1.888,1.888,0,0,0-1.888-1.888Z" fill="#ffc344"/>
          <path id="Trazado_601669" data-name="Trazado 601669" d="M32.552,1.011c-.134,0-.267.006-.4.016a5.56,5.56,0,0,1-3.248,9.744,5.561,5.561,0,1,0,3.647-9.76Z" fill="#01c0fa"/>
          <path id="Trazado_601670" data-name="Trazado 601670" d="M55.576,59.571l-5.2-5.2a1.888,1.888,0,0,0-2.67,0l-.013.014,3.834,3.834a1.888,1.888,0,0,1,0,2.67l-5.183,5.183,1.362,1.362a1.888,1.888,0,0,0,2.67,0l5.2-5.2a1.888,1.888,0,0,0,0-2.67Z" fill="#fe646f"/>
          <path id="Trazado_601671" data-name="Trazado 601671" d="M26.5,23l-5.2-5.2a1.888,1.888,0,0,0-2.67,0l-.013.013,3.834,3.834a1.888,1.888,0,0,1,0,2.67L17.271,29.5l1.362,1.362a1.888,1.888,0,0,0,2.67,0l5.2-5.2a1.888,1.888,0,0,0,0-2.67Z" fill="#80d261"/>
          <path id="Trazado_601672" data-name="Trazado 601672" d="M37.944,36.647c-.134,0-.267.006-.4.016A5.56,5.56,0,0,1,34.3,46.407a5.561,5.561,0,1,0,3.647-9.76Z" fill="#ffc344"/>
        </g>
        <g id="Grupo_1064854" data-name="Grupo 1064854">
          <path id="Trazado_601673" data-name="Trazado 601673" d="M25.531,55.183H16.113a1.011,1.011,0,1,0,0,2.023h9.418a.878.878,0,0,1,.877.877V63.73a.878.878,0,0,1-.877.877H5.019a.878.878,0,0,1-.877-.877V58.082a.878.878,0,0,1,.877-.877h7.049a1.011,1.011,0,1,0,0-2.023H5.019a2.9,2.9,0,0,0-2.9,2.9V63.73a2.9,2.9,0,0,0,2.9,2.9H25.531a2.9,2.9,0,0,0,2.9-2.9V58.082A2.9,2.9,0,0,0,25.531,55.183Z"/>
          <path id="Trazado_601674" data-name="Trazado 601674" d="M5.019,13.147h7.349a2.9,2.9,0,0,0,2.9-2.9V7.585h4.784l-.363.363a1.011,1.011,0,1,0,1.43,1.43l2.089-2.089a1.011,1.011,0,0,0,0-1.43L21.118,3.769a1.011,1.011,0,0,0-1.43,1.43l.363.363H15.267V2.9a2.9,2.9,0,0,0-2.9-2.9H11.39a1.011,1.011,0,0,0,0,2.023h.977a.878.878,0,0,1,.877.877v7.349a.878.878,0,0,1-.877.877H5.019a.878.878,0,0,1-.877-.877V2.9a.878.878,0,0,1,.877-.877H7.345A1.011,1.011,0,0,0,7.345,0H5.019a2.9,2.9,0,0,0-2.9,2.9v7.349a2.9,2.9,0,0,0,2.9,2.9Z"/>
          <path id="Trazado_601675" data-name="Trazado 601675" d="M32.552,13.147A6.581,6.581,0,0,0,39.1,7.138h9.593L48.33,7.5a1.011,1.011,0,1,0,1.43,1.43l1.793-1.793h4.979a8.324,8.324,0,0,1,.522,16.632,2.878,2.878,0,0,0-.764-1.368l-5.2-5.2a2.9,2.9,0,0,0-4.1,0l-5.2,5.2a2.886,2.886,0,0,0-.665,1.039H33.94l.363-.363a1.011,1.011,0,0,0-1.43-1.43l-2.089,2.089a1.011,1.011,0,0,0,0,1.43l2.089,2.089a1.011,1.011,0,1,0,1.43-1.43l-.363-.363h7.193A2.887,2.887,0,0,0,41.8,26.5l5.2,5.2a2.9,2.9,0,0,0,4.1,0l5.2-5.2a2.89,2.89,0,0,0,.515-.7,10.346,10.346,0,0,0-.273-20.689H51.553L49.76,3.322a1.011,1.011,0,1,0-1.43,1.43l.363.363H38.96a6.573,6.573,0,1,0-6.408,8.032ZM54.861,25.071l-5.2,5.2a.877.877,0,0,1-1.24,0l-5.2-5.2a.878.878,0,0,1,0-1.24l5.2-5.2a.878.878,0,0,1,1.24,0l5.2,5.2a.878.878,0,0,1,0,1.24ZM32.552,2.023A4.551,4.551,0,1,1,28,6.574,4.556,4.556,0,0,1,32.552,2.023Z"/>
          <path id="Trazado_601676" data-name="Trazado 601676" d="M56.532,41.569H51.553L49.76,39.776a1.011,1.011,0,0,0-1.43,1.43l.363.363H44.486a6.572,6.572,0,0,0-13.09.076H23.96l-1.793-1.793a1.011,1.011,0,1,0-1.43,1.43l.363.363H12.468a8.324,8.324,0,0,1-.511-16.633,2.876,2.876,0,0,0,.766,1.369l5.2,5.2a2.9,2.9,0,0,0,4.1,0l5.2-5.2a2.9,2.9,0,0,0,0-4.1l-5.2-5.2a2.9,2.9,0,0,0-4.1,0l-5.2,5.2h0a2.91,2.91,0,0,0-.515.7,10.346,10.346,0,0,0,.261,20.689H21.1l-.363.363a1.011,1.011,0,1,0,1.43,1.43l1.793-1.793h7.576a6.572,6.572,0,0,0,12.834-.076h4.322l-.363.363a1.011,1.011,0,1,0,1.43,1.43l1.793-1.793h4.979a8.324,8.324,0,0,1,.522,16.632,2.878,2.878,0,0,0-.764-1.368l-5.2-5.2a2.9,2.9,0,0,0-4.1,0l-5.2,5.2a2.886,2.886,0,0,0-.665,1.039H35.288l.363-.363a1.011,1.011,0,0,0-1.43-1.43l-2.089,2.089a1.011,1.011,0,0,0,0,1.43l2.089,2.089a1.011,1.011,0,1,0,1.43-1.43l-.363-.363h5.845a2.887,2.887,0,0,0,.665,1.039l5.2,5.2a2.9,2.9,0,0,0,4.1,0l5.2-5.2a2.887,2.887,0,0,0,.515-.7,10.346,10.346,0,0,0-.273-20.689ZM14.152,23.712l5.2-5.2a.877.877,0,0,1,1.24,0l5.2,5.2a.876.876,0,0,1,0,1.24l-5.2,5.2a.878.878,0,0,1-1.24,0l-5.2-5.2a.876.876,0,0,1,0-1.24ZM37.944,46.76A4.551,4.551,0,1,1,42.5,42.209a4.556,4.556,0,0,1-4.551,4.551ZM54.861,61.526l-5.2,5.2a.878.878,0,0,1-1.24,0l-5.2-5.2a.876.876,0,0,1,0-1.24l5.2-5.2a.878.878,0,0,1,1.24,0l5.2,5.2a.876.876,0,0,1,0,1.24Z"/>
        </g>
      </g>
    </g>
  </g>
</svg>
