<svg xmlns="http://www.w3.org/2000/svg" width="111.846" height="112.056" viewBox="0 0 111.846 112.056">
  <g id="analizando" transform="translate(-6.497 -6)">
    <rect id="Rectángulo_373686" data-name="Rectángulo 373686" width="17.468" height="41.248" transform="translate(7.997 36.271)" fill="#99e6fc"/>
    <rect id="Rectángulo_373687" data-name="Rectángulo 373687" width="17.474" height="49.367" transform="translate(32.887 28.152)" fill="#ffd15b"/>
    <rect id="Rectángulo_373688" data-name="Rectángulo 373688" width="17.474" height="70.019" transform="translate(57.784 7.5)" fill="#9be69d"/>
    <rect id="Rectángulo_373689" data-name="Rectángulo 373689" width="17.474" height="53.54" transform="translate(83.448 23.979)" fill="#fd4755"/>
    <rect id="Rectángulo_373690" data-name="Rectángulo 373690" width="4.483" height="41.248" transform="translate(20.982 36.271)" fill="#62dbfb"/>
    <rect id="Rectángulo_373691" data-name="Rectángulo 373691" width="4.489" height="49.367" transform="translate(45.872 28.152)" fill="#ffc344"/>
    <path id="Trazado_601037" data-name="Trazado 601037" d="M294.064,7.5V58.735a18.117,18.117,0,0,1,4.489-6.865V7.5Z" transform="translate(-223.296)" fill="#6fd7a3" fill-rule="evenodd"/>
    <path id="Trazado_601038" data-name="Trazado 601038" d="M411.026,82.6v24.845a18.225,18.225,0,0,1,4.489,3.28V82.6Z" transform="translate(-314.593 -58.619)" fill="#e94444" fill-rule="evenodd"/>
    <path id="Trazado_601039" data-name="Trazado 601039" d="M8,156.124v-17.5H25.465v41.248H8v-16" transform="translate(0 -102.348)" fill="none" stroke="#000" stroke-linecap="round" stroke-linejoin="round" stroke-miterlimit="10" stroke-width="3"/>
    <rect id="Rectángulo_373692" data-name="Rectángulo 373692" width="17.474" height="49.367" transform="translate(32.887 28.152)" fill="none" stroke="#000" stroke-linecap="round" stroke-linejoin="round" stroke-miterlimit="10" stroke-width="3"/>
    <line id="Línea_383" data-name="Línea 383" x2="8.216" transform="translate(31.484 89.564)" fill="none" stroke="#000" stroke-linecap="round" stroke-linejoin="round" stroke-miterlimit="10" stroke-width="3"/>
    <line id="Línea_384" data-name="Línea 384" x2="8.216" transform="translate(31.484 95.916)" fill="none" stroke="#000" stroke-linecap="round" stroke-linejoin="round" stroke-miterlimit="10" stroke-width="3"/>
    <path id="Trazado_601040" data-name="Trazado 601040" d="M38,374.071v7.967a.95.95,0,0,0,.952.95h7.994a.954.954,0,0,0,.952-.95v-7.967a.954.954,0,0,0-.952-.95H38.957a.95.95,0,0,0-.952.95Z" transform="translate(-23.423 -285.393)" fill="#6fd7a3" fill-rule="evenodd"/>
    <path id="Trazado_601041" data-name="Trazado 601041" d="M38.957,373.121h7.994a.954.954,0,0,1,.952.95v7.967a.954.954,0,0,1-.952.95H38.957a.95.95,0,0,1-.952-.95v-7.967a.95.95,0,0,1,.952-.95Z" transform="translate(-23.423 -285.393)" fill="none" stroke="#000" stroke-linecap="round" stroke-linejoin="round" stroke-miterlimit="10" stroke-width="3"/>
    <line id="Línea_385" data-name="Línea 385" x2="8.216" transform="translate(31.484 108.526)" fill="none" stroke="#000" stroke-linecap="round" stroke-linejoin="round" stroke-miterlimit="10" stroke-width="3"/>
    <line id="Línea_386" data-name="Línea 386" x2="8.216" transform="translate(31.484 114.878)" fill="none" stroke="#000" stroke-linecap="round" stroke-linejoin="round" stroke-miterlimit="10" stroke-width="3"/>
    <path id="Trazado_601042" data-name="Trazado 601042" d="M38,460.484v7.967a.95.95,0,0,0,.952.95h7.994a.954.954,0,0,0,.952-.95v-7.967a.954.954,0,0,0-.952-.95H38.957a.95.95,0,0,0-.952.95Z" transform="translate(-23.423 -352.845)" fill="#99e6fc" fill-rule="evenodd"/>
    <line id="Línea_387" data-name="Línea 387" x2="8.216" transform="translate(71.74 89.564)" fill="none" stroke="#000" stroke-linecap="round" stroke-linejoin="round" stroke-miterlimit="10" stroke-width="3"/>
    <line id="Línea_388" data-name="Línea 388" x2="8.216" transform="translate(71.74 95.916)" fill="none" stroke="#000" stroke-linecap="round" stroke-linejoin="round" stroke-miterlimit="10" stroke-width="3"/>
    <path id="Trazado_601043" data-name="Trazado 601043" d="M221.462,374.071v7.967a.954.954,0,0,0,.952.95h7.994a.954.954,0,0,0,.952-.95v-7.967a.954.954,0,0,0-.952-.95h-7.994a.954.954,0,0,0-.952.95Z" transform="translate(-166.625 -285.393)" fill="#fd4755" fill-rule="evenodd"/>
    <line id="Línea_389" data-name="Línea 389" x2="8.216" transform="translate(71.74 108.526)" fill="none" stroke="#000" stroke-linecap="round" stroke-linejoin="round" stroke-miterlimit="10" stroke-width="3"/>
    <line id="Línea_390" data-name="Línea 390" x2="8.216" transform="translate(71.74 114.878)" fill="none" stroke="#000" stroke-linecap="round" stroke-linejoin="round" stroke-miterlimit="10" stroke-width="3"/>
    <path id="Trazado_601044" data-name="Trazado 601044" d="M221.462,460.484v7.967a.954.954,0,0,0,.952.95h7.994a.954.954,0,0,0,.952-.95v-7.967a.954.954,0,0,0-.952-.95h-7.994a.954.954,0,0,0-.952.95Z" transform="translate(-166.625 -352.845)" fill="#ffd15b" fill-rule="evenodd"/>
    <path id="Trazado_601045" data-name="Trazado 601045" d="M296.377,189.992a18.293,18.293,0,1,1-3.848,25.56,18.355,18.355,0,0,1,3.848-25.56Z" transform="translate(-219.297 -139.654)" fill="#3c87d0" fill-rule="evenodd"/>
    <path id="Trazado_601046" data-name="Trazado 601046" d="M432.729,357.343a5.453,5.453,0,0,0-1.149,7.619L436.793,372a5.457,5.457,0,0,0,8.788-6.473l-5.213-7.036a5.485,5.485,0,0,0-7.639-1.146Z" transform="translate(-329.807 -272.25)" fill="#d77f4a" fill-rule="evenodd"/>
    <path id="Trazado_601047" data-name="Trazado 601047" d="M440.609,360.694l5.213,7.036a5.469,5.469,0,0,1,.178,6.219,5.562,5.562,0,0,0,1.581-.8,5.459,5.459,0,0,0,1.149-7.619l-5.213-7.036a5.485,5.485,0,0,0-7.639-1.146,5.541,5.541,0,0,0-1.327,1.4,5.493,5.493,0,0,1,6.058,1.951Z" transform="translate(-332.956 -272.25)" fill="#c86d36" fill-rule="evenodd"/>
    <path id="Trazado_601048" data-name="Trazado 601048" d="M326.148,221.187a11.136,11.136,0,1,1-2.343,15.56,11.179,11.179,0,0,1,2.343-15.56Z" transform="translate(-244.808 -165.1)" fill="#99e6fc" fill-rule="evenodd"/>
    <path id="Trazado_601049" data-name="Trazado 601049" d="M359.457,228.771a11.088,11.088,0,0,1-4.527,8.968c-.057.044-.121.089-.178.133a11.1,11.1,0,0,1-6.432,2.046,11.176,11.176,0,0,0,11.924-.842c.3-.228.59-.462.87-.716A11.123,11.123,0,0,0,353.6,219a11.126,11.126,0,0,1,5.854,9.772Z" transform="translate(-265.646 -165.09)" fill="#62dbfb" fill-rule="evenodd"/>
    <path id="Trazado_601050" data-name="Trazado 601050" d="M363.124,193.051a18.251,18.251,0,0,1-2.191,24.18,19.651,19.651,0,0,1-1.664,1.381,18.256,18.256,0,0,1-10.978,3.578,18.464,18.464,0,0,0,4.978.773,18.265,18.265,0,0,0,11.169-3.54.284.284,0,0,0,.045-.032,18.273,18.273,0,0,0-10.8-32.976,18.219,18.219,0,0,1,9.442,6.637Z" transform="translate(-265.624 -139.655)" fill="#4f66d0" fill-rule="evenodd"/>
    <path id="Trazado_601051" data-name="Trazado 601051" d="M326.148,221.187a11.136,11.136,0,1,1-2.343,15.56,11.179,11.179,0,0,1,2.343-15.56Z" transform="translate(-244.808 -165.1)" fill="none" stroke="#000" stroke-linecap="round" stroke-linejoin="round" stroke-miterlimit="10" stroke-width="3"/>
    <path id="Trazado_601052" data-name="Trazado 601052" d="M432.729,357.344h0a5.485,5.485,0,0,1,7.639,1.146l5.213,7.036a5.459,5.459,0,0,1-1.149,7.619h0A5.491,5.491,0,0,1,436.793,372l-5.213-7.036a5.453,5.453,0,0,1,1.149-7.619Z" transform="translate(-329.807 -272.25)" fill="none" stroke="#000" stroke-linecap="round" stroke-linejoin="round" stroke-miterlimit="10" stroke-width="3"/>
    <line id="Línea_391" data-name="Línea 391" x2="4.007" y2="5.402" transform="translate(98.814 79.767)" fill="none" stroke="#000" stroke-linecap="round" stroke-linejoin="round" stroke-miterlimit="10" stroke-width="3"/>
    <path id="Trazado_601053" data-name="Trazado 601053" d="M296.377,189.992a18.293,18.293,0,1,1-3.848,25.56,18.355,18.355,0,0,1,3.848-25.56Z" transform="translate(-219.297 -139.654)" fill="none" stroke="#000" stroke-linecap="round" stroke-linejoin="round" stroke-miterlimit="10" stroke-width="3"/>
    <path id="Trazado_601054" data-name="Trazado 601054" d="M251.7,77.519H234.889V46.1m0-7.739V7.5h17.474V51.876" transform="translate(-177.105)" fill="none" stroke="#000" stroke-linecap="round" stroke-linejoin="round" stroke-miterlimit="10" stroke-width="3"/>
    <path id="Trazado_601055" data-name="Trazado 601055" d="M351.851,105.942V82.6h17.474v28.126" transform="translate(-268.403 -58.619)" fill="none" stroke="#000" stroke-linecap="round" stroke-linejoin="round" stroke-miterlimit="10" stroke-width="3"/>
    <path id="Trazado_601056" data-name="Trazado 601056" d="M38.957,459.533h7.994a.954.954,0,0,1,.952.95v7.967a.954.954,0,0,1-.952.95H38.957a.95.95,0,0,1-.952-.95v-7.967a.95.95,0,0,1,.952-.95Z" transform="translate(-23.423 -352.844)" fill="none" stroke="#000" stroke-linecap="round" stroke-linejoin="round" stroke-miterlimit="10" stroke-width="3"/>
    <path id="Trazado_601057" data-name="Trazado 601057" d="M222.415,373.121h7.994a.954.954,0,0,1,.952.95v7.967a.954.954,0,0,1-.952.95h-7.994a.954.954,0,0,1-.952-.95v-7.967a.954.954,0,0,1,.952-.95Z" transform="translate(-166.625 -285.393)" fill="none" stroke="#000" stroke-linecap="round" stroke-linejoin="round" stroke-miterlimit="10" stroke-width="3"/>
    <path id="Trazado_601058" data-name="Trazado 601058" d="M222.415,459.533h7.994a.954.954,0,0,1,.952.95v7.967a.954.954,0,0,1-.952.95h-7.994a.954.954,0,0,1-.952-.95v-7.967a.954.954,0,0,1,.952-.95Z" transform="translate(-166.625 -352.844)" fill="none" stroke="#000" stroke-linecap="round" stroke-linejoin="round" stroke-miterlimit="10" stroke-width="3"/>
  </g>
</svg>
