<svg xmlns="http://www.w3.org/2000/svg" width="156" height="151" viewBox="0 0 156 151">
  <g id="Grupo_114061" data-name="Grupo 114061" transform="translate(-1068 -598.016)">
    <g id="Grupo_114051" data-name="Grupo 114051" transform="translate(0 -890.984)">
      <g id="Grupo_110668" data-name="Grupo 110668" transform="translate(6.5 6.27)">
        <rect id="Rectángulo_37257" data-name="Rectángulo 37257" width="156" height="151" rx="12" transform="translate(1061.5 1482.731)" fill="#ff6148"/>
      </g>
    </g>
    <g id="jeroglifico" transform="translate(1074.908 590.547)">
      <g id="Layer_4" data-name="Layer 4" transform="translate(7.006 32.537)">
        <path id="Trazado_167217" data-name="Trazado 167217" d="M11.833,217.985s-4.005,4.6-1.568,13.526a39.534,39.534,0,0,0,13.644,11.77l9.483,14.159a13.611,13.611,0,0,0,3.852,5.019s6.239,5.78,8.2,10.162c0,0,12.5,11.441,13.055-3.556,0,0-33.762-47.913-46.667-51.079Z" transform="translate(-9.478 -171.935)" fill="#db9377"/>
        <path id="Trazado_167218" data-name="Trazado 167218" d="M352.272,38.2s3.44,8.43,13.886,13.484S385.189,66.85,385.189,66.85s3.925-12.023-1.91-18.761a116.06,116.06,0,0,0-13.473-12.8S355.628,37,352.272,38.2Z" transform="translate(-265.867 -35.292)" fill="#db9377"/>
        <path id="Trazado_167219" data-name="Trazado 167219" d="M16.874,91.952s-2.9.735-1.759,3.332l7.139,7.078s29.078,26.263,36.813,49.656c0,0,2.021,5.232,17.016,5.232,0,0,11.708-1.571,17.848,1.084l30.984-.849s6.274,1.062,5.993-3.357c0,0-.9-22.895,1.91-35.574l-1.336-8.253s4.762-12.993,1.667-23.417l-8.234-18.093L121.2,62.757s-3.194-3.085-15.518-5.614l-16.741-2.1s-7.456-1.777-15.869,7.393c0,0-8.337,7.2-17.544,9.889L34.679,80.37a7.722,7.722,0,0,0-4.46,3.495,4.152,4.152,0,0,1-1.483,1.427Z" transform="translate(-13.495 -49.961)" fill="#ffd7b2"/>
        <path id="Trazado_167220" data-name="Trazado 167220" d="M67.232,101.169a37.226,37.226,0,0,0,36.5-44.42c-2.888.75-6.739,2.623-10.815,7.066,0,0-8.337,7.2-17.544,9.889L54.522,81.75a7.722,7.722,0,0,0-4.46,3.495,4.152,4.152,0,0,1-1.483,1.427l-7.2,4.043A37.074,37.074,0,0,0,67.232,101.169Z" transform="translate(-33.339 -51.341)" fill="#ffeee3"/>
        <g id="Grupo_114060" data-name="Grupo 114060" transform="translate(1.769 10.152)">
          <path id="Trazado_167221" data-name="Trazado 167221" d="M232.818,209.737c3.259-1.573,7.063-1.338,10.671-1.054a6.748,6.748,0,0,0-3.988-1.456,13.775,13.775,0,0,0-4.142-.141c-1.667.283-10.45.639-7.953,3.588a2.875,2.875,0,0,0,1.533.929l2.754.679s.132-.028.1-.08a1.61,1.61,0,0,1,.166-1.884,2.723,2.723,0,0,1,.859-.58Z" transform="translate(-173.913 -173.854)" fill="#db9377"/>
          <path id="Trazado_167222" data-name="Trazado 167222" d="M385.06,242.271c-.236-.542-.97-.571-1.555-.657a.448.448,0,0,1-.362-.192.4.4,0,0,1-.017-.237c.111-.706.739-1.286.712-2a1.182,1.182,0,0,0-1.3-1.077l-.268.137a2.329,2.329,0,0,1-.493,1.47c-.3.435-.663.824-.926,1.282a.294.294,0,0,0-.05.259.288.288,0,0,0,.164.126c.349.144.729.211,1.064.385a1.022,1.022,0,0,1,.618.876,1.074,1.074,0,0,1-.261.6,4.639,4.639,0,0,1-1.675,1.185,43.057,43.057,0,0,1-7.773,2.941,1.855,1.855,0,0,0,1.43.667,5.492,5.492,0,0,0,1.605-.258l4.012-1.061a11.741,11.741,0,0,0,3.165-1.173,3.968,3.968,0,0,0,1.957-2.635,1.15,1.15,0,0,0-.044-.636Z" transform="translate(-283.09 -197.133)" fill="#db9377"/>
          <path id="Trazado_167223" data-name="Trazado 167223" d="M355.067,318.064a.655.655,0,0,0-.411-.27,4.554,4.554,0,0,0-1.386-.113c-1.885.04-6.757.681-6.757.681a31.112,31.112,0,0,0,8.1,1.817,7.83,7.83,0,0,0,.483-1.633.727.727,0,0,0-.028-.481Z" transform="translate(-263.329 -256.644)" fill="#db9377"/>
          <path id="Trazado_167224" data-name="Trazado 167224" d="M360.119,237.136c-1.8-.205-3.5.867-4.865,2.057s-2.643,2.58-4.332,3.24c-1.072.419-2.247.515-3.327.91a6.406,6.406,0,0,0-3.093,2.42,1.3,1.3,0,0,0-.292,1.03c.165.59.928.7,1.481.968a3.16,3.16,0,0,1,1.509,2.074c.239.848.3,1.739.529,2.59a12.806,12.806,0,0,0,2.048,3.8,2.841,2.841,0,0,0,1.092,1.079.98.98,0,0,0,1.313-.436,6.477,6.477,0,0,1-2.63-3.029c-.507-1.7.409-3.743-.567-5.229-.442-.673-1.256-1.207-1.238-2.012.019-.853.956-1.347,1.764-1.615,2.17-.721,4.61-1.275,5.992-3.1.493-.65.81-1.419,1.295-2.076a5,5,0,0,1,3.879-2Z" transform="translate(-261.585 -196.391)" fill="#db9377"/>
          <path id="Trazado_167225" data-name="Trazado 167225" d="M271.614,393.66l-.522-3.69a2.971,2.971,0,0,0-.64-1.734c-.135-.136-.349-.247-.508-.141a.432.432,0,0,0-.135.173,1.946,1.946,0,0,0-.207.995l-.05.442a14.326,14.326,0,0,0,.477,6.388.35.35,0,0,0,.144.2.361.361,0,0,0,.31-.047,2.443,2.443,0,0,0,.879-.618,2.57,2.57,0,0,0,.252-1.968Z" transform="translate(-205.668 -309.287)" fill="#db9377"/>
          <path id="Trazado_167226" data-name="Trazado 167226" d="M232.512,386.708c-.132-.4-.371-.85-.791-.9a.807.807,0,0,0-.738.417,2.1,2.1,0,0,0-.241.855l-.1.594a14.643,14.643,0,0,0,.076,5.344,1.346,1.346,0,0,0,.422.862.9.9,0,0,0,1.031-.056,1.867,1.867,0,0,0,.6-.9,7.541,7.541,0,0,0,.257-3.114A12.769,12.769,0,0,0,232.512,386.708Z" transform="translate(-176.51 -307.609)" fill="#db9377"/>
          <path id="Trazado_167227" data-name="Trazado 167227" d="M265.87,295.1q-.012-.87-.025-1.739a14.092,14.092,0,0,0-.668-4.973,4.784,4.784,0,0,0-3.613-3.166c-.414-.05-.891-.05-1.164-.365a1.758,1.758,0,0,1-.23-.412,2.176,2.176,0,0,0-2.47-1.286,1.983,1.983,0,0,0-.9,2.762,4.132,4.132,0,0,1,.5.931,2.351,2.351,0,0,1,.031.658,16.47,16.47,0,0,0,1.322,7.139,5.326,5.326,0,0,1,.667,2.362,3.031,3.031,0,0,1-1.483,2.253,7.863,7.863,0,0,1-2.624.931,42.357,42.357,0,0,1-5.041.766l.05.436c.284.634,1.114.762,1.808.791q2.526.108,5.056.036a4.978,4.978,0,0,0,3.176-.857,3.593,3.593,0,0,0,1.073-2.046,17.9,17.9,0,0,0,.2-2.343,17.662,17.662,0,0,1,.586-3.5,2.048,2.048,0,0,1,.373-.825.756.756,0,0,1,.816-.256c.343.138.459.558.514.923a12.657,12.657,0,0,1,.136,2.34c-.025.708-.056,1.541.5,1.977a.559.559,0,0,0,.277.126.621.621,0,0,0,.463-.2A3.184,3.184,0,0,0,265.87,295.1Z" transform="translate(-191.266 -230.774)" fill="#db9377"/>
          <path id="Trazado_167228" data-name="Trazado 167228" d="M251.718,285.1a1.038,1.038,0,0,0-.612-.724,2.042,2.042,0,0,0-.966-.139,25.035,25.035,0,0,0-2.69,3.636.324.324,0,0,0-.031.264.31.31,0,0,0,.2.134,2.851,2.851,0,0,0,2.42-.4,4.36,4.36,0,0,0,1.536-1.975A1.446,1.446,0,0,0,251.718,285.1Z" transform="translate(-189.202 -231.632)" fill="#db9377"/>
          <path id="Trazado_167229" data-name="Trazado 167229" d="M255.753,213.312a4.512,4.512,0,0,0-2.395-3.117,13.315,13.315,0,0,0-3.871-1.213,7.271,7.271,0,0,1,1.985,1.466,2.466,2.466,0,0,1,.59,2.3,2.434,2.434,0,0,1-1.324,1.363,6.9,6.9,0,0,1-1.886.484,24.87,24.87,0,0,1-4.406.385c-.83-.02-1.656-.113-2.481-.206a64.919,64.919,0,0,1-7.625-2.007c.986,1.366,2.7,1.966,4.305,2.469,1.152.361,2.309.713,3.486.983A18.568,18.568,0,0,0,254.7,215.05a1.98,1.98,0,0,0,.98-.852A1.61,1.61,0,0,0,255.753,213.312Z" transform="translate(-179.43 -175.353)" fill="#db9377"/>
          <path id="Trazado_167230" data-name="Trazado 167230" d="M260.049,251.206a1.624,1.624,0,0,0-.987-.981,4.775,4.775,0,0,0-1.412-.259c-3.551-.286-7.246-.515-10.561.789l-.464.475a51.084,51.084,0,0,0,6.858,1.877,10.919,10.919,0,0,0,4.673.273,2.962,2.962,0,0,0,1.436-.7,1.528,1.528,0,0,0,.457-1.472Z" transform="translate(-188.619 -205.841)" fill="#db9377"/>
          <path id="Trazado_167231" data-name="Trazado 167231" d="M150.154,223.415a14.821,14.821,0,0,0-6.215-11.5,12.954,12.954,0,0,1-1.709-1.275,4.5,4.5,0,0,1-1.125-1.817c-.242-.746-.286-1.548-.556-2.284a4.3,4.3,0,0,0-3.032-2.637c-2.206-.5-4.065,1.576-4.065,1.576l1.419-.176a4.315,4.315,0,0,1,1.311-.029,3.39,3.39,0,0,1,2.247,2.107c.44.973.664,2.042,1.185,2.976,1.455,2.612,4.84,3.586,6.528,6.054a9.167,9.167,0,0,1,.81,1.525,20.414,20.414,0,0,1,1.03,2.966,3.525,3.525,0,0,1,.134,1.719,1.941,1.941,0,0,1-.9,1.2,1.559,1.559,0,0,1,1.543.261,4.593,4.593,0,0,1,1.035,1.264A3.419,3.419,0,0,0,150.154,223.415Z" transform="translate(-103.972 -171.491)" fill="#db9377"/>
          <path id="Trazado_167232" data-name="Trazado 167232" d="M143.4,228.954c-.275-.216-.62-.365-.776-.7a1.63,1.63,0,0,1-.1-.723,22.032,22.032,0,0,1,.54-4.353,2.71,2.71,0,0,1,.635-1.4l0-.034a1.051,1.051,0,0,0-.753-.529c-.3-.562-1.352-2-1.675-2.521a12.266,12.266,0,0,0-2.252-2.226,10.732,10.732,0,0,1-3.059-6.629c-.079-.7-.031-1.553.583-1.9l-.635-.381a2.478,2.478,0,0,0-2.034.635,2.166,2.166,0,0,0-.35,1.237,9.256,9.256,0,0,0,1.931,6.095c.569.728,1.243,1.365,1.853,2.059.467.531.894,1.094,1.322,1.657a27.388,27.388,0,0,0-.849,2.909c-.116.644-.19,1.3-.347,1.931s-.388,1.226-.589,1.837a22.942,22.942,0,0,0-.758,3.789,4.447,4.447,0,0,0,1.433.183,1.088,1.088,0,0,0,.49-.109.851.851,0,0,0,.374-.665,4.67,4.67,0,0,0-.036-.791,9.959,9.959,0,0,1,.977-3.795,13.2,13.2,0,0,0,.7-3.449c2.1,2.388.574,8.721.574,8.721a.875.875,0,0,0,.366.186l1.56.5c.42.134.947.234,1.228-.143a1.1,1.1,0,0,0-.359-1.39Z" transform="translate(-104.021 -174.289)" fill="#db9377"/>
          <path id="Trazado_167233" data-name="Trazado 167233" d="M155.74,340.867a.99.99,0,0,0-.9-.411c-.346.025-1.193.9-1.193.9a1.171,1.171,0,0,0,.731,1.188.812.812,0,0,0,.389.054.98.98,0,0,0,.338-.123,1.536,1.536,0,0,0,.672-.676.983.983,0,0,0-.035-.928Z" transform="translate(-119.073 -273.684)" fill="#db9377"/>
          <path id="Trazado_167234" data-name="Trazado 167234" d="M62.964,216.9c-.151-.655-.594-1.377-1.266-1.358a1.938,1.938,0,0,0-.553.133c-2.878.966-6.043.406-9.033.934l-.5.28a4.035,4.035,0,0,0,2.076,1.088,11.191,11.191,0,0,0,2.468.341,13.989,13.989,0,0,1,2.055.09,2.575,2.575,0,0,1,1.736,1c.157.235.257.5.417.739a1.34,1.34,0,0,0,1.888.37,1.7,1.7,0,0,0,.381-.555,4.73,4.73,0,0,0,.333-3.061Z" transform="translate(-42.76 -180.257)" fill="#db9377"/>
          <path id="Trazado_167235" data-name="Trazado 167235" d="M68.927,260c-.176-.347-.63-.391-.991-.536-7.923-3.176-5.955-12.257-5.915-13.9q.085-3.409.169-6.818a17.706,17.706,0,0,0-.184-3.842,5.95,5.95,0,0,0-1.76-3.352c-1.462-1.292-3.577-1.478-5.527-1.456a22.216,22.216,0,0,0-5.93.754s4.43.05,6.1.31a5.435,5.435,0,0,1,4.093,2.656,7.738,7.738,0,0,1,.619,3.077q.273,4.8.082,9.616a17.8,17.8,0,0,1-.638,4.641c-.456-.835-.89-1.683-1.325-2.527q-.852-1.652-1.727-3.293a14,14,0,0,0,1.454-5.4A5.371,5.371,0,0,0,57,237.377a2.812,2.812,0,0,0-1.964-1.585,43.2,43.2,0,0,1,.454,5.768,6.755,6.755,0,0,1-.538,1.853A93.545,93.545,0,0,0,48.545,233.2c-1.253-1.708-2.581-3.39-3.963-5.045a6.254,6.254,0,0,1-1.354-2.874c-1.377-7.458-1.709-14.821-2.7-22.65-.178-1.4-.5-3-1.724-3.711l-.295,2.127c-.03,5.866.716,14.611,1.2,20.13-.2-.221-.418-.436-.63-.646l-.965-.977a6.8,6.8,0,0,1-1.412-1.732,6.182,6.182,0,0,1-.343-2.6c0-.636-.034-1.272-.083-1.907a5.413,5.413,0,0,0-1.1-3.325c-.942-1.021-2.445-1.244-3.826-1.406a14.393,14.393,0,0,1,2.136,2.631,11.7,11.7,0,0,1,.683,2.73A3.743,3.743,0,0,1,34,216.41q-1.516-1.4-2.944-2.89a3.962,3.962,0,0,1-.6-.735A4.7,4.7,0,0,1,30.029,211a3.827,3.827,0,0,0-1.059-2.5,3.157,3.157,0,0,0-2.921-.406,15.781,15.781,0,0,1,1.524,2.911c-3.433-2.919-6.9-5.424-10.322-8.495l.274-.545a6.47,6.47,0,0,0-1.027,1.175l6.992,6.932S51.073,235.492,60.3,259.729a5.931,5.931,0,0,0,2.649,2.483c.77.076,1.545.111,2.305.132,1.505.041,3.458-.291,3.727-1.773a.9.9,0,0,0-.057-.568Z" transform="translate(-16.498 -167.826)" fill="#db9377"/>
          <path id="Trazado_167236" data-name="Trazado 167236" d="M404.509,87.033a1.463,1.463,0,0,0-1.615-.306l-.011.509a18.62,18.62,0,0,0,.019,2.959,1.026,1.026,0,0,0,.185.6.7.7,0,0,0,.4.214,1.079,1.079,0,0,0,1.051-.415,2.128,2.128,0,0,0,.282-1.212l.023-.794A2.242,2.242,0,0,0,404.509,87.033Z" transform="translate(-305.453 -83.829)" fill="#db9377"/>
          <path id="Trazado_167237" data-name="Trazado 167237" d="M404.665,116.95a1.62,1.62,0,0,0-.692-1.14,2.011,2.011,0,0,0-1.455-.08l-.048,1.868q.031.748.061,1.5a1.281,1.281,0,0,0,.229.827.954.954,0,0,0,.781.225,1.021,1.021,0,0,0,.568-.168,1.344,1.344,0,0,0,.389-.869q.066-.38.122-.762A4.517,4.517,0,0,0,404.665,116.95Z" transform="translate(-305.181 -105.535)" fill="#db9377"/>
          <path id="Trazado_167238" data-name="Trazado 167238" d="M404.453,147.035a1.216,1.216,0,0,0-1.028-.4c-.19.021-.406.126-.422.317l-.237,1.263a8.741,8.741,0,0,0,.17,2.043.711.711,0,0,0,.16.375.555.555,0,0,0,.3.138,1.109,1.109,0,0,0,.962-.31,2.088,2.088,0,0,0,.45-1.326,8.026,8.026,0,0,0,.035-.832A1.953,1.953,0,0,0,404.453,147.035Z" transform="translate(-305.398 -128.721)" fill="#db9377"/>
          <path id="Trazado_167239" data-name="Trazado 167239" d="M366.511,95.581A17.5,17.5,0,0,1,363.5,85.8a4.094,4.094,0,0,1,.232-1.79,7,7,0,0,1,.7-1.073,4.3,4.3,0,0,0,.39-4.424,3.154,3.154,0,0,0-2.426-1.561,3.115,3.115,0,0,0-2.634,1.144,4.634,4.634,0,0,0-.484,2.617,3.172,3.172,0,0,0,2.076,2.05.277.277,0,0,1,.261.313c.169,2.43-.227,4.893.118,7.3a4.762,4.762,0,0,0-1.047,1.67l-1.109,2.508a13.021,13.021,0,0,0-.993,2.805.193.193,0,0,0,.188.27,6.752,6.752,0,0,0,2.6.058.432.432,0,0,0,.23-.089c.136-.128.065-.351,0-.526a4.168,4.168,0,0,1,.156-3.012,6.888,6.888,0,0,1,.617-1.147,32.015,32.015,0,0,0,1.386,3.248,3.012,3.012,0,0,1,.413,1.465c-.036.514-.448,1.037-.943.979A15.588,15.588,0,0,0,367,98.492a.683.683,0,0,0,.384-.145.6.6,0,0,0,.151-.334A3.44,3.44,0,0,0,366.511,95.581Z" transform="translate(-272.347 -76.599)" fill="#db9377"/>
          <path id="Trazado_167240" data-name="Trazado 167240" d="M322.142,86.632c-.058-.479-.508-.795-.857-1.128a3.493,3.493,0,0,1-.679-.9,1.269,1.269,0,0,1-.176-.872c.163-.664,1.139-.946,1.159-1.63.015-.51-.527-.844-1.014-1a5.48,5.48,0,0,0-1.376-.242s-1.12.1-1.244.439a2.568,2.568,0,0,0-.084,1.077,12.588,12.588,0,0,0,.88,3.733.812.812,0,0,1,.089.5.7.7,0,0,1-.341.373,5.986,5.986,0,0,1-2.574.659,24.767,24.767,0,0,0,4.3.255,2.963,2.963,0,0,0,1.27-.236A1.1,1.1,0,0,0,322.142,86.632Z" transform="translate(-240.451 -79.53)" fill="#db9377"/>
          <path id="Trazado_167241" data-name="Trazado 167241" d="M311.428,88.424A5.4,5.4,0,0,1,310.937,86a2.528,2.528,0,0,1,1.216-2.057,3.239,3.239,0,0,0-1.121-.517,1.2,1.2,0,0,0-.743.009,1.01,1.01,0,0,0-.527.637,3.876,3.876,0,0,0-.131.841,8.684,8.684,0,0,1-.493,2.154,3.722,3.722,0,0,0-.252.848.981.981,0,0,0,.243.821,1.441,1.441,0,0,0,1.2.2,9.077,9.077,0,0,1,1.555.182A1.551,1.551,0,0,1,311.428,88.424Z" transform="translate(-235.177 -81.406)" fill="#db9377"/>
          <path id="Trazado_167242" data-name="Trazado 167242" d="M307.581,123.273a.574.574,0,0,0-.261-.456.56.56,0,0,0-.214-.036,11.122,11.122,0,0,0-1.934.2c-.165.025-.331.041-.5.062a1.892,1.892,0,0,1,.364.949,2.827,2.827,0,0,1-1.089,2.353,6.349,6.349,0,0,1-2.425,1.137,7.645,7.645,0,0,1-1.017.222,8.178,8.178,0,0,1-2.618-.371c-4.288-.834-1.817-4-1.676-4.069a12.848,12.848,0,0,0-4.342.153l-.189.658a6.993,6.993,0,0,0,2.823,4.141,9.854,9.854,0,0,0,4.779,1.691,8.766,8.766,0,0,0,5.879-1.33,5.557,5.557,0,0,0,2.415-5.307Z" transform="translate(-222.321 -110.88)" fill="#db9377"/>
          <path id="Trazado_167243" data-name="Trazado 167243" d="M279.949,100.863a3.011,3.011,0,0,0-1.044-.392,15.158,15.158,0,0,0-2.779-.364c-1.683-.063-3.469.134-4.959-.651a5.561,5.561,0,0,1-2.583-3.559,16.483,16.483,0,0,1-.355-4.5l.072-5.637a4.335,4.335,0,0,0-.383-2.267,1.494,1.494,0,0,0-1.971-.663s.5,9.578,1.352,14.231a16.093,16.093,0,0,0,1.047,3.776,1.994,1.994,0,0,0,.632.869,2.226,2.226,0,0,0,1.12.279c2.882.192,5.768.29,8.655.388a3.921,3.921,0,0,0,1.4-.123.562.562,0,0,0,.242-.139.48.48,0,0,0,.1-.328A1.175,1.175,0,0,0,279.949,100.863Z" transform="translate(-203.07 -80.874)" fill="#db9377"/>
          <path id="Trazado_167244" data-name="Trazado 167244" d="M239.535,75.74c-2.191,1.512-4.31,3.478-4.887,6.078a11.572,11.572,0,0,0-.2,1.375,1.482,1.482,0,0,0,.28,1.277,1.051,1.051,0,0,0,1.5-.412,3.885,3.885,0,0,0,.337-1.727,9.333,9.333,0,0,1,3.738-6.764Z" transform="translate(-179.496 -75.568)" fill="#db9377"/>
          <path id="Trazado_167245" data-name="Trazado 167245" d="M235.937,123.292a2.448,2.448,0,0,0-.214-1.137,1.361,1.361,0,0,0-1.927-.422l-.22.974a9.869,9.869,0,0,0,.124,2.031,1.231,1.231,0,0,0,.507.95.859.859,0,0,0,.725-.008,1.645,1.645,0,0,0,.859-1.024A4.146,4.146,0,0,0,235.937,123.292Z" transform="translate(-178.852 -109.922)" fill="#db9377"/>
          <path id="Trazado_167246" data-name="Trazado 167246" d="M235.844,153.4a1.428,1.428,0,0,0-1.931-.39l-.042.2a.781.781,0,0,0-.031.824,1.313,1.313,0,0,0,.652.555,1.375,1.375,0,0,0,.889.1.846.846,0,0,0,.619-.6A.933.933,0,0,0,235.844,153.4Z" transform="translate(-178.98 -133.322)" fill="#db9377"/>
          <path id="Trazado_167247" data-name="Trazado 167247" d="M201.5,106.749a9.478,9.478,0,0,0-3.321,1.521,1.4,1.4,0,0,0-.351.325,1.446,1.446,0,0,0-.191.527c-.736,3.438-.383,7,0,10.5a.743.743,0,0,0,.139.426.6.6,0,0,0,.735.009,1.885,1.885,0,0,0,.8-1.244,6.246,6.246,0,0,0,.064-1.518,35.551,35.551,0,0,1,.373-6.412,8.317,8.317,0,0,1,.333-1.505,6.758,6.758,0,0,1,2.113-2.844Z" transform="translate(-151.656 -98.729)" fill="#db9377"/>
          <path id="Trazado_167248" data-name="Trazado 167248" d="M174.63,127.791a3.281,3.281,0,0,1-.423-1.846q-.015-.779.005-1.557a7.791,7.791,0,0,1,.173-1.649,4.46,4.46,0,0,1,2.63-3.033l-1.048.1a8.288,8.288,0,0,0-2.682,1.177,2.96,2.96,0,0,0-.9.846,3.235,3.235,0,0,0-.387,1.291,15.52,15.52,0,0,0,.306,5.81,1.982,1.982,0,0,0,.433.942,2.127,2.127,0,0,0,1.223.474,3,3,0,0,0,1.068.042,1.02,1.02,0,0,0,.8-.643,1.194,1.194,0,0,0-.363-1.091A9.469,9.469,0,0,1,174.63,127.791Z" transform="translate(-132.699 -108.58)" fill="#db9377"/>
          <path id="Trazado_167249" data-name="Trazado 167249" d="M147.663,132.169a12.369,12.369,0,0,0-2.055,1.225.907.907,0,0,0-.277.279.926.926,0,0,0-.084.351,25.547,25.547,0,0,0-.045,4.6,1.651,1.651,0,0,0,.489,1.25,1.165,1.165,0,0,0,1.578-.477,3.375,3.375,0,0,0,.314-1.8l-.025-2.042a7.524,7.524,0,0,1,.156-2,2.536,2.536,0,0,1,1.13-1.6Z" transform="translate(-112.698 -117.737)" fill="#db9377"/>
          <path id="Trazado_167250" data-name="Trazado 167250" d="M181.51,128.177s4.762-12.993,1.667-23.417L174.942,86.67l-3.712-6.034a12.478,12.478,0,0,0-3.074-1.828,16.137,16.137,0,0,1,2.067,7.878c-.008,2.029-.4,4.047-.32,6.075.047,1.181.113,2.625.158,4.257a6.148,6.148,0,0,1-6.1,6.314l-82.228.66,79.523,4.109a7.518,7.518,0,0,1,5.845,3.289,2.111,2.111,0,0,1-.648,2.985,3.718,3.718,0,0,1-.971.451,4.331,4.331,0,0,1-1.279.053c-2.6-.167-5.158-.686-7.754-.844a15.993,15.993,0,0,0-7.833,1.613c3.859-.154,12.485,1.873,17.475,2.025a1.5,1.5,0,0,1,1.368,2,60.7,60.7,0,0,1-5.921,12,3.941,3.941,0,0,1,2.895,1.1,1.858,1.858,0,0,1-.353,3.075,3.438,3.438,0,0,1-2.995.45l-.03-.009a3.327,3.327,0,0,0-3.566,1.187c-1.492,1.949-3.062,3.824-4.678,5.618a1.169,1.169,0,0,0,.043,1.614,3.185,3.185,0,0,0,1.039.773,2.646,2.646,0,0,0,1.491-.119,8.156,8.156,0,0,0,1.565-.686,4.381,4.381,0,0,1,3.531-.681c1.085.425,1.7,1.622,2.749,2.124a2.515,2.515,0,0,0,1.937.081c-.741.371-1.366,1.054-2.189,1.068a3.363,3.363,0,0,1-1.4-.435,5.948,5.948,0,0,0-4.88-.282,7.3,7.3,0,0,1-1.874.849,3.729,3.729,0,0,1-2.712-1.1l-.013-.01a1.827,1.827,0,0,0-2.437.149c-2.123,2.156-4.187,4.225-6.2,6.167a137.317,137.317,0,0,1-.08,14.705c-.756-3.07-1.655-10.427-1.72-10.962a.94.94,0,0,0-1.568-.578q-1.469,1.338-2.9,2.557l.073,3.346a4.85,4.85,0,0,1-.254,1.721,1.109,1.109,0,0,1-.385.566.464.464,0,0,1-.328.091c-.274-.044-.376-.38-.417-.655q-.147-.966-.264-1.937a.946.946,0,0,0-1.507-.649c-4.784,3.637-9.289,5.964-13.61,6.231a3.516,3.516,0,0,1-3.741-3.355c-.34-8.207-1.2-30.862-.912-43.681a58.336,58.336,0,0,0-.435-11.177c-.148-.863-.678-1.957-1.532-1.759l.077,62.259c-.825.828-1.584,1.777-2.369,2.617-.07.076-.144.145-.216.218,2.237,1.415,6.555,2.971,14.733,2.971,0,0,11.708-1.571,17.848,1.084l30.984-.849s6.274,1.062,5.993-3.357c0,0-.9-22.895,1.91-35.574Z" transform="translate(-65.292 -77.991)" fill="#db9377"/>
        </g>
      </g>
      <g id="Layer_5" data-name="Layer 5" transform="translate(6.173 31.609)">
        <path id="Trazado_167251" data-name="Trazado 167251" d="M128.369,52.468c-.7-6.233-5.2-10.9-9.73-14.829q-1.851-1.664-3.705-3.325c-1.1-.984-2.2-2.239-3.7-2.574-1.546-.346-3.391.083-4.944.246-5.464.565-10.886,1.471-16.29,2.443-6.039.954-12.212,2.195-17.742,4.852-2.624,1.149-4.4,3.386-6.506,5.238-4.483,3.95-9.9,6.7-15.382,8.981-6.011,2.508-12.169,4.694-18.3,6.889-2.722.975-5.456,1.83-7.558,3.913-2.348,2.78-5.53,4.506-8.728,6.133a24.79,24.79,0,0,0-3.874,2.078c-.835.534-3.967,1.254-4.013,2.046-.5,6.292-3.705,13.1.168,18.945,3.384,5.495,9.546,8.489,13.8,13.218,4.363,4.849,6.491,11.156,11.165,15.747a55.263,55.263,0,0,1,6.415,7.117,28.632,28.632,0,0,0,6.125,6.826c12.188,8.349,27.756,1.657,41.233,4.717,10.288,1.295,20.731-.013,31.076.076,4.728.118,7.983-.232,7.365-6.075.169-10.178-.408-20.51.977-30.609a19.011,19.011,0,0,0,.539-4.462c-.921-6.583-.535-7.79,1.13-14.1a115.334,115.334,0,0,0,1.2-12.683c.043-3.575-.506-7.121-.519-10.694a75.14,75.14,0,0,0-.2-10.119Zm-5.8-8.417c2.123,2.577,3.964,5.654,3.745,9.084-.045,1.189.017,3.71-1.084,4.462-3.765,2.277-5.841-6.293-6.96-8.806-.685-2.044-1.493-4.421-.487-6.485.385-.789-.739-1.472-1.19-.7a6.375,6.375,0,0,0-.681,4.075c-5.876-7.773-22.106-4.508-20.192-9.6,3.264-1.34,6.394-1.3,9.755-1.706a14.91,14.91,0,0,1,5.474.171,17.975,17.975,0,0,1,5.351,3.425A64.8,64.8,0,0,1,122.567,44.051ZM11.354,95.031a12.532,12.532,0,0,1-3.506-9.766c.353-1.309.151-3.942,2.11-3.741,3.226,2.306,6.394,4.859,8.446,8.331,1.061,2.224,5.821,11.519.709,11.269a4.448,4.448,0,0,1-1.369-.558A48.333,48.333,0,0,1,11.354,95.031Zm24.684,27.775a19.472,19.472,0,0,1,7,3.548c.712.463,1.3-.519.842-1.092a11.84,11.84,0,0,0-5.356-3.366c-2.161-.764-4.379-1.169-6-2.942-3.184-4.647-7.833-12.061-4.132-17.464,3.921,1.45,6.732,5.105,9.088,8.442a153.331,153.331,0,0,1,12.544,21.479c1.61,4.918-3.756,3.1-5.765,1.369-2.845-3.22-5.06-7.022-8.223-9.974ZM99.2,139.771c-.138-2.389,2.764-3.607,1.442-6.021a39.017,39.017,0,0,1,4.167-.1c-1.464,2.062,1.432,3.8,1.218,5.92C103.755,139.614,101.48,139.709,99.2,139.771Zm24.031-1.764c-.722,2.008-6,1.144-7.867,1.38l-7.367.148a5.109,5.109,0,0,0-.874-3.27c-.32-.479-.8-.913-.722-1.506.244-1.055,1.853-2.531-.126-2.981a36.769,36.769,0,0,0-7.22.2.978.978,0,0,0-.681,1.645c2.07,1.964-1.235,3.135-.828,6.19a69.3,69.3,0,0,1-8.021-.249,3.554,3.554,0,0,1-1.569-2.259c.294-19.093-.067-38.2.045-57.3a40.7,40.7,0,0,0-.345-7.186.53.53,0,0,0-1.014,0c-.738,4.13-.346,8.535-.349,12.722-.022,15.345.033,30.688-.015,46.033-.512,1.9.575,6.81-1.688,7.234-.983-.163-1.959-.291-2.938-.382,3.384-3.886-.093-4.258-3.4-4.073-4.5-.161-9.016-.137-13.514.136-1.2.073-1.215,1.931,0,1.879,5.435-.281,10.785-.187,16.227-.031-1.483,2.487-5.718,1.457-8.024,2.283-5.425.474-14.737,1.228-14.629-6.488.176-15.189-.012-30.377.047-45.566q0-3.636-.006-7.272c-.076-1.172.776-10.02-1.583-7.213-.551,4.1-.03,8.342-.2,12.479.072,16.777-.174,33.557.118,50.332a30.263,30.263,0,0,1-5.586-7.167c2.565-3.272,2.083-12.213,1.813-16.407-.376-7.511-6.543-6.1-12.061-6.008a.781.781,0,1,0,0,1.563c4.951.384,10.43-1.778,10.3,5.416a55.957,55.957,0,0,1-.076,7.79c-.124,1.565-.07,4.224-1.012,5.838-1.077-1.939-2.084-3.92-3.144-5.857,2.085-1.493,2.767-7.9.837-9.659a.672.672,0,0,0-1.134.469c.359,2.412.92,5.369-.672,7.467a118.37,118.37,0,0,0-12.305-17.6,20.257,20.257,0,0,1-1.028-4.789q-.477-7.31-.669-14.633c-.064-2.226.039-4.513-.22-6.726a.853.853,0,0,0-1.705,0c-.272,7.592.3,15.223.706,22.807q-1.5-1.651-3.05-3.245c-.151-3.867.684-9.524-3.973-11.022-.488-.138-1.052.468-.712.926,3.282,2.769,2.652,4.1,2.667,8.084q-2.155-2.1-4.416-4.088a13.72,13.72,0,0,0-.385-2.532c-.34-1.437-1.264-2.126-2.094-3.256a.8.8,0,0,0-1.384.809c.5,1.141,1.512,1.776,1.672,3.11-3.141-2.631-6.9-4.991-8.668-8.832.634-3.5,4.925-4.721,7.7-6.342a9.425,9.425,0,0,1,4.679-1.537c12.034-.49,24.1-.218,36.14-.342,17.934.008,35.852-.039,53.787.07,2.077.722,2.811,3.025,2.686,5.025a49.343,49.343,0,0,0,.1,6.024.812.812,0,0,0,1.623,0c.248-3.342.118-6.642.12-10.028a2.4,2.4,0,0,1,.857-1.146q.919-.038,1.837-.093a.692.692,0,0,0,0-1.383c-12.333-.452-24.7-.008-37.038-.149q-27.963,0-55.923-.028c-.9-.042-1.881-.926-1.448-1.8a10.476,10.476,0,0,1,2.482-1.888c3.838-1.745,7.94-2.874,11.861-4.423,1.167,1.294.544,3.264.762,4.846a.958.958,0,0,0,1.914,0c.12-1.943.112-3.914.083-5.862,1.515-.562,3.032-1.127,4.542-1.709,0,1.321-.083,2.594.038,3.893-.353,2.556-.055,4.94,3.111,4.751a1,1,0,0,0,0-1.994c-1.832-.685-.8-4.276-1.164-5.945.123-1.534,1.645-2.206,2.9-2.685.628.225,1.162.417,1.255,1.321.108,1.326.129,2.659.209,3.99a19.762,19.762,0,0,0,.242,4.461c.22,1.03,1.576.653,1.687-.228a45.72,45.72,0,0,0-.025-5.424c-.025-1.875.207-3.787.014-5.649a57.277,57.277,0,0,0,7.162-4.021c.061.909-.147,3.117,1.283,2.829a.971.971,0,0,0,.865-.909c-.133-2.127,1.305-3.809,2.385-5.509,3.453-3.5,6.445-5.779,11.622-5.73a143.619,143.619,0,0,1,19.026,1.146c15.322,1.638,17.26,3.572,22.472,17.776,3.052,6.59,6.176,13.458,6.423,20.828a12.783,12.783,0,0,1-3.383-.237c-1.506-.759-1.153-3.118-.431-4.433a.9.9,0,0,0,.813-.889c-.109-1.286-2.027-1.015-2.814-.561-1,.846-.72,2.582-.6,3.754.069,4,3.028,4.482,6.425,4.25a24.016,24.016,0,0,1-.574,4.57c-.582,2.075-.816,4.348-2.153,6.107-.819,1.2-1.965,1.214-3.232,1.542a.76.76,0,0,0-.18,1.375,3.883,3.883,0,0,0,3.905-.645c.069,2.8.9,5.608.328,8.4a7.488,7.488,0,0,0-2.667-.034c-.847.067-2.2.015-2.477,1.017-1.568,3.319-.771,11.058,3.983,11.1-.033,2.053-.023,4.109-.033,6.155a18.117,18.117,0,0,0-2.066.1l.011.006a.883.883,0,0,0-.011,1.7,6.45,6.45,0,0,0,2.049.167q-.044,3.464-.089,6.929a21.035,21.035,0,0,0-3.944.488c-.787.147-.685,1.086-.144,1.43.165,1-.206,2.061.008,3.03a.69.69,0,0,0,1.145.3c.717-.955.6-1.764.766-3.092.681-.1,1.512.017,2.143-.122-.1,1.888.364,4.269-.2,6.12Zm.411-25.224c-3.349-.765-2.853-5.475-2.59-8.159,1.186-.055,2.22-.071,3.367-.059a58.391,58.391,0,0,0-.778,8.217Z" transform="translate(-6.173 -31.609)" fill="#3a3245"/>
        <path id="Trazado_167252" data-name="Trazado 167252" d="M162.59,416.493a.7.7,0,0,0,0-1.394A.7.7,0,0,0,162.59,416.493Z" transform="translate(-122.659 -318.436)" fill="#3a3245"/>
        <path id="Trazado_167253" data-name="Trazado 167253" d="M440.884,237.439a.94.94,0,0,0-1.328,1.329A.94.94,0,0,0,440.884,237.439Z" transform="translate(-330.106 -185.346)" fill="#3a3245"/>
        <path id="Trazado_167254" data-name="Trazado 167254" d="M440.817,267.135c0-4.145.175-8.345-.119-12.482a.727.727,0,0,0-1.453,0c-.374,8.14,0,16.317-.117,24.465q0,5.992.02,11.983c.011,4.144-.174,8.349.158,12.482a.666.666,0,0,0,1.331,0C441.079,291.451,440.682,279.278,440.817,267.135Z" transform="translate(-329.956 -197.908)" fill="#3a3245"/>
        <path id="Trazado_167255" data-name="Trazado 167255" d="M59.079,208.063c-.582-.324-1.134.392-1.169.917a6.582,6.582,0,0,1-2.815-1.445c-.555-.4-1.3.382-.933.933a5.024,5.024,0,0,0,.882.966,5.977,5.977,0,0,1-4.165-2.071c-.449-.395-1.4-.022-1.122.653a4.447,4.447,0,0,0,.954,1.409c-.477-.019-.955-.043-1.433-.079-1.188-.089-1.125,1.667,0,1.815a50.583,50.583,0,0,0,8.578.05c-.015.436-.027.871-.018,1.305a.958.958,0,0,0,1.914,0c-.073-1.179.354-3.767-.675-4.454Z" transform="translate(-37.765 -162.941)" fill="#3a3245"/>
        <path id="Trazado_167256" data-name="Trazado 167256" d="M142.839,217.541c-1.565-3.983-6.509-4.635-8.1-8.327-.5-1.991-.476-4.483-2.844-5.247-1.147-.7-6.39.072-4.926,2.046,1.4,1.243.249,4.058,2.527,6.806.937,1.519,2.576,2.643,2.606,4.574a12.8,12.8,0,0,1-.892,3.51c-.341.971-1.118,3.694-1.391,4.666a10.99,10.99,0,0,1-1.224.1.963.963,0,0,0,0,1.926,10.893,10.893,0,0,0,3.519-.1c.994-.354.529-1.56-.365-1.638a46.754,46.754,0,0,0,2.089-8.078c2.042,2.6.89,6.185.078,9.057a1.072,1.072,0,0,0,.809,1.271,22.865,22.865,0,0,1,2.266.316c1.143.286,1.629-1.508.485-1.76a10.456,10.456,0,0,0-1.489-.232,46.745,46.745,0,0,0,.922-5.618c.366-1.49,1.622-.342,2.023.4,1.006,2.1,1.92,4.243,2.922,6.344.435.93,2.024.271,1.671-.706a8.666,8.666,0,0,1-.384-1.466c-.058-.33.023-1.245-.26-1.506a.824.824,0,0,0,.15.108,9.936,9.936,0,0,0,.76,1.563c.494.81,1.988.279,1.6-.675-.972-2.4-1.475-4.979-2.551-7.33Zm-1.175,5.25c-.882-2.218-2.455-5.667-5.313-3.991-2.18-5.54-6.659-4.678-6.73-12.6.926-.448,2.042-.731,2.657.319.6,1.029.411,2.417.826,3.526.71,1.9,2.406,3.142,4.033,4.22,3.165,1.838,4.549,4.462,5.308,7.963a1.623,1.623,0,0,0-.782.565Z" transform="translate(-96.327 -160.332)" fill="#3a3245"/>
        <path id="Trazado_167257" data-name="Trazado 167257" d="M152.213,340.832a.977.977,0,1,0,1.833-.675A.977.977,0,0,0,152.213,340.832Z" transform="translate(-115.366 -261.942)" fill="#3a3245"/>
        <path id="Trazado_167258" data-name="Trazado 167258" d="M244.552,206.538c-.777-1.5-3.189-2.369-4.711-2.853-3.955-1.271-8.224-.846-12.184.178-1.557.452-4.83.925-5.156,2.851a.681.681,0,0,0,.159.9c3.655,2.938,8.517,3.8,13.1,3.785a16.69,16.69,0,0,0,6.507-1C243.688,209.8,245.885,208.182,244.552,206.538Zm-11.086,2.947a20.676,20.676,0,0,1-9.051-2.687,23.274,23.274,0,0,1,13.845-1.695C244.46,208.507,236.678,210.024,233.467,209.486Z" transform="translate(-167.895 -159.724)" fill="#3a3245"/>
        <path id="Trazado_167259" data-name="Trazado 167259" d="M250.525,248.772c1.664.018,3.792.966,4.879-.8a.969.969,0,0,0-.574-1.412c-3.107-.714-9.03-1.706-11.693.223-.387.514-.3,1.478.466,1.59A50.286,50.286,0,0,0,250.525,248.772Z" transform="translate(-183.24 -191.708)" fill="#3a3245"/>
        <path id="Trazado_167260" data-name="Trazado 167260" d="M256.672,286.947a5.167,5.167,0,0,0-3.562-1.487c.856-1.613-1.277-3.3-2.726-2.31a2.224,2.224,0,0,0-.788,2.838q-2.674.021-5.344.186c.752-.878,1.559-1.7,2.385-2.53.645-.647-.239-1.905-1.012-1.311a20.757,20.757,0,0,0-4.138,4.435.918.918,0,0,0,.788,1.374c2.438-.2,4.958-.4,7.446-.378a18.416,18.416,0,0,0,1.939,8.2c.078,1.857-4.6.451-5.658.242a7.041,7.041,0,0,0-2.6-.534.575.575,0,0,0-.4.968c1.752,1.433,4.551,1.749,6.758,2.037-2.227.534-4.588.38-6.806.818a.86.86,0,0,0,0,1.644c1.425.459,3.176.076,4.633-.118a20.442,20.442,0,0,0,4.492-.805c2.067-.82,1.893-3.354,1.835-5.283a41,41,0,0,0,.317-6.68c2.693,1.151,1.892,5.31,2.269,7.742a.928.928,0,0,0,1.855,0C258.3,293.358,258.4,289.023,256.672,286.947Zm-4.232.947a42.232,42.232,0,0,1-.12,5.243,26.26,26.26,0,0,1-.926-5.319q.525.028,1.046.076Z" transform="translate(-182.072 -219.018)" fill="#3a3245"/>
        <path id="Trazado_167261" data-name="Trazado 167261" d="M229.181,385.407a.624.624,0,0,0-.747-.1c-1.08.651-.906,2.211-.96,3.344-.061,1.27-.328,3.059.42,4.15,2.126,1.677,1.533-2.843,1.563-3.915C229.5,387.747,230.021,386.316,229.181,385.407Z" transform="translate(-171.62 -296.094)" fill="#3a3245"/>
        <path id="Trazado_167262" data-name="Trazado 167262" d="M267.787,386.762a.894.894,0,0,0-1.786,0c-.233,2.226-.24,4.509-.269,6.746a.949.949,0,0,0,.479.836c2.048.8,1.444-2.377,1.5-3.486C267.742,389.493,267.821,388.125,267.787,386.762Z" transform="translate(-200.307 -296.597)" fill="#3a3245"/>
        <path id="Trazado_167263" data-name="Trazado 167263" d="M299.381,387.9c-1.538-.394-1.337,2.135-1.276,3.117a16.912,16.912,0,0,0,.154,4.287.882.882,0,0,0,1.686,0,16.915,16.915,0,0,0,.143-4.287C300.081,389.91,300.412,388.585,299.381,387.9Z" transform="translate(-224.475 -298.06)" fill="#3a3245"/>
        <path id="Trazado_167264" data-name="Trazado 167264" d="M343.3,207.82a56.388,56.388,0,0,1,11.829-.246c2.263.165,5.484,1.112,7.484.031,1.429-.937,1.095-3.615.891-5.025-.176-1.223-2.042-.706-1.861.513.084,1,.677,3.5-1.162,3.087-1.714-.052-3.136-.265-4.775-.411-3.813-.129-9.688-5.75-12.659-3.192-.809,1.415,1.6,1.022,2.351,1.146a13.788,13.788,0,0,1,4.236,1.778c-1.636.207-5.909-.247-6.828,1.1A.839.839,0,0,0,343.3,207.82Z" transform="translate(-257.865 -158.962)" fill="#3a3245"/>
        <path id="Trazado_167265" data-name="Trazado 167265" d="M341.536,246.015c3.822.2,1.036,5.243,4.129,7.959l-3.481.383c-1.221.135-1.268,2.04,0,1.949a61.74,61.74,0,0,1,7.391-.086,1,1,0,0,0,.937-.714,3.324,3.324,0,0,1,5.394-1.319.629.629,0,0,0,.091.169,9.515,9.515,0,0,1-1.343.06.992.992,0,0,0,0,1.984,29.785,29.785,0,0,0,6.116-.474.968.968,0,0,0,.692-.692c.4-1.718.777-3.742-.23-5.331a3.785,3.785,0,0,0,.915-1.844.869.869,0,0,0-1.58-.666c-.4.691-1.306.6-2.038.522a14.132,14.132,0,0,0-5.062-.781c-2.316.3-2.032-1.027-3.177-2.475,1.4-.355,2.785-1.008,4.037-1.445,2.385-.832,4.756-1.533,6.018-3.909.623-1.3-1.16-1.662-2.061-1.83,3.932-4.954-2.889-3.536-5.352-1.938-1.654,1.056-2.722,2.881-4.574,3.614-2.653.9-6.337,1.1-7.406,4.191C340.522,244.195,340.15,245.854,341.536,246.015Zm8.533-5.7c2.246-1.571,3.753-4.044,6.776-4.211a5.52,5.52,0,0,1-2.116,1.623c-1.032.472-.3,2.116.763,1.811a5.507,5.507,0,0,1,2.427-.162,10.343,10.343,0,0,1-4.112,1.961c-1.921.488-3.8,1.717-5.817,1.62a6.419,6.419,0,0,0-.647-.229c-1.2-.316-1.8,1.605-.521,1.888,1.8.393,2.33,1.92,3.069,3.363.807,1.1,2.163,1.147,3.41,1.118,3.324-.068,7.744.587,6.387,5q-.724.11-1.451.181c-1.558-4.012-7.549-3.7-9.266-.029l-.3-.01c-.843-.928-1.966-1.708-2.467-2.909-.541-1.216-.234-2.6-.5-3.877a4.243,4.243,0,0,0-3.276-3.3c.54-2.842,5.634-2.671,7.633-3.841Z" transform="translate(-256.274 -183.019)" fill="#3a3245"/>
        <path id="Trazado_167266" data-name="Trazado 167266" d="M360.168,339.957c-4.732,3.615-3.4-2.319-8.676.968a4.943,4.943,0,0,1-1.849.89c-.781.077-1.125-.315-1.591-.871-1.547-1.844-3.673-1.187-5.049.545a.739.739,0,0,0,1.044,1.044,4.712,4.712,0,0,1,1.474-1.013c1.649-.41,1.453,3.45,5.551,1.755,1-.434,2.03-1.482,3.152-1.518.975-.031,1.679,1.008,2.6,1.255,1.493.416,2.8-.594,4.027-1.285,1.155-.6,1.837-.219,2.453.894.6,1.075,2.259.108,1.65-.964C363.883,339.783,362.176,338.964,360.168,339.957Z" transform="translate(-257.95 -261.916)" fill="#3a3245"/>
        <path id="Trazado_167267" data-name="Trazado 167267" d="M359.5,366.8c0,1.7.252,4.623-1.99,4.888a58.184,58.184,0,0,1-6.238.157c-3.66.128-8.257,1.057-7.554-4.271.664,0,1.339-.041,1.962-.076a.973.973,0,0,0,0-1.946,16.982,16.982,0,0,0-3.508.272.733.733,0,0,0-.59.628c-.407,1.966-.718,4.04-2.073,5.615-.471.547-.218,1.7.666,1.607a2.317,2.317,0,0,1,2.665,2.161.987.987,0,0,0,1.824.494,3.012,3.012,0,0,0,.393-1.35c1.671-1.5,4.235-.95,6.216-1.164l4.485-.1c4.878.442,6.012-2.65,5.722-6.92C361.4,365.534,359.418,365.526,359.5,366.8Z" transform="translate(-255.313 -281.379)" fill="#3a3245"/>
        <path id="Trazado_167268" data-name="Trazado 167268" d="M459.173,249.155l2.089-.076c1.286-.047,1.287-2.062,0-2l-2.089.1C457.908,247.238,457.9,249.2,459.173,249.155Z" transform="translate(-344.276 -192.766)" fill="#3a3245"/>
        <path id="Trazado_167269" data-name="Trazado 167269" d="M432.724,121.057c-3.241.067-4.8-1.764-4.94-4.9-.031-1.89.033-3.814-.154-5.7a.9.9,0,0,0-1.808,0,93.135,93.135,0,0,0,.038,10.65,1.724,1.724,0,0,0,1.653,1.927,21.5,21.5,0,0,0,5.211.016A1,1,0,0,0,432.724,121.057Z" transform="translate(-319.938 -89.932)" fill="#3a3245"/>
        <path id="Trazado_167270" data-name="Trazado 167270" d="M399.528,87c.1,1.139-.854,3.872,1.133,3.586,1.273-.512.6-2.487.82-3.586C401.518,85.742,399.6,85.755,399.528,87Z" transform="translate(-300.271 -72.337)" fill="#3a3245"/>
        <path id="Trazado_167271" data-name="Trazado 167271" d="M399.528,115.935c.1,1.139-.854,3.871,1.133,3.586,1.273-.512.6-2.487.82-3.586C401.518,114.674,399.6,114.687,399.528,115.935Z" transform="translate(-300.271 -93.976)" fill="#3a3245"/>
        <path id="Trazado_167272" data-name="Trazado 167272" d="M399.528,146.959c.1,1.139-.854,3.871,1.133,3.586,1.273-.512.6-2.487.82-3.586C401.518,145.7,399.6,145.711,399.528,146.959Z" transform="translate(-300.271 -117.18)" fill="#3a3245"/>
        <path id="Trazado_167273" data-name="Trazado 167273" d="M356.193,90.878c-.63-2.442-.283-4.986-.567-7.456,2.407-1,2.319-4.913-.048-5.929-4.124-1.573-5.522,4.407-1.894,5.918-.526,4.452-.09,9.53-3.115,13.132a3.66,3.66,0,0,1-.83.683.654.654,0,0,0,.142,1.217c.612.766,8.584.648,9.27.2a1.018,1.018,0,0,0,.258-1.594A11.845,11.845,0,0,1,356.193,90.878Zm.463,6.016q-1.971-.093-3.942-.053a13.9,13.9,0,0,0,1.856-4.442,13.365,13.365,0,0,0,2.086,4.5ZM354.8,79.265c1.487,1.022.179,3.793-1.338,1.34C353.356,79.737,353.864,78.78,354.8,79.265Z" transform="translate(-262.873 -65.732)" fill="#3a3245"/>
        <path id="Trazado_167274" data-name="Trazado 167274" d="M299.684,86.423c1.194.056,9.939,1.4,7.877-1.425a4.167,4.167,0,0,1-1.546-3.784,2.719,2.719,0,0,0,1.134-.339.845.845,0,0,0-.423-1.563c-2.209.033-4.381-.268-6.583-.341-.625-.044-1.068.869-.59,1.281l-.015,0a2.72,2.72,0,0,0,1.465.576,3.089,3.089,0,0,1-1.8,3.8C298.224,85.062,298.862,86.333,299.684,86.423Zm3.44-5.432c.292.027.609.072.936.115a6.109,6.109,0,0,0,.784,3.707c-.925.006-1.849-.036-2.773-.1a4.375,4.375,0,0,0,.716-3.742C302.906,80.974,303.021,80.982,303.124,80.992Z" transform="translate(-224.97 -67.031)" fill="#3a3245"/>
        <path id="Trazado_167275" data-name="Trazado 167275" d="M304.189,120.686a1.554,1.554,0,0,0-.684-.105,66.362,66.362,0,0,1-7.377.589,24.324,24.324,0,0,1-3.87-.29c-.736-.118-1.759-.594-2.371.036a1.278,1.278,0,0,0-.175,1.706c2.74,6.539,14.522,6.966,14.8-1.161A.713.713,0,0,0,304.189,120.686Zm-6.261,2.375c1.574.243.715,2.031-.521,1.766a.959.959,0,0,1,.091-1.84c.082,0,.164,0,.246-.006A.978.978,0,0,0,297.928,123.061Zm-5.982-.421a22.788,22.788,0,0,0,3.268.344,2.45,2.45,0,0,0,.142,2.272A7.237,7.237,0,0,1,291.946,122.64Zm8.3,2.427a2.485,2.485,0,0,0,.184-2.254c.665-.058,1.364-.108,2.02-.186a3.986,3.986,0,0,1-2.206,2.44Z" transform="translate(-218.06 -98.152)" fill="#3a3245"/>
        <path id="Trazado_167276" data-name="Trazado 167276" d="M273.387,100.419c-1.635.035-3.545.328-5.141-.1-3.319-1-3.491-6.686-3.753-9.591-.064-2.482.047-5.048-.256-7.51a.9.9,0,0,0-1.792,0c-.183,5.817.148,11.7.263,17.524.156,2.6,2.616,2.245,4.627,2.286,2.971.06,5.941-.015,8.907-.2a1.011,1.011,0,0,0,.706-1.706c-1.021-.906-2.279-.727-3.561-.7Z" transform="translate(-197.808 -69.562)" fill="#3a3245"/>
        <path id="Trazado_167277" data-name="Trazado 167277" d="M232.321,124.721a22.562,22.562,0,0,0-.016-2.782.965.965,0,0,0-1.928,0,22.553,22.553,0,0,0-.046,2.782A1,1,0,0,0,232.321,124.721Z" transform="translate(-173.813 -98.477)" fill="#3a3245"/>
        <path id="Trazado_167278" data-name="Trazado 167278" d="M233.5,152.82a.988.988,0,0,0-1.651-.417l.006-.008C230.592,154.041,233.783,154.893,233.5,152.82Z" transform="translate(-174.747 -121.736)" fill="#3a3245"/>
      </g>
    </g>
  </g>
</svg>
