<svg xmlns="http://www.w3.org/2000/svg" width="1030" height="390" viewBox="0 0 1030 390">
  <g id="Grupo_1064830" data-name="Grupo 1064830" transform="translate(-285 -1149.016)">
    <rect id="Rectángulo_45318" data-name="Rectángulo 45318" width="505" height="390" transform="translate(285 1149.016)" fill="#ffe5cf"/>
    <rect id="Rectángulo_45319" data-name="Rectángulo 45319" width="505" height="390" transform="translate(810 1149.016)" fill="#ffb476"/>
    <path id="Trazado_601646" data-name="Trazado 601646" d="M.967,0V-12.8H5.089a6.064,6.064,0,0,1,3.05.769,5.406,5.406,0,0,1,2.114,2.171,6.554,6.554,0,0,1,.769,3.142v.589a6.592,6.592,0,0,1-.743,3.151A5.429,5.429,0,0,1,8.187-.8a5.93,5.93,0,0,1-3.01.8ZM4.052-10.415v8.042H5.124a2.4,2.4,0,0,0,2.039-.945,4.63,4.63,0,0,0,.712-2.808V-6.68a4.592,4.592,0,0,0-.712-2.795,2.442,2.442,0,0,0-2.074-.94ZM17.824,0a3.344,3.344,0,0,1-.281-.853A2.754,2.754,0,0,1,15.258.176a3.374,3.374,0,0,1-2.285-.813,2.588,2.588,0,0,1-.94-2.043,2.66,2.66,0,0,1,1.143-2.338A5.821,5.821,0,0,1,16.5-5.81h.914v-.5q0-1.31-1.134-1.31a.925.925,0,0,0-1.055,1.037H12.261a2.659,2.659,0,0,1,1.173-2.241,4.927,4.927,0,0,1,2.993-.861A4.323,4.323,0,0,1,19.3-8.8a3.086,3.086,0,0,1,1.081,2.435v4.21a4.311,4.311,0,0,0,.4,2V0ZM15.97-1.934a1.652,1.652,0,0,0,.918-.237,1.487,1.487,0,0,0,.523-.536V-4.228H16.55Q15-4.228,15-2.839a.848.848,0,0,0,.272.655A.986.986,0,0,0,15.97-1.934Zm9.5-9.94V-9.51h1.564v2.057H25.471V-3.1a1.111,1.111,0,0,0,.193.747,1.037,1.037,0,0,0,.765.211,4.345,4.345,0,0,0,.738-.053V-.079A5.466,5.466,0,0,1,25.5.176a3.1,3.1,0,0,1-2.259-.721,2.954,2.954,0,0,1-.729-2.188v-4.72H21.3V-9.51h1.213v-2.364Zm2.092,7.031a5.613,5.613,0,0,1,.554-2.536,3.96,3.96,0,0,1,1.591-1.709,4.791,4.791,0,0,1,2.435-.6,4.373,4.373,0,0,1,3.366,1.323,5.076,5.076,0,0,1,1.23,3.6v.105A4.925,4.925,0,0,1,35.5-1.129,4.384,4.384,0,0,1,32.159.176,4.434,4.434,0,0,1,28.9-1.042a4.761,4.761,0,0,1-1.327-3.3Zm2.962.185a3.538,3.538,0,0,0,.413,1.934,1.376,1.376,0,0,0,1.222.615q1.582,0,1.617-2.435v-.3q0-2.558-1.635-2.558-1.485,0-1.608,2.206Zm12.5,1.986a.684.684,0,0,0-.4-.606,6.016,6.016,0,0,0-1.5-.475A6.853,6.853,0,0,1,39.3-4.4a3.062,3.062,0,0,1-1.1-.971,2.319,2.319,0,0,1-.378-1.31A2.628,2.628,0,0,1,38.9-8.837a4.453,4.453,0,0,1,2.83-.848,4.934,4.934,0,0,1,3.023.853A2.666,2.666,0,0,1,45.9-6.592H42.926q0-1.143-1.2-1.143a1.194,1.194,0,0,0-.782.259.8.8,0,0,0-.316.646.737.737,0,0,0,.387.642,3.654,3.654,0,0,0,1.235.4,10.671,10.671,0,0,1,1.49.378A2.706,2.706,0,0,1,45.879-2.76,2.491,2.491,0,0,1,44.723-.642,5.068,5.068,0,0,1,41.73.176a5.172,5.172,0,0,1-2.18-.439,3.645,3.645,0,0,1-1.494-1.2,2.707,2.707,0,0,1-.536-1.591h2.769a1.145,1.145,0,0,0,.439.962,1.808,1.808,0,0,0,1.081.3,1.422,1.422,0,0,0,.91-.246A.787.787,0,0,0,43.022-2.672Z" transform="translate(515 1203.016)" fill="#12263f"/>
    <path id="Trazado_601647" data-name="Trazado 601647" d="M4.254,0H1.178V-12.8H4.254ZM8.982-9.51l.1,1.116a3.225,3.225,0,0,1,2.716-1.292,2.713,2.713,0,0,1,2.219.888,4.226,4.226,0,0,1,.76,2.672V0H11.8V-6a1.6,1.6,0,0,0-.29-1.059A1.342,1.342,0,0,0,10.459-7.4a1.413,1.413,0,0,0-1.292.686V0H6.205V-9.51ZM17.068,0V-7.453h-1.38V-9.51h1.38v-.756a3.286,3.286,0,0,1,.958-2.522,3.785,3.785,0,0,1,2.689-.9A5.889,5.889,0,0,1,22.1-13.5l.009,2.18a2.706,2.706,0,0,0-.729-.079q-1.345,0-1.345,1.16v.729h1.854v2.057H20.039V0Zm5.493-4.843a5.613,5.613,0,0,1,.554-2.536,3.96,3.96,0,0,1,1.591-1.709,4.791,4.791,0,0,1,2.435-.6,4.373,4.373,0,0,1,3.366,1.323,5.076,5.076,0,0,1,1.23,3.6v.105A4.925,4.925,0,0,1,30.5-1.129,4.384,4.384,0,0,1,27.158.176,4.434,4.434,0,0,1,23.9-1.042a4.761,4.761,0,0,1-1.327-3.3Zm2.962.185a3.538,3.538,0,0,0,.413,1.934,1.376,1.376,0,0,0,1.222.615q1.582,0,1.617-2.435v-.3q0-2.558-1.635-2.558-1.485,0-1.608,2.206ZM38.795-6.829l-.976-.07a1.752,1.752,0,0,0-1.793.879V0H33.064V-9.51h2.777l.1,1.222a2.294,2.294,0,0,1,2.083-1.4,2.888,2.888,0,0,1,.826.105ZM42.662-9.51l.1,1.116a3.27,3.27,0,0,1,2.716-1.292,2.407,2.407,0,0,1,2.435,1.433A3.165,3.165,0,0,1,50.7-9.686q2.892,0,2.971,3.5V0H50.7V-6a1.813,1.813,0,0,0-.246-1.063,1.048,1.048,0,0,0-.9-.334,1.4,1.4,0,0,0-1.31.782l.009.123V0H45.29V-5.985a1.906,1.906,0,0,0-.237-1.081,1.045,1.045,0,0,0-.905-.334,1.42,1.42,0,0,0-1.3.782V0H39.885V-9.51ZM60.724,0a3.344,3.344,0,0,1-.281-.853A2.754,2.754,0,0,1,58.157.176a3.374,3.374,0,0,1-2.285-.813,2.588,2.588,0,0,1-.94-2.043,2.66,2.66,0,0,1,1.143-2.338A5.821,5.821,0,0,1,59.4-5.81h.914v-.5q0-1.31-1.134-1.31a.925.925,0,0,0-1.055,1.037H55.16a2.659,2.659,0,0,1,1.173-2.241,4.927,4.927,0,0,1,2.993-.861A4.323,4.323,0,0,1,62.2-8.8a3.086,3.086,0,0,1,1.081,2.435v4.21a4.311,4.311,0,0,0,.4,2V0ZM58.869-1.934a1.652,1.652,0,0,0,.918-.237,1.487,1.487,0,0,0,.523-.536V-4.228h-.861q-1.547,0-1.547,1.389a.848.848,0,0,0,.272.655A.986.986,0,0,0,58.869-1.934Zm10.072-.176a1.317,1.317,0,0,0,.967-.338,1.241,1.241,0,0,0,.334-.945H73.02A3.288,3.288,0,0,1,71.9-.826a4.168,4.168,0,0,1-2.887,1,4.22,4.22,0,0,1-3.27-1.3,5.125,5.125,0,0,1-1.2-3.6v-.123A5.792,5.792,0,0,1,65.079-7.4a3.872,3.872,0,0,1,1.534-1.7,4.573,4.573,0,0,1,2.373-.593A4.116,4.116,0,0,1,71.93-8.657a3.647,3.647,0,0,1,1.09,2.786H70.242A1.626,1.626,0,0,0,69.882-7a1.244,1.244,0,0,0-.967-.4q-1.151,0-1.345,1.468a10.357,10.357,0,0,0-.062,1.283,4.068,4.068,0,0,0,.343,1.986A1.187,1.187,0,0,0,68.941-2.109ZM77.4,0H74.426V-9.51H77.4ZM74.25-11.962A1.322,1.322,0,0,1,74.707-13a1.724,1.724,0,0,1,1.187-.4,1.724,1.724,0,0,1,1.187.4,1.322,1.322,0,0,1,.457,1.037,1.322,1.322,0,0,1-.457,1.037,1.724,1.724,0,0,1-1.187.4,1.724,1.724,0,0,1-1.187-.4A1.322,1.322,0,0,1,74.25-11.962Zm4.6,7.119A5.613,5.613,0,0,1,79.4-7.378a3.96,3.96,0,0,1,1.591-1.709,4.791,4.791,0,0,1,2.435-.6,4.373,4.373,0,0,1,3.366,1.323,5.076,5.076,0,0,1,1.23,3.6v.105a4.925,4.925,0,0,1-1.235,3.529A4.384,4.384,0,0,1,83.443.176a4.434,4.434,0,0,1-3.261-1.217,4.761,4.761,0,0,1-1.327-3.3Zm2.962.185a3.538,3.538,0,0,0,.413,1.934,1.376,1.376,0,0,0,1.222.615q1.582,0,1.617-2.435v-.3q0-2.558-1.635-2.558-1.485,0-1.608,2.206ZM83.83-13.5h3.129l-2.443,2.76H82.1Zm8.218,3.99.1,1.116A3.225,3.225,0,0,1,94.86-9.686,2.713,2.713,0,0,1,97.08-8.8a4.226,4.226,0,0,1,.76,2.672V0H94.869V-6a1.6,1.6,0,0,0-.29-1.059A1.342,1.342,0,0,0,93.524-7.4a1.413,1.413,0,0,0-1.292.686V0H89.271V-9.51Z" transform="translate(1020 1203.016)" fill="#12263f"/>
    <g id="Rectángulo_45320" data-name="Rectángulo 45320" transform="translate(443 1256.016)" fill="#fff" stroke="#083142" stroke-width="2">
      <rect width="190" height="191" rx="18" stroke="none"/>
      <rect x="1" y="1" width="188" height="189" rx="17" fill="none"/>
    </g>
    <rect id="Rectángulo_45321" data-name="Rectángulo 45321" width="125" height="9" rx="2" transform="translate(475 1288.016)" fill="#083142"/>
    <rect id="Rectángulo_45322" data-name="Rectángulo 45322" width="125" height="9" rx="2" transform="translate(475 1304.016)" fill="#083142"/>
    <rect id="Rectángulo_45323" data-name="Rectángulo 45323" width="125" height="9" rx="2" transform="translate(475 1320.016)" fill="#083142"/>
    <rect id="Rectángulo_45324" data-name="Rectángulo 45324" width="125" height="9" rx="2" transform="translate(475 1336.016)" fill="#083142"/>
    <rect id="Rectángulo_45325" data-name="Rectángulo 45325" width="39" height="39" rx="5" transform="translate(475 1358.016)" fill="#ff6148"/>
    <rect id="Rectángulo_45326" data-name="Rectángulo 45326" width="74" height="9" rx="2" transform="translate(526 1358.016)" fill="#083142"/>
    <rect id="Rectángulo_45327" data-name="Rectángulo 45327" width="74" height="9" rx="2" transform="translate(526 1388.016)" fill="#083142"/>
    <rect id="Rectángulo_45328" data-name="Rectángulo 45328" width="74" height="9" rx="2" transform="translate(526 1373.016)" fill="#083142"/>
    <g id="Rectángulo_45329" data-name="Rectángulo 45329" transform="translate(968 1256.016)" fill="#fff" stroke="#083142" stroke-width="2">
      <rect width="190" height="191" rx="18" stroke="none"/>
      <rect x="1" y="1" width="188" height="189" rx="17" fill="none"/>
    </g>
    <g id="casa" transform="translate(1007 1274.171)">
      <path id="Trazado_167298" data-name="Trazado 167298" d="M74.806,77.331H91.348v31.945H74.806Z" transform="translate(-58.593 -38.71)" fill="#8eafe2"/>
      <g id="Grupo_114068" data-name="Grupo 114068" transform="translate(16.213 38.621)">
        <path id="Trazado_167299" data-name="Trazado 167299" d="M74.806,77.331H91.348v4.918H74.806Z" transform="translate(-74.806 -77.331)" fill="#6a96d7"/>
        <path id="Trazado_167300" data-name="Trazado 167300" d="M93.262,146.778H91.433a1.626,1.626,0,0,1,0-3.251h1.829a1.626,1.626,0,0,1,0,3.251Z" transform="translate(-86.556 -129.18)" fill="#6a96d7"/>
        <path id="Trazado_167301" data-name="Trazado 167301" d="M115.134,110.162H113.3a1.626,1.626,0,1,1,0-3.251h1.829a1.626,1.626,0,0,1,0,3.251Z" transform="translate(-103.687 -100.5)" fill="#6a96d7"/>
      </g>
      <path id="Trazado_167302" data-name="Trazado 167302" d="M77.609,35.409H57.233a2.415,2.415,0,0,0-2.415,2.415V42.08A2.415,2.415,0,0,0,57.233,44.5H77.609a2.415,2.415,0,0,0,2.415-2.415V37.824a2.415,2.415,0,0,0-2.415-2.415Z" transform="translate(-42.937 -5.874)" fill="#e8899e"/>
      <path id="Trazado_167303" data-name="Trazado 167303" d="M57.233,35.409a2.415,2.415,0,0,0-2.415,2.415V42.08A2.415,2.415,0,0,0,57.233,44.5H68.21c-1.583-1.472-2.407-6.332-1.507-9.086Z" transform="translate(-42.937 -5.874)" fill="#de5c6e"/>
      <path id="Trazado_167304" data-name="Trazado 167304" d="M144.605,165.174H83.549a8.743,8.743,0,0,1-8.743-8.743V118.273L114.077,79l39.271,39.271V156.43A8.743,8.743,0,0,1,144.605,165.174Z" transform="translate(-58.593 -40.019)" fill="#fcf2d0"/>
      <path id="Trazado_167305" data-name="Trazado 167305" d="M74.806,118.273V156.43a8.743,8.743,0,0,0,8.743,8.743H104.8c-6.284-10.4-8.808-31.338-8.835-51.415l18.113-18.113,39.271,39.271V118.273L114.077,79Z" transform="translate(-58.593 -40.019)" fill="#f6e3a3"/>
      <circle id="Elipse_5107" data-name="Elipse 5107" cx="10.991" cy="10.991" r="10.991" transform="translate(39.931 75.649) rotate(-45)" fill="#a3defe"/>
      <path id="Trazado_167306" data-name="Trazado 167306" d="M108.086,107.088A7.108,7.108,0,0,1,103.043,105L61.358,63.314,19.673,105A7.131,7.131,0,0,1,9.588,94.915L56.316,48.187a7.131,7.131,0,0,1,10.085,0l46.728,46.728a7.131,7.131,0,0,1-5.043,12.174Z" transform="translate(-5.874 -14.247)" fill="#e8899e"/>
      <path id="Trazado_167307" data-name="Trazado 167307" d="M35.562,151.491,9.588,177.465A7.131,7.131,0,0,0,19.673,187.55l18.157-18.158C35.285,167.159,33.078,158.659,35.562,151.491Z" transform="translate(-5.874 -96.797)" fill="#de5c6e"/>
      <path id="Trazado_167308" data-name="Trazado 167308" d="M294.792,369.672H272.64V344.342a4.256,4.256,0,0,1,4.256-4.256h13.64a4.256,4.256,0,0,1,4.256,4.256Z" transform="translate(-213.549 -244.517)" fill="#8eafe2"/>
      <path id="Trazado_167309" data-name="Trazado 167309" d="M139.669,356.1H122.277a3.133,3.133,0,0,1-3.133-3.133v-9.751a3.133,3.133,0,0,1,3.133-3.133h17.392a3.133,3.133,0,0,1,3.133,3.133v9.751A3.133,3.133,0,0,1,139.669,356.1Z" transform="translate(-93.321 -244.517)" fill="#a3defe"/>
      <path id="Trazado_167310" data-name="Trazado 167310" d="M119.144,344.448v-1.228a3.133,3.133,0,0,1,3.133-3.133h6.508l13.86,13.86a3.133,3.133,0,0,1-2.976,2.158H130.8Z" transform="translate(-93.321 -244.517)" fill="#7acefa"/>
      <path id="Trazado_167311" data-name="Trazado 167311" d="M46.348,113.212a4.764,4.764,0,0,0,4.759-4.759V98.7a4.764,4.764,0,0,0-4.759-4.759H28.956A4.764,4.764,0,0,0,24.2,98.7v9.751a4.764,4.764,0,0,0,4.759,4.759Zm-18.9-4.759V98.7a1.51,1.51,0,0,1,1.508-1.508H46.348A1.51,1.51,0,0,1,47.855,98.7v9.751a1.51,1.51,0,0,1-1.508,1.508H28.956A1.51,1.51,0,0,1,27.448,108.453Zm48.492.207a1.992,1.992,0,1,0,1.992,1.992A1.992,1.992,0,0,0,75.941,108.661Zm-20.456-20.4A12.617,12.617,0,1,0,42.868,75.649,12.631,12.631,0,0,0,55.484,88.265ZM57.11,66.427a9.387,9.387,0,0,1,7.6,7.6h-7.6Zm0,10.847h7.6a9.387,9.387,0,0,1-7.6,7.6ZM53.859,66.427v7.6h-7.6A9.386,9.386,0,0,1,53.859,66.427Zm0,10.847v7.6a9.387,9.387,0,0,1-7.6-7.6ZM108.4,79.518,73,44.118a1.626,1.626,0,0,0-2.3,2.3l35.4,35.4A5.506,5.506,0,1,1,98.319,89.6L56.634,47.918a1.626,1.626,0,0,0-2.3,0L15.064,87.189h0L12.65,89.6a5.506,5.506,0,0,1-7.786-7.786L51.591,35.089a5.506,5.506,0,0,1,7.786,0l5.739,5.739a1.626,1.626,0,1,0,2.3-2.3l-5.739-5.739a8.757,8.757,0,0,0-12.384,0L34.381,47.7V40.246h.292a4.045,4.045,0,0,0,4.041-4.041V31.95a4.045,4.045,0,0,0-4.041-4.041H14.3a4.045,4.045,0,0,0-4.041,4.041v4.256A4.045,4.045,0,0,0,14.3,40.246h.292V67.5L2.565,79.518A8.756,8.756,0,0,0,14.588,92.242v24.169a10.428,10.428,0,0,0,6.68,9.693,1.626,1.626,0,1,0,1.157-3.038,7.159,7.159,0,0,1-4.585-6.655v-27.4L55.484,51.367,93.13,89.012v27.4a7.126,7.126,0,0,1-7.118,7.118H82.868v-23.7a5.888,5.888,0,0,0-5.882-5.882H63.347a5.888,5.888,0,0,0-5.882,5.882v23.7H29.642a1.626,1.626,0,0,0,0,3.251h56.37a10.381,10.381,0,0,0,10.369-10.369V92.242A8.756,8.756,0,0,0,108.4,79.518ZM31.13,50.953,17.839,64.244v-24H31.13ZM14.3,37a.791.791,0,0,1-.79-.79V31.95a.79.79,0,0,1,.79-.79H34.672a.79.79,0,0,1,.79.79v4.256a.791.791,0,0,1-.79.79H14.3Zm65.322,86.534h-18.9v-23.7a2.634,2.634,0,0,1,2.631-2.631h13.64a2.634,2.634,0,0,1,2.631,2.631Z" transform="translate(0 0)"/>
    </g>
    <g id="Grupo_114070" data-name="Grupo 114070">
      <circle id="Elipse_5108" data-name="Elipse 5108" cx="42" cy="42" r="42" transform="translate(758 1297.016)" fill="#ff6148"/>
      <path id="Trazado_167312" data-name="Trazado 167312" d="M7.251-4.254l3.115-11.387h4.211L9.313,0H5.188L-.032-15.641H4.146Zm16.532.1A1.549,1.549,0,0,0,23.2-5.446,7.277,7.277,0,0,0,21.141-6.4a19.736,19.736,0,0,1-2.406-.956q-3.04-1.493-3.04-4.1a3.68,3.68,0,0,1,.757-2.293A4.9,4.9,0,0,1,18.595-15.3a8.34,8.34,0,0,1,3.115-.553,7.3,7.3,0,0,1,3.024.6,4.788,4.788,0,0,1,2.079,1.713A4.474,4.474,0,0,1,27.554-11h-3.76a1.891,1.891,0,0,0-.585-1.482,2.282,2.282,0,0,0-1.584-.526,2.573,2.573,0,0,0-1.6.446,1.368,1.368,0,0,0-.585,1.133,1.377,1.377,0,0,0,.645,1.09,8.128,8.128,0,0,0,2.267,1.01,13.885,13.885,0,0,1,2.664,1.123,4.477,4.477,0,0,1,2.535,4.028A3.819,3.819,0,0,1,26.007-.956,6.88,6.88,0,0,1,21.764.215a8.418,8.418,0,0,1-3.443-.682A5.191,5.191,0,0,1,16-2.336a4.87,4.87,0,0,1-.779-2.734H19a2.4,2.4,0,0,0,.65,1.853,3.072,3.072,0,0,0,2.111.6,2.427,2.427,0,0,0,1.477-.4A1.33,1.33,0,0,0,23.783-4.157Z" transform="translate(786 1345.016)" fill="#fff"/>
    </g>
  </g>
</svg>
