<svg xmlns="http://www.w3.org/2000/svg" width="109.733" height="109.738" viewBox="0 0 109.733 109.738">
  <g id="archivo-de-base-de-datos" transform="translate(-0.013)">
    <g id="Grupo_114059" data-name="Grupo 114059" transform="translate(1.815 1.715)">
      <g id="Grupo_114052" data-name="Grupo 114052" transform="translate(0 19.987)">
        <path id="Trazado_167201" data-name="Trazado 167201" d="M52.944,108.447c0-3.975-9.967-7.2-22.261-7.2s-22.262,3.222-22.262,7.2v52.067c0,9.429,44.523,9.429,44.523,0V108.447Z" transform="translate(-8.421 -101.25)" fill="#ffe177" fill-rule="evenodd"/>
        <path id="Trazado_167202" data-name="Trazado 167202" d="M134.547,108.447c0-3.975-9.967-7.2-22.261-7.2v66.336c11.131,0,22.261-2.357,22.261-7.072Z" transform="translate(-90.024 -101.25)" fill="#ffd064" fill-rule="evenodd"/>
        <path id="Trazado_167203" data-name="Trazado 167203" d="M52.945,134.829v13.017c0,9.429-44.523,9.429-44.523,0V134.829C8.422,144.258,52.945,144.258,52.945,134.829Z" transform="translate(-8.422 -127.632)" fill="#ffd064" fill-rule="evenodd"/>
        <path id="Trazado_167204" data-name="Trazado 167204" d="M134.547,134.829v13.017c0,4.714-11.131,7.072-22.261,7.072V141.9C123.417,141.9,134.547,139.543,134.547,134.829Z" transform="translate(-90.024 -127.632)" fill="#ffc344" fill-rule="evenodd"/>
        <path id="Trazado_167205" data-name="Trazado 167205" d="M52.945,256.291v13.017c0,9.429-44.523,9.429-44.523,0V256.291C8.422,265.72,52.945,265.72,52.945,256.291Z" transform="translate(-8.422 -223.061)" fill="#ffd064" fill-rule="evenodd"/>
        <path id="Trazado_167206" data-name="Trazado 167206" d="M134.547,256.291v13.017c0,4.714-11.131,7.072-22.261,7.072V263.363C123.417,263.363,134.547,261.005,134.547,256.291Z" transform="translate(-90.024 -223.061)" fill="#ffc344" fill-rule="evenodd"/>
      </g>
      <g id="Grupo_114054" data-name="Grupo 114054" transform="translate(74.14)">
        <path id="Trazado_167207" data-name="Trazado 167207" d="M357.1,8h8.113a3.075,3.075,0,0,1,2.726,1.573l3.559,6.156h12.047a2.777,2.777,0,0,1,2.772,2.772V32.132a2.778,2.778,0,0,1-2.772,2.772H357.1a2.777,2.777,0,0,1-2.772-2.772V10.772A2.777,2.777,0,0,1,357.1,8Z" transform="translate(-354.33 -8)" fill="#ffe177" fill-rule="evenodd"/>
        <g id="Grupo_114053" data-name="Grupo 114053" transform="translate(0 0)">
          <path id="Trazado_167208" data-name="Trazado 167208" d="M480.9,44.058h.957a2.777,2.777,0,0,1,2.772,2.772V60.462a2.778,2.778,0,0,1-2.772,2.772h-2.4A2.777,2.777,0,0,0,480.9,60.8V44.1C480.9,44.083,480.9,44.07,480.9,44.058Z" transform="translate(-452.638 -36.33)" fill="#ffd064" fill-rule="evenodd"/>
          <path id="Trazado_167209" data-name="Trazado 167209" d="M371.5,15.728l-3.559-6.156A3.075,3.075,0,0,0,365.216,8H357.1a2.777,2.777,0,0,0-2.772,2.772v4.956Z" transform="translate(-354.331 -8)" fill="#ffd064" fill-rule="evenodd"/>
        </g>
      </g>
      <g id="Grupo_114056" data-name="Grupo 114056" transform="translate(74.14 79.405)">
        <path id="Trazado_167210" data-name="Trazado 167210" d="M357.1,378.476h8.113a3.076,3.076,0,0,1,2.726,1.573L371.5,386.2h12.047a2.778,2.778,0,0,1,2.772,2.772v13.632a2.777,2.777,0,0,1-2.772,2.772H357.1a2.777,2.777,0,0,1-2.772-2.772v-21.36A2.777,2.777,0,0,1,357.1,378.476Z" transform="translate(-354.33 -378.476)" fill="#ffe177" fill-rule="evenodd"/>
        <g id="Grupo_114055" data-name="Grupo 114055" transform="translate(0)">
          <path id="Trazado_167211" data-name="Trazado 167211" d="M480.9,414.534h.957a2.777,2.777,0,0,1,2.772,2.772v13.632a2.778,2.778,0,0,1-2.772,2.772h-2.4a2.777,2.777,0,0,0,1.441-2.43V414.571C480.9,414.559,480.9,414.546,480.9,414.534Z" transform="translate(-452.638 -406.806)" fill="#ffd064" fill-rule="evenodd"/>
          <path id="Trazado_167212" data-name="Trazado 167212" d="M371.5,386.2l-3.559-6.156a3.076,3.076,0,0,0-2.726-1.573H357.1a2.777,2.777,0,0,0-2.772,2.772V386.2Z" transform="translate(-354.331 -378.476)" fill="#ffd064" fill-rule="evenodd"/>
        </g>
      </g>
      <g id="Grupo_114058" data-name="Grupo 114058" transform="translate(74.14 39.702)">
        <path id="Trazado_167213" data-name="Trazado 167213" d="M357.1,193.237h8.113a3.075,3.075,0,0,1,2.726,1.573l3.559,6.156h12.047a2.778,2.778,0,0,1,2.772,2.772v13.632a2.777,2.777,0,0,1-2.772,2.772H357.1a2.777,2.777,0,0,1-2.772-2.772v-21.36A2.777,2.777,0,0,1,357.1,193.237Z" transform="translate(-354.33 -193.237)" fill="#ffe177" fill-rule="evenodd"/>
        <g id="Grupo_114057" data-name="Grupo 114057" transform="translate(0 0)">
          <path id="Trazado_167214" data-name="Trazado 167214" d="M480.9,229.3h.957a2.777,2.777,0,0,1,2.772,2.772V245.7a2.777,2.777,0,0,1-2.772,2.772h-2.4a2.777,2.777,0,0,0,1.441-2.43V229.333C480.9,229.321,480.9,229.308,480.9,229.3Z" transform="translate(-452.638 -221.568)" fill="#ffd064" fill-rule="evenodd"/>
          <path id="Trazado_167215" data-name="Trazado 167215" d="M371.5,200.966l-3.559-6.156a3.076,3.076,0,0,0-2.726-1.573H357.1a2.777,2.777,0,0,0-2.772,2.772v4.956Z" transform="translate(-354.331 -193.238)" fill="#ffd064" fill-rule="evenodd"/>
        </g>
      </g>
    </g>
    <path id="Trazado_167216" data-name="Trazado 167216" d="M44.889,41.81V33.721a20.225,20.225,0,0,1-4.823,1.964c-1.153.323-2.417.609-3.762.851A62.893,62.893,0,0,1,24.17,37.658a63,63,0,0,1-12.144-1.123c-1.345-.242-2.609-.527-3.751-.851a20.141,20.141,0,0,1-4.833-1.964V41.81c0,1.275,2.2,2.692,5.764,3.7A58.635,58.635,0,0,0,24.17,47.224a58.551,58.551,0,0,0,14.955-1.717C42.685,44.5,44.889,43.084,44.889,41.81Zm0,13.121c0,1.277-2.2,2.694-5.764,3.7A58.553,58.553,0,0,1,24.17,60.345,58.636,58.636,0,0,1,9.2,58.628c-3.559-1-5.764-2.42-5.764-3.7V46.842a19.972,19.972,0,0,0,4.833,1.963,61.13,61.13,0,0,0,15.9,1.848,61.242,61.242,0,0,0,15.9-1.848,20.057,20.057,0,0,0,4.823-1.963v8.089Zm0,13.124V59.966a20.225,20.225,0,0,1-4.823,1.963,61.249,61.249,0,0,1-15.9,1.845,61.139,61.139,0,0,1-15.9-1.845,20.142,20.142,0,0,1-4.833-1.963v8.088c0,1.275,2.2,2.692,5.764,3.7A58.521,58.521,0,0,0,24.17,73.468a58.552,58.552,0,0,0,14.955-1.717c3.56-1.005,5.764-2.422,5.764-3.7Zm0,13.121c0,1.277-2.2,2.694-5.764,3.7A58.551,58.551,0,0,1,24.17,86.59,58.635,58.635,0,0,1,9.2,84.873c-3.559-1-5.764-2.42-5.764-3.7V73.087A20.137,20.137,0,0,0,8.274,75.05,61.122,61.122,0,0,0,24.17,76.9a61.244,61.244,0,0,0,15.9-1.847,20.144,20.144,0,0,0,4.823-1.963v8.089ZM3.441,28.688c0-1.882,7.311-5.54,20.729-5.54s20.719,3.659,20.719,5.54c0,1.211-3.033,3.157-8.767,4.39A65.936,65.936,0,0,1,24.17,34.1a65.971,65.971,0,0,1-11.962-1.025c-5.733-1.232-8.767-3.179-8.767-4.39Zm44.886,0v52.49c0,3.1-2.781,5.45-8.261,7a61.361,61.361,0,0,1-15.9,1.845,61.242,61.242,0,0,1-15.9-1.845c-5.481-1.548-8.261-3.9-8.261-7V28.686c0-5.888,12.144-8.968,24.157-8.968s24.157,3.08,24.157,8.968Zm57.991,23.231a1.057,1.057,0,0,0-1.052-1.057h-27.5V65.549a1.057,1.057,0,0,0,1.052,1.056h26.452a1.057,1.057,0,0,0,1.052-1.056ZM77.762,44.188v3.243H90.24l-2.073-3.584a1.354,1.354,0,0,0-1.234-.716h-8.12a1.057,1.057,0,0,0-1.052,1.056Zm31.983,7.729V65.549a4.489,4.489,0,0,1-4.48,4.486H78.814a4.49,4.49,0,0,1-4.48-4.486V44.188a4.489,4.489,0,0,1,4.48-4.486h8.12a4.82,4.82,0,0,1,4.206,2.428l3.064,5.3h11.062a4.489,4.489,0,0,1,4.479,4.486Zm-3.428-39.7a1.057,1.057,0,0,0-1.052-1.057h-27.5V25.846A1.057,1.057,0,0,0,78.814,26.9h26.452a1.057,1.057,0,0,0,1.052-1.057ZM77.762,4.486V7.729H90.24L88.167,4.145a1.355,1.355,0,0,0-1.234-.716h-8.12a1.057,1.057,0,0,0-1.052,1.057Zm31.983,7.729V25.846a4.49,4.49,0,0,1-4.48,4.486H78.814a4.49,4.49,0,0,1-4.48-4.486V4.486A4.489,4.489,0,0,1,78.814,0h8.12A4.819,4.819,0,0,1,91.14,2.428l3.064,5.3h11.062a4.489,4.489,0,0,1,4.479,4.486ZM106.318,91.62a1.057,1.057,0,0,0-1.052-1.057h-27.5v14.688a1.057,1.057,0,0,0,1.052,1.057h26.452a1.057,1.057,0,0,0,1.052-1.057ZM77.762,83.891v3.243H90.24l-2.073-3.584a1.35,1.35,0,0,0-1.234-.716h-8.12a1.057,1.057,0,0,0-1.052,1.056Zm31.983,7.729v13.632a4.49,4.49,0,0,1-4.48,4.486H78.814a4.49,4.49,0,0,1-4.48-4.486V83.891a4.49,4.49,0,0,1,4.48-4.486h8.12a4.815,4.815,0,0,1,4.206,2.428l3.064,5.3h11.062a4.49,4.49,0,0,1,4.479,4.486Zm-46.9-74.74V53.154h5.2a1.715,1.715,0,1,1,0,3.429h-5.2V92.857h5.2a1.715,1.715,0,1,1,0,3.429H61.128a1.714,1.714,0,0,1-1.709-1.715V56.583H54.606a1.715,1.715,0,1,1,0-3.429h4.813V15.166a1.714,1.714,0,0,1,1.709-1.715h6.917a1.715,1.715,0,1,1,0,3.429Z" fill-rule="evenodd"/>
  </g>
</svg>
