<svg id="analizando" xmlns="http://www.w3.org/2000/svg" width="95.995" height="95.995" viewBox="0 0 95.995 95.995">
  <g id="Grupo_1064733" data-name="Grupo 1064733" transform="translate(1.548 1.548)">
    <g id="Grupo_1064713" data-name="Grupo 1064713" transform="translate(18.58)">
      <path id="Trazado_601442" data-name="Trazado 601442" d="M37.773,4.1V10.29H13V2.548A1.553,1.553,0,0,1,14.548,1H36.225a1.553,1.553,0,0,1,1.548,1.548Z" transform="translate(-13 -1)" fill="#b27946"/>
    </g>
    <g id="Grupo_1064714" data-name="Grupo 1064714" transform="translate(43.353 3.097)">
      <path id="Trazado_601443" data-name="Trazado 601443" d="M47.58,4.548V24.94a18.386,18.386,0,0,0-6.193,2.214V9.193H29V3H46.031A1.553,1.553,0,0,1,47.58,4.548Z" transform="translate(-29 -3)" fill="#d3a06c"/>
    </g>
    <g id="Grupo_1064715" data-name="Grupo 1064715" transform="translate(0 3.097)">
      <path id="Trazado_601444" data-name="Trazado 601444" d="M56.739,86.609H2.548A1.553,1.553,0,0,1,1,85.06V4.548A1.553,1.553,0,0,1,2.548,3H19.58V9.193H7.193V80.415H53.642a3.119,3.119,0,0,0,3.1,3.1h3.1a3.119,3.119,0,0,0-3.1,3.1Z" transform="translate(-1 -3)" fill="#ff6148"/>
    </g>
    <g id="Grupo_1064716" data-name="Grupo 1064716" transform="translate(6.193 9.29)">
      <path id="Trazado_601445" data-name="Trazado 601445" d="M17.386,72.029V65.836H11.193v6.193Zm0-12.386V53.449H11.193v6.193Zm0-12.386V41.063H11.193v6.193ZM38.676,33.91a6.085,6.085,0,0,0,.387-2.137,6.216,6.216,0,1,0-.387,2.137Zm6.58,7.153a18.575,18.575,0,0,0,18.58,18.58H59.191a1.553,1.553,0,0,0-1.548,1.548,4.292,4.292,0,0,0,.279,1.548H54.546a3.119,3.119,0,0,0-3.1,3.1,3.106,3.106,0,0,0,3.1,3.1,3.106,3.106,0,0,0-3.1,3.1,3.119,3.119,0,0,0,3.1,3.1,3.106,3.106,0,0,0-3.1,3.1H5V7H54.546V24.96a18.581,18.581,0,0,0-8.732,11.581A18.084,18.084,0,0,0,45.256,41.063Z" transform="translate(-5 -7)" fill="#e6e9ed"/>
    </g>
    <g id="Grupo_1064717" data-name="Grupo 1064717" transform="translate(12.386 68.126)">
      <path id="Trazado_601446" data-name="Trazado 601446" d="M9,45h6.193v6.193H9Z" transform="translate(-9 -45)" fill="#ef7385"/>
    </g>
    <g id="Grupo_1064718" data-name="Grupo 1064718" transform="translate(12.386 55.739)">
      <path id="Trazado_601447" data-name="Trazado 601447" d="M9,37h6.193v6.193H9Z" transform="translate(-9 -37)" fill="#ef7385"/>
    </g>
    <g id="Grupo_1064719" data-name="Grupo 1064719" transform="translate(12.386 43.353)">
      <path id="Trazado_601448" data-name="Trazado 601448" d="M9,29h6.193v6.193H9Z" transform="translate(-9 -29)" fill="#ef7385"/>
    </g>
    <g id="Grupo_1064720" data-name="Grupo 1064720" transform="translate(83.609 65.029)">
      <path id="Trazado_601449" data-name="Trazado 601449" d="M55,43h9.29V67.773H55Z" transform="translate(-55 -43)" fill="#ff6148"/>
    </g>
    <g id="Grupo_1064721" data-name="Grupo 1064721" transform="translate(58.836 61.932)">
      <path id="Trazado_601450" data-name="Trazado 601450" d="M48.29,68.87V47.193H43.645a4.292,4.292,0,0,1-1.548-.279,4.393,4.393,0,0,1-1.734-1.084L39.279,44.1A4.292,4.292,0,0,1,39,42.548,1.553,1.553,0,0,1,40.548,41H56.295a10.583,10.583,0,0,1,7.478,3.1V68.87Z" transform="translate(-39 -41)" fill="#f0d0b4"/>
    </g>
    <g id="Grupo_1064722" data-name="Grupo 1064722" transform="translate(52.642 65.029)">
      <path id="Trazado_601451" data-name="Trazado 601451" d="M41.472,43l1.084,1.734a4.393,4.393,0,0,0,1.734,1.084v3.375H38.1A3.106,3.106,0,0,1,35,46.1,3.119,3.119,0,0,1,38.1,43h3.36Z" transform="translate(-35 -43)" fill="#f0d0b4"/>
    </g>
    <g id="Grupo_1064723" data-name="Grupo 1064723" transform="translate(52.642 71.222)">
      <path id="Trazado_601452" data-name="Trazado 601452" d="M44.29,47v6.193H38.1A3.119,3.119,0,0,1,35,50.1,3.106,3.106,0,0,1,38.1,47Z" transform="translate(-35 -47)" fill="#f0d0b4"/>
    </g>
    <g id="Grupo_1064724" data-name="Grupo 1064724" transform="translate(52.642 77.415)">
      <path id="Trazado_601453" data-name="Trazado 601453" d="M44.29,51v6.193H38.1A3.119,3.119,0,0,1,35,54.1,3.106,3.106,0,0,1,38.1,51Z" transform="translate(-35 -51)" fill="#f0d0b4"/>
    </g>
    <g id="Grupo_1064725" data-name="Grupo 1064725" transform="translate(55.739 83.609)">
      <path id="Trazado_601454" data-name="Trazado 601454" d="M43.193,55v6.193H40.1A3.106,3.106,0,0,1,37,58.1,3.119,3.119,0,0,1,40.1,55Z" transform="translate(-37 -55)" fill="#f0d0b4"/>
    </g>
    <g id="Grupo_1064726" data-name="Grupo 1064726" transform="translate(61.932 67.847)">
      <path id="Trazado_601455" data-name="Trazado 601455" d="M42.548,45.1h4.645V66.775a3.119,3.119,0,0,1-3.1,3.1,3.106,3.106,0,0,1-3.1-3.1V44.82A4.292,4.292,0,0,0,42.548,45.1Z" transform="translate(-41 -44.82)" fill="#aab2bd"/>
    </g>
    <g id="Grupo_1064727" data-name="Grupo 1064727" transform="translate(46.449 24.773)">
      <path id="Trazado_601456" data-name="Trazado 601456" d="M54.488,24.2a12.4,12.4,0,0,0-17.062,9.011,11.934,11.934,0,0,0-.232,2.369A12.386,12.386,0,1,0,54.488,24.2Zm-14.2-4.722a18.386,18.386,0,0,1,6.193-2.214A18.578,18.578,0,1,1,31,35.58a18.084,18.084,0,0,1,.557-4.521A18.581,18.581,0,0,1,40.29,19.477Z" transform="translate(-31 -17)" fill="#aab2bd"/>
    </g>
    <g id="Grupo_1064728" data-name="Grupo 1064728" transform="translate(52.875 30.966)">
      <path id="Trazado_601457" data-name="Trazado 601457" d="M52.212,22.006l-4.382,8.779a4.625,4.625,0,0,0-6.425,2.539L35.15,31.018a12.4,12.4,0,0,1,17.062-9.011Z" transform="translate(-35.15 -21)" fill="#4fc1e9"/>
    </g>
    <g id="Grupo_1064729" data-name="Grupo 1064729" transform="translate(52.642 31.973)">
      <path id="Trazado_601458" data-name="Trazado 601458" d="M52.295,21.65A12.389,12.389,0,1,1,35,33.03a11.934,11.934,0,0,1,.232-2.369l6.255,2.307a4.576,4.576,0,0,0-.294,1.61,4.645,4.645,0,1,0,6.72-4.149Z" transform="translate(-35 -21.65)" fill="#2efec7"/>
    </g>
    <g id="Grupo_1064730" data-name="Grupo 1064730" transform="translate(69.674)">
      <path id="Trazado_601459" data-name="Trazado 601459" d="M56.838,1a10.838,10.838,0,0,1,0,21.676,10.6,10.6,0,0,1-4.846-1.146A10.837,10.837,0,0,1,56.838,1Z" transform="translate(-46 -1)" fill="#ffb476"/>
    </g>
    <g id="Grupo_1064731" data-name="Grupo 1064731" transform="translate(58.836 40.256)">
      <path id="Trazado_601460" data-name="Trazado 601460" d="M45.72,27.5a4.625,4.625,0,1,1-2.075-.5A4.657,4.657,0,0,1,45.72,27.5Z" transform="translate(-39 -27)" fill="#fcd770"/>
    </g>
    <g id="Grupo_1064732" data-name="Grupo 1064732" transform="translate(27.87 27.87)">
      <path id="Trazado_601461" data-name="Trazado 601461" d="M25.193,19a6.192,6.192,0,0,1,6.193,6.193A6.085,6.085,0,0,1,31,27.33,6.19,6.19,0,1,1,25.193,19Z" transform="translate(-19 -19)" fill="#ffb476"/>
    </g>
  </g>
  <g id="Grupo_1064734" data-name="Grupo 1064734" transform="translate(0 0)">
    <path id="Trazado_601462" data-name="Trazado 601462" d="M96,65.029H85.752a12.023,12.023,0,0,0-8.071-3.1h-.426a20.089,20.089,0,0,0-.923-34.625l1.624-3.248a12.355,12.355,0,1,0-2.773-1.38l-1.674,3.347a20.042,20.042,0,0,0-6.932-1.254c-.523,0-1.036.039-1.548.079V6.193a3.1,3.1,0,0,0-3.1-3.1H46.449a3.1,3.1,0,0,0-3.1-3.1H21.676a3.1,3.1,0,0,0-3.1,3.1H3.1A3.1,3.1,0,0,0,0,6.193V86.705a3.1,3.1,0,0,0,3.1,3.1H56.024a4.639,4.639,0,0,0,4.36,3.1h1.833a4.618,4.618,0,0,0,8.72,0H96ZM72.77,12.386a9.29,9.29,0,1,1,9.29,9.29A9.3,9.3,0,0,1,72.77,12.386Zm4.91,52.642a8.961,8.961,0,0,1,5.928,2.219V89.8H71.222V75.087a9.437,9.437,0,0,0,6.193,2.329v-3.1a6.374,6.374,0,0,1-6.193-4.834l-.338-1.359H65.029a3.1,3.1,0,0,1-3.1-3.1ZM57.287,83.609a1.548,1.548,0,1,1,0-3.1h4.645v3.1Zm-48-3.1V12.386H55.739V27.967a20.2,20.2,0,0,0-8.178,10.4l-4.324-1.593a7.743,7.743,0,1,0-1.067,2.906l4.609,1.7A19.97,19.97,0,0,0,59.2,63.609a3.056,3.056,0,0,0-.361,1.42H57.287A4.625,4.625,0,0,0,53.85,72.77a4.574,4.574,0,0,0,0,6.193,4.6,4.6,0,0,0-.923,1.548Zm30.966-44.9a4.645,4.645,0,1,1-4.645-4.645A4.651,4.651,0,0,1,40.256,35.611Zm17.031,41.8a1.548,1.548,0,1,1,0-3.1h4.645v3.1Zm0-6.193a1.548,1.548,0,1,1,0-3.1H59.7a6.2,6.2,0,0,0,2.236,2.236v.861Zm14.828-42.41L70.724,31.6a14.061,14.061,0,1,0,2.832,1.262l1.387-2.776a17.255,17.255,0,1,1-2.827-1.27ZM55.75,44.681l3.148,1.16a6.041,6.041,0,0,0-.062.608A6.193,6.193,0,1,0,69.082,41.8l3.086-6.172A10.832,10.832,0,1,1,55.739,44.9c0-.074.009-.146.011-.22Zm12.376,1.768a3.1,3.1,0,1,1-3.1-3.1A3.1,3.1,0,0,1,68.126,46.449Zm-1.8-6.052a6.146,6.146,0,0,0-6.377,2.53l-3.679-1.356A10.78,10.78,0,0,1,69.31,34.425Zm-4.391-34.2V25.335a19.775,19.775,0,0,0-3.1.991V9.29H46.449v-3.1ZM43.353,3.1V9.29H21.676V3.1ZM3.1,6.193H18.58v3.1H6.193V83.609H52.927a4.636,4.636,0,0,0,3.152,2.917c-.023.057-.034.121-.056.18H3.1Zm55.739,82.06a1.551,1.551,0,0,1,1.548-1.548h1.548v3.1H60.384A1.551,1.551,0,0,1,58.836,88.254ZM66.577,92.9a1.551,1.551,0,0,1-1.548-1.548V71.222h3.1V91.35A1.551,1.551,0,0,1,66.577,92.9ZM92.9,89.8H86.705V68.126H92.9Z" transform="translate(0 0)"/>
    <path id="Trazado_601463" data-name="Trazado 601463" d="M8,53.29h9.29V44H8ZM11.1,47.1h3.1v3.1H11.1Z" transform="translate(4.386 24.126)"/>
    <path id="Trazado_601464" data-name="Trazado 601464" d="M16,46H34.58v3.1H16Z" transform="translate(8.773 25.222)"/>
    <path id="Trazado_601465" data-name="Trazado 601465" d="M8,45.29h9.29V36H8ZM11.1,39.1h3.1v3.1H11.1Z" transform="translate(4.386 19.739)"/>
    <path id="Trazado_601466" data-name="Trazado 601466" d="M16,38H34.58v3.1H16Z" transform="translate(8.773 20.836)"/>
    <path id="Trazado_601467" data-name="Trazado 601467" d="M8,37.29h9.29V28H8ZM11.1,31.1h3.1v3.1H11.1Z" transform="translate(4.386 15.353)"/>
    <path id="Trazado_601468" data-name="Trazado 601468" d="M16,30H34.58v3.1H16Z" transform="translate(8.773 16.449)"/>
    <path id="Trazado_601469" data-name="Trazado 601469" d="M8,10H26.58v3.1H8Z" transform="translate(4.386 5.483)"/>
    <path id="Trazado_601470" data-name="Trazado 601470" d="M8,14H23.483v3.1H8Z" transform="translate(4.386 7.676)"/>
    <path id="Trazado_601471" data-name="Trazado 601471" d="M8,18H20.386v3.1H8Z" transform="translate(4.386 9.87)"/>
    <path id="Trazado_601472" data-name="Trazado 601472" d="M8,22h3.1v3.1H8Z" transform="translate(4.386 12.063)"/>
    <path id="Trazado_601473" data-name="Trazado 601473" d="M12,22h3.1v3.1H12Z" transform="translate(6.58 12.063)"/>
  </g>
</svg>
