<svg xmlns="http://www.w3.org/2000/svg" width="99.502" height="100.848" viewBox="0 0 99.502 100.848">
  <g id="seguridad-de-la-base-de-datos" transform="translate(-3.416 0)">
    <g id="Grupo_114066" data-name="Grupo 114066" transform="translate(4.846 1.465)">
      <path id="Trazado_167279" data-name="Trazado 167279" d="M48.82,265.658c-21.067,0-38.146-5.336-38.146-11.918V276.7c5.354,4.978,20.409,8.564,38.146,8.564s32.791-3.586,38.146-8.564V253.74c0,6.582-17.078,11.918-38.146,11.918Z" transform="translate(-10.674 -205.219)" fill="#80b4fb"/>
      <path id="Trazado_167280" data-name="Trazado 167280" d="M31.19,264.31C19,262.321,10.674,258.334,10.674,253.739V276.7c3.445,3.2,10.907,5.829,20.516,7.3Z" transform="translate(-10.674 -205.218)" fill="#5490f9"/>
      <path id="Trazado_167281" data-name="Trazado 167281" d="M48.82,77.037c-21.067,0-38.146-2.52-38.146-9.1V86.885c0,6.582,17.078,11.918,38.146,11.918s38.146-5.336,38.146-11.918V67.934c0,6.582-17.078,9.1-38.146,9.1Z" transform="translate(-10.674 -56.016)" fill="#80b4fb"/>
      <path id="Trazado_167282" data-name="Trazado 167282" d="M31.19,76.3C19,75.144,10.674,72.529,10.674,67.934V86.885c0,4.595,8.324,8.581,20.516,10.57Z" transform="translate(-10.674 -56.016)" fill="#5490f9"/>
      <path id="Trazado_167283" data-name="Trazado 167283" d="M48.82,361.858c-21.067,0-38.146-5.336-38.146-11.918v18.518c0,6.582,17.078,11.918,38.146,11.918s38.146-5.336,38.146-11.918V349.94c0,6.582-17.078,11.918-38.146,11.918Z" transform="translate(-10.674 -282.468)" fill="#9dc6fb"/>
      <path id="Trazado_167284" data-name="Trazado 167284" d="M31.19,360.511C19,358.522,10.674,354.535,10.674,349.94v18.518c0,4.595,8.324,8.582,20.516,10.57Z" transform="translate(-10.674 -282.468)" fill="#80b4fb"/>
      <path id="Trazado_167285" data-name="Trazado 167285" d="M48.82,173.854c-21.067,0-38.146-5.336-38.146-11.918v18.518c0,6.582,17.078,11.918,38.146,11.918s38.146-5.336,38.146-11.918V161.936c0,6.582-17.078,11.918-38.146,11.918Z" transform="translate(-10.674 -131.5)" fill="#9dc6fb"/>
      <path id="Trazado_167286" data-name="Trazado 167286" d="M31.19,172.506c-12.192-1.989-20.516-5.976-20.516-10.57v18.518c0,4.595,8.324,8.582,20.516,10.571Z" transform="translate(-10.674 -131.5)" fill="#80b4fb"/>
      <ellipse id="Elipse_5105" data-name="Elipse 5105" cx="38.146" cy="11.918" rx="38.146" ry="11.918" transform="translate(0)" fill="#b1d7fb"/>
      <path id="Trazado_167287" data-name="Trazado 167287" d="M28.143,21.064c0-4.532,4.082-8.617,10.619-11.5-16.187,1.379-28.088,6-28.088,11.5s11.9,10.119,28.088,11.5c-6.537-2.881-10.619-6.967-10.619-11.5Z" transform="translate(-10.674 -9.146)" fill="#9dc6fb"/>
      <path id="Trazado_167288" data-name="Trazado 167288" d="M417.071,22.49a1.584,1.584,0,0,0-1.35-.3c-3.452.8-12.037,1.977-17.172-4.432a1.568,1.568,0,0,0-1.3-.591l-.095,0V31.252h.1a8.812,8.812,0,0,1,8.8,8.8v.1h11.61V23.727a1.573,1.573,0,0,0-.6-1.238Z" transform="translate(-321.022 -15.247)" fill="#ff6148"/>
      <path id="Trazado_167289" data-name="Trazado 167289" d="M406.058,132.864v.1a8.812,8.812,0,0,1-8.8,8.8h-.1v16.09h.155a5.169,5.169,0,0,0,2.262-.523c5.44-2.664,18.093-9.656,18.093-17.029v-7.44h-11.61Z" transform="translate(-321.022 -108.155)" fill="#ffe181"/>
      <g id="Grupo_114063" data-name="Grupo 114063" transform="translate(76.136 46.395)">
        <g id="Grupo_114062" data-name="Grupo 114062">
          <path id="Trazado_167290" data-name="Trazado 167290" d="M397.158,242.947v3.3h.155a5.169,5.169,0,0,0,2.262-.523c.421-.206.885-.438,1.383-.694C399.83,244.456,398.527,243.753,397.158,242.947Z" transform="translate(-397.158 -242.947)" fill="#fec458"/>
        </g>
      </g>
      <path id="Trazado_167291" data-name="Trazado 167291" d="M306.116,132.963v-.1h-11.5v7.44c0,7.374,12.653,14.365,18.094,17.029a5.175,5.175,0,0,0,2.2.522h.1V141.764h-.1A8.812,8.812,0,0,1,306.116,132.963Z" transform="translate(-238.684 -108.155)" fill="#ff6148"/>
      <path id="Trazado_167292" data-name="Trazado 167292" d="M301.909,140.3v-7.44H294.62v7.44c0,7.374,12.653,14.365,18.094,17.029a5.175,5.175,0,0,0,2.2.522h.1v-3.192C309.137,151.232,301.909,145.877,301.909,140.3Z" transform="translate(-238.684 -108.154)" fill="#ff4756"/>
      <path id="Trazado_167293" data-name="Trazado 167293" d="M315.017,31.241V17.149l-.1,0a1.582,1.582,0,0,0-1.175.591c-5.135,6.409-13.72,5.235-17.172,4.432a1.584,1.584,0,0,0-1.947,1.541V40.141h11.5v-.1a8.812,8.812,0,0,1,8.8-8.8Z" transform="translate(-238.684 -15.236)" fill="#ffe181"/>
      <g id="Grupo_114065" data-name="Grupo 114065" transform="translate(55.936 6.898)">
        <g id="Grupo_114064" data-name="Grupo 114064" transform="translate(0)">
          <path id="Trazado_167294" data-name="Trazado 167294" d="M301.909,44.035a1.571,1.571,0,0,1,.284-.9,24.538,24.538,0,0,1-5.626-.64,1.584,1.584,0,0,0-1.947,1.541V60.46h7.289Z" transform="translate(-294.62 -42.453)" fill="#fec458"/>
        </g>
      </g>
      <circle id="Elipse_5106" data-name="Elipse 5106" cx="8.999" cy="8.999" r="8.999" transform="translate(67.235 15.808)" fill="#93d3a2"/>
      <path id="Trazado_167295" data-name="Trazado 167295" d="M356.86,96.683a9.013,9.013,0,0,1,6.558-8.66,9,9,0,1,0,0,17.32,9.014,9.014,0,0,1-6.558-8.66Z" transform="translate(-284.742 -71.875)" fill="#6ec17d"/>
    </g>
    <g id="Grupo_114067" data-name="Grupo 114067" transform="translate(3.416 0)">
      <path id="Trazado_167296" data-name="Trazado 167296" d="M380.9,119.821l-3.04,3.041-1.548-1.548a1.478,1.478,0,0,0-2.09,2.09L376.814,126a1.478,1.478,0,0,0,2.09,0l4.085-4.085a1.478,1.478,0,0,0-2.09-2.09Z" transform="translate(-300.827 -95.869)"/>
      <path id="Trazado_167297" data-name="Trazado 167297" d="M102.918,26.27V9.943A2.963,2.963,0,0,0,99.28,7.06h0C96.082,7.8,88.142,8.906,83.5,3.108a2.97,2.97,0,0,0-4.624,0A11.379,11.379,0,0,1,75.954,5.7C55.481-4.44,3.416-.544,3.416,13.38V87.453c0,8.7,20.415,13.4,39.623,13.4s39.623-4.695,39.623-13.4V66.47a1.477,1.477,0,0,0-2.955,0v2.465c0,2.411-3.789,5.034-10.136,7.017-14.631,4.571-38.442,4.568-53.065,0C10.16,73.969,6.371,71.345,6.371,68.935V55.755c12.761,10.607,60.284,10.837,73.336-.016v3.836a1.477,1.477,0,1,0,2.955,0v-7.2a6.515,6.515,0,0,0,1.39-.493,76.288,76.288,0,0,0,7.375-4.122,1.477,1.477,0,0,0-1.592-2.489,72.579,72.579,0,0,1-7.23,4.026V36.543a10.416,10.416,0,0,0,8.8-8.8h8.562v5.864c0,2.291-1.6,4.875-4.766,7.679a1.478,1.478,0,1,0,1.96,2.211c3.823-3.389,5.761-6.717,5.761-9.89V26.27ZM79.707,74.276V87.453c0,2.411-3.789,5.034-10.136,7.017-14.631,4.571-38.442,4.568-53.065,0C10.16,92.487,6.371,89.864,6.371,87.453V74.276C19.237,84.964,66.845,84.961,79.707,74.276ZM79.65,6.6V16a10.417,10.417,0,0,0-8.8,8.8H62.407L62.42,9.938c6.005,1.4,12.652.867,17.231-3.34ZM43.039,2.94c11.378,0,22.082,1.615,29.078,4.3a20.533,20.533,0,0,1-9.028-.185,2.963,2.963,0,0,0-3.639,2.884v12.7c-25.645,3.883-53.08-2.378-53.08-9.265,0-4.817,14.9-10.44,36.668-10.44ZM6.371,18.722c9.082,7.548,35.08,9.547,53.08,6.913v7.977a11.393,11.393,0,0,0,2.978,7.049C36.344,45.582,6.371,39.058,6.371,31.9ZM16.507,57.433C10.16,55.451,6.371,52.827,6.371,50.416V37.24c9.14,7.593,37.885,10.349,58.476,5.949a59.644,59.644,0,0,0,13.47,8.69,6.452,6.452,0,0,0,.741.307c-5.892,8.225-41.376,11.864-62.551,5.248ZM79.65,49.24c-5.573-2.652-17.245-9.46-17.245-15.628V27.747h8.449a10.413,10.413,0,0,0,8.8,8.8Zm1.477-15.547a7.423,7.423,0,1,1,7.423-7.423A7.431,7.431,0,0,1,81.128,33.693Zm18.835-8.9H91.4a10.413,10.413,0,0,0-8.8-8.8V6.49c5.72,5.378,13.9,4.249,17.344,3.448l.014.005Z" transform="translate(-3.416 0)"/>
    </g>
  </g>
</svg>
