<svg xmlns="http://www.w3.org/2000/svg" width="133" height="133" viewBox="0 0 133 133">
  <g id="Grupo_1064284" data-name="Grupo 1064284" transform="translate(-180 -5199.016)">
    <rect id="Rectángulo_373643" data-name="Rectángulo 373643" width="133" height="133" rx="12" transform="translate(180 5199.016)" fill="#ffb476"/>
    <g id="Fill_out_line" data-name="Fill out line" transform="translate(180.274 5210.016)">
      <path id="Trazado_600892" data-name="Trazado 600892" d="M287.032,57.677l1.774,10.645-10.645-7.1-3.548,10.645-3.548-10.645-10.645,7.1,1.774-10.645-12.419,1.774,8.871-8.871L248,47.032l8.871-7.1L248,32.839l10.645-1.774-8.871-8.871,12.419,1.774-1.774-10.645,10.645,5.323L274.613,8l3.548,10.645,10.645-5.323-1.774,10.645,12.419-1.774-8.871,8.871,10.645,1.774-8.871,7.1,8.871,7.1-10.645,3.548,8.871,8.871Z" transform="translate(-180.548 -6.226)" fill="#ff6148"/>
      <circle id="Elipse_8288" data-name="Elipse 8288" cx="3.5" cy="3.5" r="3.5" transform="translate(91 43)" fill="#e44b4d"/>
      <path id="Trazado_600893" data-name="Trazado 600893" d="M347.548,99.516H351.1L354.645,80H344Z" transform="translate(-255.258 -62.258)" fill="#e44b4d"/>
      <path id="Trazado_600894" data-name="Trazado 600894" d="M85.323,232H91.84v10.645H85.323A5.323,5.323,0,0,1,80,237.323h0A5.323,5.323,0,0,1,85.323,232Z" transform="translate(-49.806 -180.548)" fill="#f2c194"/>
      <path id="Trazado_600895" data-name="Trazado 600895" d="M5.323,0H11.84V10.645H5.323A5.323,5.323,0,0,1,0,5.323H0A5.323,5.323,0,0,1,5.323,0Z" transform="translate(76.323 62.097) rotate(180)" fill="#f2c194"/>
      <path id="Trazado_600896" data-name="Trazado 600896" d="M94.968,371.007v.477H24v-.477a39.166,39.166,0,0,1,.295-4.81,39.638,39.638,0,0,1,.88-4.737A24.237,24.237,0,0,1,43.64,343.631a23.8,23.8,0,0,1,2.652-.415q1.194-.12,2.4-.12h.144a5.327,5.327,0,0,0,5.323-5.32V336H64.806v1.776a5.327,5.327,0,0,0,5.323,5.32h.144q1.208,0,2.4.12a23.8,23.8,0,0,1,2.652.415q.822.173,1.63.406A24.244,24.244,0,0,1,93.792,361.46,39.367,39.367,0,0,1,94.968,371.007Z" transform="translate(-6.226 -261.484)" fill="#f4ceaf"/>
      <path id="Trazado_600897" data-name="Trazado 600897" d="M94.968,396.331v.477H24v-.477a39.166,39.166,0,0,1,.295-4.81,39.639,39.639,0,0,1,.88-4.737A24.237,24.237,0,0,1,43.64,368.955a23.8,23.8,0,0,1,2.652-.415,15.707,15.707,0,0,0,1.608,1.987,15.95,15.95,0,0,0,24.774-1.987c.49.049.976.113,1.462.191q.6.1,1.191.224.822.173,1.63.406a24.244,24.244,0,0,1,16.835,17.423,39.367,39.367,0,0,1,1.175,9.547Z" transform="translate(-6.226 -286.807)" fill="#c4d4e0"/>
      <path id="Trazado_600898" data-name="Trazado 600898" d="M150.9,364.057a15.95,15.95,0,0,1-24.774,1.987,15.706,15.706,0,0,1-1.608-1.987c.448-.044.9-.078,1.346-.1.35-.018.7-.024,1.056-.024h.144a5.292,5.292,0,0,0,3.311-1.158,10.639,10.639,0,0,0,14.668,0,5.292,5.292,0,0,0,3.311,1.158h.144Q149.708,363.938,150.9,364.057Z" transform="translate(-84.453 -282.325)" fill="#a6b2bc"/>
      <path id="Trazado_600899" data-name="Trazado 600899" d="M256.839,397.786v.477H232a46.7,46.7,0,0,1,1.2-10.512l1.576-6.83,2.424-10.51q.822.173,1.63.406a24.244,24.244,0,0,1,16.835,17.423A39.367,39.367,0,0,1,256.839,397.786Z" transform="translate(-168.097 -288.263)" fill="#2effc7"/>
      <path id="Trazado_600900" data-name="Trazado 600900" d="M48.839,398.263H24v-.477a39.166,39.166,0,0,1,.295-4.81,39.638,39.638,0,0,1,.88-4.737A24.236,24.236,0,0,1,43.64,370.41l1.353,5.868,1.071,4.642,1.577,6.833A46.7,46.7,0,0,1,48.839,398.263Z" transform="translate(-6.226 -288.263)" fill="#2effc7"/>
      <path id="Trazado_600901" data-name="Trazado 600901" d="M143.935,192.871v10.645a15.968,15.968,0,0,1-31.935,0V192.871L133.29,184Z" transform="translate(-74.71 -143.194)" fill="#f4ceaf"/>
      <path id="Trazado_600902" data-name="Trazado 600902" d="M122.581,150.928v6.363h-4.158a7.1,7.1,0,0,1-5.016-2.078l-5.019-5.019a24.229,24.229,0,0,1-17.132,7.1H89.086A9.086,9.086,0,0,1,80,148.2v-1.559a2.2,2.2,0,0,1,2.22-2.209,2.16,2.16,0,0,1,1.544.65,2.206,2.206,0,0,0,3.118,0l4.695-4.695a14.991,14.991,0,0,1,21.2,0l1.138,1.138a2.219,2.219,0,0,1,0,3.136l-.206.206h2.814a6.057,6.057,0,0,1,6.057,6.056Z" transform="translate(-49.806 -105.839)" fill="#c9e8e0"/>
      <path id="Trazado_600903" data-name="Trazado 600903" d="M252.381,372.268v11.8l-7.871-3.149,2.424-10.51q.822.173,1.63.406a24.138,24.138,0,0,1,3.817,1.453Z" transform="translate(-177.832 -288.263)" fill="#2effc7"/>
      <path id="Trazado_600904" data-name="Trazado 600904" d="M95.871,380.92l-6,2.4-1.87.747v-11.8a24.161,24.161,0,0,1,5.447-1.858l1.353,5.868Z" transform="translate(-56.032 -288.263)" fill="#2effc7"/>
      <path id="Trazado_600905" data-name="Trazado 600905" d="M138.2,339.8h0a3.255,3.255,0,0,0,.177,2.485l1.171,2.342L136,349.953l12.419,7.1,8.623-11.5a3.548,3.548,0,0,0-.567-4.855l-5.022-4.185a3.548,3.548,0,0,0-5.224.758l-1.358,2.037-1.776-1.184A3.255,3.255,0,0,0,138.2,339.8Z" transform="translate(-93.387 -261.243)" fill="#f4ceaf"/>
      <path id="Trazado_600906" data-name="Trazado 600906" d="M90.8,421.29l6.423-9.085a3.548,3.548,0,0,0-1.137-5.129L83.7,400,68.8,421.29Z" transform="translate(-41.09 -311.29)" fill="#2effc7"/>
      <path id="Trazado_600907" data-name="Trazado 600907" d="M133.323,240h-3.548a1.774,1.774,0,0,0,0,3.548h3.548a1.774,1.774,0,1,0,0-3.548Z" transform="translate(-87.161 -186.774)"/>
      <path id="Trazado_600908" data-name="Trazado 600908" d="M209.774,243.548h3.548a1.774,1.774,0,0,0,0-3.548h-3.548a1.774,1.774,0,0,0,0,3.548Z" transform="translate(-149.419 -186.774)"/>
      <path id="Trazado_600909" data-name="Trazado 600909" d="M177.864,255.656a1.774,1.774,0,1,0,3.366-1.122l-1.774-5.323a1.774,1.774,0,1,0-3.366,1.122Z" transform="translate(-124.514 -192.998)"/>
      <circle id="Elipse_8289" data-name="Elipse 8289" cx="1.5" cy="1.5" r="1.5" transform="translate(43 57)"/>
      <ellipse id="Elipse_8290" data-name="Elipse 8290" cx="2" cy="1.5" rx="2" ry="1.5" transform="translate(60 57)"/>
      <path id="Trazado_600910" data-name="Trazado 600910" d="M169.774,307.548h3.548a1.774,1.774,0,0,0,0-3.548h-3.548a1.774,1.774,0,0,0,0,3.548Z" transform="translate(-118.29 -236.581)"/>
      <path id="Trazado_600911" data-name="Trazado 600911" d="M77.836,183.406a26.006,26.006,0,0,0-12.221-3.9,5.3,5.3,0,0,0-1.392-1.8l-2.566-2.138a17.8,17.8,0,0,0,8.982-12.083H71a7.094,7.094,0,0,0,3.548-13.239V144.7a7.832,7.832,0,0,0-7.832-7.832h-.186a3.98,3.98,0,0,0-1.167-2.823l-1.138-1.138a16.766,16.766,0,0,0-23.71,0l-4.7,4.7a.431.431,0,0,1-.609,0,3.979,3.979,0,0,0-6.792,2.814v1.559a10.789,10.789,0,0,0,3.181,7.68c.172.172.35.335.531.493a7.1,7.1,0,0,0,3.385,13.333h.361a17.8,17.8,0,0,0,8.711,11.931,5.03,5.03,0,0,0-1.708,4.021c-.089.006-.177.015-.267.015h-.143a26.018,26.018,0,0,0-25.241,19.707A41.175,41.175,0,0,0,16,209.136v.477h3.548v-.477a37.613,37.613,0,0,1,1.121-9.112,22.352,22.352,0,0,1,9.524-13.367v8.762a1.774,1.774,0,0,0,2.433,1.647l2.361-.944-6.247,8.925,2.907,2.035,11.491-16.416,10.977,6.273a1.774,1.774,0,0,1,.569,2.564l-5.168,7.311,2.9,2.048,5.168-7.311a5.314,5.314,0,0,0-.162-6.358l7.655-10.207a5.306,5.306,0,0,0,.9-1.9c.325.028.65.064.973.107l-3.58,15.513a48.584,48.584,0,0,0-1.242,10.908h3.548a45.013,45.013,0,0,1,1.15-10.1l1.113-4.823,5.949,2.38a1.774,1.774,0,0,0,2.433-1.647v-8.762a22.352,22.352,0,0,1,9.523,13.363,37.622,37.622,0,0,1,1.122,9.116v.477h3.548v-.477a41.165,41.165,0,0,0-1.227-9.973,25.893,25.893,0,0,0-11.453-15.757ZM71,159.935v-7.1a3.548,3.548,0,1,1,0,7.1ZM31.968,140.419a.431.431,0,0,1,.735-.3,3.984,3.984,0,0,0,5.627,0l4.7-4.7a13.217,13.217,0,0,1,18.692,0l1.138,1.138a.444.444,0,0,1,0,.627l-1.98,1.98a1.774,1.774,0,0,0,2.509,2.509l1.255-1.255h2.079A4.283,4.283,0,0,1,71,144.7v4.588H68.617a5.287,5.287,0,0,1-3.764-1.559l-5.018-5.018a1.775,1.775,0,0,0-2.509,0,22.308,22.308,0,0,1-15.879,6.577H39.28a7.312,7.312,0,0,1-7.312-7.312Zm0,15.968a3.552,3.552,0,0,1,3.548-3.548v7.1A3.552,3.552,0,0,1,31.968,156.387Zm7.1,3.548v-7.1c.072,0,.143.005.215.005h2.168a25.813,25.813,0,0,0,17.091-6.4l3.805,3.805a8.8,8.8,0,0,0,5.107,2.521v7.175A14.22,14.22,0,0,1,58.6,173.088a5.319,5.319,0,0,0-7.235,1.568l-.374.561-.3-.2a5.086,5.086,0,0,0-1.062-.54,1.773,1.773,0,0,0-1.1-1.155,14.219,14.219,0,0,1-9.462-13.386ZM42.612,183a7.116,7.116,0,0,0,1.486-.158l.015.03-2.965,4.448-.475.678-1.109-4.808a22.5,22.5,0,0,1,2.9-.191Zm-8.87,1.767a22.419,22.419,0,0,1,2.351-.842l1.676,7.263L33.742,192.8Zm28.494-1.909L54.553,193.1l-9.409-5.377,2.494-3.741a1.774,1.774,0,0,0,.111-1.778l-1.171-2.342a1.481,1.481,0,0,1,2.146-1.895l1.776,1.184a1.774,1.774,0,0,0,2.46-.492l1.358-2.037a1.774,1.774,0,0,1,2.612-.379l5.022,4.185a1.774,1.774,0,0,1,.284,2.428Zm6.512,8.33,1.676-7.264a22.473,22.473,0,0,1,2.35.842V192.8Z" transform="translate(0 -99.613)"/>
      <path id="Trazado_600912" data-name="Trazado 600912" d="M296.108,39.421l-7.139-5.711L296.108,28a1.774,1.774,0,0,0-.817-3.136l-7.245-1.207,6.433-6.433a1.774,1.774,0,0,0-1.505-3.011l-10.02,1.432,1.376-8.254a1.774,1.774,0,0,0-2.543-1.879l-8.816,4.408-2.9-8.7a1.774,1.774,0,0,0-3.366,0l-2.9,8.7L254.987,5.51a1.774,1.774,0,0,0-2.543,1.879l1.376,8.254L243.8,14.211a1.774,1.774,0,0,0-1.505,3.011l6.433,6.433-7.244,1.207A1.774,1.774,0,0,0,240.666,28L247.8,33.71l-.486.389,2.217,2.771,2.218-1.774a1.774,1.774,0,0,0,0-2.771l-5.768-4.615,6.726-1.121a1.774,1.774,0,0,0,.963-3l-5.107-5.107,7.15,1.022a1.774,1.774,0,0,0,2-2.048l-1.2-7.208,7.529,3.764a1.774,1.774,0,0,0,2.477-1.026l1.865-5.6,1.865,5.6a1.774,1.774,0,0,0,2.477,1.026l7.529-3.764-1.2,7.208a1.774,1.774,0,0,0,2,2.048l7.15-1.022L283.1,23.584a1.774,1.774,0,0,0,.963,3l6.726,1.121-5.768,4.615a1.774,1.774,0,0,0,0,2.771l6.324,5.059-7.551,2.517a1.774,1.774,0,0,0-.694,2.938l5.107,5.107-7.15-1.022a1.774,1.774,0,0,0-2,2.048l1.1,6.606-7.238-4.825a1.774,1.774,0,0,0-2.667.915l-1.865,5.6-1.865-5.6a1.774,1.774,0,0,0-2.667-.915l-8.871,5.914,1.968,2.952,6.938-4.625,2.814,8.442a1.774,1.774,0,0,0,3.366,0l2.814-8.442,8.712,5.808a1.774,1.774,0,0,0,2.734-1.768l-1.376-8.254,10.02,1.432a1.774,1.774,0,0,0,1.505-3.011l-6.841-6.841,7.922-2.64a1.774,1.774,0,0,0,.547-3.069Z" transform="translate(-174.322)"/>
      <path id="Trazado_600913" data-name="Trazado 600913" d="M344,189.323A5.323,5.323,0,1,0,349.323,184,5.323,5.323,0,0,0,344,189.323Zm7.1,0a1.774,1.774,0,1,1-1.774-1.774A1.774,1.774,0,0,1,351.1,189.323Z" transform="translate(-255.258 -143.194)"/>
      <path id="Trazado_600914" data-name="Trazado 600914" d="M349.781,72.637A1.774,1.774,0,0,0,348.419,72H337.774a1.774,1.774,0,0,0-1.746,2.091l3.548,19.516a1.774,1.774,0,0,0,1.746,1.457h3.548a1.774,1.774,0,0,0,1.746-1.457l3.548-19.516A1.774,1.774,0,0,0,349.781,72.637ZM343.39,91.516H342.8l-2.9-15.968h6.393Z" transform="translate(-249.032 -56.032)"/>
    </g>
  </g>
</svg>
