<svg xmlns="http://www.w3.org/2000/svg" width="203.309" height="223.924" viewBox="0 0 203.309 223.924">
  <g id="Grupo_1064851" data-name="Grupo 1064851" transform="translate(-214.348 -185.385)">
    <path id="Trazado_601643" data-name="Trazado 601643" d="M414.728,205.868l-7.128-.515-2.932-.212-134.449-9.727a11.371,11.371,0,0,0-12.027,9.424l-1.9-.047,0,.083-3.387-.083-.3,12.275-15.664.867.23,4.16-12.822,1.574,23.584,192.08,87.785-10.779,45.8,3.314a11.368,11.368,0,0,0,12-9.249,11.178,11.178,0,0,0,.164-1.271l1.1-15.229,8.136-112.414,7.128.515a10.1,10.1,0,0,0,10.8-9.343l3.229-44.619A10.1,10.1,0,0,0,414.728,205.868Z" transform="translate(-6.441 -6.441)" fill="#c6c6c6" style="mix-blend-mode: multiply;isolation: isolate"/>
    <g id="Grupo_1064850" data-name="Grupo 1064850" transform="translate(214.348 185.385)">
      <path id="Trazado_601644" data-name="Trazado 601644" d="M451.324,206.673l-3.229,44.62a10.1,10.1,0,0,1-10.8,9.343l-7.128-.515L422.03,372.535l-1.1,15.229a11.17,11.17,0,0,1-.164,1.271,11.368,11.368,0,0,1-12,9.249l-126.042-9.119a11.366,11.366,0,0,1-10.517-12.16L283.7,218.281l1.471-20.344.144-2a11.37,11.37,0,0,1,12.16-10.52l134.449,9.727,2.932.212,7.128.515A10.1,10.1,0,0,1,451.324,206.673Z" transform="translate(-251.6 -185.385)" fill="#ffb476"/>
      <rect id="Rectángulo_374054" data-name="Rectángulo 374054" width="190.161" height="139.393" transform="matrix(0.025, -1, 1, 0.025, 27.282, 199.511)" fill="#e6e7e8" style="mix-blend-mode: multiply;isolation: isolate"/>
      <rect id="Rectángulo_374055" data-name="Rectángulo 374055" width="190.161" height="139.393" transform="translate(23.892 199.511) rotate(-88.594)" fill="#ffe5cf"/>
      <rect id="Rectángulo_374056" data-name="Rectángulo 374056" width="139.393" height="190.161" transform="translate(12.592 22.55) rotate(-3.167)" fill="#ffb476"/>
      <rect id="Rectángulo_374057" data-name="Rectángulo 374057" width="144.016" height="193.523" transform="translate(0 28.285) rotate(-7)" fill="#ffe5cf"/>
      <rect id="Rectángulo_374058" data-name="Rectángulo 374058" width="102.425" height="10.144" transform="translate(21.909 36.083) rotate(-7)" fill="#083142"/>
      <g id="Grupo_1064838" data-name="Grupo 1064838" transform="translate(61.382 50.803)">
        <rect id="Rectángulo_374059" data-name="Rectángulo 374059" width="71.356" height="4.896" transform="translate(1.193 16.255) rotate(-7)" fill="#083142"/>
        <rect id="Rectángulo_374060" data-name="Rectángulo 374060" width="53.629" height="4.896" transform="matrix(0.993, -0.122, 0.122, 0.993, 2.382, 25.937)" fill="#083142"/>
        <rect id="Rectángulo_374061" data-name="Rectángulo 374061" width="53.629" height="4.896" transform="matrix(0.993, -0.122, 0.122, 0.993, 0, 6.536)" fill="#ffb476"/>
      </g>
      <g id="Grupo_1064840" data-name="Grupo 1064840" transform="translate(19.874 58.53)">
        <path id="Trazado_601645" data-name="Trazado 601645" d="M300.3,362.316c-1.282.83-7.086,9.332-10.3,13.38l-3.143-2.446c-.374-.352-1.221-1.488-1.787-.612l-.842,1.61c-.57.876.3,2.093.87,2.437l5.138,4.637c.575.343,1.5-.088,2.069-.965l.483-.746h0l8.643-16.245C302,362.485,303.342,360.51,300.3,362.316Z" transform="translate(-279.116 -357.407)" fill="#ff6148"/>
        <g id="Grupo_1064839" data-name="Grupo 1064839">
          <path id="Trazado_601646" data-name="Trazado 601646" d="M295.84,376.365l-19.152,2.352a3.7,3.7,0,0,1-4.115-3.215l-2.352-19.152a3.7,3.7,0,0,1,3.215-4.115l19.152-2.352A3.7,3.7,0,0,1,296.7,353.1l2.352,19.152A3.7,3.7,0,0,1,295.84,376.365Zm-22.145-22.027a1.575,1.575,0,0,0-1.369,1.753l2.352,19.152a1.574,1.574,0,0,0,1.753,1.369l19.152-2.352a1.574,1.574,0,0,0,1.369-1.753L294.6,353.356a1.574,1.574,0,0,0-1.753-1.369Z" transform="translate(-270.193 -349.855)" fill="#083142"/>
        </g>
      </g>
      <g id="Grupo_1064841" data-name="Grupo 1064841" transform="translate(66.044 88.763)">
        <rect id="Rectángulo_374062" data-name="Rectángulo 374062" width="71.356" height="4.896" transform="translate(1.193 16.255) rotate(-7)" fill="#083142"/>
        <rect id="Rectángulo_374063" data-name="Rectángulo 374063" width="53.629" height="4.896" transform="matrix(0.993, -0.122, 0.122, 0.993, 2.382, 25.937)" fill="#083142"/>
        <rect id="Rectángulo_374064" data-name="Rectángulo 374064" width="53.629" height="4.896" transform="matrix(0.993, -0.122, 0.122, 0.993, 0, 6.536)" fill="#ffb476"/>
      </g>
      <g id="Grupo_1064843" data-name="Grupo 1064843" transform="translate(19.197 91.152)">
        <path id="Trazado_601647" data-name="Trazado 601647" d="M309.526,458.591c-1.756,1.137-9.705,12.781-14.1,18.324l-4.3-3.35c-.512-.482-1.672-2.037-2.448-.838l-1.153,2.2c-.78,1.2.406,2.867,1.192,3.338l7.036,6.351c.788.469,2.055-.121,2.833-1.322l.662-1.022h0l11.837-22.249C311.856,458.822,313.691,456.117,309.526,458.591Z" transform="translate(-280.511 -451.868)" fill="#ff6148"/>
        <g id="Grupo_1064842" data-name="Grupo 1064842">
          <path id="Trazado_601648" data-name="Trazado 601648" d="M303.416,477.832l-26.23,3.221a5.063,5.063,0,0,1-5.636-4.4l-3.221-26.23a5.063,5.063,0,0,1,4.4-5.636l26.23-3.221a5.063,5.063,0,0,1,5.636,4.4l3.221,26.23A5.063,5.063,0,0,1,303.416,477.832Zm-30.33-30.167a2.156,2.156,0,0,0-1.875,2.4l3.221,26.23a2.156,2.156,0,0,0,2.4,1.875l26.23-3.221a2.156,2.156,0,0,0,1.875-2.4l-3.221-26.23a2.156,2.156,0,0,0-2.4-1.875Z" transform="translate(-268.291 -441.525)" fill="#083142"/>
        </g>
      </g>
      <g id="Grupo_1064844" data-name="Grupo 1064844" transform="translate(70.704 126.724)">
        <rect id="Rectángulo_374065" data-name="Rectángulo 374065" width="71.356" height="4.896" transform="translate(1.193 16.255) rotate(-7)" fill="#083142"/>
        <rect id="Rectángulo_374066" data-name="Rectángulo 374066" width="53.629" height="4.896" transform="translate(2.382 25.937) rotate(-7)" fill="#083142"/>
        <rect id="Rectángulo_374067" data-name="Rectángulo 374067" width="53.629" height="4.896" transform="translate(0 6.536) rotate(-7)" fill="#ffb476"/>
      </g>
      <g id="Grupo_1064846" data-name="Grupo 1064846" transform="translate(29.196 134.451)">
        <path id="Trazado_601649" data-name="Trazado 601649" d="M326.5,575.656c-1.283.83-7.087,9.332-10.3,13.38l-3.143-2.446c-.374-.352-1.221-1.487-1.787-.612l-.842,1.61c-.57.876.3,2.093.87,2.437l5.138,4.637c.575.343,1.5-.088,2.069-.965l.483-.746h0l8.643-16.245C328.2,575.825,329.538,573.85,326.5,575.656Z" transform="translate(-305.311 -570.747)" fill="#ff6148"/>
        <g id="Grupo_1064845" data-name="Grupo 1064845">
          <path id="Trazado_601650" data-name="Trazado 601650" d="M322.035,589.705l-19.152,2.352a3.7,3.7,0,0,1-4.115-3.215l-2.352-19.153a3.7,3.7,0,0,1,3.215-4.115l19.152-2.352a3.7,3.7,0,0,1,4.115,3.215l2.352,19.152A3.7,3.7,0,0,1,322.035,589.705Zm-22.146-22.027a1.575,1.575,0,0,0-1.369,1.753l2.352,19.152a1.574,1.574,0,0,0,1.753,1.369l19.152-2.352a1.574,1.574,0,0,0,1.369-1.752L320.794,566.7a1.575,1.575,0,0,0-1.753-1.369Z" transform="translate(-296.388 -563.195)" fill="#083142"/>
        </g>
      </g>
      <g id="Grupo_1064847" data-name="Grupo 1064847" transform="translate(75.365 164.684)">
        <rect id="Rectángulo_374068" data-name="Rectángulo 374068" width="71.356" height="4.896" transform="translate(1.193 16.255) rotate(-7)" fill="#083142"/>
        <rect id="Rectángulo_374069" data-name="Rectángulo 374069" width="53.629" height="4.896" transform="translate(2.382 25.937) rotate(-7)" fill="#083142"/>
        <rect id="Rectángulo_374070" data-name="Rectángulo 374070" width="53.629" height="4.896" transform="matrix(0.993, -0.122, 0.122, 0.993, 0, 6.536)" fill="#ffb476"/>
      </g>
      <g id="Grupo_1064849" data-name="Grupo 1064849" transform="translate(33.857 172.411)">
        <path id="Trazado_601651" data-name="Trazado 601651" d="M339.595,682.326c-1.283.83-7.086,9.332-10.3,13.38l-3.143-2.446c-.374-.352-1.22-1.488-1.787-.612l-.842,1.61c-.57.876.3,2.093.87,2.437l5.137,4.637c.576.343,1.5-.088,2.069-.965l.483-.746h0l8.643-16.245C341.3,682.495,342.635,680.52,339.595,682.326Z" transform="translate(-318.409 -677.417)" fill="#ff6148"/>
        <g id="Grupo_1064848" data-name="Grupo 1064848">
          <path id="Trazado_601652" data-name="Trazado 601652" d="M335.133,696.375l-19.152,2.352a3.7,3.7,0,0,1-4.115-3.215l-2.352-19.152a3.7,3.7,0,0,1,3.215-4.115l19.152-2.352A3.7,3.7,0,0,1,336,673.108l2.352,19.152A3.7,3.7,0,0,1,335.133,696.375Zm-22.146-22.026a1.574,1.574,0,0,0-1.369,1.752l2.352,19.152a1.574,1.574,0,0,0,1.752,1.369l19.153-2.352a1.574,1.574,0,0,0,1.369-1.752l-2.352-19.153A1.574,1.574,0,0,0,332.14,672Z" transform="translate(-309.486 -669.865)" fill="#083142"/>
        </g>
      </g>
    </g>
  </g>
</svg>
