<svg xmlns="http://www.w3.org/2000/svg" width="133" height="133" viewBox="0 0 133 133">
  <g id="Grupo_1064283" data-name="Grupo 1064283" transform="translate(-180 -5520.016)">
    <rect id="Rectángulo_373645" data-name="Rectángulo 373645" width="133" height="133" rx="12" transform="translate(180 5520.016)" fill="#ffb476"/>
    <g id="Fill_Outline" data-name="Fill Outline" transform="translate(199.865 5536.014)">
      <g id="Color" transform="translate(5.467 3.465)">
        <rect id="Rectángulo_373648" data-name="Rectángulo 373648" width="38" height="6" rx="2" transform="translate(5.534 58.539)" fill="#e9f1f2"/>
        <rect id="Rectángulo_373649" data-name="Rectángulo 373649" width="38" height="6" rx="2" transform="translate(5.534 64.539)" fill="#e9f1f2"/>
        <path id="Trazado_600915" data-name="Trazado 600915" d="M12,51H41.334A14.667,14.667,0,0,1,26.667,65.667h0A14.667,14.667,0,0,1,12,51Z" transform="translate(-1.733 19.401)" fill="#d0d8da"/>
        <path id="Trazado_600916" data-name="Trazado 600916" d="M36.667,27.665a4.4,4.4,0,1,0-5.867,0v1.143H22v8.8h1.143a4.4,4.4,0,1,1,0,5.867H22V53.741H36.667v-4.8A24.872,24.872,0,0,0,46.934,28.807H36.667Z" transform="translate(2.934 4.927)" fill="#48cae4"/>
        <path id="Trazado_600917" data-name="Trazado 600917" d="M15.267,35.076a4.4,4.4,0,1,0,5.867,0V33.934h8.8v-8.8H28.791a4.4,4.4,0,1,1,0-5.867h1.143V9A24.934,24.934,0,0,0,5,33.934H15.267Z" transform="translate(-5 -0.2)" fill="#ffd000"/>
        <path id="Trazado_600918" data-name="Trazado 600918" d="M31.076,40.667a4.4,4.4,0,1,0,0-5.867H29.934V26h-8.8v1.143a4.4,4.4,0,1,1-5.867,0V26H5A24.872,24.872,0,0,0,15.266,46.132v4.8H29.934V40.667Z" transform="translate(-5 7.734)" fill="#ff7373"/>
        <path id="Trazado_600919" data-name="Trazado 600919" d="M38.248,3l-2.664,9.916-1.1-.293a4.4,4.4,0,1,0-1.514,5.666l1.1.293-2.276,8.5,8.5,2.278.293-1.1a4.4,4.4,0,1,1,5.667,1.518l-.293,1.1,9.918,2.658A24.934,24.934,0,0,0,38.248,3Z" transform="translate(4.873 -3)" fill="#ff7373"/>
        <path id="Trazado_600920" data-name="Trazado 600920" d="M47.134,45.933A2.955,2.955,0,0,1,44.2,48.867H11.933a2.933,2.933,0,0,1,0-5.867,2.942,2.942,0,0,0,2.933,2.933Z" transform="translate(-3.133 15.668)" fill="#d0d8da"/>
        <path id="Trazado_600921" data-name="Trazado 600921" d="M47.134,49.933A2.955,2.955,0,0,1,44.2,52.867H11.933a2.933,2.933,0,0,1,0-5.867,2.942,2.942,0,0,0,2.933,2.933Z" transform="translate(-3.133 17.534)" fill="#d0d8da"/>
        <path id="Trazado_600922" data-name="Trazado 600922" d="M41.334,51a14.738,14.738,0,0,1-.293,2.933H31.067a13.212,13.212,0,0,0-12.584,9.24A14.667,14.667,0,0,1,12,51Z" transform="translate(-1.733 19.401)" fill="#93999a"/>
        <path id="Trazado_600923" data-name="Trazado 600923" d="M43.194,34.93a25.1,25.1,0,0,1-6.527,7.04v4.8H22V36.5h1.144a4.368,4.368,0,0,0,6.747-.264,27.723,27.723,0,0,0,3.843.264A28.831,28.831,0,0,0,43.194,34.93Z" transform="translate(2.934 11.901)" fill="#00b4d8"/>
        <path id="Trazado_600924" data-name="Trazado 600924" d="M21.808,38.593A4.4,4.4,0,0,1,13.8,36.07a4.356,4.356,0,0,1,1.467-3.256V31.67H5a24.888,24.888,0,0,1,7.495-17.82c-.1,1.027-.161,2.083-.161,3.153a29.236,29.236,0,0,0,9.475,21.59Z" transform="translate(-5 2.064)" fill="#ffb700"/>
        <path id="Trazado_600925" data-name="Trazado 600925" d="M37.825,40.4a4.368,4.368,0,0,1-6.747.264H29.934V50.934H15.267v-4.8A24.878,24.878,0,0,1,5,26H15.267v1.144a4.393,4.393,0,1,0,6.541,5.779A29.187,29.187,0,0,0,37.825,40.4Z" transform="translate(-5 7.734)" fill="#ef5350"/>
        <path id="Trazado_600926" data-name="Trazado 600926" d="M56.715,26.2a24.68,24.68,0,0,1-.836,7.333l-9.915-2.655.293-1.1a4.4,4.4,0,1,0-5.676-1.525l-.293,1.1L31.8,27.083l2.273-8.492-1.1-.308a4.4,4.4,0,1,1,1.511-5.661l1.1.293L38.249,3c.337.088.675.191,1,.308A27.134,27.134,0,0,0,56.715,26.2Z" transform="translate(4.872 -3)" fill="#ef5350"/>
        <path id="Trazado_600927" data-name="Trazado 600927" d="M64.267,59.167V51.1H60.961a13.5,13.5,0,0,0-.911-2.18L62.4,46.574l-5.7-5.7-2.347,2.347a13.5,13.5,0,0,0-2.18-.911V39H44.1v3.306a13.5,13.5,0,0,0-2.18.911L39.574,40.87l-5.7,5.7,2.347,2.347a13.5,13.5,0,0,0-.911,2.179H32v8.067h3.306a13.5,13.5,0,0,0,.911,2.18L33.87,63.693l5.7,5.7,2.347-2.347a13.5,13.5,0,0,0,2.18.911v3.306h8.067V67.961a13.5,13.5,0,0,0,2.18-.911L56.693,69.4l5.7-5.7L60.05,61.347a13.5,13.5,0,0,0,.911-2.179Zm-16.134,3.3a7.333,7.333,0,1,1,7.333-7.333A7.333,7.333,0,0,1,48.134,62.467Z" transform="translate(7.601 13.801)" fill="#ffea00"/>
        <path id="Trazado_600928" data-name="Trazado 600928" d="M61.481,62.178a16.311,16.311,0,0,1-12.819-.337,3.189,3.189,0,0,1-.528.029A7.333,7.333,0,0,1,40.8,54.536a3.188,3.188,0,0,1,.029-.528,16.684,16.684,0,0,1-1.5-6.805,16.081,16.081,0,0,1,1.159-6.013l-.909-.909-5.705,5.705,2.347,2.332A14.358,14.358,0,0,0,35.3,50.5H32V58.57h3.3a14.358,14.358,0,0,0,.924,2.185l-2.347,2.332,5.705,5.705,2.332-2.347a14.357,14.357,0,0,0,2.185.924v3.3h8.067v-3.3a14.357,14.357,0,0,0,2.185-.924l2.332,2.347,5.705-5.705Z" transform="translate(7.601 14.398)" fill="#ffd000"/>
        <path id="Trazado_600929" data-name="Trazado 600929" d="M46.267,43a10.26,10.26,0,1,0,7.262,3,10.267,10.267,0,0,0-7.262-3Zm0,17.6A7.333,7.333,0,1,1,53.6,53.267,7.333,7.333,0,0,1,46.267,60.6Z" transform="translate(9.467 15.668)" fill="#ffb700"/>
        <path id="Trazado_600930" data-name="Trazado 600930" d="M51.723,60.419A10.069,10.069,0,0,1,46.267,62,10.267,10.267,0,0,1,36,51.736a10.069,10.069,0,0,1,1.584-5.456,15.868,15.868,0,0,0,1.379,4.928,3.188,3.188,0,0,0-.029.528,7.333,7.333,0,0,0,7.333,7.333,3.189,3.189,0,0,0,.528-.029A15.868,15.868,0,0,0,51.723,60.419Z" transform="translate(9.467 17.198)" fill="#ffa200"/>
        <path id="Trazado_600931" data-name="Trazado 600931" d="M63.428,36.734a8.9,8.9,0,0,0-.147-1.6l2.98-1.722-2.933-5.081-2.98,1.722a8.772,8.772,0,0,0-2.787-1.6V25H51.695v3.445a8.781,8.781,0,0,0-2.779,1.6l-2.982-1.722L43,33.407l2.982,1.722a8.436,8.436,0,0,0,0,3.209L43,40.06l2.933,5.081,2.982-1.722a8.781,8.781,0,0,0,2.779,1.6v3.445h5.867V45.022a8.772,8.772,0,0,0,2.787-1.6l2.98,1.722,2.933-5.081-2.98-1.722a8.894,8.894,0,0,0,.147-1.6Zm-8.8,2.933a2.933,2.933,0,1,1,2.933-2.933A2.933,2.933,0,0,1,54.628,39.667Z" transform="translate(12.734 7.267)" fill="#ffea00"/>
        <path id="Trazado_600932" data-name="Trazado 600932" d="M65.382,38.49a13.043,13.043,0,0,1-6.248,1.584,13.186,13.186,0,0,1-13.186-12.8h-.015L43,32.345l2.977,1.731a8.787,8.787,0,0,0,0,3.2L43,39l2.933,5.075,2.977-1.716a9.075,9.075,0,0,0,2.787,1.6v3.447h5.867V43.961a8.838,8.838,0,0,0,2.772-1.6l2.992,1.716L66.262,39Z" transform="translate(12.734 8.327)" fill="#ffd000"/>
        <path id="Trazado_600933" data-name="Trazado 600933" d="M52.867,29a5.867,5.867,0,1,0,5.867,5.867A5.867,5.867,0,0,0,52.867,29Zm-.1,8.8A2.933,2.933,0,1,1,55.7,34.867,2.933,2.933,0,0,1,52.764,37.8Z" transform="translate(14.601 9.134)" fill="#ffb700"/>
        <path id="Trazado_600934" data-name="Trazado 600934" d="M47.047,32.684c-.013.155-.047.305-.047.463a5.842,5.842,0,0,0,9.742,4.374,13.143,13.143,0,0,1-9.695-4.837Z" transform="translate(14.601 10.853)" fill="#ffa200"/>
      </g>
      <g id="Outline_copy" data-name="Outline copy" transform="translate(4 2.004)">
        <path id="Trazado_600935" data-name="Trazado 600935" d="M52.472,38.8a4.4,4.4,0,1,0-4.4-4.4A4.4,4.4,0,0,0,52.472,38.8Zm0-5.867A1.467,1.467,0,1,1,51.005,34.4,1.467,1.467,0,0,1,52.472,32.933Z" transform="translate(16.568 11.062)" fill="#323232"/>
        <path id="Trazado_600936" data-name="Trazado 600936" d="M85.4,49.519l-2.13-1.229c.023-.277.035-.551.035-.826s-.012-.549-.035-.826l2.13-1.226a1.467,1.467,0,0,0,.537-2L83,38.327a1.467,1.467,0,0,0-2-.541l-2.134,1.232A10.2,10.2,0,0,0,77.44,38.2V35.732a1.467,1.467,0,0,0-1.467-1.467H70.107a1.467,1.467,0,0,0-1.467,1.467V38.2a9.973,9.973,0,0,0-1.427.821l-2.134-1.232a1.467,1.467,0,0,0-2,.538l-2.933,5.081a1.467,1.467,0,0,0,.538,2L62.81,46.64c-.025.279-.037.554-.037.826s.012.547.037.826L60.679,49.52a1.467,1.467,0,1,0,1.467,2.542l2.98-1.72a1.467,1.467,0,0,0,.708-1.536,7.106,7.106,0,0,1,0-2.681,1.467,1.467,0,0,0-.708-1.536l-1.71-.987,1.467-2.54,1.712.989a1.467,1.467,0,0,0,1.687-.157A7.333,7.333,0,0,1,70.6,40.559a1.467,1.467,0,0,0,.977-1.382V37.2h2.933v1.979a1.467,1.467,0,0,0,.977,1.382A7.287,7.287,0,0,1,77.8,41.894a1.467,1.467,0,0,0,1.688.157l1.712-.989,1.467,2.54-1.71.987a1.467,1.467,0,0,0-.71,1.536,7.027,7.027,0,0,1,0,2.681,1.467,1.467,0,0,0,.71,1.536l1.71.987L81.2,53.869l-1.712-.989a1.467,1.467,0,0,0-1.688.157,7.287,7.287,0,0,1-2.314,1.335,1.467,1.467,0,0,0-.977,1.382v1.979H71.573V55.754a1.467,1.467,0,1,0-2.933,0v1.429l-1.531,1.53c-.135-.06-.271-.117-.408-.172V56.266A1.467,1.467,0,0,0,65.234,54.8H57.168A1.467,1.467,0,0,0,55.7,56.266v2.275c-.136.054-.273.111-.408.172L53.68,57.1a1.467,1.467,0,0,0-2.074,0l-3.765,3.765a4.415,4.415,0,0,0-1.307-.2v-2.6A26.493,26.493,0,0,0,56.8,37.2a1.467,1.467,0,0,0-1.467-1.467H47.2a5.81,5.81,0,0,0,.339-5.214l2.709.725a1.467,1.467,0,0,0,1.8-1.035l.293-1.1a1.467,1.467,0,0,0-.186-1.173,2.933,2.933,0,1,1,3.769,1.011,1.467,1.467,0,0,0-.749.927l-.293,1.1a1.467,1.467,0,0,0,1.037,1.8l9.916,2.656a1.427,1.427,0,0,0,.381.05,1.467,1.467,0,0,0,1.415-1.087,26.349,26.349,0,0,0-1.907-18.615A1.467,1.467,0,1,0,63.1,17.083,23.451,23.451,0,0,1,65.127,32.2l-6.395-1.715a5.8,5.8,0,0,0,1.531-2.625,5.864,5.864,0,1,0-11.318,0l-5.023-1.345,1.9-7.084a1.467,1.467,0,0,0-1.037-1.8l-1.1-.293a1.455,1.455,0,0,0-1.173.186,2.926,2.926,0,1,1-.83-5.28,2.891,2.891,0,0,1,1.839,1.511,1.467,1.467,0,0,0,.925.748l1.1.293a1.467,1.467,0,0,0,1.8-1.037l2.272-8.457a23.307,23.307,0,0,1,10.465,7.143,1.467,1.467,0,1,0,2.247-1.888A26.222,26.222,0,0,0,48.967,2.054a1.467,1.467,0,0,0-1.8,1.037l-2.114,7.854a5.867,5.867,0,1,0-2.622,9.787l-1.712,6.39a5.824,5.824,0,0,0-3.656,8.609h-5.2V28.4A1.467,1.467,0,0,0,30.4,26.932H29.259a1.467,1.467,0,0,0-1.09.484A2.9,2.9,0,0,1,26,28.4a2.933,2.933,0,0,1,0-5.867,2.9,2.9,0,0,1,2.169.983,1.467,1.467,0,0,0,1.09.484H30.4a1.467,1.467,0,0,0,1.467-1.467V12.265A1.467,1.467,0,0,0,30.4,10.8a26.386,26.386,0,0,0-17.181,6.38A1.467,1.467,0,0,0,15.126,19.4a23.474,23.474,0,0,1,13.807-5.626V20.4A5.805,5.805,0,0,0,26,19.6a5.867,5.867,0,1,0,0,11.734,5.805,5.805,0,0,0,2.933-.8v5.2H21.6A1.467,1.467,0,0,0,20.134,37.2V38.34a1.467,1.467,0,0,0,.484,1.09A2.9,2.9,0,0,1,21.6,41.6a2.933,2.933,0,1,1-5.867,0,2.9,2.9,0,0,1,.983-2.169,1.467,1.467,0,0,0,.484-1.09V37.2a1.467,1.467,0,0,0-1.467-1.467H6.979a23.282,23.282,0,0,1,4.413-12.254,1.467,1.467,0,0,0-2.378-1.719A26.2,26.2,0,0,0,4,37.2,26.493,26.493,0,0,0,14.267,58.064v2.6A4.381,4.381,0,0,0,11.011,68a4.381,4.381,0,0,0,3.256,7.333H39.2a1.467,1.467,0,1,0,0-2.933H14.267a1.467,1.467,0,0,1,0-2.933H39.2a1.467,1.467,0,1,0,0-2.933H14.267a1.467,1.467,0,0,1,0-2.933H45.522a1.437,1.437,0,0,0,.381,1.28l1.613,1.613c-.06.135-.117.271-.172.408H45.067A1.467,1.467,0,0,0,43.6,68.367v5.5a13.2,13.2,0,0,1-25.295,5.28,1.467,1.467,0,1,0-2.687,1.173A16.115,16.115,0,0,0,46,77.9h1.342c.054.136.111.273.172.408L45.9,79.921a1.467,1.467,0,0,0,0,2.074l5.7,5.7a1.467,1.467,0,0,0,2.074,0l1.613-1.613c.135.06.271.117.408.172v2.276A1.467,1.467,0,0,0,57.166,90h2.568a1.467,1.467,0,0,0,0-2.933h-1.1V85.227a1.467,1.467,0,0,0-1.027-1.4,11.906,11.906,0,0,1-1.94-.811,1.458,1.458,0,0,0-1.716.263l-1.308,1.307-3.63-3.63,1.307-1.308a1.467,1.467,0,0,0,.263-1.716,11.906,11.906,0,0,1-.811-1.94,1.467,1.467,0,0,0-1.4-1.027H46.534V69.831h1.839a1.467,1.467,0,0,0,1.4-1.027,11.9,11.9,0,0,1,.811-1.94,1.467,1.467,0,0,0-.263-1.716L49.014,63.84l3.63-3.63,1.308,1.307a1.467,1.467,0,0,0,1.716.263,11.905,11.905,0,0,1,1.94-.811,1.467,1.467,0,0,0,1.027-1.4V57.732h5.133v1.839a1.467,1.467,0,0,0,1.027,1.4,11.905,11.905,0,0,1,1.94.811,1.467,1.467,0,0,0,1.716-.263l1.308-1.307,3.63,3.63-1.307,1.308a1.467,1.467,0,0,0-.263,1.716,11.905,11.905,0,0,1,.811,1.94,1.467,1.467,0,0,0,1.4,1.027h1.836v5.133H74.029a1.467,1.467,0,0,0-1.4,1.027,11.905,11.905,0,0,1-.811,1.94,1.467,1.467,0,0,0,.263,1.716l1.307,1.308-3.63,3.63-1.308-1.307a1.467,1.467,0,0,0-1.716-.263,11.906,11.906,0,0,1-1.94.811,1.467,1.467,0,0,0-1.027,1.4v3.3a1.467,1.467,0,1,0,2.933,0V86.258c.136-.054.273-.111.408-.172L68.721,87.7a1.467,1.467,0,0,0,2.074,0L76.5,82a1.467,1.467,0,0,0,0-2.074l-1.613-1.613c.06-.135.117-.271.172-.408h2.278A1.467,1.467,0,0,0,78.8,76.434V68.367A1.467,1.467,0,0,0,77.335,66.9H75.06c-.054-.136-.111-.273-.172-.408L76.5,64.88a1.467,1.467,0,0,0,0-2.074l-2.143-2.14h1.613A1.467,1.467,0,0,0,77.439,59.2V56.734a10.2,10.2,0,0,0,1.427-.821L81,57.144a1.483,1.483,0,0,0,1.113.147,1.467,1.467,0,0,0,.89-.683l2.933-5.081a1.467,1.467,0,0,0-.535-2.008ZM31.867,60.666V54a5.805,5.805,0,0,0,2.933.8,5.867,5.867,0,1,0,0-11.734,5.805,5.805,0,0,0-2.933.8v-.8a1.467,1.467,0,0,0-2.933,0V46A1.467,1.467,0,0,0,30.4,47.466h1.141a1.467,1.467,0,0,0,1.09-.484A2.9,2.9,0,0,1,34.8,46a2.933,2.933,0,0,1,0,5.867,2.9,2.9,0,0,1-2.169-.983,1.467,1.467,0,0,0-1.09-.484H30.4a1.467,1.467,0,0,0-1.467,1.467v8.8H17.2V57.332a1.467,1.467,0,0,0-.6-1.185A23.573,23.573,0,0,1,6.982,38.665H13.6a5.805,5.805,0,0,0-.8,2.933,5.867,5.867,0,0,0,11.734,0,5.805,5.805,0,0,0-.8-2.933H39.2A1.467,1.467,0,0,0,40.667,37.2V36.058a1.467,1.467,0,0,0-.484-1.09A2.9,2.9,0,0,1,39.2,32.8a2.933,2.933,0,0,1,5.867,0,2.9,2.9,0,0,1-.983,2.169,1.467,1.467,0,0,0-.484,1.09V37.2a1.467,1.467,0,0,0,1.467,1.467h8.753A23.574,23.574,0,0,1,44.2,56.147a1.467,1.467,0,0,0-.6,1.185v3.334Z" transform="translate(-4 -2.004)" fill="#323232"/>
        <path id="Trazado_600937" data-name="Trazado 600937" d="M45.834,46.934a5.839,5.839,0,0,1,2.131.417,1.467,1.467,0,1,0,1.072-2.73A8.853,8.853,0,1,0,54.014,49.6a1.467,1.467,0,1,0-2.73,1.072,5.858,5.858,0,1,1-5.45-3.736Z" transform="translate(11.367 17.595)" fill="#323232"/>
      </g>
    </g>
  </g>
</svg>
