<svg xmlns="http://www.w3.org/2000/svg" width="133" height="133" viewBox="0 0 133 133">
  <g id="Grupo_1064282" data-name="Grupo 1064282" transform="translate(-180 -5800.016)">
    <rect id="Rectángulo_373647" data-name="Rectángulo 373647" width="133" height="133" rx="12" transform="translate(180 5800.016)" fill="#ffb476"/>
    <g id="resolucion-de-problemas_1_" data-name="resolucion-de-problemas (1)" transform="translate(202 5819.523)">
      <g id="Grupo_1064280" data-name="Grupo 1064280" transform="translate(6.441 3.785)">
        <g id="Grupo_1064267" data-name="Grupo 1064267" transform="translate(17.297 59.098)">
          <path id="Trazado_600938" data-name="Trazado 600938" d="M26.649,44l2.883,15.856L23.766,64.18,18,59.856,20.883,44Z" transform="translate(-18 -44)" fill="#ff826e"/>
        </g>
        <g id="Grupo_1064268" data-name="Grupo 1064268" transform="translate(18.94 50.45)">
          <path id="Trazado_600939" data-name="Trazado 600939" d="M27.385,40.465v.014l-1.24,6.169H20.38l-1.24-6.169v-.014L23.262,38Z" transform="translate(-19.14 -38)" fill="#fc6e51"/>
        </g>
        <g id="Grupo_1064269" data-name="Grupo 1064269" transform="translate(0 46.587)">
          <path id="Trazado_600940" data-name="Trazado 600940" d="M55.383,48.077l3.95-8.894,4.324,1.441A1.446,1.446,0,0,0,65.1,42.066H66.54L65.17,51.623a12.369,12.369,0,0,1-20.987,7.005l-3.589-3.589V73.777H6V55.284A20.708,20.708,0,0,1,20.53,35.522l1.326,7.985,3.085-1.845,1.24,6.169L23.3,63.687l5.766,4.324,5.766-4.324L31.946,47.832l1.24-6.169,3.085,1.845,1.369-8.187.995.173A22.727,22.727,0,0,1,55.383,48.077Z" transform="translate(-6 -35.32)" fill="#2effc7"/>
        </g>
        <g id="Grupo_1064270" data-name="Grupo 1064270" transform="translate(14.53 46.126)">
          <path id="Trazado_600941" data-name="Trazado 600941" d="M33.19,35.461,31.82,43.649,28.736,41.8v-.014l-4.122-2.465-4.122,2.465V41.8l-3.085,1.845L16.08,35.663A19.365,19.365,0,0,1,18.848,35l5.766,2.883L30.379,35Z" transform="translate(-16.08 -35)" fill="#ffc729"/>
        </g>
        <g id="Grupo_1064271" data-name="Grupo 1064271" transform="translate(57.657 21.621)">
          <path id="Trazado_600942" data-name="Trazado 600942" d="M69.063,19.441V48.27a1.446,1.446,0,0,1-1.441,1.441H47.441A1.446,1.446,0,0,1,46,48.27V41.063A2.883,2.883,0,0,0,46,35.3V23.766h5.766V18H67.621A1.446,1.446,0,0,1,69.063,19.441Z" transform="translate(-46 -18)" fill="#e6e9ed"/>
        </g>
        <g id="Grupo_1064272" data-name="Grupo 1064272" transform="translate(57.657 21.621)">
          <path id="Trazado_600943" data-name="Trazado 600943" d="M51.766,18v5.766H46v-.85a1.454,1.454,0,0,1,.418-1.009l3.488-3.488A1.454,1.454,0,0,1,50.915,18Z" transform="translate(-46 -18)" fill="#b4dd7f"/>
        </g>
        <g id="Grupo_1064273" data-name="Grupo 1064273" transform="translate(5.766)">
          <path id="Trazado_600944" data-name="Trazado 600944" d="M42.72,5.522a26.2,26.2,0,0,1,0,19.459L41.711,27.5H38.9V25.63a2.9,2.9,0,0,0-2.407-2.854l-4.007-.663A2.754,2.754,0,0,1,30.18,19.4a2.279,2.279,0,0,1,.058-.548H22.973l-5.751,3.488a2.874,2.874,0,0,0-1.384,2.45l-.014,2.71H12.883l-2.162-5.391a10.155,10.155,0,0,1,5.434-13.1,20.9,20.9,0,0,1,8.216-1.686h6.9A14.775,14.775,0,0,0,41.711,3Z" transform="translate(-10 -3)" fill="#c9e8e0"/>
        </g>
        <g id="Grupo_1064274" data-name="Grupo 1064274" transform="translate(51.891 38.918)">
          <path id="Trazado_600945" data-name="Trazado 600945" d="M47.766,35.766v7.207l-4.324-1.441-1.124-3.373A6.069,6.069,0,0,1,42,36.2v-.432A5.764,5.764,0,0,1,47.766,30a2.883,2.883,0,0,1,0,5.766Z" transform="translate(-42 -30)" fill="#f0d0b4"/>
        </g>
        <g id="Grupo_1064275" data-name="Grupo 1064275" transform="translate(17.297 40.893)">
          <path id="Trazado_600946" data-name="Trazado 600946" d="M28.234,31.4l1.3,5.2-5.766,2.883L18,36.6l1.312-5.232a11.583,11.583,0,0,0,8.922.029Z" transform="translate(-18 -31.37)" fill="#f0d0b4"/>
        </g>
        <g id="Grupo_1064276" data-name="Grupo 1064276" transform="translate(34.637 24.504)">
          <path id="Trazado_600947" data-name="Trazado 600947" d="M32.87,20a2.891,2.891,0,0,1,2.883,2.883,2.9,2.9,0,0,1-2.883,2.883l-2.84-.043L30.059,20Z" transform="translate(-30.03 -20)" fill="#f0d0b4"/>
        </g>
        <g id="Grupo_1064277" data-name="Grupo 1064277" transform="translate(11.575 15.856)">
          <path id="Trazado_600948" data-name="Trazado 600948" d="M37.122,22.649l-.029,5.722v.086a11.531,11.531,0,0,1-23.063-.029v-.058l.014-5.722.014-2.71a2.874,2.874,0,0,1,1.384-2.45L21.194,14h7.265a2.279,2.279,0,0,0-.058.548,2.754,2.754,0,0,0,2.306,2.71l4.007.663a2.9,2.9,0,0,1,2.407,2.854Z" transform="translate(-14.03 -14)" fill="#f0d0b4"/>
        </g>
        <g id="Grupo_1064278" data-name="Grupo 1064278" transform="translate(18.825 30.27)">
          <path id="Trazado_600949" data-name="Trazado 600949" d="M27.709,24l-.75,2.969a3.692,3.692,0,0,1-7.164,0L19.06,24Z" transform="translate(-19.06 -24)" fill="#ff826e"/>
        </g>
        <g id="Grupo_1064279" data-name="Grupo 1064279" transform="translate(5.766 24.504)">
          <path id="Trazado_600950" data-name="Trazado 600950" d="M15.823,20l-.014,5.722-2.926.043A2.9,2.9,0,0,1,10,22.883,2.891,2.891,0,0,1,12.883,20h2.883Z" transform="translate(-10 -20)" fill="#f0d0b4"/>
        </g>
      </g>
      <g id="Grupo_1064281" data-name="Grupo 1064281" transform="translate(5 1.221)">
        <circle id="Elipse_8291" data-name="Elipse 8291" cx="1.441" cy="1.441" r="1.441" transform="translate(17.378 25.627)"/>
        <circle id="Elipse_8292" data-name="Elipse 8292" cx="1.441" cy="1.441" r="1.441" transform="translate(28.909 25.627)"/>
        <path id="Trazado_600951" data-name="Trazado 600951" d="M28.926,27.76,30.115,23H17.774l1.191,4.758a5.134,5.134,0,0,0,9.962,0Zm-7.164-.7-.294-1.178h4.956L26.13,27.06a2.251,2.251,0,0,1-4.368,0Z" transform="translate(0.639 8.393)"/>
        <path id="Trazado_600952" data-name="Trazado 600952" d="M85.72,23.965h-16.7a2.9,2.9,0,0,0-2.038.845L63.5,28.29a2.863,2.863,0,0,0-.845,2.038v11.08a7.219,7.219,0,0,0-5.766,7.062V48.9a7.636,7.636,0,0,0,.392,2.417l.946,2.84L55.673,59.91A24.173,24.173,0,0,0,39.315,49.125l-2.876-.48-.788-3.151A13.007,13.007,0,0,0,42.44,35.475l1.479.022a4.311,4.311,0,0,0,1.937-8.169l.411-1.026a27.645,27.645,0,0,0,0-20.529L44.445,1.221,42.9,2.766a13.232,13.232,0,0,1-9.42,3.9h-6.9a22.193,22.193,0,0,0-8.788,1.8,11.595,11.595,0,0,0-6.2,14.962l1.558,3.895A4.311,4.311,0,0,0,15.112,35.5l1.548-.023a12.868,12.868,0,0,0,3.7,7.738,13.029,13.029,0,0,0,3.008,2.253l-.8,3.2A22.065,22.065,0,0,0,5,70.33V90.271H42.477V73.57L43.6,74.693a13.722,13.722,0,0,0,9.767,4.046,13.882,13.882,0,0,0,13.675-11.86l1.191-8.32H85.72A2.886,2.886,0,0,0,88.6,55.677V26.848a2.886,2.886,0,0,0-2.883-2.883Zm-17.3,3.48v2.286H66.137Zm-40.6,26.119-4.45,2.67-.768-4.61c.31-.075.624-.14.94-.2Zm0,10.762h3.361l2.507,13.8L29.5,81.262l-4.187-3.141Zm3.383-2.883H27.8L27,57.419l2.505-1.5,2.507,1.5Zm-.02-7.879,4.308-2.155.921.153-.778,4.67ZM43.94,32.614l-1.414-.02.01-2.863h1.382a1.442,1.442,0,0,1,.022,2.883Zm-28.85,0a1.441,1.441,0,0,1,0-2.883h1.5l-.01,2.861Zm4.368,1.4.03-8.431a1.452,1.452,0,0,1,.693-1.228l3.5-2.122a4.531,4.531,0,0,0,1.469.961l5.261,2.1,1.07-2.675-5.261-2.106a1.652,1.652,0,0,1,.094-3.1l2.208-.737-.912-2.734-2.207.737a4.526,4.526,0,0,0-3.1,4.3,4.477,4.477,0,0,0,.052.685l-3.66,2.221a4.35,4.35,0,0,0-2.081,3.681L16.6,26.848h-.535l-1.795-4.486a8.706,8.706,0,0,1,4.654-11.24,19.33,19.33,0,0,1,7.654-1.571h6.9a16.084,16.084,0,0,0,9.858-3.34l.252.631a24.754,24.754,0,0,1,0,18.388l-.646,1.617h-.395v-.422a4.307,4.307,0,0,0-3.621-4.282l-4-.66a1.314,1.314,0,0,1-.2-2.544l2.439-.813-.912-2.734-2.439.813a4.2,4.2,0,0,0,.644,8.122l4,.66a1.436,1.436,0,0,1,1.208,1.427l-.03,7.678a10.089,10.089,0,0,1-20.179-.075Zm10.09,13.01a12.848,12.848,0,0,0,3.4-.468l.644,2.579L29.5,51.182l-4.086-2.044.647-2.593a13,13,0,0,0,3.482.483ZM53.368,75.857a10.856,10.856,0,0,1-7.729-3.2l-3.162-3.161V67.548a3.753,3.753,0,0,1,2.086-3.374L43.273,61.6a6.623,6.623,0,0,0-3.679,5.953v19.84H19.414V67.548a6.621,6.621,0,0,0-3.68-5.953l-1.29,2.579a3.751,3.751,0,0,1,2.087,3.374v19.84H7.883V70.33a19.177,19.177,0,0,1,11.947-17.8l1.392,8.36L24.373,59l.781,3.9L22.16,79.361l7.344,5.5,7.344-5.508L33.854,62.9l.781-3.9,3.151,1.89,1.47-8.823A21.254,21.254,0,0,1,54.216,63.192l-1.524,3.429,2.635,1.172L61.319,54.31l-1.3-3.9a4.707,4.707,0,0,1-.245-1.5v-.435A4.33,4.33,0,0,1,64.1,44.145a1.441,1.441,0,0,1,0,2.883H62.657v8.649a2.878,2.878,0,0,0,2.665,2.861l-1.133,7.934a10.986,10.986,0,0,1-10.821,9.385ZM85.72,55.677H65.54V49.646a4.3,4.3,0,0,0,0-8.118V32.614h5.766V26.848H85.72Z" transform="translate(-5 -1.221)"/>
        <path id="Trazado_600953" data-name="Trazado 600953" d="M51,28.766v1.441h2.883V28.766a2.883,2.883,0,1,1,5.766,0,2.554,2.554,0,0,1-1.75,2.427,3.762,3.762,0,0,0-2.574,3.572v2.649h2.883V34.765a.882.882,0,0,1,.6-.837,5.435,5.435,0,0,0,3.72-5.162,5.766,5.766,0,1,0-11.531,0Z" transform="translate(15.306 8.393)"/>
        <path id="Trazado_600954" data-name="Trazado 600954" d="M54,35h2.883v2.883H54Z" transform="translate(16.63 13.69)"/>
        <path id="Trazado_600955" data-name="Trazado 600955" d="M39,3h2.883V14.531H39Z" transform="translate(10.008 -0.436)"/>
        <path id="Trazado_600956" data-name="Trazado 600956" d="M39,13h2.883v2.883H39Z" transform="translate(10.008 3.979)"/>
        <path id="Trazado_600957" data-name="Trazado 600957" d="M45,3h2.883V14.531H45Z" transform="translate(12.657 -0.436)"/>
        <path id="Trazado_600958" data-name="Trazado 600958" d="M45,13h2.883v2.883H45Z" transform="translate(12.657 3.979)"/>
        <path id="Trazado_600959" data-name="Trazado 600959" d="M51,3h2.883V14.531H51Z" transform="translate(15.306 -0.436)"/>
        <path id="Trazado_600960" data-name="Trazado 600960" d="M51,13h2.883v2.883H51Z" transform="translate(15.306 3.979)"/>
      </g>
    </g>
  </g>
</svg>
