<svg xmlns="http://www.w3.org/2000/svg" width="190" height="183" viewBox="0 0 190 183">
  <g id="Grupo_1064830" data-name="Grupo 1064830" transform="translate(-915 -4676.016)">
    <rect id="Rectángulo_373555" data-name="Rectángulo 373555" width="190" height="183" transform="translate(915 4676.016)" fill="#ffb476"/>
    <g id="_x32_7_Server_Error" transform="translate(919.686 4690.482)">
      <g id="Grupo_1064140" data-name="Grupo 1064140" transform="translate(42.705 13.518)">
        <path id="Trazado_167457" data-name="Trazado 167457" d="M118.177,133.372v14a7.266,7.266,0,0,1-7.266,7.266H57.549a7.266,7.266,0,0,1-7.266-7.266v-14a7.266,7.266,0,0,1,7.266-7.266h53.362A7.266,7.266,0,0,1,118.177,133.372Z" transform="translate(-48.505 -99.685)" fill="#fff"/>
        <path id="Trazado_167458" data-name="Trazado 167458" d="M100.04,172.832a4.316,4.316,0,1,1-4.316-4.316A4.315,4.315,0,0,1,100.04,172.832Z" transform="translate(-79.979 -132.142)" fill="#fdce06"/>
        <path id="Trazado_167459" data-name="Trazado 167459" d="M118.177,254.971v14a7.266,7.266,0,0,1-7.266,7.266H57.549a7.266,7.266,0,0,1-7.266-7.266v-14a7.266,7.266,0,0,1,7.266-7.266h53.362A7.266,7.266,0,0,1,118.177,254.971Z" transform="translate(-48.505 -192.747)" fill="#cfcfd1"/>
        <path id="Trazado_167460" data-name="Trazado 167460" d="M100.04,294.431a4.316,4.316,0,1,1-4.316-4.316A4.315,4.315,0,0,1,100.04,294.431Z" transform="translate(-79.979 -225.205)" fill="#fff"/>
        <path id="Trazado_167461" data-name="Trazado 167461" d="M118.177,376.57v14a7.266,7.266,0,0,1-7.266,7.266H57.549a7.266,7.266,0,0,1-7.266-7.266v-14a7.266,7.266,0,0,1,7.266-7.266h53.362A7.266,7.266,0,0,1,118.177,376.57Z" transform="translate(-48.505 -285.81)" fill="#fff"/>
        <path id="Trazado_167462" data-name="Trazado 167462" d="M100.04,416.03a4.316,4.316,0,1,1-4.316-4.316A4.315,4.315,0,0,1,100.04,416.03Z" transform="translate(-79.979 -318.268)" fill="#fdce06"/>
        <path id="Trazado_167463" data-name="Trazado 167463" d="M267.271,64.621H225.009a7.512,7.512,0,0,1-6.033-11.988l21.139-28.5a7.512,7.512,0,0,1,12.069,0l21.123,28.5A7.512,7.512,0,0,1,267.271,64.621Z" transform="translate(-176.467 -19.32)" fill="#fdce06"/>
        <g id="Grupo_1064139" data-name="Grupo 1064139" transform="translate(0 0)">
          <path id="Trazado_167464" data-name="Trazado 167464" d="M89.927,160.937a6.094,6.094,0,1,0,6.094,6.094,6.1,6.1,0,0,0-6.094-6.094Zm0,8.632a2.538,2.538,0,1,1,2.537-2.539A2.541,2.541,0,0,1,89.927,169.569Z" transform="translate(-74.181 -126.342)" fill="#3e3e3e"/>
          <path id="Trazado_167465" data-name="Trazado 167465" d="M89.927,282.539a6.094,6.094,0,1,0,6.094,6.094,6.1,6.1,0,0,0-6.094-6.094Zm0,8.631a2.537,2.537,0,1,1,2.537-2.537A2.54,2.54,0,0,1,89.927,291.17Z" transform="translate(-74.181 -219.407)" fill="#3e3e3e"/>
          <path id="Trazado_167466" data-name="Trazado 167466" d="M224.21,300.928H203.218a1.778,1.778,0,1,0,0,3.556H224.21a1.778,1.778,0,1,0,0-3.556Z" transform="translate(-164.189 -233.48)" fill="#3e3e3e"/>
          <path id="Trazado_167467" data-name="Trazado 167467" d="M89.927,404.134a6.094,6.094,0,1,0,6.094,6.094,6.1,6.1,0,0,0-6.094-6.094Zm0,8.632a2.538,2.538,0,1,1,2.537-2.539A2.541,2.541,0,0,1,89.927,412.766Z" transform="translate(-74.181 -312.467)" fill="#3e3e3e"/>
          <path id="Trazado_167468" data-name="Trazado 167468" d="M224.21,422.522H203.218a1.778,1.778,0,1,0,0,3.556H224.21a1.778,1.778,0,0,0,0-3.556Z" transform="translate(-164.189 -326.54)" fill="#3e3e3e"/>
          <path id="Trazado_167469" data-name="Trazado 167469" d="M119.849,17.277a9.289,9.289,0,0,0-14.925,0L89.431,38.161H51.75A9.054,9.054,0,0,0,42.705,47.2v14a9.016,9.016,0,0,0,3.711,7.267,9.013,9.013,0,0,0-3.711,7.266v14a9.012,9.012,0,0,0,3.71,7.266,9.012,9.012,0,0,0-3.71,7.266v14.005a9.054,9.054,0,0,0,9.045,9.044h53.362a9.054,9.054,0,0,0,9.045-9.044V104.277a9.012,9.012,0,0,0-3.71-7.266,9.012,9.012,0,0,0,3.71-7.266v-14a9.013,9.013,0,0,0-3.711-7.266,9.141,9.141,0,0,0,3.711-7.878h19.353a9.293,9.293,0,0,0,7.463-14.823Zm-9.249,87v14.005a5.5,5.5,0,0,1-5.488,5.488H51.75a5.5,5.5,0,0,1-5.488-5.488V104.277a5.5,5.5,0,0,1,5.488-5.488h53.362A5.5,5.5,0,0,1,110.6,104.277Zm0-28.535v14a5.5,5.5,0,0,1-5.488,5.488H51.75a5.5,5.5,0,0,1-5.488-5.488v-14a5.5,5.5,0,0,1,5.488-5.488h53.362A5.5,5.5,0,0,1,110.6,75.742ZM105.112,66.7H51.75a5.5,5.5,0,0,1-5.488-5.489v-14a5.5,5.5,0,0,1,5.488-5.488H86.793l-3.008,4.055A9.293,9.293,0,0,0,91.247,60.6H110.6c-.072.178.151,6.1-5.488,6.1Zm28.4-9.657H91.247a5.73,5.73,0,0,1-4.605-9.15l21.139-28.5a5.734,5.734,0,0,1,9.212,0l21.123,28.5a5.73,5.73,0,0,1-4.606,9.148Z" transform="translate(-42.705 -13.518)" fill="#3e3e3e"/>
          <path id="Trazado_167470" data-name="Trazado 167470" d="M333.8,92.061a1.778,1.778,0,0,0,1.778-1.778V80.073a1.778,1.778,0,0,0-3.556,0V90.282A1.778,1.778,0,0,0,333.8,92.061Z" transform="translate(-264.127 -63.093)" fill="#3e3e3e"/>
          <path id="Trazado_167471" data-name="Trazado 167471" d="M333.923,153.307H333.9a1.787,1.787,0,1,0,.018,0Z" transform="translate(-264.214 -120.502)" fill="#3e3e3e"/>
        </g>
      </g>
    </g>
  </g>
</svg>
