<svg xmlns="http://www.w3.org/2000/svg" width="1135" height="331" viewBox="0 0 1135 331">
  <g id="Grupo_1064918" data-name="Grupo 1064918" transform="translate(-238 -6826.016)">
    <g id="Trazado_600993" data-name="Trazado 600993" transform="translate(238 6826.016)" fill="#fff">
      <path d="M 189.5 330.5 L 0.5 330.5 L 0.5 0.5 L 189.5 0.5 L 189.5 330.5 Z" stroke="none"/>
      <path d="M 1 1 L 1 330 L 189 330 L 189 1 L 1 1 M 0 0 L 190 0 L 190 331 L 0 331 L 0 0 Z" stroke="none" fill="#000"/>
    </g>
    <path id="Trazado_600994" data-name="Trazado 600994" d="M-10.819-6.135a7.546,7.546,0,0,1-.694,3.313A5.132,5.132,0,0,1-13.487-.6,5.494,5.494,0,0,1-16.4.176a5.572,5.572,0,0,1-2.9-.751,5.123,5.123,0,0,1-1.973-2.149,7.329,7.329,0,0,1-.743-3.208v-.721a7.58,7.58,0,0,1,.69-3.318,5.119,5.119,0,0,1,1.978-2.219,5.533,5.533,0,0,1,2.931-.782,5.479,5.479,0,0,1,2.9.773A5.211,5.211,0,0,1-11.536-10a7.362,7.362,0,0,1,.716,3.274Zm-3.138-.536a5.381,5.381,0,0,0-.637-2.9,2.044,2.044,0,0,0-1.824-.989q-2.32,0-2.452,3.48l-.009.94a5.535,5.535,0,0,0,.624,2.892A2.041,2.041,0,0,0-16.4-2.232a2.016,2.016,0,0,0,1.8-.993,5.383,5.383,0,0,0,.642-2.856Zm7.813,4.3h5.37V0H-9.229V-12.8h3.085ZM3.612-4.342V0H.527V-12.8H5.634a5.948,5.948,0,0,1,2.6.541A4.074,4.074,0,0,1,9.98-10.718a4.2,4.2,0,0,1,.62,2.263,3.7,3.7,0,0,1-1.34,2.993A5.561,5.561,0,0,1,5.581-4.342Zm0-2.382H5.634A1.906,1.906,0,0,0,7-7.172a1.665,1.665,0,0,0,.47-1.266A2.059,2.059,0,0,0,6.987-9.87a1.712,1.712,0,0,0-1.318-.545H3.612Zm18.677-3.691H18.448V0H15.363V-10.415H11.593V-12.8h10.7Z" transform="translate(333 6948.016)" fill="#12263f"/>
    <path id="Trazado_600995" data-name="Trazado 600995" d="M-31.512-5.023h-4.773V0h-1.5V-11.375h7.047v1.234h-5.547V-6.25h4.773Zm7.391,4.188A3.07,3.07,0,0,1-26.6.156a2.628,2.628,0,0,1-2.059-.785,3.4,3.4,0,0,1-.715-2.324v-5.5h1.445v5.461q0,1.922,1.563,1.922A2.163,2.163,0,0,0-24.16-2.3V-8.453h1.445V0H-24.09Zm7.109.992a3.693,3.693,0,0,1-2.8-1.129,4.19,4.19,0,0,1-1.078-3.02v-.266a5.073,5.073,0,0,1,.48-2.246,3.748,3.748,0,0,1,1.344-1.547,3.378,3.378,0,0,1,1.871-.559,3.166,3.166,0,0,1,2.563,1.086,4.7,4.7,0,0,1,.914,3.109v.6h-5.727a3,3,0,0,0,.73,2.02,2.3,2.3,0,0,0,1.777.77,2.517,2.517,0,0,0,1.3-.312,3.259,3.259,0,0,0,.93-.828l.883.688A3.55,3.55,0,0,1-17.012.156Zm-.18-7.578a1.928,1.928,0,0,0-1.469.637A3.1,3.1,0,0,0-19.395-5h4.234v-.109a2.753,2.753,0,0,0-.594-1.707A1.815,1.815,0,0,0-17.191-7.422Zm6.516-1.031.047,1.063A3.08,3.08,0,0,1-8.1-8.609q2.68,0,2.7,3.023V0H-6.84V-5.594a1.946,1.946,0,0,0-.418-1.352,1.675,1.675,0,0,0-1.277-.437,2.086,2.086,0,0,0-1.234.375,2.546,2.546,0,0,0-.828.984V0h-1.445V-8.453ZM-1.254-10.5v2.047H.324v1.117H-1.254v5.242a1.171,1.171,0,0,0,.211.762.888.888,0,0,0,.719.254,3.5,3.5,0,0,0,.688-.094V0A4.19,4.19,0,0,1-.746.156,1.8,1.8,0,0,1-2.207-.43,2.517,2.517,0,0,1-2.7-2.094V-7.336H-4.238V-8.453H-2.7V-10.5ZM5.52.156a3.693,3.693,0,0,1-2.8-1.129,4.19,4.19,0,0,1-1.078-3.02v-.266A5.073,5.073,0,0,1,2.125-6.5,3.748,3.748,0,0,1,3.469-8.051,3.378,3.378,0,0,1,5.34-8.609,3.166,3.166,0,0,1,7.9-7.523a4.7,4.7,0,0,1,.914,3.109v.6H3.09a3,3,0,0,0,.73,2.02,2.3,2.3,0,0,0,1.777.77,2.517,2.517,0,0,0,1.3-.312,3.259,3.259,0,0,0,.93-.828l.883.688A3.55,3.55,0,0,1,5.52.156ZM5.34-7.422a1.928,1.928,0,0,0-1.469.637A3.1,3.1,0,0,0,3.137-5H7.371v-.109a2.753,2.753,0,0,0-.594-1.707A1.815,1.815,0,0,0,5.34-7.422Zm10.07,5.18a1.064,1.064,0,0,0-.441-.91,4.249,4.249,0,0,0-1.539-.559,7.277,7.277,0,0,1-1.742-.562,2.479,2.479,0,0,1-.953-.781,1.869,1.869,0,0,1-.309-1.078A2.193,2.193,0,0,1,11.3-7.891a3.432,3.432,0,0,1,2.246-.719,3.532,3.532,0,0,1,2.332.742,2.357,2.357,0,0,1,.895,1.9H15.324a1.3,1.3,0,0,0-.5-1.023,1.888,1.888,0,0,0-1.27-.43,1.976,1.976,0,0,0-1.234.344,1.082,1.082,0,0,0-.445.9.877.877,0,0,0,.414.789,5.1,5.1,0,0,0,1.5.508,7.8,7.8,0,0,1,1.754.578,2.558,2.558,0,0,1,1,.809,1.988,1.988,0,0,1,.324,1.152,2.163,2.163,0,0,1-.906,1.816A3.8,3.8,0,0,1,13.6.156,4.257,4.257,0,0,1,11.8-.2a2.922,2.922,0,0,1-1.223-1A2.42,2.42,0,0,1,10.137-2.6h1.445a1.5,1.5,0,0,0,.582,1.152,2.258,2.258,0,0,0,1.434.426,2.331,2.331,0,0,0,1.316-.332A1.02,1.02,0,0,0,15.41-2.242ZM22.348-4.3a4.952,4.952,0,0,1,.922-3.129,2.915,2.915,0,0,1,2.414-1.184,2.932,2.932,0,0,1,2.352,1.016V-12H29.48V0H28.152l-.07-.906A2.943,2.943,0,0,1,25.668.156a2.887,2.887,0,0,1-2.395-1.2,5.008,5.008,0,0,1-.926-3.141Zm1.445.164a3.749,3.749,0,0,0,.594,2.25,1.92,1.92,0,0,0,1.641.813A2.108,2.108,0,0,0,28.035-2.3V-6.187a2.125,2.125,0,0,0-1.992-1.2,1.929,1.929,0,0,0-1.656.82A4.128,4.128,0,0,0,23.793-4.133ZM35.23.156a3.693,3.693,0,0,1-2.8-1.129,4.19,4.19,0,0,1-1.078-3.02v-.266a5.073,5.073,0,0,1,.48-2.246A3.748,3.748,0,0,1,33.18-8.051a3.378,3.378,0,0,1,1.871-.559,3.166,3.166,0,0,1,2.563,1.086,4.7,4.7,0,0,1,.914,3.109v.6H32.8a3,3,0,0,0,.73,2.02,2.3,2.3,0,0,0,1.777.77,2.517,2.517,0,0,0,1.3-.312,3.259,3.259,0,0,0,.93-.828l.883.688A3.55,3.55,0,0,1,35.23.156Zm-.18-7.578a1.928,1.928,0,0,0-1.469.637A3.1,3.1,0,0,0,32.848-5h4.234v-.109a2.753,2.753,0,0,0-.594-1.707A1.815,1.815,0,0,0,35.051-7.422ZM-19.5,24V12.625h3.211a5.169,5.169,0,0,1,2.625.656A4.438,4.438,0,0,1-11.9,15.148a6.078,6.078,0,0,1,.629,2.781v.727a6.1,6.1,0,0,1-.621,2.82,4.369,4.369,0,0,1-1.773,1.859A5.5,5.5,0,0,1-16.352,24ZM-18,13.859v8.914h1.578a3.435,3.435,0,0,0,2.7-1.078,4.452,4.452,0,0,0,.965-3.07v-.664a4.522,4.522,0,0,0-.91-3.012,3.24,3.24,0,0,0-2.582-1.09ZM-4.016,24a3.036,3.036,0,0,1-.2-.891,3.225,3.225,0,0,1-2.406,1.047,2.984,2.984,0,0,1-2.051-.707,2.287,2.287,0,0,1-.8-1.793,2.39,2.39,0,0,1,1-2.051,4.733,4.733,0,0,1,2.824-.73h1.406v-.664A1.623,1.623,0,0,0-4.7,17a1.821,1.821,0,0,0-1.336-.449,2.108,2.108,0,0,0-1.3.391,1.151,1.151,0,0,0-.523.945H-9.3a2,2,0,0,1,.449-1.223,3.066,3.066,0,0,1,1.219-.934,4.1,4.1,0,0,1,1.691-.344,3.342,3.342,0,0,1,2.289.73A2.635,2.635,0,0,1-2.8,18.133v3.891a4.757,4.757,0,0,0,.3,1.852V24Zm-2.4-1.1a2.54,2.54,0,0,0,1.289-.352,2.127,2.127,0,0,0,.883-.914V19.9H-5.375q-2.656,0-2.656,1.555a1.316,1.316,0,0,0,.453,1.063A1.742,1.742,0,0,0-6.414,22.9ZM1.43,13.5v2.047H3.008v1.117H1.43v5.242a1.171,1.171,0,0,0,.211.762.888.888,0,0,0,.719.254,3.5,3.5,0,0,0,.688-.094V24a4.19,4.19,0,0,1-1.109.156A1.8,1.8,0,0,1,.477,23.57a2.517,2.517,0,0,1-.492-1.664V16.664H-1.555V15.547H-.016V13.5Zm2.727,6.2a4.993,4.993,0,0,1,.488-2.234A3.643,3.643,0,0,1,6,15.93a3.7,3.7,0,0,1,1.988-.539,3.565,3.565,0,0,1,2.793,1.2,4.6,4.6,0,0,1,1.066,3.18v.1a5.036,5.036,0,0,1-.473,2.215,3.589,3.589,0,0,1-1.352,1.527,3.743,3.743,0,0,1-2.02.547,3.556,3.556,0,0,1-2.785-1.2A4.575,4.575,0,0,1,4.156,19.8Zm1.453.172a3.616,3.616,0,0,0,.652,2.258,2.088,2.088,0,0,0,1.746.852,2.075,2.075,0,0,0,1.75-.863,3.955,3.955,0,0,0,.648-2.418,3.61,3.61,0,0,0-.66-2.254,2.1,2.1,0,0,0-1.754-.863,2.075,2.075,0,0,0-1.727.852A3.925,3.925,0,0,0,5.609,19.867Zm12.977,1.891a1.064,1.064,0,0,0-.441-.91,4.249,4.249,0,0,0-1.539-.559,7.277,7.277,0,0,1-1.742-.562,2.479,2.479,0,0,1-.953-.781,1.869,1.869,0,0,1-.309-1.078,2.193,2.193,0,0,1,.879-1.758,3.432,3.432,0,0,1,2.246-.719,3.532,3.532,0,0,1,2.332.742,2.357,2.357,0,0,1,.895,1.9H18.5a1.3,1.3,0,0,0-.5-1.023,1.888,1.888,0,0,0-1.27-.43,1.976,1.976,0,0,0-1.234.344,1.082,1.082,0,0,0-.445.9.877.877,0,0,0,.414.789,5.1,5.1,0,0,0,1.5.508,7.8,7.8,0,0,1,1.754.578,2.558,2.558,0,0,1,1,.809,1.988,1.988,0,0,1,.324,1.152,2.163,2.163,0,0,1-.906,1.816,3.8,3.8,0,0,1-2.352.684,4.257,4.257,0,0,1-1.8-.359,2.922,2.922,0,0,1-1.223-1,2.42,2.42,0,0,1-.441-1.395h1.445a1.5,1.5,0,0,0,.582,1.152,2.258,2.258,0,0,0,1.434.426,2.331,2.331,0,0,0,1.316-.332A1.02,1.02,0,0,0,18.586,21.758Z" transform="translate(333 7008.016)" fill="#12263f"/>
    <path id="Trazado_601717" data-name="Trazado 601717" d="M36,0C55.882,0,72,6.716,72,15S55.882,30,36,30,0,23.284,0,15,16.118,0,36,0Z" transform="translate(533 6881.016)" fill="#0573ce"/>
    <path id="Trazado_600963" data-name="Trazado 600963" d="M69.625,85.156v18c0,8.284,16.118,15,36,15s36-6.716,36-15v-18Z" transform="translate(463.375 6786.859)" fill="#528fd8"/>
    <path id="Trazado_601718" data-name="Trazado 601718" d="M36,0C55.882,0,72,6.716,72,15S55.882,30,36,30,0,23.284,0,15,16.118,0,36,0Z" transform="translate(533 6857.016)" fill="#b2caec"/>
    <path id="Trazado_600964" data-name="Trazado 600964" d="M149.338,26.167c3.09,2.213,4.86,4.786,4.86,7.531,0,8.284-16.118,15-36,15a71.414,71.414,0,0,1-23.414-3.606c6.235,4.466,17.846,7.469,31.14,7.469,19.882,0,36-6.716,36-15C161.924,33,157.043,28.918,149.338,26.167Z" transform="translate(443.076 6834.454)" fill="#82aee3"/>
    <path id="Trazado_600969" data-name="Trazado 600969" d="M398,112.872c5.346-2.617,8.571-6.01,8.571-9.716v-18" transform="translate(198.429 6786.859)" fill="none" stroke="#000" stroke-linecap="round" stroke-linejoin="round" stroke-miterlimit="10" stroke-width="1.5"/>
    <path id="Trazado_600970" data-name="Trazado 600970" d="M69.625,85.156v18c0,8.284,16.118,15,36,15a74.55,74.55,0,0,0,20.954-2.8" transform="translate(463.375 6786.859)" fill="none" stroke="#000" stroke-linecap="round" stroke-linejoin="round" stroke-miterlimit="10" stroke-width="1.5"/>
    <path id="Trazado_600971" data-name="Trazado 600971" d="M100.687,174.691c4.282,2.684,10.583,4.76,18,5.852" transform="translate(438.313 6714.619)" fill="none" stroke="#000" stroke-linecap="round" stroke-linejoin="round" stroke-miterlimit="10" stroke-width="1.5"/>
    <path id="Trazado_600972" data-name="Trazado 600972" d="M77.547,13.111C84.145,9.69,94.271,7.5,105.625,7.5c19.882,0,36,6.716,36,15s-16.118,15-36,15-36-6.716-36-15a7.936,7.936,0,0,1,2.354-5.346" transform="translate(463.375 6849.516)" fill="none" stroke="#000" stroke-linecap="round" stroke-linejoin="round" stroke-miterlimit="10" stroke-width="1.5"/>
    <g id="Grupo_1064296" data-name="Grupo 1064296" transform="translate(596 6890.016)">
      <g id="Grupo_1064295" data-name="Grupo 1064295">
        <line id="Línea_374" data-name="Línea 374" fill="none" stroke="#000" stroke-linecap="round" stroke-linejoin="round" stroke-miterlimit="10" stroke-width="1.5"/>
      </g>
    </g>
    <g id="Grupo_1064298" data-name="Grupo 1064298" transform="translate(587 6893.016)">
      <g id="Grupo_1064297" data-name="Grupo 1064297">
        <line id="Línea_375" data-name="Línea 375" fill="none" stroke="#000" stroke-linecap="round" stroke-linejoin="round" stroke-miterlimit="10" stroke-width="1.5"/>
      </g>
    </g>
    <path id="Trazado_600973" data-name="Trazado 600973" d="M70.345,193.875a6.8,6.8,0,0,0-.72,3c0,8.284,16.118,15,36,15s36-6.716,36-15a6.8,6.8,0,0,0-.72-3" transform="translate(463.375 6699.141)" fill="none" stroke="#000" stroke-linecap="round" stroke-linejoin="round" stroke-miterlimit="10" stroke-width="1.5"/>
    <path id="Trazado_601719" data-name="Trazado 601719" d="M36,0C55.882,0,72,6.716,72,15S55.882,30,36,30,0,23.284,0,15,16.118,0,36,0Z" transform="translate(533 6981.016)" fill="#0573ce"/>
    <path id="Trazado_600963-2" data-name="Trazado 600963" d="M69.625,85.156v18c0,8.284,16.118,15,36,15s36-6.716,36-15v-18Z" transform="translate(463.375 6886.859)" fill="#528fd8"/>
    <path id="Trazado_601720" data-name="Trazado 601720" d="M36,0C55.882,0,72,6.716,72,15S55.882,30,36,30,0,23.284,0,15,16.118,0,36,0Z" transform="translate(533 6957.016)" fill="#b2caec"/>
    <path id="Trazado_600964-2" data-name="Trazado 600964" d="M149.338,26.167c3.09,2.213,4.86,4.786,4.86,7.531,0,8.284-16.118,15-36,15a71.414,71.414,0,0,1-23.414-3.606c6.235,4.466,17.846,7.469,31.14,7.469,19.882,0,36-6.716,36-15C161.924,33,157.043,28.918,149.338,26.167Z" transform="translate(443.076 6934.454)" fill="#82aee3"/>
    <path id="Trazado_600969-2" data-name="Trazado 600969" d="M398,112.872c5.346-2.617,8.571-6.01,8.571-9.716v-18" transform="translate(198.429 6886.859)" fill="none" stroke="#000" stroke-linecap="round" stroke-linejoin="round" stroke-miterlimit="10" stroke-width="1.5"/>
    <path id="Trazado_600970-2" data-name="Trazado 600970" d="M69.625,85.156v18c0,8.284,16.118,15,36,15a74.55,74.55,0,0,0,20.954-2.8" transform="translate(463.375 6886.859)" fill="none" stroke="#000" stroke-linecap="round" stroke-linejoin="round" stroke-miterlimit="10" stroke-width="1.5"/>
    <path id="Trazado_600971-2" data-name="Trazado 600971" d="M100.687,174.691c4.282,2.684,10.583,4.76,18,5.852" transform="translate(438.313 6814.619)" fill="none" stroke="#000" stroke-linecap="round" stroke-linejoin="round" stroke-miterlimit="10" stroke-width="1.5"/>
    <path id="Trazado_600972-2" data-name="Trazado 600972" d="M77.547,13.111C84.145,9.69,94.271,7.5,105.625,7.5c19.882,0,36,6.716,36,15s-16.118,15-36,15-36-6.716-36-15a7.936,7.936,0,0,1,2.354-5.346" transform="translate(463.375 6949.516)" fill="none" stroke="#000" stroke-linecap="round" stroke-linejoin="round" stroke-miterlimit="10" stroke-width="1.5"/>
    <g id="Grupo_1064296-2" data-name="Grupo 1064296" transform="translate(596 6990.016)">
      <g id="Grupo_1064295-2" data-name="Grupo 1064295">
        <line id="Línea_374-2" data-name="Línea 374" fill="none" stroke="#000" stroke-linecap="round" stroke-linejoin="round" stroke-miterlimit="10" stroke-width="1.5"/>
      </g>
    </g>
    <g id="Grupo_1064298-2" data-name="Grupo 1064298" transform="translate(587 6993.016)">
      <g id="Grupo_1064297-2" data-name="Grupo 1064297">
        <line id="Línea_375-2" data-name="Línea 375" fill="none" stroke="#000" stroke-linecap="round" stroke-linejoin="round" stroke-miterlimit="10" stroke-width="1.5"/>
      </g>
    </g>
    <path id="Trazado_600973-2" data-name="Trazado 600973" d="M70.345,193.875a6.8,6.8,0,0,0-.72,3c0,8.284,16.118,15,36,15s36-6.716,36-15a6.8,6.8,0,0,0-.72-3" transform="translate(463.375 6799.141)" fill="none" stroke="#000" stroke-linecap="round" stroke-linejoin="round" stroke-miterlimit="10" stroke-width="1.5"/>
    <path id="Trazado_601721" data-name="Trazado 601721" d="M36,0C55.882,0,72,6.716,72,15S55.882,30,36,30,0,23.284,0,15,16.118,0,36,0Z" transform="translate(533 7077.016)" fill="#0573ce"/>
    <path id="Trazado_600963-3" data-name="Trazado 600963" d="M69.625,85.156v18c0,8.284,16.118,15,36,15s36-6.716,36-15v-18Z" transform="translate(463.375 6982.859)" fill="#528fd8"/>
    <path id="Trazado_601722" data-name="Trazado 601722" d="M36,0C55.882,0,72,6.716,72,15S55.882,30,36,30,0,23.284,0,15,16.118,0,36,0Z" transform="translate(533 7053.016)" fill="#b2caec"/>
    <path id="Trazado_600964-3" data-name="Trazado 600964" d="M149.338,26.167c3.09,2.213,4.86,4.786,4.86,7.531,0,8.284-16.118,15-36,15a71.414,71.414,0,0,1-23.414-3.606c6.235,4.466,17.846,7.469,31.14,7.469,19.882,0,36-6.716,36-15C161.924,33,157.043,28.918,149.338,26.167Z" transform="translate(443.076 7030.454)" fill="#82aee3"/>
    <path id="Trazado_600969-3" data-name="Trazado 600969" d="M398,112.872c5.346-2.617,8.571-6.01,8.571-9.716v-18" transform="translate(198.429 6982.859)" fill="none" stroke="#000" stroke-linecap="round" stroke-linejoin="round" stroke-miterlimit="10" stroke-width="1.5"/>
    <path id="Trazado_600970-3" data-name="Trazado 600970" d="M69.625,85.156v18c0,8.284,16.118,15,36,15a74.55,74.55,0,0,0,20.954-2.8" transform="translate(463.375 6982.859)" fill="none" stroke="#000" stroke-linecap="round" stroke-linejoin="round" stroke-miterlimit="10" stroke-width="1.5"/>
    <path id="Trazado_600971-3" data-name="Trazado 600971" d="M100.687,174.691c4.282,2.684,10.583,4.76,18,5.852" transform="translate(438.313 6910.619)" fill="none" stroke="#000" stroke-linecap="round" stroke-linejoin="round" stroke-miterlimit="10" stroke-width="1.5"/>
    <path id="Trazado_600972-3" data-name="Trazado 600972" d="M77.547,13.111C84.145,9.69,94.271,7.5,105.625,7.5c19.882,0,36,6.716,36,15s-16.118,15-36,15-36-6.716-36-15a7.936,7.936,0,0,1,2.354-5.346" transform="translate(463.375 7045.516)" fill="none" stroke="#000" stroke-linecap="round" stroke-linejoin="round" stroke-miterlimit="10" stroke-width="1.5"/>
    <g id="Grupo_1064296-3" data-name="Grupo 1064296" transform="translate(596 7086.016)">
      <g id="Grupo_1064295-3" data-name="Grupo 1064295">
        <line id="Línea_374-3" data-name="Línea 374" fill="none" stroke="#000" stroke-linecap="round" stroke-linejoin="round" stroke-miterlimit="10" stroke-width="1.5"/>
      </g>
    </g>
    <g id="Grupo_1064298-3" data-name="Grupo 1064298" transform="translate(587 7089.016)">
      <g id="Grupo_1064297-3" data-name="Grupo 1064297">
        <line id="Línea_375-3" data-name="Línea 375" fill="none" stroke="#000" stroke-linecap="round" stroke-linejoin="round" stroke-miterlimit="10" stroke-width="1.5"/>
      </g>
    </g>
    <path id="Trazado_600973-3" data-name="Trazado 600973" d="M70.345,193.875a6.8,6.8,0,0,0-.72,3c0,8.284,16.118,15,36,15s36-6.716,36-15a6.8,6.8,0,0,0-.72-3" transform="translate(463.375 6895.141)" fill="none" stroke="#000" stroke-linecap="round" stroke-linejoin="round" stroke-miterlimit="10" stroke-width="1.5"/>
    <path id="Trazado_600974" data-name="Trazado 600974" d="M69.625,333.656v32.012c0,14.733,28.664,26.676,64.023,26.676s64.023-11.943,64.023-26.676V333.656Z" transform="translate(662.977 6680.036)" fill="#528fd8"/>
    <path id="Trazado_601710" data-name="Trazado 601710" d="M64.023,0c35.359,0,64.023,11.943,64.023,26.676S99.383,53.353,64.023,53.353,0,41.409,0,26.676,28.664,0,64.023,0Z" transform="translate(732.602 6987.016)" fill="#0573ce"/>
    <path id="Trazado_600975" data-name="Trazado 600975" d="M69.625,209.406v32.012c0,14.733,28.664,26.676,64.023,26.676s64.023-11.943,64.023-26.676V209.406H69.625Z" transform="translate(662.977 6761.604)" fill="#528fd8"/>
    <path id="Trazado_601711" data-name="Trazado 601711" d="M64.023,0c35.359,0,64.023,11.943,64.023,26.676S99.383,53.353,64.023,53.353,0,41.409,0,26.676,28.664,0,64.023,0Z" transform="translate(732.602 6944.333)" fill="#0573ce"/>
    <path id="Trazado_600976" data-name="Trazado 600976" d="M69.625,85.156v32.012c0,14.733,28.664,26.676,64.023,26.676s64.023-11.943,64.023-26.676V85.156Z" transform="translate(662.977 6843.171)" fill="#528fd8"/>
    <path id="Trazado_601712" data-name="Trazado 601712" d="M64.023,0c35.359,0,64.023,11.943,64.023,26.676S99.383,53.353,64.023,53.353,0,41.409,0,26.676,28.664,0,64.023,0Z" transform="translate(732.602 6901.651)" fill="#b2caec"/>
    <path id="Trazado_600977" data-name="Trazado 600977" d="M191.8,26.167c5.5,3.936,8.643,8.512,8.643,13.394,0,14.733-28.664,26.676-64.023,26.676-15.9,0-30.445-2.415-41.64-6.412,11.089,7.943,31.738,13.283,55.381,13.283,35.359,0,64.023-11.943,64.023-26.676C214.188,38.323,205.506,31.059,191.8,26.167Z" transform="translate(646.46 6881.896)" fill="#82aee3"/>
    <path id="Trazado_600978" data-name="Trazado 600978" d="M69.625,360.332v5.335c0,14.733,28.664,26.676,64.023,26.676s64.023-11.943,64.023-26.676V333.655" transform="translate(662.977 6680.037)" fill="none" stroke="#000" stroke-linecap="round" stroke-linejoin="round" stroke-miterlimit="10" stroke-width="2"/>
    <path id="Trazado_601713" data-name="Trazado 601713" d="M0,0V14.653" transform="translate(732.602 7013.692)" fill="none" stroke="#000" stroke-linecap="round" stroke-width="2"/>
    <path id="Trazado_600979" data-name="Trazado 600979" d="M100.687,423.191c7.616,4.773,18.822,8.465,32.012,10.407" transform="translate(642.585 6621.258)" fill="none" stroke="#000" stroke-linecap="round" stroke-linejoin="round" stroke-miterlimit="10" stroke-width="2"/>
    <g id="Grupo_1064300" data-name="Grupo 1064300" transform="translate(844.643 7045.704)">
      <g id="Grupo_1064299" data-name="Grupo 1064299">
        <line id="Línea_377" data-name="Línea 377" fill="none" stroke="#000" stroke-linecap="round" stroke-linejoin="round" stroke-miterlimit="10" stroke-width="2"/>
      </g>
    </g>
    <g id="Grupo_1064302" data-name="Grupo 1064302" transform="translate(828.637 7051.039)">
      <g id="Grupo_1064301" data-name="Grupo 1064301">
        <line id="Línea_378" data-name="Línea 378" fill="none" stroke="#000" stroke-linecap="round" stroke-linejoin="round" stroke-miterlimit="10" stroke-width="2"/>
      </g>
    </g>
    <path id="Trazado_600980" data-name="Trazado 600980" d="M69.625,209.406v32.012c0,14.733,28.664,26.676,64.023,26.676s64.023-11.943,64.023-26.676V209.406" transform="translate(662.977 6761.604)" fill="none" stroke="#000" stroke-linecap="round" stroke-linejoin="round" stroke-miterlimit="10" stroke-width="2"/>
    <path id="Trazado_600981" data-name="Trazado 600981" d="M100.687,298.941c7.616,4.773,18.822,8.465,32.012,10.407" transform="translate(642.585 6702.826)" fill="none" stroke="#000" stroke-linecap="round" stroke-linejoin="round" stroke-miterlimit="10" stroke-width="2"/>
    <g id="Grupo_1064304" data-name="Grupo 1064304" transform="translate(844.643 7003.021)">
      <g id="Grupo_1064303" data-name="Grupo 1064303">
        <line id="Línea_379" data-name="Línea 379" fill="none" stroke="#000" stroke-linecap="round" stroke-linejoin="round" stroke-miterlimit="10" stroke-width="2"/>
      </g>
    </g>
    <g id="Grupo_1064306" data-name="Grupo 1064306" transform="translate(828.637 7008.356)">
      <g id="Grupo_1064305" data-name="Grupo 1064305">
        <line id="Línea_380" data-name="Línea 380" fill="none" stroke="#000" stroke-linecap="round" stroke-linejoin="round" stroke-miterlimit="10" stroke-width="2"/>
      </g>
    </g>
    <path id="Trazado_600982" data-name="Trazado 600982" d="M398,134.447c9.507-4.655,15.244-10.688,15.244-17.279V85.156" transform="translate(447.405 6843.171)" fill="none" stroke="#000" stroke-linecap="round" stroke-linejoin="round" stroke-miterlimit="10" stroke-width="2"/>
    <path id="Trazado_600983" data-name="Trazado 600983" d="M69.625,85.156v32.012c0,14.733,28.664,26.676,64.023,26.676a132.582,132.582,0,0,0,37.265-4.982" transform="translate(662.977 6843.171)" fill="none" stroke="#000" stroke-linecap="round" stroke-linejoin="round" stroke-miterlimit="10" stroke-width="2"/>
    <path id="Trazado_600984" data-name="Trazado 600984" d="M100.687,174.691c7.616,4.773,18.822,8.465,32.012,10.407" transform="translate(642.585 6784.393)" fill="none" stroke="#000" stroke-linecap="round" stroke-linejoin="round" stroke-miterlimit="10" stroke-width="2"/>
    <path id="Trazado_600985" data-name="Trazado 600985" d="M83.713,17.48c11.735-6.085,29.743-9.98,49.935-9.98,35.359,0,64.023,11.943,64.023,26.676s-28.664,26.676-64.023,26.676S69.625,48.91,69.625,34.176c0-3.349,1.482-6.555,4.186-9.508" transform="translate(662.977 6894.151)" fill="none" stroke="#000" stroke-linecap="round" stroke-linejoin="round" stroke-miterlimit="10" stroke-width="2"/>
    <g id="Grupo_1064308" data-name="Grupo 1064308" transform="translate(844.643 6960.339)">
      <g id="Grupo_1064307" data-name="Grupo 1064307">
        <line id="Línea_381" data-name="Línea 381" fill="none" stroke="#000" stroke-linecap="round" stroke-linejoin="round" stroke-miterlimit="10" stroke-width="2"/>
      </g>
    </g>
    <g id="Grupo_1064310" data-name="Grupo 1064310" transform="translate(828.637 6965.674)">
      <g id="Grupo_1064309" data-name="Grupo 1064309">
        <line id="Línea_382" data-name="Línea 382" fill="none" stroke="#000" stroke-linecap="round" stroke-linejoin="round" stroke-miterlimit="10" stroke-width="2"/>
      </g>
    </g>
    <path id="Trazado_600986" data-name="Trazado 600986" d="M70.906,193.875a12.09,12.09,0,0,0-1.281,5.335c0,14.733,28.664,26.676,64.023,26.676s64.023-11.943,64.023-26.676a12.09,12.09,0,0,0-1.281-5.335" transform="translate(662.977 6771.799)" fill="none" stroke="#000" stroke-linecap="round" stroke-linejoin="round" stroke-miterlimit="10" stroke-width="2"/>
    <path id="Trazado_600987" data-name="Trazado 600987" d="M70.906,318.125a12.09,12.09,0,0,0-1.281,5.335c0,14.733,28.664,26.676,64.023,26.676s64.023-11.943,64.023-26.676a12.09,12.09,0,0,0-1.281-5.335" transform="translate(662.977 6690.231)" fill="none" stroke="#000" stroke-linecap="round" stroke-linejoin="round" stroke-miterlimit="10" stroke-width="2"/>
    <path id="Trazado_600988" data-name="Trazado 600988" d="M-1554-4827h82.055" transform="translate(1982 11711.016)" fill="none" stroke="#707070" stroke-width="1"/>
    <path id="Trazado_601723" data-name="Trazado 601723" d="M6.5,0,13,12H0Z" transform="translate(514.5 6877.516) rotate(90)"/>
    <path id="Trazado_600989" data-name="Trazado 600989" d="M-1554-4827h82.055" transform="translate(1982 11817.516)" fill="none" stroke="#707070" stroke-width="1"/>
    <path id="Trazado_601724" data-name="Trazado 601724" d="M6.5,0,13,12H0Z" transform="translate(514.5 6984.016) rotate(90)"/>
    <path id="Trazado_600990" data-name="Trazado 600990" d="M-1554-4827h82.055" transform="translate(1982 11913.516)" fill="none" stroke="#707070" stroke-width="1"/>
    <path id="Trazado_600999" data-name="Trazado 600999" d="M6.5,0,13,12H0Z" transform="translate(514.5 7080.016) rotate(90)"/>
    <path id="Trazado_600988-2" data-name="Trazado 600988" d="M-1554-4827h82.055" transform="matrix(0.891, 0.454, -0.454, 0.891, -180.337, 11897.77)" fill="none" stroke="#707070" stroke-width="1"/>
    <path id="Trazado_601714" data-name="Trazado 601714" d="M6.5,0,13,12H0Z" transform="matrix(-0.454, 0.891, -0.891, -0.454, 706.474, 6924.859)"/>
    <path id="Trazado_600989-2" data-name="Trazado 600989" d="M-1554-4827h82.055" transform="translate(2177.5 11817.516)" fill="none" stroke="#707070" stroke-width="1"/>
    <path id="Trazado_601715" data-name="Trazado 601715" d="M6.5,0,13,12H0Z" transform="translate(710 6984.016) rotate(90)"/>
    <path id="Trazado_600988-3" data-name="Trazado 600988" d="M0,0H82.055" transform="translate(627.531 7090.431) rotate(-30)" fill="none" stroke="#707070" stroke-width="1"/>
    <path id="Trazado_601716" data-name="Trazado 601716" d="M6.5,0,13,12H0Z" transform="translate(699.193 7041.552) rotate(60)"/>
    <path id="Trazado_600989-3" data-name="Trazado 600989" d="M-1554-4827h82.055" transform="translate(2422 11817.516)" fill="none" stroke="#707070" stroke-width="1"/>
    <path id="Trazado_601709" data-name="Trazado 601709" d="M6.5,0,13,12H0Z" transform="translate(954.5 6984.016) rotate(90)"/>
    <path id="Trazado_600991" data-name="Trazado 600991" d="M5.206,28.212l.281,60.467A2.123,2.123,0,0,0,6.6,90.537L54.9,115.825a2.134,2.134,0,0,0,1.005.253h0a2.155,2.155,0,0,0,.5.437,2.115,2.115,0,0,0,2.094.044L106.186,90.7a2.127,2.127,0,0,0,1.113-1.865V25.922c0-.018-.007-.035-.007-.055s0-.03,0-.047c0-.061-.027-.116-.031-.175a2.341,2.341,0,0,0-.066-.344c-.025-.078-.058-.147-.09-.222a1.96,1.96,0,0,0-.147-.287,2.025,2.025,0,0,0-.148-.2,2.064,2.064,0,0,0-.215-.23,1.989,1.989,0,0,0-.2-.157c-.045-.031-.083-.075-.133-.1a1.535,1.535,0,0,0-.147-.064c-.041-.021-.074-.051-.115-.069L56.865.167a2.126,2.126,0,0,0-1.778.059L6.514,25.548a2.123,2.123,0,0,0-1.166,1.885c0,.013.006.024.006.035A2.138,2.138,0,0,0,5.206,28.212Zm95.074-2.057L57.472,50.09,12.14,27.462,56.117,4.455ZM59.615,111.134V53.752l43.443-24.278v58.09Z" transform="translate(967.794 6936.202)"/>
    <path id="Trazado_601000" data-name="Trazado 601000" d="M-10.129-5.391a6.979,6.979,0,0,1-.578,2.934A4.371,4.371,0,0,1-12.359-.52a4.545,4.545,0,0,1-2.473.676A4.556,4.556,0,0,1-17.3-.52a4.438,4.438,0,0,1-1.672-1.926,6.761,6.761,0,0,1-.6-2.883v-.641a6.919,6.919,0,0,1,.59-2.937,4.433,4.433,0,0,1,1.664-1.949,4.531,4.531,0,0,1,2.465-.676,4.57,4.57,0,0,1,2.465.668,4.377,4.377,0,0,1,1.66,1.922,6.9,6.9,0,0,1,.594,2.918Zm-1.977-.594a4.973,4.973,0,0,0-.715-2.9,2.339,2.339,0,0,0-2.027-1.008,2.332,2.332,0,0,0-2,1,4.876,4.876,0,0,0-.738,2.84v.656a4.935,4.935,0,0,0,.73,2.9,2.352,2.352,0,0,0,2.027,1.023,2.325,2.325,0,0,0,2.02-1,5.041,5.041,0,0,0,.707-2.922Zm5.922,4.406H-1.02V0H-8.16V-11.375h1.977Zm13.2-1.07H2.605L1.684,0H-.371l4.3-11.375H5.7L10,0H7.941ZM3.16-4.242h3.3L4.809-8.961Zm10.109.016V0H11.293V-11.375h4.352a4.4,4.4,0,0,1,3.027.992,3.334,3.334,0,0,1,1.121,2.625,3.224,3.224,0,0,1-1.1,2.6,4.617,4.617,0,0,1-3.074.93Zm0-1.586h2.375a2.339,2.339,0,0,0,1.609-.5,1.823,1.823,0,0,0,.555-1.434,1.967,1.967,0,0,0-.562-1.473A2.168,2.168,0,0,0,15.7-9.781H13.27Z" transform="translate(998 7010.016)" fill="#fff"/>
    <path id="Trazado_601001" data-name="Trazado 601001" d="M-41.754-3.7A4.107,4.107,0,0,1-43.1-.863,4.581,4.581,0,0,1-46.215.156a4.436,4.436,0,0,1-2.395-.645,4.231,4.231,0,0,1-1.6-1.832,6.611,6.611,0,0,1-.586-2.758V-6.141a6.659,6.659,0,0,1,.57-2.836,4.3,4.3,0,0,1,1.637-1.891,4.566,4.566,0,0,1,2.465-.664,4.386,4.386,0,0,1,3.031,1.023,4.276,4.276,0,0,1,1.336,2.891h-1.969a2.81,2.81,0,0,0-.715-1.77,2.363,2.363,0,0,0-1.684-.543,2.309,2.309,0,0,0-1.98.941,4.7,4.7,0,0,0-.707,2.762v1.008a4.988,4.988,0,0,0,.66,2.813,2.191,2.191,0,0,0,1.934.969,2.555,2.555,0,0,0,1.75-.523A2.729,2.729,0,0,0-43.723-3.7Zm6.7,2.875a2.944,2.944,0,0,1-2.375.984,2.624,2.624,0,0,1-2.082-.8,3.423,3.423,0,0,1-.707-2.328V-8.453h1.9V-3q0,1.609,1.336,1.609a1.876,1.876,0,0,0,1.867-.992v-6.07h1.9V0H-35Zm11.188-3.312a5.078,5.078,0,0,1-.879,3.133A2.863,2.863,0,0,1-27.16.156a2.758,2.758,0,0,1-2.312-1.07L-29.566,0h-1.719V-12h1.9v4.359a2.748,2.748,0,0,1,2.211-.969,2.9,2.9,0,0,1,2.43,1.148,5.162,5.162,0,0,1,.883,3.211Zm-1.9-.164a3.589,3.589,0,0,0-.484-2.062,1.613,1.613,0,0,0-1.406-.687,1.763,1.763,0,0,0-1.734,1.078v3.484a1.781,1.781,0,0,0,1.75,1.1,1.6,1.6,0,0,0,1.375-.664,3.477,3.477,0,0,0,.5-2.008Zm3.133,0a4.984,4.984,0,0,1,.492-2.238,3.6,3.6,0,0,1,1.383-1.531,3.9,3.9,0,0,1,2.047-.535,3.692,3.692,0,0,1,2.777,1.1,4.333,4.333,0,0,1,1.152,2.922l.008.445a5.029,5.029,0,0,1-.48,2.234A3.551,3.551,0,0,1-16.625-.383a3.925,3.925,0,0,1-2.066.539,3.667,3.667,0,0,1-2.863-1.191,4.563,4.563,0,0,1-1.074-3.176Zm1.9.164A3.406,3.406,0,0,0-20.191-2.1a1.752,1.752,0,0,0,1.5.738,1.733,1.733,0,0,0,1.5-.75,3.762,3.762,0,0,0,.535-2.2,3.362,3.362,0,0,0-.551-2.031,1.759,1.759,0,0,0-1.5-.75,1.743,1.743,0,0,0-1.477.738A3.691,3.691,0,0,0-20.73-4.141Zm11.2-.148a5.026,5.026,0,0,1,.906-3.137A2.9,2.9,0,0,1-6.2-8.609a2.759,2.759,0,0,1,2.172.938V-12h1.9V0H-3.848l-.094-.875A2.8,2.8,0,0,1-6.215.156a2.887,2.887,0,0,1-2.4-1.2A5.21,5.21,0,0,1-9.535-4.289Zm1.9.164a3.519,3.519,0,0,0,.5,2.012,1.61,1.61,0,0,0,1.41.723,1.793,1.793,0,0,0,1.7-1.039V-6.039A1.766,1.766,0,0,0-5.715-7.055a1.622,1.622,0,0,0-1.422.73A3.918,3.918,0,0,0-7.637-4.125ZM3.574.156A3.928,3.928,0,0,1,.648-.98,4.124,4.124,0,0,1-.473-4.008v-.234A5.072,5.072,0,0,1,.016-6.5,3.716,3.716,0,0,1,1.387-8.055a3.625,3.625,0,0,1,1.969-.555,3.318,3.318,0,0,1,2.668,1.1,4.658,4.658,0,0,1,.941,3.117v.766H1.441a2.539,2.539,0,0,0,.7,1.656,2.1,2.1,0,0,0,1.543.609A2.571,2.571,0,0,0,5.809-2.414l1.023.977A3.418,3.418,0,0,1,5.477-.262,4.244,4.244,0,0,1,3.574.156ZM3.348-7.086a1.6,1.6,0,0,0-1.262.547,2.835,2.835,0,0,0-.613,1.523H5.09v-.141A2.307,2.307,0,0,0,4.582-6.6,1.586,1.586,0,0,0,3.348-7.086Zm8.719,2.8a5.026,5.026,0,0,1,.906-3.137A2.9,2.9,0,0,1,15.4-8.609a2.759,2.759,0,0,1,2.172.938V-12h1.9V0H17.754L17.66-.875A2.8,2.8,0,0,1,15.387.156a2.887,2.887,0,0,1-2.4-1.2A5.21,5.21,0,0,1,12.066-4.289Zm1.9.164a3.519,3.519,0,0,0,.5,2.012,1.61,1.61,0,0,0,1.41.723,1.793,1.793,0,0,0,1.7-1.039V-6.039a1.766,1.766,0,0,0-1.687-1.016,1.622,1.622,0,0,0-1.422.73A3.919,3.919,0,0,0,13.965-4.125ZM26.5,0a2.93,2.93,0,0,1-.219-.789,2.955,2.955,0,0,1-2.219.945A2.982,2.982,0,0,1,21.988-.57a2.325,2.325,0,0,1-.8-1.8,2.4,2.4,0,0,1,1-2.074,4.865,4.865,0,0,1,2.871-.723h1.164v-.555a1.481,1.481,0,0,0-.367-1.051,1.456,1.456,0,0,0-1.117-.395,1.672,1.672,0,0,0-1.062.324,1,1,0,0,0-.414.824h-1.9a2.107,2.107,0,0,1,.461-1.3,3.071,3.071,0,0,1,1.254-.949,4.4,4.4,0,0,1,1.77-.344,3.547,3.547,0,0,1,2.367.746,2.661,2.661,0,0,1,.906,2.1v3.813a4.321,4.321,0,0,0,.32,1.82V0ZM24.418-1.367a2.159,2.159,0,0,0,1.059-.273,1.827,1.827,0,0,0,.746-.734V-3.969H25.2a2.8,2.8,0,0,0-1.586.367,1.189,1.189,0,0,0-.531,1.039,1.109,1.109,0,0,0,.363.871A1.407,1.407,0,0,0,24.418-1.367Zm8.07-9.141v2.055H33.98v1.406H32.488v4.719a1.039,1.039,0,0,0,.191.7.888.888,0,0,0,.684.215,2.924,2.924,0,0,0,.664-.078V-.023a4.676,4.676,0,0,1-1.25.18q-2.188,0-2.187-2.414V-7.047H29.2V-8.453H30.59v-2.055ZM34.84-4.3a4.984,4.984,0,0,1,.492-2.238,3.6,3.6,0,0,1,1.383-1.531,3.9,3.9,0,0,1,2.047-.535,3.692,3.692,0,0,1,2.777,1.1,4.333,4.333,0,0,1,1.152,2.922l.008.445a5.029,5.029,0,0,1-.48,2.234A3.551,3.551,0,0,1,40.844-.383a3.925,3.925,0,0,1-2.066.539,3.667,3.667,0,0,1-2.863-1.191A4.563,4.563,0,0,1,34.84-4.211Zm1.9.164A3.406,3.406,0,0,0,37.277-2.1a1.752,1.752,0,0,0,1.5.738,1.733,1.733,0,0,0,1.5-.75,3.762,3.762,0,0,0,.535-2.2,3.362,3.362,0,0,0-.551-2.031,1.759,1.759,0,0,0-1.5-.75,1.743,1.743,0,0,0-1.477.738A3.691,3.691,0,0,0,36.738-4.141ZM49.043-2.3a.861.861,0,0,0-.418-.773,4.445,4.445,0,0,0-1.387-.469,7.129,7.129,0,0,1-1.617-.516A2.158,2.158,0,0,1,44.2-6.047a2.25,2.25,0,0,1,.922-1.828,3.644,3.644,0,0,1,2.344-.734,3.792,3.792,0,0,1,2.449.75,2.38,2.38,0,0,1,.934,1.945h-1.9a1.17,1.17,0,0,0-.406-.91,1.557,1.557,0,0,0-1.078-.363,1.682,1.682,0,0,0-1.02.289.911.911,0,0,0-.395.773.769.769,0,0,0,.367.68,5.049,5.049,0,0,0,1.484.488,7.027,7.027,0,0,1,1.754.586,2.484,2.484,0,0,1,.945.816A2.082,2.082,0,0,1,50.91-2.4a2.2,2.2,0,0,1-.945,1.848,4.031,4.031,0,0,1-2.477.707,4.371,4.371,0,0,1-1.852-.375A3.047,3.047,0,0,1,44.371-1.25a2.441,2.441,0,0,1-.453-1.414h1.844a1.338,1.338,0,0,0,.508,1.035,1.973,1.973,0,0,0,1.242.363,1.92,1.92,0,0,0,1.141-.285A.883.883,0,0,0,49.043-2.3Z" transform="translate(1018 7080.016)" fill="#12263f"/>
    <path id="Trazado_600989-4" data-name="Trazado 600989" d="M-1554-4827h82.055" transform="translate(2630.5 11817.516)" fill="none" stroke="#707070" stroke-width="1"/>
    <path id="Trazado_601708" data-name="Trazado 601708" d="M6.5,0,13,12H0Z" transform="translate(1163 6984.016) rotate(90)"/>
    <g id="Trazado_601003" data-name="Trazado 601003" transform="translate(1183 6826.016)" fill="#fff">
      <path d="M 189.5 330.5 L 0.5 330.5 L 0.5 0.5 L 189.5 0.5 L 189.5 330.5 Z" stroke="none"/>
      <path d="M 1 1 L 1 330 L 189 330 L 189 1 L 1 1 M 0 0 L 190 0 L 190 331 L 0 331 L 0 0 Z" stroke="none" fill="#000"/>
    </g>
    <path id="Trazado_601004" data-name="Trazado 601004" d="M-21.41-4.333a4.673,4.673,0,0,1-.721,2.36,4.35,4.35,0,0,1-1.85,1.586A6.3,6.3,0,0,1-26.7.176a5.025,5.025,0,0,1-3.973-1.644,6.786,6.786,0,0,1-1.45-4.641v-.633a7.746,7.746,0,0,1,.655-3.292,4.961,4.961,0,0,1,1.885-2.18,5.26,5.26,0,0,1,2.848-.769,5.516,5.516,0,0,1,3.744,1.226,4.844,4.844,0,0,1,1.608,3.379H-24.46a2.292,2.292,0,0,0-.589-1.679,2.422,2.422,0,0,0-1.687-.51,1.843,1.843,0,0,0-1.687.861,5.536,5.536,0,0,0-.562,2.751v.905a6.126,6.126,0,0,0,.514,2.927,1.882,1.882,0,0,0,1.771.879,2.369,2.369,0,0,0,1.626-.5,2.126,2.126,0,0,0,.6-1.591ZM-14.73,0a3.344,3.344,0,0,1-.281-.853A2.754,2.754,0,0,1-17.3.176a3.374,3.374,0,0,1-2.285-.813,2.588,2.588,0,0,1-.94-2.043A2.66,2.66,0,0,1-19.38-5.019a5.821,5.821,0,0,1,3.322-.791h.914v-.5q0-1.31-1.134-1.31a.925.925,0,0,0-1.055,1.037h-2.962a2.659,2.659,0,0,1,1.173-2.241,4.927,4.927,0,0,1,2.993-.861,4.323,4.323,0,0,1,2.874.888,3.086,3.086,0,0,1,1.081,2.435v4.21a4.311,4.311,0,0,0,.4,2V0Zm-1.854-1.934a1.652,1.652,0,0,0,.918-.237,1.487,1.487,0,0,0,.523-.536V-4.228H-16q-1.547,0-1.547,1.389a.848.848,0,0,0,.272.655A.986.986,0,0,0-16.585-1.934Zm14.88-2.751a5.735,5.735,0,0,1-1,3.538A3.2,3.2,0,0,1-5.4.176,2.742,2.742,0,0,1-7.55-.782V3.656h-2.962V-9.51h2.769l.088.879A2.742,2.742,0,0,1-5.414-9.686a3.224,3.224,0,0,1,2.733,1.3,5.805,5.805,0,0,1,.976,3.564Zm-2.962-.185q0-2.531-1.477-2.531a1.394,1.394,0,0,0-1.406.756V-2.9a1.439,1.439,0,0,0,1.424.791q1.415,0,1.459-2.443ZM4.957,0a3.344,3.344,0,0,1-.281-.853A2.754,2.754,0,0,1,2.391.176,3.374,3.374,0,0,1,.105-.637a2.588,2.588,0,0,1-.94-2.043A2.66,2.66,0,0,1,.308-5.019,5.821,5.821,0,0,1,3.63-5.81h.914v-.5q0-1.31-1.134-1.31A.925.925,0,0,0,2.355-6.583H-.606A2.659,2.659,0,0,1,.567-8.824,4.927,4.927,0,0,1,3.56-9.686,4.323,4.323,0,0,1,6.434-8.8,3.086,3.086,0,0,1,7.515-6.363v4.21a4.311,4.311,0,0,0,.4,2V0ZM3.1-1.934a1.652,1.652,0,0,0,.918-.237,1.487,1.487,0,0,0,.523-.536V-4.228H3.683q-1.547,0-1.547,1.389a.848.848,0,0,0,.272.655A.986.986,0,0,0,3.1-1.934Zm10.16-2.892a5.809,5.809,0,0,1,.976-3.56,3.211,3.211,0,0,1,2.725-1.3,2.731,2.731,0,0,1,2.145,1V-13.5h2.971V0H19.415l-.149-1.02a2.8,2.8,0,0,1-2.32,1.2,3.205,3.205,0,0,1-2.689-1.3A5.993,5.993,0,0,1,13.263-4.825Zm2.962.185q0,2.531,1.477,2.531a1.458,1.458,0,0,0,1.406-.826V-6.557A1.419,1.419,0,0,0,17.719-7.4q-1.371,0-1.485,2.215ZM28.362.176A4.889,4.889,0,0,1,24.82-1.129a4.507,4.507,0,0,1-1.354-3.4v-.246a5.84,5.84,0,0,1,.541-2.575,3.955,3.955,0,0,1,1.578-1.727,4.763,4.763,0,0,1,2.461-.611A4.117,4.117,0,0,1,31.21-8.442a4.887,4.887,0,0,1,1.16,3.467v1.151H26.481a2.135,2.135,0,0,0,.694,1.257,2.066,2.066,0,0,0,1.389.457,2.662,2.662,0,0,0,2.2-.984l1.354,1.6A3.784,3.784,0,0,1,30.546-.277,5.3,5.3,0,0,1,28.362.176ZM28.028-7.4q-1.3,0-1.547,1.723H29.47v-.229a1.467,1.467,0,0,0-.36-1.1A1.434,1.434,0,0,0,28.028-7.4ZM-31.4,20.482h-1.67V25h-3.085V12.2h5.036a5.617,5.617,0,0,1,3.56,1.011,3.426,3.426,0,0,1,1.283,2.856,4.163,4.163,0,0,1-.541,2.215,3.837,3.837,0,0,1-1.692,1.424l2.672,5.159V25h-3.3Zm-1.67-2.382h1.951a1.754,1.754,0,0,0,1.323-.461,1.781,1.781,0,0,0,.444-1.288,1.8,1.8,0,0,0-.448-1.3,1.737,1.737,0,0,0-1.318-.47h-1.951Zm13.122,7.075a4.889,4.889,0,0,1-3.542-1.305,4.507,4.507,0,0,1-1.354-3.4v-.246a5.84,5.84,0,0,1,.541-2.575,3.955,3.955,0,0,1,1.578-1.727,4.763,4.763,0,0,1,2.461-.611A4.117,4.117,0,0,1-17.1,16.558a4.887,4.887,0,0,1,1.16,3.467v1.151h-5.889a2.135,2.135,0,0,0,.694,1.257,2.066,2.066,0,0,0,1.389.457,2.662,2.662,0,0,0,2.2-.984l1.354,1.6a3.784,3.784,0,0,1-1.569,1.217A5.3,5.3,0,0,1-19.947,25.176Zm-.334-7.576q-1.3,0-1.547,1.723h2.988v-.229a1.467,1.467,0,0,0-.36-1.1A1.434,1.434,0,0,0-20.281,17.6Zm14.361,2.716a5.735,5.735,0,0,1-1,3.538,3.2,3.2,0,0,1-2.694,1.323,2.742,2.742,0,0,1-2.153-.958v4.438h-2.962V15.49h2.769l.088.879a2.742,2.742,0,0,1,2.241-1.055,3.224,3.224,0,0,1,2.733,1.3,5.805,5.805,0,0,1,.976,3.564Zm-2.962-.185q0-2.531-1.477-2.531a1.394,1.394,0,0,0-1.406.756V22.1a1.439,1.439,0,0,0,1.424.791q1.415,0,1.459-2.443Zm3.894.026a5.613,5.613,0,0,1,.554-2.536,3.96,3.96,0,0,1,1.591-1.709,4.791,4.791,0,0,1,2.435-.6,4.373,4.373,0,0,1,3.366,1.323,5.076,5.076,0,0,1,1.23,3.6v.105a4.925,4.925,0,0,1-1.235,3.529A4.384,4.384,0,0,1-.391,25.176a4.434,4.434,0,0,1-3.261-1.217,4.761,4.761,0,0,1-1.327-3.3Zm2.962.185a3.538,3.538,0,0,0,.413,1.934,1.376,1.376,0,0,0,1.222.615q1.582,0,1.617-2.435v-.3q0-2.558-1.635-2.558-1.485,0-1.608,2.206Zm13.271-2.171-.976-.07a1.752,1.752,0,0,0-1.793.879V25H5.515V15.49H8.292l.1,1.222a2.294,2.294,0,0,1,2.083-1.4,2.888,2.888,0,0,1,.826.105ZM16.2,13.126V15.49h1.564v2.057H16.2V21.9a1.111,1.111,0,0,0,.193.747,1.037,1.037,0,0,0,.765.211A4.345,4.345,0,0,0,17.9,22.8v2.118a5.466,5.466,0,0,1-1.67.255,3.1,3.1,0,0,1-2.259-.721,2.954,2.954,0,0,1-.729-2.188v-4.72H12.028V15.49h1.213V13.126Zm7.33,12.05a4.889,4.889,0,0,1-3.542-1.305,4.507,4.507,0,0,1-1.354-3.4v-.246a5.84,5.84,0,0,1,.541-2.575,3.955,3.955,0,0,1,1.578-1.727,4.763,4.763,0,0,1,2.461-.611,4.117,4.117,0,0,1,3.164,1.244,4.887,4.887,0,0,1,1.16,3.467v1.151H21.652a2.135,2.135,0,0,0,.694,1.257,2.066,2.066,0,0,0,1.389.457,2.662,2.662,0,0,0,2.2-.984l1.354,1.6a3.784,3.784,0,0,1-1.569,1.217A5.3,5.3,0,0,1,23.533,25.176ZM23.2,17.6q-1.3,0-1.547,1.723H24.64v-.229a1.467,1.467,0,0,0-.36-1.1A1.434,1.434,0,0,0,23.2,17.6ZM33.71,22.328a.684.684,0,0,0-.4-.606,6.016,6.016,0,0,0-1.5-.475,6.853,6.853,0,0,1-1.828-.646,3.062,3.062,0,0,1-1.1-.971,2.319,2.319,0,0,1-.378-1.31,2.628,2.628,0,0,1,1.081-2.158,4.453,4.453,0,0,1,2.83-.848,4.934,4.934,0,0,1,3.023.853,2.666,2.666,0,0,1,1.143,2.241H33.614q0-1.143-1.2-1.143a1.194,1.194,0,0,0-.782.259.8.8,0,0,0-.316.646.737.737,0,0,0,.387.642,3.654,3.654,0,0,0,1.235.4,10.671,10.671,0,0,1,1.49.378,2.706,2.706,0,0,1,2.145,2.646,2.491,2.491,0,0,1-1.156,2.118,5.068,5.068,0,0,1-2.993.817,5.172,5.172,0,0,1-2.18-.439,3.645,3.645,0,0,1-1.494-1.2,2.707,2.707,0,0,1-.536-1.591h2.769a1.145,1.145,0,0,0,.439.962,1.808,1.808,0,0,0,1.081.3,1.422,1.422,0,0,0,.91-.246A.787.787,0,0,0,33.71,22.328Z" transform="translate(1278 6981.016)" fill="#12263f"/>
    <path id="Trazado_601694" data-name="Trazado 601694" d="M.461,0,2.438-11.375l2.953.008a4.1,4.1,0,0,1,2.395.7A3.835,3.835,0,0,1,9.227-8.754a5.962,5.962,0,0,1,.258,2.738l-.078.57A6.432,6.432,0,0,1,7.477-1.48,5.611,5.611,0,0,1,3.492,0ZM3.688-10.148,2.141-1.234l1.445.008A4.061,4.061,0,0,0,6.395-2.258a4.9,4.9,0,0,0,1.5-2.828,9.2,9.2,0,0,0,.188-2.445,2.978,2.978,0,0,0-.8-1.895,2.605,2.605,0,0,0-1.844-.715ZM15.672,0a1.894,1.894,0,0,1-.055-.445l.023-.445A3.465,3.465,0,0,1,13.172.156a2.526,2.526,0,0,1-1.816-.707,2.14,2.14,0,0,1-.637-1.73,2.6,2.6,0,0,1,1.176-2.1,5.005,5.005,0,0,1,2.887-.754l1.477.008.094-.672A1.545,1.545,0,0,0,16.059-7a1.414,1.414,0,0,0-1.113-.457A2.181,2.181,0,0,0,13.66-7.1a1.513,1.513,0,0,0-.684.98l-1.422.008a2.266,2.266,0,0,1,.578-1.316,3.363,3.363,0,0,1,1.3-.891,4.215,4.215,0,0,1,1.648-.3,2.8,2.8,0,0,1,2.055.8,2.484,2.484,0,0,1,.617,2.043L17.07-1.586l-.039.6a2.949,2.949,0,0,0,.094.852L17.109,0ZM13.453-1.094a2.466,2.466,0,0,0,1.285-.324,3.254,3.254,0,0,0,1.043-.941l.3-1.742-1.07-.008a4.054,4.054,0,0,0-2.047.422,1.554,1.554,0,0,0-.8,1.2,1.21,1.21,0,0,0,.277.988A1.321,1.321,0,0,0,13.453-1.094Zm9.3-9.406L22.4-8.453h1.539l-.2,1.117H22.211l-.883,5.258a1.833,1.833,0,0,0-.008.375.6.6,0,0,0,.664.609,4.05,4.05,0,0,0,.688-.078L22.563.008a3.847,3.847,0,0,1-1.031.141,1.476,1.476,0,0,1-1.266-.621A2.4,2.4,0,0,1,19.938-2.1L20.8-7.336H19.3l.2-1.117h1.492l.359-2.047ZM29.344,0a1.893,1.893,0,0,1-.055-.445l.023-.445A3.465,3.465,0,0,1,26.844.156a2.526,2.526,0,0,1-1.816-.707,2.14,2.14,0,0,1-.637-1.73,2.6,2.6,0,0,1,1.176-2.1,5.005,5.005,0,0,1,2.887-.754l1.477.008.094-.672A1.545,1.545,0,0,0,29.73-7a1.414,1.414,0,0,0-1.113-.457,2.181,2.181,0,0,0-1.285.355,1.513,1.513,0,0,0-.684.98l-1.422.008A2.266,2.266,0,0,1,25.8-7.426a3.363,3.363,0,0,1,1.3-.891,4.215,4.215,0,0,1,1.648-.3,2.8,2.8,0,0,1,2.055.8,2.484,2.484,0,0,1,.617,2.043l-.687,4.188-.039.6a2.949,2.949,0,0,0,.094.852L30.781,0ZM27.125-1.094a2.466,2.466,0,0,0,1.285-.324,3.254,3.254,0,0,0,1.043-.941l.3-1.742-1.07-.008a4.054,4.054,0,0,0-2.047.422,1.554,1.554,0,0,0-.8,1.2,1.21,1.21,0,0,0,.277.988A1.321,1.321,0,0,0,27.125-1.094Zm8.359-7.367-.18.945a3.305,3.305,0,0,1,2.57-1.094,2.608,2.608,0,0,1,1.363.367,1.8,1.8,0,0,1,.77.992,3.49,3.49,0,0,1,2.8-1.359,2.235,2.235,0,0,1,1.867.852,3.042,3.042,0,0,1,.445,2.2L44.2,0H42.789l.922-5.57a2.943,2.943,0,0,0,0-.742Q43.563-7.375,42.32-7.4a2.136,2.136,0,0,0-1.4.48,2.222,2.222,0,0,0-.809,1.3L39.148,0H37.727l.938-5.562A1.786,1.786,0,0,0,38.4-6.9a1.377,1.377,0,0,0-1.129-.484,2.315,2.315,0,0,0-2.1,1.2L34.1,0H32.688l1.469-8.453ZM51.547,0a1.894,1.894,0,0,1-.055-.445l.023-.445A3.465,3.465,0,0,1,49.047.156,2.526,2.526,0,0,1,47.23-.551a2.14,2.14,0,0,1-.637-1.73,2.6,2.6,0,0,1,1.176-2.1,5.005,5.005,0,0,1,2.887-.754l1.477.008.094-.672A1.545,1.545,0,0,0,51.934-7a1.414,1.414,0,0,0-1.113-.457,2.181,2.181,0,0,0-1.285.355,1.513,1.513,0,0,0-.684.98l-1.422.008a2.266,2.266,0,0,1,.578-1.316,3.363,3.363,0,0,1,1.3-.891,4.215,4.215,0,0,1,1.648-.3,2.8,2.8,0,0,1,2.055.8,2.484,2.484,0,0,1,.617,2.043l-.687,4.188-.039.6A2.949,2.949,0,0,0,53-.133L52.984,0ZM49.328-1.094a2.466,2.466,0,0,0,1.285-.324,3.254,3.254,0,0,0,1.043-.941l.3-1.742-1.07-.008a4.054,4.054,0,0,0-2.047.422,1.554,1.554,0,0,0-.8,1.2,1.21,1.21,0,0,0,.277.988A1.321,1.321,0,0,0,49.328-1.094Zm10.828-6.07-.664-.07a2.42,2.42,0,0,0-2.141,1.227L56.313,0H54.9l1.469-8.453,1.367-.008-.211.984a2.527,2.527,0,0,1,2.117-1.148,2.594,2.594,0,0,1,.672.117Zm4.2-3.336-.359,2.047h1.539l-.2,1.117H63.8l-.883,5.258a1.833,1.833,0,0,0-.008.375.6.6,0,0,0,.664.609,4.05,4.05,0,0,0,.688-.078L64.156.008a3.847,3.847,0,0,1-1.031.141,1.476,1.476,0,0,1-1.266-.621A2.4,2.4,0,0,1,61.531-2.1l.859-5.234H60.9l.2-1.117h1.492l.359-2.047Z" transform="translate(537 6931.016)" fill="#12263f"/>
    <path id="Trazado_601693" data-name="Trazado 601693" d="M-15.977,0-14-11.375l3.266.008a4.473,4.473,0,0,1,2.066.52A3.905,3.905,0,0,1-7.18-9.422a4.883,4.883,0,0,1,.688,2.094,6.911,6.911,0,0,1-.016,1.391l-.055.414A6.5,6.5,0,0,1-8.527-1.512,5.558,5.558,0,0,1-12.461,0Zm3.938-9.477-1.32,7.594.953.008A3.127,3.127,0,0,0-9.871-3.031a5.976,5.976,0,0,0,1.1-3.492l.016-.25A3.151,3.151,0,0,0-9.25-8.75a1.879,1.879,0,0,0-1.539-.719ZM-1.062,0a2.281,2.281,0,0,1-.086-.766A2.863,2.863,0,0,1-3.3.156a2.594,2.594,0,0,1-1.84-.723,2.186,2.186,0,0,1-.684-1.746,2.527,2.527,0,0,1,1.16-2.121A5.266,5.266,0,0,1-1.7-5.172l1.031.016.109-.508a1.764,1.764,0,0,0,.023-.492A.846.846,0,0,0-.816-6.73a.955.955,0,0,0-.629-.215,1.345,1.345,0,0,0-.875.254,1.231,1.231,0,0,0-.461.777l-2.211.008A2.457,2.457,0,0,1-3.879-7.871a4.312,4.312,0,0,1,2.613-.738,3.117,3.117,0,0,1,2.25.855,2.5,2.5,0,0,1,.68,2.121L1.016-1.586l-.039.5a2.412,2.412,0,0,0,.133.938L1.1,0Zm-1.7-1.555a2.017,2.017,0,0,0,1.664-.828L-.82-3.844l-.766-.008a2.139,2.139,0,0,0-1.758.742,1.292,1.292,0,0,0-.242.633.75.75,0,0,0,.176.668A.891.891,0,0,0-2.758-1.555Zm9.672-8.977L6.547-8.453H7.953L7.664-6.8H6.258L5.539-2.562a1.077,1.077,0,0,0,.063.609q.109.211.531.227.125.008.672-.039L6.648-.039a3.706,3.706,0,0,1-1.266.18,1.985,1.985,0,0,1-1.617-.68,2.456,2.456,0,0,1-.437-1.8L4.055-6.8h-1.2l.289-1.656h1.2L4.7-10.531ZM12.656,0a2.281,2.281,0,0,1-.086-.766,2.863,2.863,0,0,1-2.156.922,2.594,2.594,0,0,1-1.84-.723,2.186,2.186,0,0,1-.684-1.746,2.527,2.527,0,0,1,1.16-2.121,5.266,5.266,0,0,1,2.965-.738l1.031.016.109-.508a1.764,1.764,0,0,0,.023-.492A.846.846,0,0,0,12.9-6.73a.955.955,0,0,0-.629-.215,1.345,1.345,0,0,0-.875.254,1.231,1.231,0,0,0-.461.777l-2.211.008A2.457,2.457,0,0,1,9.84-7.871a4.312,4.312,0,0,1,2.613-.738,3.117,3.117,0,0,1,2.25.855,2.5,2.5,0,0,1,.68,2.121l-.648,4.047-.039.5a2.412,2.412,0,0,0,.133.938L14.82,0Zm-1.7-1.555a2.017,2.017,0,0,0,1.664-.828L12.9-3.844l-.766-.008a2.139,2.139,0,0,0-1.758.742,1.292,1.292,0,0,0-.242.633.75.75,0,0,0,.176.668A.891.891,0,0,0,10.961-1.555Zm-41,18.25,2.742-8.07h2.336L-29.191,20h-2.3l-.6-7.578L-35.074,20h-2.3l-.672-11.375h2.234l.227,8.031,3.063-8.031h1.945Zm8.969,3.3a2.281,2.281,0,0,1-.086-.766,2.863,2.863,0,0,1-2.156.922,2.594,2.594,0,0,1-1.84-.723,2.186,2.186,0,0,1-.684-1.746,2.527,2.527,0,0,1,1.16-2.121,5.266,5.266,0,0,1,2.965-.738l1.031.016.109-.508a1.764,1.764,0,0,0,.023-.492.846.846,0,0,0-.277-.574.955.955,0,0,0-.629-.215,1.345,1.345,0,0,0-.875.254,1.231,1.231,0,0,0-.461.777L-25,14.094a2.457,2.457,0,0,1,1.113-1.965,4.312,4.312,0,0,1,2.613-.738,3.117,3.117,0,0,1,2.25.855,2.5,2.5,0,0,1,.68,2.121L-19,18.414l-.039.5a2.412,2.412,0,0,0,.133.938L-18.91,20Zm-1.7-1.555a2.017,2.017,0,0,0,1.664-.828l.273-1.461-.766-.008a2.139,2.139,0,0,0-1.758.742,1.292,1.292,0,0,0-.242.633.75.75,0,0,0,.176.668A.891.891,0,0,0-22.77,18.445Zm10.992-4.781a4.548,4.548,0,0,0-.742-.078,2.136,2.136,0,0,0-1.867.883L-15.363,20h-2.2l1.469-8.453,2.07-.008-.2,1.031a2.325,2.325,0,0,1,1.969-1.2,3.214,3.214,0,0,1,.766.109Zm3.82,6.492a3.677,3.677,0,0,1-1.965-.543A3.292,3.292,0,0,1-11.2,18.145a4.093,4.093,0,0,1-.328-2.059l.023-.312a5.465,5.465,0,0,1,.719-2.266,4.341,4.341,0,0,1,1.547-1.59,3.827,3.827,0,0,1,2.094-.527,2.924,2.924,0,0,1,2.473,1.2,4.117,4.117,0,0,1,.637,2.962l-.125.962H-9.34a1.814,1.814,0,0,0,.4,1.313,1.521,1.521,0,0,0,1.172.508A2.7,2.7,0,0,0-5.66,17.4l1.008,1.25A3.135,3.135,0,0,1-6.027,19.77,4.5,4.5,0,0,1-7.957,20.156Zm.7-6.945a1.565,1.565,0,0,0-1.082.383,3.363,3.363,0,0,0-.848,1.383h3.031l.047-.2A2.071,2.071,0,0,0-6.1,14.18a1.134,1.134,0,0,0-.383-.707A1.2,1.2,0,0,0-7.254,13.211Zm7.109-.727a2.946,2.946,0,0,1,2.289-1.094,2.143,2.143,0,0,1,1.848.9,3.548,3.548,0,0,1,.441,2.379L3.543,20H1.34l.9-5.358a2.6,2.6,0,0,0,.016-.563.885.885,0,0,0-.984-.868,1.9,1.9,0,0,0-1.562.766L-1.355,20h-2.2L-1.48,8H.73ZM10.1,11.391a3.39,3.39,0,0,1,1.926.574A3.234,3.234,0,0,1,13.211,13.5a4.762,4.762,0,0,1,.27,2.176,5.143,5.143,0,0,1-1.4,3.262,3.96,3.96,0,0,1-3.02,1.215,3.38,3.38,0,0,1-1.906-.566,3.222,3.222,0,0,1-1.187-1.527,4.657,4.657,0,0,1-.273-2.156,5.3,5.3,0,0,1,1.422-3.328A3.878,3.878,0,0,1,10.1,11.391ZM7.871,16.706a1.95,1.95,0,0,0,.352,1.182,1.168,1.168,0,0,0,.945.449,1.712,1.712,0,0,0,1.594-.932,4.647,4.647,0,0,0,.539-2.531,2.122,2.122,0,0,0-.363-1.2,1.149,1.149,0,0,0-.949-.464,1.715,1.715,0,0,0-1.574.924A4.6,4.6,0,0,0,7.871,16.706Zm11.477,2.419a2.919,2.919,0,0,1-2.328,1.031,2.172,2.172,0,0,1-1.844-.875,3.2,3.2,0,0,1-.484-2.266l.914-5.469h2.2l-.93,5.5a2.175,2.175,0,0,0-.008.485.8.8,0,0,0,.867.806,2.014,2.014,0,0,0,1.7-.79l1.055-6h2.219L21.238,20H19.184Zm8.43-1.508q.125-.625-.867-.906l-.711-.18q-2.523-.7-2.453-2.453A2.428,2.428,0,0,1,24.8,12.129a3.942,3.942,0,0,1,2.457-.738,3.536,3.536,0,0,1,2.313.758,2.5,2.5,0,0,1,.9,1.977l-2.187-.008a.963.963,0,0,0-1.078-1.1,1.552,1.552,0,0,0-.895.258,1.061,1.061,0,0,0-.465.7q-.117.625.945.883l.313.07a6.285,6.285,0,0,1,1.648.59,2.488,2.488,0,0,1,.879.824,2.04,2.04,0,0,1,.285,1.18,2.251,2.251,0,0,1-.52,1.406,3.18,3.18,0,0,1-1.359.93,4.736,4.736,0,0,1-1.816.3,3.568,3.568,0,0,1-2.344-.809,2.607,2.607,0,0,1-.953-2.051L25,17.313a1.142,1.142,0,0,0,1.3,1.227,1.845,1.845,0,0,0,1-.25A.987.987,0,0,0,27.777,17.617Zm7.172,2.539a3.677,3.677,0,0,1-1.965-.543,3.292,3.292,0,0,1-1.277-1.469,4.093,4.093,0,0,1-.328-2.059l.023-.312a5.465,5.465,0,0,1,.719-2.266,4.341,4.341,0,0,1,1.547-1.59,3.827,3.827,0,0,1,2.094-.527,2.924,2.924,0,0,1,2.473,1.2,4.117,4.117,0,0,1,.637,2.962l-.125.962h-5.18a1.814,1.814,0,0,0,.4,1.313,1.521,1.521,0,0,0,1.172.508,2.7,2.7,0,0,0,2.109-.937l1.008,1.25a3.135,3.135,0,0,1-1.375,1.121A4.5,4.5,0,0,1,34.949,20.156Zm.7-6.945a1.565,1.565,0,0,0-1.082.383,3.363,3.363,0,0,0-.848,1.383h3.031l.047-.2a2.071,2.071,0,0,0,.008-.594,1.134,1.134,0,0,0-.383-.707A1.2,1.2,0,0,0,35.652,13.211Z" transform="translate(797 6865.016)" fill="#12263f"/>
    <path id="Trazado_601695" data-name="Trazado 601695" d="M.461,0,2.438-11.375l2.953.008a4.1,4.1,0,0,1,2.395.7A3.835,3.835,0,0,1,9.227-8.754a5.962,5.962,0,0,1,.258,2.738l-.078.57A6.432,6.432,0,0,1,7.477-1.48,5.611,5.611,0,0,1,3.492,0ZM3.688-10.148,2.141-1.234l1.445.008A4.061,4.061,0,0,0,6.395-2.258a4.9,4.9,0,0,0,1.5-2.828,9.2,9.2,0,0,0,.188-2.445,2.978,2.978,0,0,0-.8-1.895,2.605,2.605,0,0,0-1.844-.715ZM15.672,0a1.894,1.894,0,0,1-.055-.445l.023-.445A3.465,3.465,0,0,1,13.172.156a2.526,2.526,0,0,1-1.816-.707,2.14,2.14,0,0,1-.637-1.73,2.6,2.6,0,0,1,1.176-2.1,5.005,5.005,0,0,1,2.887-.754l1.477.008.094-.672A1.545,1.545,0,0,0,16.059-7a1.414,1.414,0,0,0-1.113-.457A2.181,2.181,0,0,0,13.66-7.1a1.513,1.513,0,0,0-.684.98l-1.422.008a2.266,2.266,0,0,1,.578-1.316,3.363,3.363,0,0,1,1.3-.891,4.215,4.215,0,0,1,1.648-.3,2.8,2.8,0,0,1,2.055.8,2.484,2.484,0,0,1,.617,2.043L17.07-1.586l-.039.6a2.949,2.949,0,0,0,.094.852L17.109,0ZM13.453-1.094a2.466,2.466,0,0,0,1.285-.324,3.254,3.254,0,0,0,1.043-.941l.3-1.742-1.07-.008a4.054,4.054,0,0,0-2.047.422,1.554,1.554,0,0,0-.8,1.2,1.21,1.21,0,0,0,.277.988A1.321,1.321,0,0,0,13.453-1.094Zm9.3-9.406L22.4-8.453h1.539l-.2,1.117H22.211l-.883,5.258a1.833,1.833,0,0,0-.008.375.6.6,0,0,0,.664.609,4.05,4.05,0,0,0,.688-.078L22.563.008a3.847,3.847,0,0,1-1.031.141,1.476,1.476,0,0,1-1.266-.621A2.4,2.4,0,0,1,19.938-2.1L20.8-7.336H19.3l.2-1.117h1.492l.359-2.047ZM29.344,0a1.893,1.893,0,0,1-.055-.445l.023-.445A3.465,3.465,0,0,1,26.844.156a2.526,2.526,0,0,1-1.816-.707,2.14,2.14,0,0,1-.637-1.73,2.6,2.6,0,0,1,1.176-2.1,5.005,5.005,0,0,1,2.887-.754l1.477.008.094-.672A1.545,1.545,0,0,0,29.73-7a1.414,1.414,0,0,0-1.113-.457,2.181,2.181,0,0,0-1.285.355,1.513,1.513,0,0,0-.684.98l-1.422.008A2.266,2.266,0,0,1,25.8-7.426a3.363,3.363,0,0,1,1.3-.891,4.215,4.215,0,0,1,1.648-.3,2.8,2.8,0,0,1,2.055.8,2.484,2.484,0,0,1,.617,2.043l-.687,4.188-.039.6a2.949,2.949,0,0,0,.094.852L30.781,0ZM27.125-1.094a2.466,2.466,0,0,0,1.285-.324,3.254,3.254,0,0,0,1.043-.941l.3-1.742-1.07-.008a4.054,4.054,0,0,0-2.047.422,1.554,1.554,0,0,0-.8,1.2,1.21,1.21,0,0,0,.277.988A1.321,1.321,0,0,0,27.125-1.094Zm8.359-7.367-.18.945a3.305,3.305,0,0,1,2.57-1.094,2.608,2.608,0,0,1,1.363.367,1.8,1.8,0,0,1,.77.992,3.49,3.49,0,0,1,2.8-1.359,2.235,2.235,0,0,1,1.867.852,3.042,3.042,0,0,1,.445,2.2L44.2,0H42.789l.922-5.57a2.943,2.943,0,0,0,0-.742Q43.563-7.375,42.32-7.4a2.136,2.136,0,0,0-1.4.48,2.222,2.222,0,0,0-.809,1.3L39.148,0H37.727l.938-5.562A1.786,1.786,0,0,0,38.4-6.9a1.377,1.377,0,0,0-1.129-.484,2.315,2.315,0,0,0-2.1,1.2L34.1,0H32.688l1.469-8.453ZM51.547,0a1.894,1.894,0,0,1-.055-.445l.023-.445A3.465,3.465,0,0,1,49.047.156,2.526,2.526,0,0,1,47.23-.551a2.14,2.14,0,0,1-.637-1.73,2.6,2.6,0,0,1,1.176-2.1,5.005,5.005,0,0,1,2.887-.754l1.477.008.094-.672A1.545,1.545,0,0,0,51.934-7a1.414,1.414,0,0,0-1.113-.457,2.181,2.181,0,0,0-1.285.355,1.513,1.513,0,0,0-.684.98l-1.422.008a2.266,2.266,0,0,1,.578-1.316,3.363,3.363,0,0,1,1.3-.891,4.215,4.215,0,0,1,1.648-.3,2.8,2.8,0,0,1,2.055.8,2.484,2.484,0,0,1,.617,2.043l-.687,4.188-.039.6A2.949,2.949,0,0,0,53-.133L52.984,0ZM49.328-1.094a2.466,2.466,0,0,0,1.285-.324,3.254,3.254,0,0,0,1.043-.941l.3-1.742-1.07-.008a4.054,4.054,0,0,0-2.047.422,1.554,1.554,0,0,0-.8,1.2,1.21,1.21,0,0,0,.277.988A1.321,1.321,0,0,0,49.328-1.094Zm10.828-6.07-.664-.07a2.42,2.42,0,0,0-2.141,1.227L56.313,0H54.9l1.469-8.453,1.367-.008-.211.984a2.527,2.527,0,0,1,2.117-1.148,2.594,2.594,0,0,1,.672.117Zm4.2-3.336-.359,2.047h1.539l-.2,1.117H63.8l-.883,5.258a1.833,1.833,0,0,0-.008.375.6.6,0,0,0,.664.609,4.05,4.05,0,0,0,.688-.078L64.156.008a3.847,3.847,0,0,1-1.031.141,1.476,1.476,0,0,1-1.266-.621A2.4,2.4,0,0,1,61.531-2.1l.859-5.234H60.9l.2-1.117h1.492l.359-2.047Z" transform="translate(537 7031.016)" fill="#12263f"/>
    <path id="Trazado_601696" data-name="Trazado 601696" d="M.461,0,2.438-11.375l2.953.008a4.1,4.1,0,0,1,2.395.7A3.835,3.835,0,0,1,9.227-8.754a5.962,5.962,0,0,1,.258,2.738l-.078.57A6.432,6.432,0,0,1,7.477-1.48,5.611,5.611,0,0,1,3.492,0ZM3.688-10.148,2.141-1.234l1.445.008A4.061,4.061,0,0,0,6.395-2.258a4.9,4.9,0,0,0,1.5-2.828,9.2,9.2,0,0,0,.188-2.445,2.978,2.978,0,0,0-.8-1.895,2.605,2.605,0,0,0-1.844-.715ZM15.672,0a1.894,1.894,0,0,1-.055-.445l.023-.445A3.465,3.465,0,0,1,13.172.156a2.526,2.526,0,0,1-1.816-.707,2.14,2.14,0,0,1-.637-1.73,2.6,2.6,0,0,1,1.176-2.1,5.005,5.005,0,0,1,2.887-.754l1.477.008.094-.672A1.545,1.545,0,0,0,16.059-7a1.414,1.414,0,0,0-1.113-.457A2.181,2.181,0,0,0,13.66-7.1a1.513,1.513,0,0,0-.684.98l-1.422.008a2.266,2.266,0,0,1,.578-1.316,3.363,3.363,0,0,1,1.3-.891,4.215,4.215,0,0,1,1.648-.3,2.8,2.8,0,0,1,2.055.8,2.484,2.484,0,0,1,.617,2.043L17.07-1.586l-.039.6a2.949,2.949,0,0,0,.094.852L17.109,0ZM13.453-1.094a2.466,2.466,0,0,0,1.285-.324,3.254,3.254,0,0,0,1.043-.941l.3-1.742-1.07-.008a4.054,4.054,0,0,0-2.047.422,1.554,1.554,0,0,0-.8,1.2,1.21,1.21,0,0,0,.277.988A1.321,1.321,0,0,0,13.453-1.094Zm9.3-9.406L22.4-8.453h1.539l-.2,1.117H22.211l-.883,5.258a1.833,1.833,0,0,0-.008.375.6.6,0,0,0,.664.609,4.05,4.05,0,0,0,.688-.078L22.563.008a3.847,3.847,0,0,1-1.031.141,1.476,1.476,0,0,1-1.266-.621A2.4,2.4,0,0,1,19.938-2.1L20.8-7.336H19.3l.2-1.117h1.492l.359-2.047ZM29.344,0a1.893,1.893,0,0,1-.055-.445l.023-.445A3.465,3.465,0,0,1,26.844.156a2.526,2.526,0,0,1-1.816-.707,2.14,2.14,0,0,1-.637-1.73,2.6,2.6,0,0,1,1.176-2.1,5.005,5.005,0,0,1,2.887-.754l1.477.008.094-.672A1.545,1.545,0,0,0,29.73-7a1.414,1.414,0,0,0-1.113-.457,2.181,2.181,0,0,0-1.285.355,1.513,1.513,0,0,0-.684.98l-1.422.008A2.266,2.266,0,0,1,25.8-7.426a3.363,3.363,0,0,1,1.3-.891,4.215,4.215,0,0,1,1.648-.3,2.8,2.8,0,0,1,2.055.8,2.484,2.484,0,0,1,.617,2.043l-.687,4.188-.039.6a2.949,2.949,0,0,0,.094.852L30.781,0ZM27.125-1.094a2.466,2.466,0,0,0,1.285-.324,3.254,3.254,0,0,0,1.043-.941l.3-1.742-1.07-.008a4.054,4.054,0,0,0-2.047.422,1.554,1.554,0,0,0-.8,1.2,1.21,1.21,0,0,0,.277.988A1.321,1.321,0,0,0,27.125-1.094Zm8.359-7.367-.18.945a3.305,3.305,0,0,1,2.57-1.094,2.608,2.608,0,0,1,1.363.367,1.8,1.8,0,0,1,.77.992,3.49,3.49,0,0,1,2.8-1.359,2.235,2.235,0,0,1,1.867.852,3.042,3.042,0,0,1,.445,2.2L44.2,0H42.789l.922-5.57a2.943,2.943,0,0,0,0-.742Q43.563-7.375,42.32-7.4a2.136,2.136,0,0,0-1.4.48,2.222,2.222,0,0,0-.809,1.3L39.148,0H37.727l.938-5.562A1.786,1.786,0,0,0,38.4-6.9a1.377,1.377,0,0,0-1.129-.484,2.315,2.315,0,0,0-2.1,1.2L34.1,0H32.688l1.469-8.453ZM51.547,0a1.894,1.894,0,0,1-.055-.445l.023-.445A3.465,3.465,0,0,1,49.047.156,2.526,2.526,0,0,1,47.23-.551a2.14,2.14,0,0,1-.637-1.73,2.6,2.6,0,0,1,1.176-2.1,5.005,5.005,0,0,1,2.887-.754l1.477.008.094-.672A1.545,1.545,0,0,0,51.934-7a1.414,1.414,0,0,0-1.113-.457,2.181,2.181,0,0,0-1.285.355,1.513,1.513,0,0,0-.684.98l-1.422.008a2.266,2.266,0,0,1,.578-1.316,3.363,3.363,0,0,1,1.3-.891,4.215,4.215,0,0,1,1.648-.3,2.8,2.8,0,0,1,2.055.8,2.484,2.484,0,0,1,.617,2.043l-.687,4.188-.039.6A2.949,2.949,0,0,0,53-.133L52.984,0ZM49.328-1.094a2.466,2.466,0,0,0,1.285-.324,3.254,3.254,0,0,0,1.043-.941l.3-1.742-1.07-.008a4.054,4.054,0,0,0-2.047.422,1.554,1.554,0,0,0-.8,1.2,1.21,1.21,0,0,0,.277.988A1.321,1.321,0,0,0,49.328-1.094Zm10.828-6.07-.664-.07a2.42,2.42,0,0,0-2.141,1.227L56.313,0H54.9l1.469-8.453,1.367-.008-.211.984a2.527,2.527,0,0,1,2.117-1.148,2.594,2.594,0,0,1,.672.117Zm4.2-3.336-.359,2.047h1.539l-.2,1.117H63.8l-.883,5.258a1.833,1.833,0,0,0-.008.375.6.6,0,0,0,.664.609,4.05,4.05,0,0,0,.688-.078L64.156.008a3.847,3.847,0,0,1-1.031.141,1.476,1.476,0,0,1-1.266-.621A2.4,2.4,0,0,1,61.531-2.1l.859-5.234H60.9l.2-1.117h1.492l.359-2.047Z" transform="translate(537 7127.016)" fill="#12263f"/>
    <path id="Trazado_601005" data-name="Trazado 601005" d="M-5.953-5.258h-4.93v4.031h5.727V0h-7.227V-11.375h7.148v1.234h-5.648v3.656h4.93Zm10.68-4.883H1.07V0H-.422V-10.141H-4.07v-1.234h8.8Zm3.2,8.914h5.391V0h-6.9V-11.375H7.922Z" transform="translate(666 6894.016)" fill="#12263f"/>
    <path id="Trazado_601006" data-name="Trazado 601006" d="M-5.953-5.258h-4.93v4.031h5.727V0h-7.227V-11.375h7.148v1.234h-5.648v3.656h4.93Zm10.68-4.883H1.07V0H-.422V-10.141H-4.07v-1.234h8.8Zm3.2,8.914h5.391V0h-6.9V-11.375H7.922Z" transform="translate(666 6978.016)" fill="#12263f"/>
    <path id="Trazado_601007" data-name="Trazado 601007" d="M-5.953-5.258h-4.93v4.031h5.727V0h-7.227V-11.375h7.148v1.234h-5.648v3.656h4.93Zm10.68-4.883H1.07V0H-.422V-10.141H-4.07v-1.234h8.8Zm3.2,8.914h5.391V0h-6.9V-11.375H7.922Z" transform="translate(666 7047.016)" fill="#12263f"/>
  </g>
</svg>
