<svg xmlns="http://www.w3.org/2000/svg" width="78" height="78" viewBox="0 0 78 78">
  <g id="Grupo_1064385" data-name="Grupo 1064385" transform="translate(-332.5 -860)">
    <rect id="Rectángulo_373719" data-name="Rectángulo 373719" width="78" height="78" rx="12" transform="translate(332.5 860)" fill="#fff"/>
    <g id="Page-1" transform="translate(351.626 868.217)">
      <g id="_009---Weight-Loss-Plan" data-name="009---Weight-Loss-Plan" transform="translate(-0.001 -0.006)">
        <path id="Shape" d="M40.829,15.829V37.675C28.883,32.791,16.946,47.028,5,42.135V15.829A2.829,2.829,0,0,1,7.829,13h5.657v1.886a1.891,1.891,0,0,0,1.886,1.886H30.458a1.891,1.891,0,0,0,1.886-1.886V13H38A2.829,2.829,0,0,1,40.829,15.829Z" transform="translate(-1.227 -1.68)" fill="#ff6148"/>
        <path id="Shape-2" data-name="Shape" d="M12.886,16.772h2.829a1.891,1.891,0,0,1-1.886-1.886V13H11v1.886A1.891,1.891,0,0,0,12.886,16.772Z" transform="translate(-1.57 -1.68)" fill="#ff6148"/>
        <path id="Shape-3" data-name="Shape" d="M39.829,13H37a2.829,2.829,0,0,1,2.829,2.829v21.04a13.684,13.684,0,0,1,2.829.806V15.829A2.829,2.829,0,0,0,39.829,13Z" transform="translate(-3.055 -1.68)" fill="#ffb476"/>
        <path id="Shape-4" data-name="Shape" d="M40.829,49.107V56.49A2.829,2.829,0,0,1,38,59.319H7.829A2.829,2.829,0,0,1,5,56.49V53.567C16.946,58.461,28.883,44.223,40.829,49.107Z" transform="translate(-1.227 -3.683)" fill="#ff6148"/>
        <path id="Shape-5" data-name="Shape" d="M35.719,48.14a13.777,13.777,0,0,1,4.036.966V56.49a2.829,2.829,0,0,1-2.829,2.829h2.829a2.829,2.829,0,0,0,2.829-2.829V49.107A14.47,14.47,0,0,0,35.719,48.14Z" transform="translate(-2.982 -3.683)" fill="#ff6148"/>
        <path id="Shape-6" data-name="Shape" d="M32.858,11.749v2.508a1.891,1.891,0,0,1-1.886,1.886H15.886A1.891,1.891,0,0,1,14,14.257V11.749a2.842,2.842,0,0,1,2.14-2.744l1.433-.358a2.734,2.734,0,0,0,2.084-2.753,3.931,3.931,0,0,1,.038-.66,3.772,3.772,0,0,1,7.505.537V5.8a2.984,2.984,0,0,0,2.253,2.895l1.263.311A2.842,2.842,0,0,1,32.858,11.749Z" transform="translate(-1.741 -1.051)" fill="#9e9e9e"/>
        <path id="Shape-7" data-name="Shape" d="M31.2,9.005l-1.263-.311A2.984,2.984,0,0,1,27.686,5.8V5.771a3.771,3.771,0,0,0-4.243-3.743,3.669,3.669,0,0,0-.943.263,3.756,3.756,0,0,1,2.357,3.48V5.8a2.984,2.984,0,0,0,2.253,2.895l1.263.311a2.842,2.842,0,0,1,2.14,2.744v2.508a1.891,1.891,0,0,1-1.886,1.886h2.829a1.891,1.891,0,0,0,1.886-1.886V11.749A2.842,2.842,0,0,0,31.2,9.005Z" transform="translate(-2.227 -1.052)" fill="#707070"/>
        <path id="Shape-8" data-name="Shape" d="M43.487,41.587V49.13c0,.528-.424.651-.943.349a15.986,15.986,0,0,0-1.886-.943C28.712,43.652,16.775,57.889,4.829,53a16.741,16.741,0,0,1-1.886-.943A2.053,2.053,0,0,1,2,50.516V42.973c0-.519.424-.651.943-.349a16.744,16.744,0,0,0,1.886.943c11.946,4.894,23.883-9.344,35.829-4.46a15.985,15.985,0,0,1,1.886.943A2.053,2.053,0,0,1,43.487,41.587Z" transform="translate(-1.056 -3.112)" fill="#ffdc00"/>
        <rect id="Rectangle-path" width="7.543" height="7.543" rx="2" transform="translate(27.345 17.92)" fill="#f5f5f5"/>
        <g id="Grupo_1064381" data-name="Grupo 1064381">
          <path id="Shape-9" data-name="Shape" d="M35,55.772a.943.943,0,0,0,.943.943h2.829a.943.943,0,0,0,.943-.943V52.943a.943.943,0,0,0-1.886,0v1.886H35.943A.943.943,0,0,0,35,55.772Z" transform="translate(-2.941 -3.908)"/>
          <path id="Shape-10" data-name="Shape" d="M23.943,8.772a.943.943,0,0,0,.943-.943V5.943a.943.943,0,1,0-1.886,0V7.829A.943.943,0,0,0,23.943,8.772Z" transform="translate(-2.256 -1.223)"/>
          <path id="Shape-11" data-name="Shape" d="M19.943,13.886h7.543a.943.943,0,0,0,0-1.886H19.943a.943.943,0,1,0,0,1.886Z" transform="translate(-2.027 -1.623)"/>
          <path id="Shape-12" data-name="Shape" d="M2.408,50.75a14.023,14.023,0,0,0,1.421.734V53.8A3.771,3.771,0,0,0,7.6,57.572H37.772A3.771,3.771,0,0,0,41.544,53.8V47.928c.155.084.31.155.465.245a1.654,1.654,0,0,0,1.676.112,1.414,1.414,0,0,0,.687-1.273V39.469a2.973,2.973,0,0,0-1.408-2.352,14.072,14.072,0,0,0-1.421-.738V15.143a3.772,3.772,0,0,0-3.771-3.772H33.03A3.756,3.756,0,0,0,30.2,8.034l-1.263-.317a2.036,2.036,0,0,1-1.538-2,4.714,4.714,0,0,0-9.382-.67,4.809,4.809,0,0,0-.047.827A1.817,1.817,0,0,1,16.6,7.676l-1.433.358a3.756,3.756,0,0,0-2.829,3.337H7.6a3.772,3.772,0,0,0-3.772,3.772v24.8c-.156-.084-.311-.156-.467-.246a1.654,1.654,0,0,0-1.676-.112A1.414,1.414,0,0,0,1,40.853V48.4A2.975,2.975,0,0,0,2.408,50.75Zm37.25,3.05a1.886,1.886,0,0,1-1.886,1.886H7.6A1.886,1.886,0,0,1,5.714,53.8V52.2a15.1,15.1,0,0,0,4.442.66c4.354,0,8.66-1.684,12.873-3.333,5.74-2.246,11.2-4.382,16.629-2.451ZM14.2,11.693a1.886,1.886,0,0,1,1.428-1.83L17.061,9.5a3.71,3.71,0,0,0,2.8-3.7,2.973,2.973,0,0,1,.027-.506,2.841,2.841,0,0,1,2.438-2.395,3.178,3.178,0,0,1,.363-.022,2.8,2.8,0,0,1,1.873.709,2.846,2.846,0,0,1,.956,2.14,3.908,3.908,0,0,0,2.966,3.813l1.263.316a1.886,1.886,0,0,1,1.428,1.829V14.2a.943.943,0,0,1-.943.943H15.143A.943.943,0,0,1,14.2,14.2Zm-8.486,3.45A1.886,1.886,0,0,1,7.6,13.257h4.714V14.2a2.829,2.829,0,0,0,2.829,2.829H30.229A2.829,2.829,0,0,0,33.058,14.2v-.943h4.714a1.886,1.886,0,0,1,1.886,1.886V35.672a14.875,14.875,0,0,0-3.715-.635c-.02,0-.037-.012-.057-.012s-.026.008-.041.008a23.346,23.346,0,0,0-7.852,1.251l-.023.007c-1.259.4-2.512.849-3.757,1.326l-.014.006c-.62.237-1.24.478-1.857.718-5.74,2.246-11.2,4.382-16.629,2.451ZM2.886,41.591a15.266,15.266,0,0,0,1.478.7,1.055,1.055,0,0,0,.107.041c.1.041.2.075.3.113v4.064a.943.943,0,0,0,1.886,0V43.036a14.741,14.741,0,0,0,1.886.3V45.3a.943.943,0,0,0,1.886,0V43.429a18.879,18.879,0,0,0,1.886-.134v1.748a.943.943,0,0,0,1.886,0V42.993c.63-.128,1.259-.283,1.886-.456v1.576a.943.943,0,0,0,1.886,0V41.969c.631-.206,1.259-.429,1.886-.66v3.357a.943.943,0,0,0,1.886,0V40.6q.645-.249,1.286-.5l.6-.235v1.452a.943.943,0,1,0,1.886,0V39.138q.948-.356,1.886-.678v1.526a.943.943,0,1,0,1.886,0V37.857q.943-.277,1.886-.485v1.685a.943.943,0,0,0,1.886,0V37.042a16.979,16.979,0,0,1,1.886-.146v3.787a.943.943,0,0,0,1.886,0V37a13.074,13.074,0,0,1,5.186,1.747,1.182,1.182,0,0,1,.471.724v6.8a15.367,15.367,0,0,0-1.472-.7.952.952,0,0,0-.125-.047c-6.288-2.546-12.51-.124-18.546,2.237-6.57,2.57-12.774,5-18.981,1.354a1.184,1.184,0,0,1-.476-.724Z" transform="translate(-0.999 -0.994)"/>
          <circle id="Oval" cx="0.943" cy="0.943" r="0.943" transform="translate(37.716 39.606)"/>
          <path id="Shape-13" data-name="Shape" d="M9.943,22.886H25.029a.943.943,0,0,0,0-1.886H9.943a.943.943,0,1,0,0,1.886Z" transform="translate(-1.456 -2.137)"/>
          <path id="Shape-14" data-name="Shape" d="M31.829,28.429H35.6A2.829,2.829,0,0,0,38.429,25.6V21.829A2.829,2.829,0,0,0,35.6,19H31.829A2.829,2.829,0,0,0,29,21.829V25.6A2.829,2.829,0,0,0,31.829,28.429Zm-.943-6.6a.943.943,0,0,1,.943-.943H35.6a.943.943,0,0,1,.943.943V25.6a.943.943,0,0,1-.943.943H31.829a.943.943,0,0,1-.943-.943Z" transform="translate(-2.598 -2.023)"/>
          <path id="Shape-15" data-name="Shape" d="M9.943,34.886H25.029a.943.943,0,0,0,0-1.886H9.943a.943.943,0,1,0,0,1.886Z" transform="translate(-1.456 -2.822)"/>
          <path id="Shape-16" data-name="Shape" d="M9.943,26.886h7.543a.943.943,0,0,0,0-1.886H9.943a.943.943,0,1,0,0,1.886Z" transform="translate(-1.456 -2.365)"/>
          <path id="Shape-17" data-name="Shape" d="M18.429,37.943A.943.943,0,0,0,17.486,37H9.943a.943.943,0,1,0,0,1.886h7.543A.943.943,0,0,0,18.429,37.943Z" transform="translate(-1.456 -3.051)"/>
          <path id="Shape-18" data-name="Shape" d="M29.943,34.772a.943.943,0,0,0,.943-.943.943.943,0,0,1,.943-.943H35.6a.943.943,0,0,1,.943.943.943.943,0,0,0,1.886,0A2.829,2.829,0,0,0,35.6,31H31.829A2.829,2.829,0,0,0,29,33.829.943.943,0,0,0,29.943,34.772Z" transform="translate(-2.598 -2.708)"/>
        </g>
      </g>
    </g>
  </g>
</svg>
