<svg xmlns="http://www.w3.org/2000/svg" width="133" height="133" viewBox="0 0 133 133">
  <g id="Grupo_1064346" data-name="Grupo 1064346" transform="translate(-180 -5199.016)">
    <rect id="Rectángulo_373643" data-name="Rectángulo 373643" width="133" height="133" rx="12" transform="translate(180 5199.016)" fill="#ffb476"/>
  </g>
  <g id="analitica" transform="translate(29.391 30.375)">
    <path id="Trazado_601024" data-name="Trazado 601024" d="M20.633,72.277H15.907A5.907,5.907,0,0,1,10,66.37V15.907A5.907,5.907,0,0,1,15.907,10H76.749a5.907,5.907,0,0,1,5.907,5.907V66.37a5.907,5.907,0,0,1-5.907,5.907H20.633Z" transform="translate(-8.523 -8.523)" fill="#fff"/>
    <path id="Trazado_601025" data-name="Trazado 601025" d="M76.749,10H15.907A5.907,5.907,0,0,0,10,15.907v4.726H82.656V15.907A5.907,5.907,0,0,0,76.749,10Z" transform="translate(-8.523 -8.523)" fill="#ff5a5a"/>
    <path id="Trazado_601026" data-name="Trazado 601026" d="M21,82H91.149" transform="translate(-17.902 -69.891)" fill="#231f20"/>
    <rect id="Rectángulo_373682" data-name="Rectángulo 373682" width="9" height="16" transform="translate(8.609 57.609)" fill="#a5dc69"/>
    <rect id="Rectángulo_373683" data-name="Rectángulo 373683" width="10" height="19" transform="translate(40.609 54.609)" fill="#78d2fa"/>
    <rect id="Rectángulo_373684" data-name="Rectángulo 373684" width="9.451" height="32.573" transform="translate(24.809 41.56)" fill="#f5c86e"/>
    <rect id="Rectángulo_373685" data-name="Rectángulo 373685" width="9.451" height="34.777" transform="translate(57.888 39.355)" fill="#ff5a5a"/>
    <circle id="Elipse_8299" data-name="Elipse 8299" cx="3.84" cy="3.84" r="3.84" transform="translate(24.864 21.552)" fill="#f5c86e"/>
    <circle id="Elipse_8300" data-name="Elipse 8300" cx="3.84" cy="3.84" r="3.84" transform="translate(42.098 39.134)" fill="#78d2fa"/>
    <circle id="Elipse_8301" data-name="Elipse 8301" cx="3.84" cy="3.84" r="3.84" transform="translate(58.774 21.552)" fill="#ff5a5a"/>
    <circle id="Elipse_8302" data-name="Elipse 8302" cx="3.84" cy="3.84" r="3.84" transform="translate(9.058 37.721)" fill="#a5dc69"/>
    <path id="Trazado_601027" data-name="Trazado 601027" d="M70.453,65.051a5.162,5.162,0,0,0,5.156-5.156V7.384A7.392,7.392,0,0,0,68.226,0H7.384A7.392,7.392,0,0,0,0,7.384V59.894a5.162,5.162,0,0,0,5.156,5.156H6.793v7.6H1.477a1.477,1.477,0,0,0,0,2.953H74.133a1.477,1.477,0,0,0,0-2.953H68.816v-7.6ZM7.384,2.953H68.226a4.435,4.435,0,0,1,4.43,4.43v3.249H3.1c-.05,0-.1,0-.148.008V7.384A4.435,4.435,0,0,1,7.384,2.953Zm2.363,69.7V59.365h6.5V72.656Zm16.54,0V43.037h6.5V72.656Zm16.54,0V55.526h6.5v17.13Zm16.54,0V56.744a1.477,1.477,0,0,0-2.953,0V72.656H52.277V54.049A1.477,1.477,0,0,0,50.8,52.572H41.349a1.477,1.477,0,0,0-1.477,1.477V72.656H35.737V41.56a1.477,1.477,0,0,0-1.477-1.477H24.809a1.477,1.477,0,0,0-1.477,1.477v31.1H19.2V57.888a1.477,1.477,0,0,0-1.477-1.477H8.27a1.477,1.477,0,0,0-1.477,1.477V62.1H5.156a2.205,2.205,0,0,1-2.2-2.2V13.579c.049,0,.1.008.148.008H72.656V59.894a2.205,2.205,0,0,1-2.2,2.2H68.816V39.355a1.477,1.477,0,0,0-1.477-1.477H57.888a1.477,1.477,0,0,0-1.477,1.477v7.457a1.477,1.477,0,0,0,2.953,0V40.832h6.5V72.656Z"/>
    <path id="Trazado_601028" data-name="Trazado 601028" d="M213.542,38.953h33.365a1.477,1.477,0,1,0,0-2.953H213.542a1.477,1.477,0,0,0,0,2.953Z" transform="translate(-180.748 -30.684)"/>
    <path id="Trazado_601029" data-name="Trazado 601029" d="M95.477,38.953a1.478,1.478,0,1,0-1.044-.433A1.487,1.487,0,0,0,95.477,38.953Z" transform="translate(-80.119 -30.684)"/>
    <path id="Trazado_601030" data-name="Trazado 601030" d="M55.477,38.953a1.478,1.478,0,1,0-1.044-.433A1.487,1.487,0,0,0,55.477,38.953Z" transform="translate(-46.026 -30.684)"/>
    <path id="Trazado_601031" data-name="Trazado 601031" d="M135.477,38.953a1.478,1.478,0,1,0-1.044-.433A1.487,1.487,0,0,0,135.477,38.953Z" transform="translate(-114.212 -30.684)"/>
    <path id="Trazado_601032" data-name="Trazado 601032" d="M383.477,342.64a1.477,1.477,0,1,0,1.044.433A1.482,1.482,0,0,0,383.477,342.64Z" transform="translate(-325.588 -292.041)"/>
    <path id="Trazado_601033" data-name="Trazado 601033" d="M106.369,146.572a5.324,5.324,0,1,0-4.3-2.2l-9.809,9.809a5.3,5.3,0,0,0-4.9-.119L77.113,143.821a5.317,5.317,0,1,0-9.174.228l-8.721,8.72a5.321,5.321,0,1,0,2.089,2.088l8.825-8.825a5.3,5.3,0,0,0,4.893-.124l10.142,10.142a5.316,5.316,0,1,0,9.18.22L104.419,146.2A5.282,5.282,0,0,0,106.369,146.572Zm0-7.679a2.363,2.363,0,1,1-2.363,2.363A2.366,2.366,0,0,1,106.369,138.892ZM56.652,159.787a2.363,2.363,0,1,1,2.363-2.363A2.366,2.366,0,0,1,56.652,159.787Zm15.806-16.169a2.363,2.363,0,1,1,2.363-2.363A2.366,2.366,0,0,1,72.459,143.618ZM89.692,161.2a2.363,2.363,0,1,1,2.363-2.363A2.366,2.366,0,0,1,89.692,161.2Z" transform="translate(-43.755 -115.864)"/>
    <path id="Trazado_601034" data-name="Trazado 601034" d="M132.737,128.973a1.475,1.475,0,1,0-1.046-.433A1.49,1.49,0,0,0,132.737,128.973Z" transform="translate(-111.876 -107.41)"/>
    <path id="Trazado_601035" data-name="Trazado 601035" d="M47.477,128.974h7.088a1.477,1.477,0,0,0,0-2.953H47.477a1.477,1.477,0,0,0,0,2.953Z" transform="translate(-39.207 -107.411)"/>
    <path id="Trazado_601036" data-name="Trazado 601036" d="M54.565,176.974a1.477,1.477,0,0,0,0-2.953H47.477a1.477,1.477,0,0,0,0,2.953Z" transform="translate(-39.207 -148.323)"/>
  </g>
</svg>
