<svg xmlns="http://www.w3.org/2000/svg" width="190" height="191" viewBox="0 0 190 191">
  <g id="Rectángulo_45329" data-name="Rectángulo 45329" fill="#fff" stroke="#083142" stroke-width="2">
    <rect width="190" height="191" rx="18" stroke="none"/>
    <rect x="1" y="1" width="188" height="189" rx="17" fill="none"/>
  </g>
  <g id="casa" transform="translate(39 18.155)">
    <path id="Trazado_167298" data-name="Trazado 167298" d="M74.806,77.331H91.348v31.945H74.806Z" transform="translate(-58.593 -38.71)" fill="#8eafe2"/>
    <g id="Grupo_114068" data-name="Grupo 114068" transform="translate(16.213 38.621)">
      <path id="Trazado_167299" data-name="Trazado 167299" d="M74.806,77.331H91.348v4.918H74.806Z" transform="translate(-74.806 -77.331)" fill="#6a96d7"/>
      <path id="Trazado_167300" data-name="Trazado 167300" d="M93.262,146.778H91.433a1.626,1.626,0,0,1,0-3.251h1.829a1.626,1.626,0,0,1,0,3.251Z" transform="translate(-86.556 -129.18)" fill="#6a96d7"/>
      <path id="Trazado_167301" data-name="Trazado 167301" d="M115.134,110.162H113.3a1.626,1.626,0,1,1,0-3.251h1.829a1.626,1.626,0,0,1,0,3.251Z" transform="translate(-103.687 -100.5)" fill="#6a96d7"/>
    </g>
    <path id="Trazado_167302" data-name="Trazado 167302" d="M77.609,35.409H57.233a2.415,2.415,0,0,0-2.415,2.415V42.08A2.415,2.415,0,0,0,57.233,44.5H77.609a2.415,2.415,0,0,0,2.415-2.415V37.824a2.415,2.415,0,0,0-2.415-2.415Z" transform="translate(-42.937 -5.874)" fill="#e8899e"/>
    <path id="Trazado_167303" data-name="Trazado 167303" d="M57.233,35.409a2.415,2.415,0,0,0-2.415,2.415V42.08A2.415,2.415,0,0,0,57.233,44.5H68.21c-1.583-1.472-2.407-6.332-1.507-9.086Z" transform="translate(-42.937 -5.874)" fill="#de5c6e"/>
    <path id="Trazado_167304" data-name="Trazado 167304" d="M144.605,165.174H83.549a8.743,8.743,0,0,1-8.743-8.743V118.273L114.077,79l39.271,39.271V156.43A8.743,8.743,0,0,1,144.605,165.174Z" transform="translate(-58.593 -40.019)" fill="#fcf2d0"/>
    <path id="Trazado_167305" data-name="Trazado 167305" d="M74.806,118.273V156.43a8.743,8.743,0,0,0,8.743,8.743H104.8c-6.284-10.4-8.808-31.338-8.835-51.415l18.113-18.113,39.271,39.271V118.273L114.077,79Z" transform="translate(-58.593 -40.019)" fill="#f6e3a3"/>
    <circle id="Elipse_5107" data-name="Elipse 5107" cx="10.991" cy="10.991" r="10.991" transform="translate(39.931 75.649) rotate(-45)" fill="#a3defe"/>
    <path id="Trazado_167306" data-name="Trazado 167306" d="M108.086,107.088A7.108,7.108,0,0,1,103.043,105L61.358,63.314,19.673,105A7.131,7.131,0,0,1,9.588,94.915L56.316,48.187a7.131,7.131,0,0,1,10.085,0l46.728,46.728a7.131,7.131,0,0,1-5.043,12.174Z" transform="translate(-5.874 -14.247)" fill="#e8899e"/>
    <path id="Trazado_167307" data-name="Trazado 167307" d="M35.562,151.491,9.588,177.465A7.131,7.131,0,0,0,19.673,187.55l18.157-18.158C35.285,167.159,33.078,158.659,35.562,151.491Z" transform="translate(-5.874 -96.797)" fill="#de5c6e"/>
    <path id="Trazado_167308" data-name="Trazado 167308" d="M294.792,369.672H272.64V344.342a4.256,4.256,0,0,1,4.256-4.256h13.64a4.256,4.256,0,0,1,4.256,4.256Z" transform="translate(-213.549 -244.517)" fill="#8eafe2"/>
    <path id="Trazado_167309" data-name="Trazado 167309" d="M139.669,356.1H122.277a3.133,3.133,0,0,1-3.133-3.133v-9.751a3.133,3.133,0,0,1,3.133-3.133h17.392a3.133,3.133,0,0,1,3.133,3.133v9.751A3.133,3.133,0,0,1,139.669,356.1Z" transform="translate(-93.321 -244.517)" fill="#a3defe"/>
    <path id="Trazado_167310" data-name="Trazado 167310" d="M119.144,344.448v-1.228a3.133,3.133,0,0,1,3.133-3.133h6.508l13.86,13.86a3.133,3.133,0,0,1-2.976,2.158H130.8Z" transform="translate(-93.321 -244.517)" fill="#7acefa"/>
    <path id="Trazado_167311" data-name="Trazado 167311" d="M46.348,113.212a4.764,4.764,0,0,0,4.759-4.759V98.7a4.764,4.764,0,0,0-4.759-4.759H28.956A4.764,4.764,0,0,0,24.2,98.7v9.751a4.764,4.764,0,0,0,4.759,4.759Zm-18.9-4.759V98.7a1.51,1.51,0,0,1,1.508-1.508H46.348A1.51,1.51,0,0,1,47.855,98.7v9.751a1.51,1.51,0,0,1-1.508,1.508H28.956A1.51,1.51,0,0,1,27.448,108.453Zm48.492.207a1.992,1.992,0,1,0,1.992,1.992A1.992,1.992,0,0,0,75.941,108.661Zm-20.456-20.4A12.617,12.617,0,1,0,42.868,75.649,12.631,12.631,0,0,0,55.484,88.265ZM57.11,66.427a9.387,9.387,0,0,1,7.6,7.6h-7.6Zm0,10.847h7.6a9.387,9.387,0,0,1-7.6,7.6ZM53.859,66.427v7.6h-7.6A9.386,9.386,0,0,1,53.859,66.427Zm0,10.847v7.6a9.387,9.387,0,0,1-7.6-7.6ZM108.4,79.518,73,44.118a1.626,1.626,0,0,0-2.3,2.3l35.4,35.4A5.506,5.506,0,1,1,98.319,89.6L56.634,47.918a1.626,1.626,0,0,0-2.3,0L15.064,87.189h0L12.65,89.6a5.506,5.506,0,0,1-7.786-7.786L51.591,35.089a5.506,5.506,0,0,1,7.786,0l5.739,5.739a1.626,1.626,0,1,0,2.3-2.3l-5.739-5.739a8.757,8.757,0,0,0-12.384,0L34.381,47.7V40.246h.292a4.045,4.045,0,0,0,4.041-4.041V31.95a4.045,4.045,0,0,0-4.041-4.041H14.3a4.045,4.045,0,0,0-4.041,4.041v4.256A4.045,4.045,0,0,0,14.3,40.246h.292V67.5L2.565,79.518A8.756,8.756,0,0,0,14.588,92.242v24.169a10.428,10.428,0,0,0,6.68,9.693,1.626,1.626,0,1,0,1.157-3.038,7.159,7.159,0,0,1-4.585-6.655v-27.4L55.484,51.367,93.13,89.012v27.4a7.126,7.126,0,0,1-7.118,7.118H82.868v-23.7a5.888,5.888,0,0,0-5.882-5.882H63.347a5.888,5.888,0,0,0-5.882,5.882v23.7H29.642a1.626,1.626,0,0,0,0,3.251h56.37a10.381,10.381,0,0,0,10.369-10.369V92.242A8.756,8.756,0,0,0,108.4,79.518ZM31.13,50.953,17.839,64.244v-24H31.13ZM14.3,37a.791.791,0,0,1-.79-.79V31.95a.79.79,0,0,1,.79-.79H34.672a.79.79,0,0,1,.79.79v4.256a.791.791,0,0,1-.79.79H14.3Zm65.322,86.534h-18.9v-23.7a2.634,2.634,0,0,1,2.631-2.631h13.64a2.634,2.634,0,0,1,2.631,2.631Z" transform="translate(0 0)"/>
  </g>
</svg>
