<svg xmlns="http://www.w3.org/2000/svg" xmlns:xlink="http://www.w3.org/1999/xlink" width="156" height="151" viewBox="0 0 156 151">
  <defs>
    <clipPath id="clip-path">
      <path id="path4449" d="M0-682.665H122.493v122.493H0Z" transform="translate(0 682.665)"/>
    </clipPath>
  </defs>
  <g id="Grupo_1064831" data-name="Grupo 1064831" transform="translate(-1074 -1308.016)">
    <g id="Grupo_1064205" data-name="Grupo 1064205" transform="translate(6 710)">
      <g id="Grupo_114051" data-name="Grupo 114051" transform="translate(0 -890.984)">
        <g id="Grupo_110668" data-name="Grupo 110668" transform="translate(6.5 6.27)">
          <rect id="Rectángulo_37257" data-name="Rectángulo 37257" width="156" height="151" rx="12" transform="translate(1061.5 1482.731)" fill="#ff6148"/>
        </g>
      </g>
    </g>
    <g id="g4443" transform="translate(1097 2000.435)">
      <g id="g4445" transform="translate(0 -682.665)">
        <g id="g4447" clip-path="url(#clip-path)">
          <g id="g4453" transform="translate(18.658 94.174)">
            <path id="path4455" d="M-275.2-121.3h-60.177c2.158-18.764,10.343-25.4,11.936-26.525h36.305c1.593,1.127,9.778,7.761,11.936,26.525" transform="translate(335.372 147.826)" fill="#b9e4ef"/>
          </g>
          <g id="g4457" transform="translate(30.594 94.174)">
            <path id="path4459" d="M-166.027,0l-9.407,9.9-8.746-8.851L-192.926,9.9-202.333,0" transform="translate(202.333)" fill="#7ad0df"/>
          </g>
          <g id="g4461" transform="translate(18.658 94.174)">
            <path id="path4463" d="M-87.275,0c-.967,1.127-5.926,7.761-7.235,26.525h-11.85C-104.2,7.761-96.017,1.127-94.424,0Z" transform="translate(106.36)" fill="#7ad0df"/>
          </g>
          <g id="g4465" transform="translate(11.907 60.416)">
            <path id="path4467" d="M-306.663-60.178h.042a6.579,6.579,0,0,0,6.578-6.579,6.579,6.579,0,0,0-6.578-6.581c-.047,0-.095,0-.142,0H-367c-.047,0-.095,0-.142,0a6.579,6.579,0,0,0-6.579,6.581,6.579,6.579,0,0,0,6.579,6.579h.042" transform="translate(373.722 73.337)" fill="#f1b986"/>
          </g>
          <g id="g4469" transform="translate(13.153 20.539)">
            <path id="path4471" d="M-314.488-185.483l-44.681.191-22.188.093c-1.691-15.443-6.6-35.5,11.436-39.073a92.97,92.97,0,0,1,11.735-1.608c23.477-1.593,29.317,9.008,29.317,9.008s4.249-3.732,8.869-3.352a7.788,7.788,0,0,1,4.974,2.4c8.354,8.354.538,32.343.538,32.343" transform="translate(383.257 226.042)" fill="#665e66"/>
          </g>
          <g id="g4473" transform="translate(65.06 26.33)">
            <path id="path4475" d="M-51.9-.124c-5.488,3.77-9.079,15.053-10.742,21.484-1.627-6.551.361-13.761,1.873-18.132,0,0,4.249-3.732,8.869-3.352" transform="translate(63.254 0.152)" fill="#454045"/>
          </g>
          <g id="g4477" transform="translate(13.153 20.702)">
            <path id="path4479" d="M-98.844-109.5l2.474,16.644-22.188.093c-1.691-15.443-6.6-35.5,11.436-39.073a92.971,92.971,0,0,1,11.735-1.608,0,0,0,0,1,0,0c-9.031,5.555-6.242,15.45-3.455,23.941" transform="translate(120.458 133.44)" fill="#454045"/>
          </g>
          <g id="g4481" transform="translate(18.462 44.566)">
            <path id="path4483" d="M-276.978-109.627q0,5.2-.266,10.4a16.838,16.838,0,0,1-16.039,15.965q-9.086.431-18.175.3h0q-4.891-.068-9.78-.3a16.842,16.842,0,0,1-16.039-15.965q-.474-9.259-.1-18.515h0c3.378-1.251,5.388-5.141,6.582-9.467a8.684,8.684,0,0,1,9.558-6.306,8.573,8.573,0,0,1,4.507,2.072,14.347,14.347,0,0,0,9.472,3.56,14.353,14.353,0,0,0,9.474-3.56,8.545,8.545,0,0,1,5.673-2.151,8.672,8.672,0,0,1,8.393,6.385c1.191,4.326,3.2,8.216,6.582,9.467q.165,4.062.163,8.12" transform="translate(337.545 133.6)" fill="#f1d0a5"/>
          </g>
          <g id="g4485" transform="translate(18.463 44.567)">
            <path id="path4487" d="M-119.287-231.541q-4.891-.068-9.78-.3a16.842,16.842,0,0,1-16.039-15.965q-.474-9.259-.1-18.515h0c3.378-1.251,5.388-5.141,6.582-9.467a8.684,8.684,0,0,1,9.558-6.306c-3.1,27.664,0,50.249,9.78,50.552" transform="translate(145.372 282.173)" fill="#f1b986"/>
          </g>
          <g id="g4489" transform="translate(42.591 76.405)">
            <path id="path4491" d="M0,0A6.811,6.811,0,0,0,6.155,3.893,6.811,6.811,0,0,0,12.311,0" fill="none" stroke="#000" stroke-linecap="round" stroke-linejoin="round" stroke-miterlimit="10" stroke-width="2.5"/>
          </g>
          <g id="g4493" transform="translate(11.907 60.416)">
            <path id="path4495" d="M-30.278-60.178h-.042A6.579,6.579,0,0,1-36.9-66.756a6.579,6.579,0,0,1,6.579-6.581c.047,0,.095,0,.142,0" transform="translate(36.899 73.337)" fill="none" stroke="#000" stroke-linecap="round" stroke-linejoin="round" stroke-miterlimit="10" stroke-width="2.5"/>
          </g>
          <g id="g4497" transform="translate(78.866 60.416)">
            <path id="path4499" d="M-.455-60.178h.042a6.579,6.579,0,0,0,6.578-6.579A6.579,6.579,0,0,0-.413-73.337c-.047,0-.095,0-.142,0" transform="translate(0.555 73.337)" fill="none" stroke="#000" stroke-linecap="round" stroke-linejoin="round" stroke-miterlimit="10" stroke-width="2.5"/>
          </g>
          <g id="g4501" transform="translate(32.063 60.673)">
            <path id="path4503" d="M-24.475-18.355c0,2.217-1.2,4.014-2.676,4.014s-2.676-1.8-2.676-4.014,1.2-4.014,2.676-4.014,2.676,1.8,2.676,4.014" transform="translate(29.827 22.369)"/>
          </g>
          <g id="g4505" transform="translate(32.063 60.673)">
            <path id="path4507" d="M-24.475-18.355c0,2.217-1.2,4.014-2.676,4.014s-2.676-1.8-2.676-4.014,1.2-4.014,2.676-4.014S-24.475-20.572-24.475-18.355Z" transform="translate(29.827 22.369)" fill="none" stroke="#000" stroke-miterlimit="10" stroke-width="2.5"/>
          </g>
          <g id="g4509" transform="translate(60.078 60.673)">
            <path id="path4511" d="M-24.475-18.355c0,2.217-1.2,4.014-2.676,4.014s-2.676-1.8-2.676-4.014,1.2-4.014,2.676-4.014,2.676,1.8,2.676,4.014" transform="translate(29.827 22.369)"/>
          </g>
          <g id="g4513" transform="translate(60.078 60.673)">
            <path id="path4515" d="M-24.475-18.355c0,2.217-1.2,4.014-2.676,4.014s-2.676-1.8-2.676-4.014,1.2-4.014,2.676-4.014S-24.475-20.572-24.475-18.355Z" transform="translate(29.827 22.369)" fill="none" stroke="#000" stroke-miterlimit="10" stroke-width="2.5"/>
          </g>
          <g id="g4517" transform="translate(18.463 44.567)">
            <path id="path4519" d="M-.753-72.491c3.379-1.25,5.389-5.142,6.582-9.467a8.667,8.667,0,0,1,14.065-4.235,14.381,14.381,0,0,0,18.946,0A8.668,8.668,0,0,1,52.9-81.959c1.193,4.325,3.2,8.217,6.582,9.467h0q.373,9.259-.1,18.515A16.838,16.838,0,0,1,43.345-38.011q-13.978.66-27.958,0A16.842,16.842,0,0,1-.652-53.976q-.474-9.259-.1-18.515Z" transform="translate(0.918 88.343)" fill="none" stroke="#000" stroke-linecap="round" stroke-linejoin="round" stroke-miterlimit="10" stroke-width="2.5"/>
          </g>
          <g id="g4521" transform="translate(81.922 47.681)">
            <path id="path4523" d="M-13.326,0A80.626,80.626,0,0,1-16.24,13.417" transform="translate(16.24)" fill="none" stroke="#000" stroke-linecap="round" stroke-linejoin="round" stroke-miterlimit="10" stroke-width="2.5"/>
          </g>
          <g id="g4525" transform="translate(13.153 20.539)">
            <path id="path4527" d="M-8.691-186.781c-1.691-15.443-6.6-35.5,11.436-39.073,22.7-4.5,33.523.562,38.114,4.249" transform="translate(10.592 227.624)" fill="none" stroke="#000" stroke-linecap="round" stroke-linejoin="round" stroke-miterlimit="10" stroke-width="2.5"/>
          </g>
          <g id="g4529" transform="translate(18.659 94.174)">
            <path id="path4531" d="M-271.946-99.7q.42,2.221.711,4.723h-60.177c2.158-18.764,10.343-25.4,11.936-26.525" transform="translate(331.413 121.506)" fill="none" stroke="#000" stroke-linecap="round" stroke-linejoin="round" stroke-miterlimit="10" stroke-width="2.5"/>
          </g>
          <g id="g4533" transform="translate(66.9 94.174)">
            <path id="path4535" d="M0,0C1.163.821,5.828,4.572,9.106,13.819" fill="none" stroke="#000" stroke-linecap="round" stroke-linejoin="round" stroke-miterlimit="10" stroke-width="2.5"/>
          </g>
          <g id="g4537" transform="translate(66.409 110.859)">
            <path id="path4539" d="M0-45v-9.84" transform="translate(0 54.84)" fill="none" stroke="#000" stroke-linecap="round" stroke-linejoin="round" stroke-miterlimit="10" stroke-width="2.5"/>
          </g>
          <g id="g4541" transform="translate(31.084 110.859)">
            <path id="path4543" d="M0-45v-9.84" transform="translate(0 54.84)" fill="none" stroke="#000" stroke-linecap="round" stroke-linejoin="round" stroke-miterlimit="10" stroke-width="2.5"/>
          </g>
          <g id="g4545" transform="translate(64.539 1.794)">
            <path id="path4547" d="M0-105.289A23.024,23.024,0,0,0,23.024-82.266a23.024,23.024,0,0,0,23.024-23.024,23.024,23.024,0,0,0-23.024-23.024A23.024,23.024,0,0,0,0-105.289" transform="translate(0 128.313)" fill="#f6e738"/>
          </g>
          <g id="g4549" transform="translate(64.539 1.794)">
            <path id="path4551" d="M-29.967-31.739A22.945,22.945,0,0,1-13.5-38.68,23.025,23.025,0,0,1,9.527-15.655,23.024,23.024,0,0,1-13.5,7.367,23.025,23.025,0,0,1-36.52-15.655a22.922,22.922,0,0,1,1.931-9.24" transform="translate(36.52 38.68)" fill="none" stroke="#000" stroke-linecap="round" stroke-linejoin="round" stroke-miterlimit="10" stroke-width="2.5"/>
          </g>
          <g id="g4553" transform="translate(85.748 38.205)">
            <path id="path4555" d="M0-8.3A1.814,1.814,0,0,0,1.814-6.482,1.814,1.814,0,0,0,3.629-8.3a1.814,1.814,0,0,0-1.814-1.814A1.814,1.814,0,0,0,0-8.3" transform="translate(0 10.111)"/>
          </g>
          <g id="g4557" transform="translate(85.748 38.205)">
            <path id="path4559" d="M0-8.3A1.814,1.814,0,0,0,1.814-6.482,1.814,1.814,0,0,0,3.629-8.3a1.814,1.814,0,0,0-1.814-1.814A1.814,1.814,0,0,0,0-8.3Z" transform="translate(0 10.111)" fill="none" stroke="#000" stroke-miterlimit="10" stroke-width="2.5"/>
          </g>
          <g id="g4561" transform="translate(79.934 9.562)">
            <path id="path4563" d="M0-34.884a7.65,7.65,0,0,1,.074-1.064,7.63,7.63,0,0,1,7.712-6.563,7.66,7.66,0,0,1,7.46,7.221,7.632,7.632,0,0,1-7.618,8.034v7.977" transform="translate(0 42.513)" fill="none" stroke="#000" stroke-linecap="round" stroke-linejoin="round" stroke-miterlimit="10" stroke-width="2.5"/>
          </g>
          <g id="g4565" transform="translate(30.594 94.174)">
            <path id="path4567" d="M-166.027,0l-9.407,9.9-8.746-8.851L-192.926,9.9-202.333,0" transform="translate(202.333)" fill="none" stroke="#000" stroke-linecap="round" stroke-linejoin="round" stroke-miterlimit="10" stroke-width="2.5"/>
          </g>
          <g id="g4569" transform="translate(48.747 95.227)">
            <path id="path4571" d="M0,0V25.472" transform="translate(0)" fill="none" stroke="#000" stroke-linecap="round" stroke-linejoin="round" stroke-miterlimit="10" stroke-width="2.5"/>
          </g>
        </g>
      </g>
    </g>
  </g>
</svg>
