<svg xmlns="http://www.w3.org/2000/svg" width="133" height="133" viewBox="0 0 133 133">
  <g id="Grupo_1064347" data-name="Grupo 1064347" transform="translate(-180 -5199.016)">
    <rect id="Rectángulo_373643" data-name="Rectángulo 373643" width="133" height="133" rx="12" transform="translate(180 5199.016)" fill="#ffb476"/>
  </g>
  <g id="layer1" transform="translate(24.86 -259.596)">
    <path id="path13065" d="M22.537,281.919A21.743,21.743,0,1,0,44.28,303.662H22.537Z" transform="translate(1.18 5.925)" fill="#ffbc42"/>
    <path id="path13067" d="M5.821,280.86V302.6H27.564A21.743,21.743,0,0,0,5.821,280.86Z" transform="translate(23.695 1.185)" fill="#ff6b6b"/>
    <path id="path13629" d="M7.938,294.619h5.8v8.7h-5.8Z" transform="translate(33.175 62.803)" fill="#33b9ef"/>
    <path id="path13631" d="M10.054,293.56h5.8v14.5h-5.8Z" transform="translate(42.654 58.063)" fill="#33b9ef"/>
    <path id="path13633" d="M12.171,294.09h5.8v11.6h-5.8Z" transform="translate(52.134 60.433)" fill="#33b9ef"/>
    <path id="path13635" d="M14.288,292.5h5.8V312.8h-5.8Z" transform="translate(61.614 53.324)" fill="#33b9ef"/>
    <g id="Grupo_1064348" data-name="Grupo 1064348" transform="translate(41.112 331.33)">
      <path id="path13637" d="M13.736,295.4a2.9,2.9,0,1,1-2.9-2.9A2.9,2.9,0,0,1,13.736,295.4Z" transform="translate(-7.938 -278.007)" fill="#ffbc42"/>
      <path id="path13639" d="M15.852,293.814a2.9,2.9,0,1,1-2.9-2.9A2.9,2.9,0,0,1,15.852,293.814Z" transform="translate(1.542 -285.116)" fill="#ffbc42"/>
      <path id="path13641" d="M17.969,294.343a2.9,2.9,0,1,1-2.9-2.9A2.9,2.9,0,0,1,17.969,294.343Z" transform="translate(11.022 -282.746)" fill="#ffbc42"/>
      <path id="path13643" d="M20.086,292.755a2.9,2.9,0,1,1-2.9-2.9A2.9,2.9,0,0,1,20.086,292.755Z" transform="translate(20.502 -289.856)" fill="#ffbc42"/>
    </g>
    <path id="path6950-0" d="M29.516,280.6a1.45,1.45,0,0,0-1.45,1.45v21.743a1.45,1.45,0,0,0,1.45,1.45H51.259a1.45,1.45,0,0,0,1.45-1.45,23.168,23.168,0,0,0-1.333-7.771,1.45,1.45,0,1,0-2.732.971,20.658,20.658,0,0,1,1.11,5.351H30.965v-18.8a20.274,20.274,0,0,1,12.7,5.747H39.66a1.45,1.45,0,1,0,0,2.9H70.1v4.357a1.451,1.451,0,1,0,2.9,0v-5.8a1.45,1.45,0,0,0-1.458-1.455H47.6A23.151,23.151,0,0,0,29.516,280.6Zm-5.8,5.8a23.181,23.181,0,0,0-7.245,45.2v8.428a1.451,1.451,0,0,0,2.9,0v-20.3a1.451,1.451,0,1,0-2.9,0v8.8a20.283,20.283,0,0,1,5.8-39.183v20.234a1.449,1.449,0,0,0,1.444,1.444H43.966a20.355,20.355,0,0,1-20.248,18.856,1.444,1.444,0,0,0,0,2.888A23.205,23.205,0,0,0,46.9,309.587a1.449,1.449,0,0,0-1.444-1.444h-20.3v-20.3a1.449,1.449,0,0,0-1.444-1.444ZM65.76,303.786a1.451,1.451,0,0,0,0,2.9H83.146a1.451,1.451,0,0,0,0-2.9Zm-5.8,8.7h14.49a1.45,1.45,0,1,0,0-2.9H59.884a1.45,1.45,0,0,0,.075,2.9Zm20.288,0h2.9a1.45,1.45,0,1,0,0-2.9H80.178a1.45,1.45,0,0,0,.069,2.9Zm-20.288,5.8H83.146a1.45,1.45,0,1,0,0-2.9H59.884a1.45,1.45,0,0,0,.075,2.9Zm0,5.8h2.9a1.45,1.45,0,0,0,0-2.9H59.884a1.45,1.45,0,0,0,.075,2.9Zm8.689,0h14.5a1.45,1.45,0,0,0,0-2.9H68.579a1.45,1.45,0,0,0,.069,2.9Zm10.155,5.8a4.371,4.371,0,0,0-4.354,4.343,4.227,4.227,0,0,0,.221,1.291L69.6,339.308a4.291,4.291,0,0,0-2.4-.733,4.348,4.348,0,0,0-3.613,1.956l-3.675-.92a4.337,4.337,0,0,0-8.655.419,4.25,4.25,0,0,0,.215,1.277l-5.065,3.8a4.285,4.285,0,0,0-2.4-.736,4.35,4.35,0,1,0,4.343,4.357,4.257,4.257,0,0,0-.221-1.294l5.065-3.794a4.306,4.306,0,0,0,2.4.73,4.37,4.37,0,0,0,3.618-1.945l3.681.92a4.331,4.331,0,0,0,8.644-.419,4.263,4.263,0,0,0-.218-1.285l5.068-3.8a4.341,4.341,0,1,0,2.406-7.953Zm0,2.888a1.45,1.45,0,1,1-1.455,1.455A1.428,1.428,0,0,1,78.8,332.774Zm-23.2,5.8a1.45,1.45,0,1,1,0,2.9,1.45,1.45,0,0,1,0-2.9Zm11.6,2.9a1.45,1.45,0,1,1-1.444,1.455A1.428,1.428,0,0,1,67.2,341.474Zm-30.443,26.1H86.048a1.45,1.45,0,1,0,0-2.9h-2.9V345.828a1.45,1.45,0,0,0-1.444-1.455H75.9a1.45,1.45,0,0,0-1.455,1.455v18.844h-2.9V354.517a1.449,1.449,0,0,0-1.444-1.444H64.3a1.449,1.449,0,0,0-1.444,1.444v10.155h-2.9V351.629a1.45,1.45,0,0,0-1.455-1.455h-5.8a1.45,1.45,0,0,0-1.444,1.455v13.043h-2.9v-7.256a1.449,1.449,0,0,0-1.455-1.444H41.118a1.45,1.45,0,0,0-1.458,1.444v7.256H36.691a1.45,1.45,0,0,0,.069,2.9Zm-26.086-20.3a1.451,1.451,0,0,0,0,2.9H28.06a1.451,1.451,0,0,0,0-2.9Zm33.343,0a1.451,1.451,0,1,1-1.455,1.458A1.43,1.43,0,0,1,44.017,347.272Zm33.331,0h2.9v17.4h-2.9Zm-72.475,8.7h14.5a1.45,1.45,0,0,0,0-2.9H4.8a1.45,1.45,0,0,0,.075,2.9Zm20.288,0h2.9a1.45,1.45,0,0,0,0-2.9H25.092a1.45,1.45,0,0,0,.069,2.9Zm29-2.9h2.9v11.6h-2.9Zm11.6,2.9h2.888v8.7H65.76Zm-60.887,5.8H28.06a1.45,1.45,0,1,0,0-2.9H4.8a1.45,1.45,0,0,0,.075,2.9Zm37.688-2.9h2.9v5.8h-2.9Zm-37.688,8.7h2.9a1.45,1.45,0,1,0,0-2.9H4.8a1.45,1.45,0,0,0,.075,2.9Zm8.7,0H28.06a1.45,1.45,0,1,0,0-2.9H13.5a1.45,1.45,0,0,0,.075,2.9Z" transform="translate(0)"/>
  </g>
</svg>
