<svg xmlns="http://www.w3.org/2000/svg" width="78" height="78" viewBox="0 0 78 78">
  <g id="Grupo_1064384" data-name="Grupo 1064384" transform="translate(-332.5 -1200)">
    <rect id="Rectángulo_373720" data-name="Rectángulo 373720" width="78" height="78" rx="12" transform="translate(332.5 1200)" fill="#fff"/>
    <g id="Grupo_1064382" data-name="Grupo 1064382" transform="translate(340.607 1209.463)">
      <g id="g1777" transform="translate(17.49 0.862)">
        <path id="path1779" d="M-241.926-484.659a11.389,11.389,0,0,1-10.435,11.349c-.367.031-.74.045-1.116.039A11.424,11.424,0,0,1-264.7-484.382a11.383,11.383,0,0,1,5.65-10.118v-30.055a5.722,5.722,0,0,1,1.68-4.056,5.73,5.73,0,0,1,2.309-1.409,5.714,5.714,0,0,1,1.749-.272,5.737,5.737,0,0,1,5.737,5.737V-494.5a11.386,11.386,0,0,1,5.652,9.841" transform="translate(264.704 530.292)" fill="#e9f5ff"/>
      </g>
      <g id="g1781" transform="translate(27.131 0.862)">
        <path id="path1783" d="M-139.529-484.659a11.389,11.389,0,0,1-10.435,11.349,4.281,4.281,0,0,1,.01-.826,11.393,11.393,0,0,0,6.983-10.505c0-4.2-2.272-6.948-5.652-8.923v-30.973a5.739,5.739,0,0,0-4.043-5.482,5.714,5.714,0,0,1,1.749-.272,5.737,5.737,0,0,1,5.737,5.737V-494.5a11.386,11.386,0,0,1,5.652,9.841" transform="translate(152.666 530.292)" fill="#bde2ef"/>
      </g>
      <g id="g1785" transform="translate(20.932 4.321)">
        <path id="path1787" d="M-126.892-375.144a3.443,3.443,0,0,1-1.705-2.972v-30.055a2.3,2.3,0,0,0-2.295-2.295,2.3,2.3,0,0,0-.762.13,2.3,2.3,0,0,0-1.533,2.165v30.055a3.442,3.442,0,0,1-1.706,2.972,7.966,7.966,0,0,0-3.945,7.064,7.893,7.893,0,0,0,2.364,5.442,7.89,7.89,0,0,0,5.467,2.309,7.917,7.917,0,0,0,4.332-1.208,7.972,7.972,0,0,0,1.362-1.079,7.893,7.893,0,0,0,2.367-5.659,7.986,7.986,0,0,0-3.947-6.869" transform="translate(138.839 410.466)" fill="#ff6e6e"/>
      </g>
      <g id="g1789" transform="translate(28.118 4.321)">
        <path id="path1791" d="M-50.572-375.144a3.443,3.443,0,0,1-1.7-2.972v-30.055a2.3,2.3,0,0,0-2.295-2.295,2.3,2.3,0,0,0-.762.13,2.29,2.29,0,0,1,.762,1.706v32.694a3.443,3.443,0,0,0,1.7,2.972,7.986,7.986,0,0,1,3.947,6.869,7.879,7.879,0,0,1-1.434,4.557,7.972,7.972,0,0,0,1.362-1.079,7.893,7.893,0,0,0,2.367-5.659,7.986,7.986,0,0,0-3.947-6.869" transform="translate(55.333 410.466)" fill="#f44e92"/>
      </g>
      <g id="g1793" transform="translate(26.585 4.321)">
        <path id="path1795" d="M-48.744-24.372v8.9h-4.589v-8.9A2.3,2.3,0,0,1-51.8-26.537a2.294,2.294,0,0,1,.762-.13,2.3,2.3,0,0,1,2.295,2.295" transform="translate(53.333 26.667)" fill="#4f667a"/>
      </g>
      <g id="g1797" transform="translate(28.118 4.321)">
        <path id="path1799" d="M-8.091,0a2.294,2.294,0,0,0-.762.13,2.29,2.29,0,0,1,.762,1.706v9.356H-5.8v-8.9A2.3,2.3,0,0,0-8.091,0" transform="translate(8.853)" fill="#3a5366"/>
      </g>
      <g id="g1801" transform="translate(38.978 5.286)">
        <path id="path1803" d="M-9.139-18.279H-.445a.86.86,0,0,0,.861-.861A.86.86,0,0,0-.445-20H-9.139a.86.86,0,0,0-.861.861.86.86,0,0,0,.861.861" transform="translate(10 20)"/>
      </g>
      <g id="g1805" transform="translate(38.978 9.26)">
        <path id="path1807" d="M-9.139-18.279h4.347a.861.861,0,0,0,.861-.861A.861.861,0,0,0-4.792-20H-9.139a.86.86,0,0,0-.861.861.86.86,0,0,0,.861.861" transform="translate(10 20)"/>
      </g>
      <g id="g1809" transform="translate(38.978 13.275)">
        <path id="path1811" d="M-101.477,0h-8.694a.86.86,0,0,0-.861.861.86.86,0,0,0,.861.861h8.694a.86.86,0,0,0,.861-.861A.86.86,0,0,0-101.477,0" transform="translate(111.032)"/>
      </g>
      <g id="g1813" transform="translate(38.978 17.249)">
        <path id="path1815" d="M-9.139-18.279h4.347a.861.861,0,0,0,.861-.861A.861.861,0,0,0-4.792-20H-9.139a.86.86,0,0,0-.861.861.86.86,0,0,0,.861.861" transform="translate(10 20)"/>
      </g>
      <g id="g1817" transform="translate(38.978 21.205)">
        <path id="path1819" d="M-101.477,0h-8.694a.86.86,0,0,0-.861.861.86.86,0,0,0,.861.861h8.694a.86.86,0,0,0,.861-.861A.86.86,0,0,0-101.477,0" transform="translate(111.032)"/>
      </g>
      <g id="g1821" transform="translate(38.978 25.179)">
        <path id="path1823" d="M-9.139-18.279h4.347a.861.861,0,0,0,.861-.861A.861.861,0,0,0-4.792-20H-9.139a.86.86,0,0,0-.861.861.86.86,0,0,0,.861.861" transform="translate(10 20)"/>
      </g>
      <g id="g1825" transform="translate(38.978 29.21)">
        <path id="path1827" d="M-101.477,0h-8.694a.86.86,0,0,0-.861.861.86.86,0,0,0,.861.861h8.694a.86.86,0,0,0,.861-.861A.86.86,0,0,0-101.477,0" transform="translate(111.032)"/>
      </g>
      <g id="g1829" transform="translate(38.978 33.183)">
        <path id="path1831" d="M-55.308,0h-4.347a.861.861,0,0,0-.861.861.861.861,0,0,0,.861.861h4.347a.86.86,0,0,0,.861-.861A.86.86,0,0,0-55.308,0" transform="translate(60.516)"/>
      </g>
      <g id="g1833" transform="translate(16.629 0.002)">
        <path id="path1835" d="M-200.17-382.942v-22.17a.86.86,0,0,0-.861-.861.86.86,0,0,0-.861.861v22.652a.86.86,0,0,0,.426.743,10.676,10.676,0,0,1,5.226,9.213,10.453,10.453,0,0,1-3.136,7.5,10.449,10.449,0,0,1-7.543,3.031,10.469,10.469,0,0,1-7.248-3.055,10.462,10.462,0,0,1-3.127-7.216,10.646,10.646,0,0,1,5.223-9.469.861.861,0,0,0,.426-.743V-412.4a4.882,4.882,0,0,1,4.876-4.876,4.882,4.882,0,0,1,4.876,4.876v3.291a.86.86,0,0,0,.861.861.86.86,0,0,0,.861-.861V-412.4a6.6,6.6,0,0,0-6.6-6.6,6.6,6.6,0,0,0-6.6,6.6v29.458a12.38,12.38,0,0,0-5.649,10.735,12.176,12.176,0,0,0,3.637,8.4,12.183,12.183,0,0,0,8.435,3.553h.176a12.162,12.162,0,0,0,8.6-3.527,12.162,12.162,0,0,0,3.649-8.722,12.418,12.418,0,0,0-5.652-10.437" transform="translate(219.017 418.998)"/>
      </g>
      <g id="g1837" transform="translate(20.072 3.461)">
        <path id="path1839" d="M-78.31-118.863V-126.9a1.436,1.436,0,0,1,1.434-1.434,1.436,1.436,0,0,1,1.434,1.434v8.036Zm-2.132,25.734a4.318,4.318,0,0,0,2.132-3.715v-2.8a.86.86,0,0,0-.861-.861.86.86,0,0,0-.861.861v2.8a2.59,2.59,0,0,1-1.279,2.229,8.826,8.826,0,0,0-4.37,7.828,8.75,8.75,0,0,0,2.618,6.034A8.757,8.757,0,0,0-77-78.2h.117a8.757,8.757,0,0,0,6.192-2.536A8.744,8.744,0,0,0-68.068-87a8.849,8.849,0,0,0-4.373-7.612,2.59,2.59,0,0,1-1.279-2.229V-126.9a3.159,3.159,0,0,0-3.155-3.155,3.159,3.159,0,0,0-3.155,3.155v23.225a.861.861,0,0,0,.861.861.861.861,0,0,0,.861-.861v-13.468h2.868v20.3a4.318,4.318,0,0,0,2.132,3.715A7.121,7.121,0,0,1-69.789-87,7.036,7.036,0,0,1-71.9-81.957a7.034,7.034,0,0,1-5.078,2.04,7.043,7.043,0,0,1-4.874-2.06,7.037,7.037,0,0,1-2.108-4.851,7.1,7.1,0,0,1,3.518-6.3" transform="translate(85.683 130.054)"/>
      </g>
    </g>
  </g>
</svg>
