<svg xmlns="http://www.w3.org/2000/svg" width="78" height="78" viewBox="0 0 78 78">
  <g id="Grupo_1064383" data-name="Grupo 1064383" transform="translate(-332.5 -1528)">
    <rect id="Rectángulo_373720" data-name="Rectángulo 373720" width="78" height="78" rx="12" transform="translate(332.5 1528)" fill="#fff"/>
    <g id="analizar" transform="translate(344.328 1539.828)">
      <path id="Trazado_601114" data-name="Trazado 601114" d="M3.518,0H31.659V54.525H3.518A3.518,3.518,0,0,1,0,51.007V3.518A3.518,3.518,0,0,1,3.518,0Z" transform="translate(55.434 6.186) rotate(90)" fill="#c9efff"/>
      <path id="Trazado_601115" data-name="Trazado 601115" d="M52.869,7.193A3.48,3.48,0,0,0,51.769,7H5.6a3.48,3.48,0,0,0-1.1.193V38.659H52.869Z" transform="translate(-0.512 -0.814)" fill="#afe6fa"/>
      <path id="Trazado_601116" data-name="Trazado 601116" d="M1,46.518a3.518,3.518,0,0,0,3.518,3.518H52.007a3.518,3.518,0,0,0,3.518-3.518V43H1Z" transform="translate(-0.09 -5.154)" fill="#696e82"/>
      <path id="Trazado_601117" data-name="Trazado 601117" d="M19,59H41.865v3.518H19Z" transform="translate(-2.261 -7.084)" fill="#696e82"/>
      <path id="Trazado_601118" data-name="Trazado 601118" d="M25,51H37.312v7.035H25Z" transform="translate(-2.984 -6.119)" fill="#5b6172"/>
      <path id="Trazado_601119" data-name="Trazado 601119" d="M6,1H51.73V37.936H6Z" transform="translate(-0.693 -0.09)" fill="#f2f7ff"/>
      <path id="Trazado_601120" data-name="Trazado 601120" d="M12,25h7.915v3.518H12Z" transform="translate(-1.417 -2.984)" fill="#f03a5a"/>
      <path id="Trazado_601121" data-name="Trazado 601121" d="M27.52,9.077a7.025,7.025,0,0,0,0,12.176l3.515-6.088Z" transform="translate(-2.864 -1.064)" fill="#64a0fa"/>
      <path id="Trazado_601122" data-name="Trazado 601122" d="M38.554,15.035A7.027,7.027,0,0,0,28,8.947l3.515,6.088Z" transform="translate(-3.346 -0.934)" fill="#f03a5a"/>
      <path id="Trazado_601123" data-name="Trazado 601123" d="M31.518,16,28,22.088A7.027,7.027,0,0,0,38.554,16Z" transform="translate(-3.346 -1.899)" fill="#ffd24a"/>
      <path id="Trazado_601124" data-name="Trazado 601124" d="M51.916,5.527H51.7V.91a.66.66,0,0,0-.66-.66H5.307a.66.66,0,0,0-.66.66V5.527h-.22A4.182,4.182,0,0,0,.25,9.7V41.363a4.182,4.182,0,0,0,4.177,4.177H21.356v5.716H16.739a.66.66,0,0,0-.66.66v3.518a.66.66,0,0,0,.66.66H39.6a.66.66,0,0,0,.66-.66V51.916a.66.66,0,0,0-.66-.66H34.987V45.541H51.916a4.182,4.182,0,0,0,4.177-4.177V9.7a4.182,4.182,0,0,0-4.177-4.177Zm0,1.319A2.861,2.861,0,0,1,54.775,9.7V37.186H51.7V6.846ZM5.966,1.569H50.377V37.186H5.966ZM4.427,6.846h.22v30.34H1.569V9.7A2.861,2.861,0,0,1,4.427,6.846ZM38.945,54.775H17.4v-2.2H38.945Zm-5.277-3.518H22.675V45.541H33.668Zm21.106-9.894a2.861,2.861,0,0,1-2.858,2.858H4.427a2.861,2.861,0,0,1-2.858-2.858V38.505H54.775Z"/>
      <path id="Trazado_601125" data-name="Trazado 601125" d="M19.91,17.122a.66.66,0,0,0,.66-.66v-1.1h2.243a7.67,7.67,0,0,0,10.027,6.656l.511,1.672a.658.658,0,0,0,.631.467H37.5a.66.66,0,0,0,0-1.319h-3.03L34.06,21.5a7.687,7.687,0,0,0,0-13.6l.409-1.337H37.5a.66.66,0,1,0,0-1.319H33.98a.658.658,0,0,0-.63.467l-.511,1.672a7.679,7.679,0,0,0-10.027,6.656H20.569v-1.1a.66.66,0,0,0-1.319,0v3.518A.66.66,0,0,0,19.91,17.122ZM33.664,20.21l-.812-2.652a.66.66,0,1,0-1.261.386l.861,2.813a6.3,6.3,0,0,1-4.587-.233l2.978-5.158h5.962A6.382,6.382,0,0,1,33.664,20.21ZM32.452,8.65l-.861,2.815a.66.66,0,1,0,1.261.386L33.664,9.2A6.381,6.381,0,0,1,36.8,14.044H30.843L27.87,8.894a6.258,6.258,0,0,1,4.583-.244Zm-5.729.9L29.7,14.7l-2.972,5.149a6.392,6.392,0,0,1-2.6-4.489h2.814a.66.66,0,1,0,0-1.319H24.127a6.4,6.4,0,0,1,2.6-4.5Z" transform="translate(-2.291 -0.603)"/>
      <path id="Trazado_601126" data-name="Trazado 601126" d="M43.91,26.569h5.277a.66.66,0,1,0,0-1.319H43.91a.66.66,0,0,0,0,1.319Z" transform="translate(-5.185 -3.014)"/>
      <path id="Trazado_601127" data-name="Trazado 601127" d="M43.91,6.569h5.277a.66.66,0,1,0,0-1.319H43.91a.66.66,0,0,0,0,1.319Z" transform="translate(-5.185 -0.603)"/>
      <path id="Trazado_601128" data-name="Trazado 601128" d="M11.91,33.569H47.087a.66.66,0,0,0,0-1.319H11.91a.66.66,0,0,0,0,1.319Z" transform="translate(-1.326 -3.858)"/>
      <path id="Trazado_601129" data-name="Trazado 601129" d="M11.91,37.569H47.087a.66.66,0,0,0,0-1.319H11.91a.66.66,0,0,0,0,1.319Z" transform="translate(-1.326 -4.341)"/>
      <path id="Trazado_601130" data-name="Trazado 601130" d="M11.91,29.087h7.915a.66.66,0,0,0,.66-.66V24.91a.66.66,0,0,0-.66-.66H11.91a.66.66,0,0,0-.66.66v3.518A.66.66,0,0,0,11.91,29.087Zm.66-3.518h6.6v2.2h-6.6Z" transform="translate(-1.326 -2.894)"/>
    </g>
  </g>
</svg>
