<svg xmlns="http://www.w3.org/2000/svg" width="135" height="135" viewBox="0 0 135 135">
  <g id="Grupo_110661" data-name="Grupo 110661" transform="translate(-1000 -2164)">
    <circle id="Elipse_5084" data-name="Elipse 5084" cx="67.5" cy="67.5" r="67.5" transform="translate(1000 2164)" fill="#ffb476"/>
    <path id="Feature_One" data-name="Feature One" d="M18.047-14.443a15.578,15.578,0,0,1-2.4,7.866A14.5,14.5,0,0,1,9.478-1.289,20.99,20.99,0,0,1,.41.586Q-8,.586-12.832-4.893t-4.834-15.469v-2.109a25.82,25.82,0,0,1,2.183-10.972A16.538,16.538,0,0,1-9.2-40.708,17.533,17.533,0,0,1,.293-43.271q7.764,0,12.48,4.087T18.135-27.92H7.881q-.117-3.9-1.963-5.6t-5.625-1.7a6.143,6.143,0,0,0-5.625,2.871q-1.787,2.871-1.875,9.17v3.018q0,6.826,1.714,9.756t5.9,2.93a7.9,7.9,0,0,0,5.42-1.67q1.875-1.67,1.992-5.3Z" transform="translate(1067.5 2247.5)" fill="#12263f"/>
  </g>
</svg>
