<svg xmlns="http://www.w3.org/2000/svg" xmlns:xlink="http://www.w3.org/1999/xlink" width="1003.279" height="579.607" viewBox="0 0 1003.279 579.607">
  <defs>
    <clipPath id="clip-path">
      <path id="Trazado_600862" data-name="Trazado 600862" d="M165.993,60.139a105.859,105.859,0,1,0,52.851-14.2,105.9,105.9,0,0,0-52.851,14.2" transform="translate(-113.026 -45.935)" fill="none"/>
    </clipPath>
    <clipPath id="clip-path-2">
      <rect id="Rect치ngulo_373618" data-name="Rect치ngulo 373618" width="234.707" height="234.708" fill="none"/>
    </clipPath>
    <clipPath id="clip-path-3">
      <path id="Trazado_600876" data-name="Trazado 600876" d="M21.406,204.727a105.854,105.854,0,1,0,91.811-52.967,105.9,105.9,0,0,0-91.811,52.967" transform="translate(-7.2 -151.76)" fill="none"/>
    </clipPath>
    <clipPath id="clip-path-4">
      <rect id="Rect치ngulo_373626" data-name="Rect치ngulo 373626" width="234.708" height="234.708" fill="none"/>
    </clipPath>
    <clipPath id="clip-path-11">
      <path id="Trazado_600880" data-name="Trazado 600880" d="M76.32,404.506H863.908c-48-172.377-206.116-298.872-393.795-298.872S124.318,232.129,76.32,404.506" transform="translate(-76.32 -105.634)" fill="none" stroke="#083142" stroke-width="1"/>
    </clipPath>
  </defs>
  <g id="Grupo_1064252" data-name="Grupo 1064252" transform="translate(-296.435 -2766.042)">
    <g id="Grupo_1064249" data-name="Grupo 1064249" transform="translate(0 46.051)">
      <path id="Trazado_600861" data-name="Trazado 600861" d="M165.994,60.14A105.9,105.9,0,1,1,127.231,204.8,105.9,105.9,0,0,1,165.994,60.14" transform="translate(351.474 2860.031)" fill="#083142" fill-rule="evenodd"/>
      <g id="Grupo_1064214" data-name="Grupo 1064214" transform="translate(464.5 2905.967)">
        <g id="Grupo_1064213" data-name="Grupo 1064213" clip-path="url(#clip-path)">
          <g id="Grupo_1064212" data-name="Grupo 1064212" transform="translate(-11.435 -11.436)" opacity="0.5">
            <g id="Grupo_1064211" data-name="Grupo 1064211">
              <g id="Grupo_1064210" data-name="Grupo 1064210" clip-path="url(#clip-path-2)">
                <circle id="Elipse_8280" data-name="Elipse 8280" cx="105.902" cy="105.902" r="105.902" transform="translate(-15.11 47.469) rotate(-17.185)" fill="none" stroke="#fff" stroke-miterlimit="22.926" stroke-width="14.4"/>
              </g>
            </g>
          </g>
        </g>
      </g>
      <path id="Trazado_600863" data-name="Trazado 600863" d="M141.616,102.665a76.878,76.878,0,1,1,28.14,105.018,76.881,76.881,0,0,1-28.14-105.018" transform="translate(362.224 2870.781)" fill="#407a91" fill-rule="evenodd"/>
    </g>
    <path id="Trazado_600875" data-name="Trazado 600875" d="M21.406,204.729A105.9,105.9,0,1,1,60.169,349.393,105.9,105.9,0,0,1,21.406,204.729" transform="translate(289.235 2968.271)" fill="#ffa845" fill-rule="evenodd"/>
    <g id="Grupo_1064242" data-name="Grupo 1064242" transform="translate(296.435 3120.03)">
      <g id="Grupo_1064241" data-name="Grupo 1064241" clip-path="url(#clip-path-3)">
        <g id="Grupo_1064240" data-name="Grupo 1064240" transform="translate(-11.435 -11.435)" opacity="0.5">
          <g id="Grupo_1064239" data-name="Grupo 1064239">
            <g id="Grupo_1064238" data-name="Grupo 1064238" clip-path="url(#clip-path-4)">
              <circle id="Elipse_8282" data-name="Elipse 8282" cx="105.902" cy="105.902" r="105.902" transform="translate(-12.392 42.544) rotate(-15.033)" fill="none" stroke="#fff" stroke-miterlimit="22.926" stroke-width="14.4"/>
            </g>
          </g>
        </g>
      </g>
    </g>
    <path id="Trazado_600877" data-name="Trazado 600877" d="M35.791,208.49A76.879,76.879,0,1,1,63.93,313.508,76.879,76.879,0,0,1,35.791,208.49" transform="translate(299.985 2979.021)" fill="#fa8b37" fill-rule="evenodd"/>
    <path id="Trazado_600881" data-name="Trazado 600881" d="M21.406,204.729A105.9,105.9,0,1,1,60.169,349.393,105.9,105.9,0,0,1,21.406,204.729" transform="translate(686.88 2743.271)" fill="#ffa845" fill-rule="evenodd"/>
    <g id="Grupo_1064246" data-name="Grupo 1064246" transform="translate(694.081 2895.03)">
      <g id="Grupo_1064241-2" data-name="Grupo 1064241" clip-path="url(#clip-path-3)">
        <g id="Grupo_1064240-2" data-name="Grupo 1064240" transform="translate(-11.435 -11.435)" opacity="0.5">
          <g id="Grupo_1064239-2" data-name="Grupo 1064239">
            <g id="Grupo_1064238-2" data-name="Grupo 1064238" clip-path="url(#clip-path-4)">
              <circle id="Elipse_8282-2" data-name="Elipse 8282" cx="105.902" cy="105.902" r="105.902" transform="translate(-12.392 42.544) rotate(-15.033)" fill="none" stroke="#fff" stroke-miterlimit="22.926" stroke-width="14.4"/>
            </g>
          </g>
        </g>
      </g>
    </g>
    <path id="Trazado_600882" data-name="Trazado 600882" d="M35.791,208.49A76.879,76.879,0,1,1,63.93,313.508,76.879,76.879,0,0,1,35.791,208.49" transform="translate(697.63 2754.021)" fill="#fa8b37" fill-rule="evenodd"/>
    <g id="Grupo_1064248" data-name="Grupo 1064248" transform="translate(-5 57.16)">
      <path id="Trazado_600883" data-name="Trazado 600883" d="M165.994,60.14A105.9,105.9,0,1,1,127.231,204.8,105.9,105.9,0,0,1,165.994,60.14" transform="translate(817.474 2848.922)" fill="#083142" fill-rule="evenodd"/>
      <g id="Grupo_1064247" data-name="Grupo 1064247" transform="translate(930.5 2894.857)">
        <g id="Grupo_1064213-2" data-name="Grupo 1064213" clip-path="url(#clip-path)">
          <g id="Grupo_1064212-2" data-name="Grupo 1064212" transform="translate(-11.435 -11.436)" opacity="0.5">
            <g id="Grupo_1064211-2" data-name="Grupo 1064211">
              <g id="Grupo_1064210-2" data-name="Grupo 1064210" clip-path="url(#clip-path-2)">
                <circle id="Elipse_8280-2" data-name="Elipse 8280" cx="105.902" cy="105.902" r="105.902" transform="translate(-15.11 47.469) rotate(-17.185)" fill="none" stroke="#fff" stroke-miterlimit="22.926" stroke-width="14.4"/>
              </g>
            </g>
          </g>
        </g>
      </g>
      <path id="Trazado_600884" data-name="Trazado 600884" d="M141.616,102.665a76.878,76.878,0,1,1,28.14,105.018,76.881,76.881,0,0,1-28.14-105.018" transform="translate(828.224 2859.672)" fill="#407a91" fill-rule="evenodd"/>
    </g>
    <g id="Grupo_1064251" data-name="Grupo 1064251" transform="translate(0 46)">
      <path id="Trazado_600885" data-name="Trazado 600885" d="M21.406,204.729A105.9,105.9,0,1,1,60.169,349.393,105.9,105.9,0,0,1,21.406,204.729" transform="translate(1080.674 2922.271)" fill="#ffa845" fill-rule="evenodd"/>
      <g id="Grupo_1064250" data-name="Grupo 1064250" transform="translate(1087.874 3074.03)">
        <g id="Grupo_1064241-3" data-name="Grupo 1064241" clip-path="url(#clip-path-3)">
          <g id="Grupo_1064240-3" data-name="Grupo 1064240" transform="translate(-11.435 -11.435)" opacity="0.5">
            <g id="Grupo_1064239-3" data-name="Grupo 1064239">
              <g id="Grupo_1064238-3" data-name="Grupo 1064238" clip-path="url(#clip-path-4)">
                <circle id="Elipse_8282-3" data-name="Elipse 8282" cx="105.902" cy="105.902" r="105.902" transform="translate(-12.392 42.544) rotate(-15.033)" fill="none" stroke="#fff" stroke-miterlimit="22.926" stroke-width="14.4"/>
              </g>
            </g>
          </g>
        </g>
      </g>
      <path id="Trazado_600886" data-name="Trazado 600886" d="M35.791,208.49A76.879,76.879,0,1,1,63.93,313.508,76.879,76.879,0,0,1,35.791,208.49" transform="translate(1091.424 2933.021)" fill="#fa8b37" fill-rule="evenodd"/>
    </g>
    <path id="Trazado_600878" data-name="Trazado 600878" d="M470.113,105.634c187.679,0,345.8,126.495,393.793,298.872H76.32c48-172.377,206.114-298.872,393.793-298.872" transform="translate(329.886 2941.143)" fill="#ebf2f4" fill-rule="evenodd"/>
    <g id="Grupo_1064245" data-name="Grupo 1064245" transform="translate(406.206 3046.776)" clip-path="url(#clip-path-11)">
      <path id="Trazado_600879" data-name="Trazado 600879" d="M76.32,404.506c48-172.377,206.114-298.872,393.793-298.872s345.8,126.495,393.793,298.872" transform="translate(-76.32 -105.634)" fill="none" stroke="#083142" stroke-linecap="round" stroke-linejoin="round" stroke-width="14.4"/>
    </g>
    <path id="Trazado_601644" data-name="Trazado 601644" d="M-64.18,0h-2.93V-14.219h2.93Zm5.127-10.566.088,1.221a3.689,3.689,0,0,1,3.037-1.416,3.066,3.066,0,0,1,2.5.986,4.6,4.6,0,0,1,.84,2.949V0H-55.41V-6.758a1.831,1.831,0,0,0-.391-1.3,1.749,1.749,0,0,0-1.3-.405,1.942,1.942,0,0,0-1.787,1.016V0h-2.822V-10.566Zm11.982-2.6v2.6h1.807V-8.5H-47.07v5.273a1.259,1.259,0,0,0,.225.84,1.128,1.128,0,0,0,.859.254,4.5,4.5,0,0,0,.83-.068V-.059A5.81,5.81,0,0,1-46.865.2q-2.969,0-3.027-3V-8.5h-1.543v-2.07h1.543v-2.6ZM-38.828.2A5.187,5.187,0,0,1-42.612-1.23a5.068,5.068,0,0,1-1.46-3.8V-5.3a6.383,6.383,0,0,1,.615-2.847,4.515,4.515,0,0,1,1.743-1.934,4.893,4.893,0,0,1,2.573-.679,4.385,4.385,0,0,1,3.413,1.367,5.555,5.555,0,0,1,1.245,3.877v1.152h-6.729a2.622,2.622,0,0,0,.825,1.66,2.5,2.5,0,0,0,1.743.625,3.046,3.046,0,0,0,2.549-1.182l1.387,1.553a4.237,4.237,0,0,1-1.719,1.4A5.639,5.639,0,0,1-38.828.2Zm-.322-8.672a1.767,1.767,0,0,0-1.362.566,2.926,2.926,0,0,0-.669,1.621h3.926v-.225a2.086,2.086,0,0,0-.508-1.45A1.824,1.824,0,0,0-39.15-8.477ZM-29.9,0h-2.832V-15H-29.9Zm5.3,0h-2.832V-10.566H-24.6Zm-3-13.3a1.39,1.39,0,0,1,.425-1.045,1.6,1.6,0,0,1,1.157-.41,1.6,1.6,0,0,1,1.152.41,1.382,1.382,0,0,1,.43,1.045,1.386,1.386,0,0,1-.435,1.055,1.6,1.6,0,0,1-1.147.41,1.6,1.6,0,0,1-1.147-.41A1.386,1.386,0,0,1-27.6-13.3Zm4.912,7.939a6.193,6.193,0,0,1,1.157-3.916,3.75,3.75,0,0,1,3.12-1.484A3.289,3.289,0,0,1-15.7-9.57l.117-1h2.559V-.352a4.516,4.516,0,0,1-.63,2.412A4.045,4.045,0,0,1-15.43,3.623a6.231,6.231,0,0,1-2.676.537A5.794,5.794,0,0,1-20.371,3.7a4.021,4.021,0,0,1-1.67-1.2l1.25-1.719a3.306,3.306,0,0,0,2.559,1.182,2.42,2.42,0,0,0,1.748-.6,2.253,2.253,0,0,0,.625-1.7V-.908A3.264,3.264,0,0,1-18.428.2a3.74,3.74,0,0,1-3.081-1.489,6.191,6.191,0,0,1-1.177-3.95Zm2.822.205a3.846,3.846,0,0,0,.576,2.251,1.834,1.834,0,0,0,1.582.815,1.961,1.961,0,0,0,1.846-.967V-7.5a1.956,1.956,0,0,0-1.826-.967,1.845,1.845,0,0,0-1.6.83A4.334,4.334,0,0,0-19.863-5.156ZM-6,.2A5.187,5.187,0,0,1-9.78-1.23a5.068,5.068,0,0,1-1.46-3.8V-5.3a6.383,6.383,0,0,1,.615-2.847,4.515,4.515,0,0,1,1.743-1.934,4.893,4.893,0,0,1,2.573-.679A4.385,4.385,0,0,1-2.9-9.395,5.555,5.555,0,0,1-1.65-5.518v1.152H-8.379a2.622,2.622,0,0,0,.825,1.66,2.5,2.5,0,0,0,1.743.625A3.046,3.046,0,0,0-3.262-3.262l1.387,1.553a4.237,4.237,0,0,1-1.719,1.4A5.639,5.639,0,0,1-6,.2Zm-.322-8.672a1.767,1.767,0,0,0-1.362.566A2.926,2.926,0,0,0-8.35-6.289h3.926v-.225a2.086,2.086,0,0,0-.508-1.45A1.824,1.824,0,0,0-6.318-8.477Zm8.867-2.09.088,1.221a3.689,3.689,0,0,1,3.037-1.416,3.066,3.066,0,0,1,2.5.986,4.6,4.6,0,0,1,.84,2.949V0H6.191V-6.758a1.831,1.831,0,0,0-.391-1.3,1.749,1.749,0,0,0-1.3-.405A1.942,1.942,0,0,0,2.715-7.451V0H-.107V-10.566Zm13,8.486a1.851,1.851,0,0,0,1.27-.43,1.506,1.506,0,0,0,.508-1.143h2.646a3.62,3.62,0,0,1-.586,1.968A3.866,3.866,0,0,1,17.808-.3,4.936,4.936,0,0,1,15.6.2a4.587,4.587,0,0,1-3.574-1.44,5.7,5.7,0,0,1-1.309-3.979V-5.41a5.635,5.635,0,0,1,1.3-3.9,4.534,4.534,0,0,1,3.564-1.455,4.444,4.444,0,0,1,3.179,1.128,3.994,3.994,0,0,1,1.216,3H17.324a1.923,1.923,0,0,0-.508-1.333,1.7,1.7,0,0,0-1.289-.513,1.7,1.7,0,0,0-1.489.718,4.155,4.155,0,0,0-.5,2.329v.293a4.207,4.207,0,0,0,.5,2.344A1.722,1.722,0,0,0,15.547-2.08ZM24.561,0H21.729V-10.566h2.832Zm-3-13.3a1.39,1.39,0,0,1,.425-1.045,1.6,1.6,0,0,1,1.157-.41,1.6,1.6,0,0,1,1.152.41,1.382,1.382,0,0,1,.43,1.045,1.386,1.386,0,0,1-.435,1.055,1.6,1.6,0,0,1-1.147.41A1.6,1.6,0,0,1,22-12.246,1.386,1.386,0,0,1,21.563-13.3ZM33.008,0a3.134,3.134,0,0,1-.283-.947A3.415,3.415,0,0,1,30.059.2a3.752,3.752,0,0,1-2.573-.9,2.89,2.89,0,0,1-1.021-2.266A2.986,2.986,0,0,1,27.71-5.547a6.144,6.144,0,0,1,3.6-.908h1.3v-.605a1.741,1.741,0,0,0-.376-1.172,1.479,1.479,0,0,0-1.187-.439,1.682,1.682,0,0,0-1.118.342,1.161,1.161,0,0,0-.405.938H26.7a2.835,2.835,0,0,1,.566-1.7,3.744,3.744,0,0,1,1.6-1.226,5.837,5.837,0,0,1,2.324-.444,4.611,4.611,0,0,1,3.1.981,3.433,3.433,0,0,1,1.147,2.759v4.58a5.052,5.052,0,0,0,.42,2.275V0ZM30.674-1.963a2.431,2.431,0,0,0,1.152-.278,1.828,1.828,0,0,0,.781-.747V-4.8H31.553Q29.434-4.8,29.3-3.34l-.01.166a1.13,1.13,0,0,0,.371.869A1.441,1.441,0,0,0,30.674-1.963Zm11.475-3.4A6.368,6.368,0,0,1,43.257-9.3a3.6,3.6,0,0,1,3.032-1.465,3.236,3.236,0,0,1,2.549,1.152V-15H51.67V0H49.121l-.137-1.123A3.321,3.321,0,0,1,46.27.2a3.587,3.587,0,0,1-2.993-1.47A6.573,6.573,0,0,1,42.148-5.361Zm2.822.205a4.16,4.16,0,0,0,.518,2.275,1.687,1.687,0,0,0,1.5.791,1.889,1.889,0,0,0,1.846-1.1v-4.17a1.862,1.862,0,0,0-1.826-1.1Q44.971-8.467,44.971-5.156ZM58.721.2A5.187,5.187,0,0,1,54.937-1.23a5.068,5.068,0,0,1-1.46-3.8V-5.3a6.383,6.383,0,0,1,.615-2.847,4.515,4.515,0,0,1,1.743-1.934,4.893,4.893,0,0,1,2.573-.679,4.385,4.385,0,0,1,3.413,1.367,5.555,5.555,0,0,1,1.245,3.877v1.152H56.338a2.622,2.622,0,0,0,.825,1.66,2.5,2.5,0,0,0,1.743.625,3.046,3.046,0,0,0,2.549-1.182l1.387,1.553a4.237,4.237,0,0,1-1.719,1.4A5.639,5.639,0,0,1,58.721.2ZM58.4-8.477a1.767,1.767,0,0,0-1.362.566,2.926,2.926,0,0,0-.669,1.621h3.926v-.225a2.086,2.086,0,0,0-.508-1.45A1.824,1.824,0,0,0,58.4-8.477ZM-29.658,24h-2.93l-5.7-9.355V24h-2.93V9.781h2.93l5.713,9.375V9.781h2.92Zm7.236.2a5.187,5.187,0,0,1-3.784-1.426,5.068,5.068,0,0,1-1.46-3.8V18.7a6.383,6.383,0,0,1,.615-2.847,4.515,4.515,0,0,1,1.743-1.934,4.893,4.893,0,0,1,2.573-.679,4.385,4.385,0,0,1,3.413,1.367,5.555,5.555,0,0,1,1.245,3.877v1.152H-24.8a2.622,2.622,0,0,0,.825,1.66,2.5,2.5,0,0,0,1.743.625,3.046,3.046,0,0,0,2.549-1.182l1.387,1.553a4.237,4.237,0,0,1-1.719,1.4A5.639,5.639,0,0,1-22.422,24.2Zm-.322-8.672a1.767,1.767,0,0,0-1.362.566,2.926,2.926,0,0,0-.669,1.621h3.926v-.225a2.086,2.086,0,0,0-.508-1.45A1.824,1.824,0,0,0-22.744,15.523Zm5.859,3.115a6.193,6.193,0,0,1,1.157-3.916,3.75,3.75,0,0,1,3.12-1.484A3.289,3.289,0,0,1-9.9,14.43l.117-1h2.559V23.648a4.516,4.516,0,0,1-.63,2.412,4.045,4.045,0,0,1-1.772,1.563,6.231,6.231,0,0,1-2.676.537A5.794,5.794,0,0,1-14.57,27.7a4.021,4.021,0,0,1-1.67-1.2l1.25-1.719a3.306,3.306,0,0,0,2.559,1.182,2.42,2.42,0,0,0,1.748-.6,2.253,2.253,0,0,0,.625-1.7v-.566a3.264,3.264,0,0,1-2.568,1.1,3.74,3.74,0,0,1-3.081-1.489,6.191,6.191,0,0,1-1.177-3.95Zm2.822.205a3.846,3.846,0,0,0,.576,2.251,1.834,1.834,0,0,0,1.582.815,1.961,1.961,0,0,0,1.846-.967V16.5a1.956,1.956,0,0,0-1.826-.967,1.845,1.845,0,0,0-1.6.83A4.334,4.334,0,0,0-14.062,18.844Zm8.564-.225a6.266,6.266,0,0,1,.605-2.8,4.432,4.432,0,0,1,1.743-1.9,5.086,5.086,0,0,1,2.642-.674,4.812,4.812,0,0,1,3.491,1.309A5.252,5.252,0,0,1,4.492,18.1l.02.723a5.523,5.523,0,0,1-1.357,3.9A4.718,4.718,0,0,1-.488,24.2,4.742,4.742,0,0,1-4.136,22.73,5.62,5.62,0,0,1-5.5,18.746Zm2.822.205a3.939,3.939,0,0,0,.566,2.3,1.869,1.869,0,0,0,1.621.8,1.874,1.874,0,0,0,1.6-.786,4.31,4.31,0,0,0,.576-2.515,3.9,3.9,0,0,0-.576-2.285,1.874,1.874,0,0,0-1.621-.811,1.843,1.843,0,0,0-1.6.806A4.383,4.383,0,0,0-2.676,18.824Zm13.32,3.1a1.851,1.851,0,0,0,1.27-.43,1.506,1.506,0,0,0,.508-1.143h2.646a3.62,3.62,0,0,1-.586,1.968A3.866,3.866,0,0,1,12.905,23.7a4.936,4.936,0,0,1-2.212.493,4.587,4.587,0,0,1-3.574-1.44,5.7,5.7,0,0,1-1.309-3.979V18.59a5.635,5.635,0,0,1,1.3-3.9,4.534,4.534,0,0,1,3.564-1.455,4.444,4.444,0,0,1,3.179,1.128,3.994,3.994,0,0,1,1.216,3H12.422a1.923,1.923,0,0,0-.508-1.333,1.7,1.7,0,0,0-1.289-.513,1.7,1.7,0,0,0-1.489.718,4.155,4.155,0,0,0-.5,2.329v.293a4.207,4.207,0,0,0,.5,2.344A1.722,1.722,0,0,0,10.645,21.92ZM19.658,24H16.826V13.434h2.832Zm-3-13.3a1.39,1.39,0,0,1,.425-1.045,1.831,1.831,0,0,1,2.31,0,1.491,1.491,0,0,1,0,2.1,1.81,1.81,0,0,1-2.295,0A1.386,1.386,0,0,1,16.66,10.7Zm4.883,7.92a6.266,6.266,0,0,1,.605-2.8,4.432,4.432,0,0,1,1.743-1.9,5.086,5.086,0,0,1,2.642-.674,4.812,4.812,0,0,1,3.491,1.309A5.252,5.252,0,0,1,31.533,18.1l.02.723a5.523,5.523,0,0,1-1.357,3.9,4.718,4.718,0,0,1-3.643,1.47,4.742,4.742,0,0,1-3.647-1.465,5.62,5.62,0,0,1-1.362-3.984Zm2.822.205a3.939,3.939,0,0,0,.566,2.3,2.037,2.037,0,0,0,3.223.01,4.31,4.31,0,0,0,.576-2.515,3.9,3.9,0,0,0-.576-2.285,1.874,1.874,0,0,0-1.621-.811,1.843,1.843,0,0,0-1.6.806A4.383,4.383,0,0,0,24.365,18.824ZM39.014,21.08a.909.909,0,0,0-.513-.815,5.824,5.824,0,0,0-1.646-.532q-3.77-.791-3.77-3.2a2.9,2.9,0,0,1,1.167-2.349,4.707,4.707,0,0,1,3.052-.942,5.067,5.067,0,0,1,3.218.947,2.985,2.985,0,0,1,1.206,2.461H38.906a1.366,1.366,0,0,0-.391-1,1.653,1.653,0,0,0-1.221-.4,1.689,1.689,0,0,0-1.1.322,1.017,1.017,0,0,0-.391.82.87.87,0,0,0,.444.757,4.571,4.571,0,0,0,1.5.5,12.244,12.244,0,0,1,1.777.474,2.92,2.92,0,0,1,2.236,2.842,2.756,2.756,0,0,1-1.24,2.339,5.35,5.35,0,0,1-3.2.894,5.588,5.588,0,0,1-2.358-.474,3.957,3.957,0,0,1-1.616-1.3,3.018,3.018,0,0,1-.586-1.782H35.43a1.473,1.473,0,0,0,.557,1.152,2.208,2.208,0,0,0,1.387.4,2.044,2.044,0,0,0,1.226-.308A.957.957,0,0,0,39.014,21.08Z" transform="translate(800 3183.016)" fill="#12263f"/>
    <path id="Trazado_601643" data-name="Trazado 601643" d="M9.824-5.811H4.2V0H1.27V-14.219h9.258v2.373H4.2v3.672H9.824ZM15.02,0H12.188V-10.566H15.02Zm-3-13.3a1.39,1.39,0,0,1,.425-1.045,1.6,1.6,0,0,1,1.157-.41,1.6,1.6,0,0,1,1.152.41,1.382,1.382,0,0,1,.43,1.045,1.386,1.386,0,0,1-.435,1.055,1.6,1.6,0,0,1-1.147.41,1.6,1.6,0,0,1-1.147-.41A1.386,1.386,0,0,1,12.021-13.3Zm7.92,2.734.088,1.221a3.689,3.689,0,0,1,3.037-1.416,3.066,3.066,0,0,1,2.5.986,4.6,4.6,0,0,1,.84,2.949V0H23.584V-6.758a1.831,1.831,0,0,0-.391-1.3,1.749,1.749,0,0,0-1.3-.405,1.942,1.942,0,0,0-1.787,1.016V0H17.285V-10.566ZM34.668,0a3.134,3.134,0,0,1-.283-.947A3.415,3.415,0,0,1,31.719.2a3.752,3.752,0,0,1-2.573-.9,2.89,2.89,0,0,1-1.021-2.266A2.986,2.986,0,0,1,29.37-5.547a6.144,6.144,0,0,1,3.6-.908h1.3v-.605a1.741,1.741,0,0,0-.376-1.172,1.479,1.479,0,0,0-1.187-.439,1.682,1.682,0,0,0-1.118.342,1.161,1.161,0,0,0-.405.938H28.359a2.835,2.835,0,0,1,.566-1.7,3.744,3.744,0,0,1,1.6-1.226,5.837,5.837,0,0,1,2.324-.444,4.611,4.611,0,0,1,3.1.981A3.433,3.433,0,0,1,37.1-7.021v4.58a5.052,5.052,0,0,0,.42,2.275V0ZM32.334-1.963a2.431,2.431,0,0,0,1.152-.278,1.828,1.828,0,0,0,.781-.747V-4.8H33.213q-2.119,0-2.256,1.465l-.01.166a1.13,1.13,0,0,0,.371.869A1.441,1.441,0,0,0,32.334-1.963Zm9.531-8.6.088,1.221a3.689,3.689,0,0,1,3.037-1.416,3.066,3.066,0,0,1,2.5.986,4.6,4.6,0,0,1,.84,2.949V0H45.508V-6.758a1.831,1.831,0,0,0-.391-1.3,1.749,1.749,0,0,0-1.3-.405,1.942,1.942,0,0,0-1.787,1.016V0H39.209V-10.566Zm13,8.486a1.851,1.851,0,0,0,1.27-.43,1.506,1.506,0,0,0,.508-1.143h2.646A3.62,3.62,0,0,1,58.7-1.685,3.866,3.866,0,0,1,57.124-.3,4.936,4.936,0,0,1,54.912.2a4.587,4.587,0,0,1-3.574-1.44,5.7,5.7,0,0,1-1.309-3.979V-5.41a5.635,5.635,0,0,1,1.3-3.9,4.534,4.534,0,0,1,3.564-1.455,4.444,4.444,0,0,1,3.179,1.128,3.994,3.994,0,0,1,1.216,3H56.641a1.923,1.923,0,0,0-.508-1.333,1.7,1.7,0,0,0-1.289-.513,1.7,1.7,0,0,0-1.489.718,4.155,4.155,0,0,0-.5,2.329v.293a4.207,4.207,0,0,0,.5,2.344A1.722,1.722,0,0,0,54.863-2.08ZM63.877,0H61.045V-10.566h2.832Zm-3-13.3a1.39,1.39,0,0,1,.425-1.045,1.6,1.6,0,0,1,1.157-.41,1.6,1.6,0,0,1,1.152.41,1.382,1.382,0,0,1,.43,1.045,1.386,1.386,0,0,1-.435,1.055,1.6,1.6,0,0,1-1.147.41,1.6,1.6,0,0,1-1.147-.41A1.386,1.386,0,0,1,60.879-13.3ZM71.064.2A5.187,5.187,0,0,1,67.28-1.23a5.068,5.068,0,0,1-1.46-3.8V-5.3a6.383,6.383,0,0,1,.615-2.847,4.515,4.515,0,0,1,1.743-1.934,4.893,4.893,0,0,1,2.573-.679,4.385,4.385,0,0,1,3.413,1.367A5.555,5.555,0,0,1,75.41-5.518v1.152H68.682a2.622,2.622,0,0,0,.825,1.66,2.5,2.5,0,0,0,1.743.625A3.046,3.046,0,0,0,73.8-3.262l1.387,1.553a4.237,4.237,0,0,1-1.719,1.4A5.639,5.639,0,0,1,71.064.2Zm-.322-8.672a1.767,1.767,0,0,0-1.362.566,2.926,2.926,0,0,0-.669,1.621h3.926v-.225a2.086,2.086,0,0,0-.508-1.45A1.824,1.824,0,0,0,70.742-8.477Zm12.207.557A7.667,7.667,0,0,0,81.934-8a2.067,2.067,0,0,0-2.1,1.084V0H77.012V-10.566h2.666l.078,1.26a2.615,2.615,0,0,1,2.354-1.455,2.957,2.957,0,0,1,.879.127Zm.566,2.539a6.266,6.266,0,0,1,.605-2.8,4.432,4.432,0,0,1,1.743-1.9,5.086,5.086,0,0,1,2.642-.674A4.812,4.812,0,0,1,92-9.453,5.252,5.252,0,0,1,93.506-5.9l.02.723a5.523,5.523,0,0,1-1.357,3.9A4.718,4.718,0,0,1,88.525.2,4.742,4.742,0,0,1,84.878-1.27a5.62,5.62,0,0,1-1.362-3.984Zm2.822.205a3.939,3.939,0,0,0,.566,2.3,1.869,1.869,0,0,0,1.621.8,1.874,1.874,0,0,0,1.6-.786A4.31,4.31,0,0,0,90.7-5.381a3.9,3.9,0,0,0-.576-2.285,1.874,1.874,0,0,0-1.621-.811,1.843,1.843,0,0,0-1.6.806A4.383,4.383,0,0,0,86.338-5.176Z" transform="translate(355 3215.016)" fill="#12263f"/>
    <path id="Trazado_601652" data-name="Trazado 601652" d="M6.523-3.525,9.746-14.219h3.262L8.057,0H5L.068-14.219H3.32ZM19.023.2A5.187,5.187,0,0,1,15.239-1.23a5.068,5.068,0,0,1-1.46-3.8V-5.3a6.383,6.383,0,0,1,.615-2.847,4.515,4.515,0,0,1,1.743-1.934,4.893,4.893,0,0,1,2.573-.679,4.385,4.385,0,0,1,3.413,1.367,5.555,5.555,0,0,1,1.245,3.877v1.152H16.641a2.622,2.622,0,0,0,.825,1.66,2.5,2.5,0,0,0,1.743.625,3.046,3.046,0,0,0,2.549-1.182l1.387,1.553a4.237,4.237,0,0,1-1.719,1.4A5.639,5.639,0,0,1,19.023.2ZM18.7-8.477a1.767,1.767,0,0,0-1.362.566,2.926,2.926,0,0,0-.669,1.621H20.6v-.225a2.086,2.086,0,0,0-.508-1.45A1.824,1.824,0,0,0,18.7-8.477Zm8.867-2.09.088,1.221a3.689,3.689,0,0,1,3.037-1.416,3.066,3.066,0,0,1,2.5.986,4.6,4.6,0,0,1,.84,2.949V0H31.211V-6.758a1.831,1.831,0,0,0-.391-1.3,1.749,1.749,0,0,0-1.3-.405,1.942,1.942,0,0,0-1.787,1.016V0H24.912V-10.566Zm11.982-2.6v2.6h1.807V-8.5H39.551v5.273a1.259,1.259,0,0,0,.225.84,1.128,1.128,0,0,0,.859.254,4.5,4.5,0,0,0,.83-.068V-.059A5.81,5.81,0,0,1,39.756.2q-2.969,0-3.027-3V-8.5H35.186v-2.07h1.543v-2.6ZM49.053,0a3.134,3.134,0,0,1-.283-.947A3.415,3.415,0,0,1,46.1.2,3.752,3.752,0,0,1,43.53-.7,2.89,2.89,0,0,1,42.51-2.969a2.986,2.986,0,0,1,1.245-2.578,6.144,6.144,0,0,1,3.6-.908h1.3v-.605a1.741,1.741,0,0,0-.376-1.172,1.479,1.479,0,0,0-1.187-.439,1.682,1.682,0,0,0-1.118.342,1.161,1.161,0,0,0-.405.938H42.744a2.835,2.835,0,0,1,.566-1.7,3.744,3.744,0,0,1,1.6-1.226,5.837,5.837,0,0,1,2.324-.444,4.611,4.611,0,0,1,3.1.981,3.433,3.433,0,0,1,1.147,2.759v4.58A5.052,5.052,0,0,0,51.9-.166V0ZM46.719-1.963a2.431,2.431,0,0,0,1.152-.278,1.828,1.828,0,0,0,.781-.747V-4.8H47.6q-2.119,0-2.256,1.465l-.01.166A1.13,1.13,0,0,0,45.7-2.3,1.441,1.441,0,0,0,46.719-1.963ZM59.375-2.92a.909.909,0,0,0-.513-.815,5.824,5.824,0,0,0-1.646-.532q-3.77-.791-3.77-3.2a2.9,2.9,0,0,1,1.167-2.349,4.707,4.707,0,0,1,3.052-.942,5.067,5.067,0,0,1,3.218.947A2.985,2.985,0,0,1,62.09-7.354H59.268a1.366,1.366,0,0,0-.391-1,1.653,1.653,0,0,0-1.221-.4,1.689,1.689,0,0,0-1.1.322,1.017,1.017,0,0,0-.391.82.87.87,0,0,0,.444.757,4.571,4.571,0,0,0,1.5.5,12.244,12.244,0,0,1,1.777.474,2.92,2.92,0,0,1,2.236,2.842A2.756,2.756,0,0,1,60.879-.7a5.35,5.35,0,0,1-3.2.894,5.588,5.588,0,0,1-2.358-.474,3.957,3.957,0,0,1-1.616-1.3,3.018,3.018,0,0,1-.586-1.782h2.676a1.473,1.473,0,0,0,.557,1.152,2.208,2.208,0,0,0,1.387.4,2.044,2.044,0,0,0,1.226-.308A.957.957,0,0,0,59.375-2.92Z" transform="translate(538 3053.016)" fill="#fff"/>
    <path id="Trazado_601649" data-name="Trazado 601649" d="M12.432-4.736a5.031,5.031,0,0,1-1.694,3.613A5.951,5.951,0,0,1,6.709.2a5.351,5.351,0,0,1-4.3-1.841A7.548,7.548,0,0,1,.84-6.7v-.869a8.523,8.523,0,0,1,.723-3.613,5.416,5.416,0,0,1,2.065-2.4,5.786,5.786,0,0,1,3.12-.835A5.8,5.8,0,0,1,10.713-13.1a5.407,5.407,0,0,1,1.738,3.7H9.521a2.97,2.97,0,0,0-.767-2,2.839,2.839,0,0,0-2.007-.62,2.489,2.489,0,0,0-2.192,1.05,5.883,5.883,0,0,0-.747,3.257v1.074a6.3,6.3,0,0,0,.7,3.369A2.443,2.443,0,0,0,6.709-2.2a2.892,2.892,0,0,0,2.026-.62A2.8,2.8,0,0,0,9.5-4.736Zm1.3-.645a6.267,6.267,0,0,1,.605-2.8,4.432,4.432,0,0,1,1.743-1.9,5.086,5.086,0,0,1,2.642-.674,4.812,4.812,0,0,1,3.491,1.309A5.252,5.252,0,0,1,23.721-5.9l.02.723a5.523,5.523,0,0,1-1.357,3.9A4.718,4.718,0,0,1,18.74.2,4.742,4.742,0,0,1,15.093-1.27,5.62,5.62,0,0,1,13.73-5.254Zm2.822.205a3.939,3.939,0,0,0,.566,2.3,1.869,1.869,0,0,0,1.621.8,1.874,1.874,0,0,0,1.6-.786,4.31,4.31,0,0,0,.576-2.515,3.9,3.9,0,0,0-.576-2.285,1.874,1.874,0,0,0-1.621-.811,1.843,1.843,0,0,0-1.6.806A4.383,4.383,0,0,0,16.553-5.176Zm11.572-5.391.088,1.182a3.713,3.713,0,0,1,3.037-1.377,2.818,2.818,0,0,1,2.8,1.611,3.628,3.628,0,0,1,3.174-1.611,3.152,3.152,0,0,1,2.559,1,4.6,4.6,0,0,1,.84,3.013V0H37.793V-6.738a2.012,2.012,0,0,0-.352-1.313,1.558,1.558,0,0,0-1.24-.415,1.761,1.761,0,0,0-1.758,1.211L34.453,0H31.631V-6.729a1.988,1.988,0,0,0-.361-1.328,1.573,1.573,0,0,0-1.23-.41,1.829,1.829,0,0,0-1.738,1V0H25.479V-10.566ZM52.3-5.186A6.337,6.337,0,0,1,51.2-1.274,3.554,3.554,0,0,1,48.2.2,3.292,3.292,0,0,1,45.615-.918v4.98H42.793V-10.566H45.41l.1,1.035a3.317,3.317,0,0,1,2.676-1.23,3.578,3.578,0,0,1,3.037,1.445A6.509,6.509,0,0,1,52.3-5.332Zm-2.822-.205a4.159,4.159,0,0,0-.522-2.275,1.7,1.7,0,0,0-1.519-.8,1.848,1.848,0,0,0-1.826,1.016v4.326A1.879,1.879,0,0,0,47.461-2.08Q49.482-2.08,49.482-5.391ZM59.99-7.92A7.667,7.667,0,0,0,58.975-8a2.067,2.067,0,0,0-2.1,1.084V0H54.053V-10.566h2.666l.078,1.26a2.615,2.615,0,0,1,2.354-1.455,2.957,2.957,0,0,1,.879.127ZM67.178,0a3.134,3.134,0,0,1-.283-.947A3.415,3.415,0,0,1,64.229.2a3.752,3.752,0,0,1-2.573-.9,2.89,2.89,0,0,1-1.021-2.266A2.986,2.986,0,0,1,61.88-5.547a6.144,6.144,0,0,1,3.6-.908h1.3v-.605A1.741,1.741,0,0,0,66.4-8.232a1.479,1.479,0,0,0-1.187-.439A1.682,1.682,0,0,0,64.1-8.33a1.161,1.161,0,0,0-.405.938H60.869a2.835,2.835,0,0,1,.566-1.7,3.744,3.744,0,0,1,1.6-1.226,5.837,5.837,0,0,1,2.324-.444,4.611,4.611,0,0,1,3.1.981,3.433,3.433,0,0,1,1.147,2.759v4.58a5.052,5.052,0,0,0,.42,2.275V0ZM64.844-1.963A2.431,2.431,0,0,0,66-2.241a1.828,1.828,0,0,0,.781-.747V-4.8H65.723Q63.6-4.8,63.467-3.34l-.01.166a1.13,1.13,0,0,0,.371.869A1.441,1.441,0,0,0,64.844-1.963ZM77.5-2.92a.909.909,0,0,0-.513-.815,5.824,5.824,0,0,0-1.646-.532q-3.77-.791-3.77-3.2a2.9,2.9,0,0,1,1.167-2.349,4.707,4.707,0,0,1,3.052-.942,5.067,5.067,0,0,1,3.218.947,2.985,2.985,0,0,1,1.206,2.461H77.393a1.366,1.366,0,0,0-.391-1,1.653,1.653,0,0,0-1.221-.4,1.689,1.689,0,0,0-1.1.322,1.017,1.017,0,0,0-.391.82.87.87,0,0,0,.444.757,4.571,4.571,0,0,0,1.5.5,12.244,12.244,0,0,1,1.777.474,2.92,2.92,0,0,1,2.236,2.842A2.756,2.756,0,0,1,79-.7,5.35,5.35,0,0,1,75.8.2a5.588,5.588,0,0,1-2.358-.474,3.957,3.957,0,0,1-1.616-1.3,3.018,3.018,0,0,1-.586-1.782h2.676a1.473,1.473,0,0,0,.557,1.152,2.208,2.208,0,0,0,1.387.4,2.044,2.044,0,0,0,1.226-.308A.957.957,0,0,0,77.5-2.92Z" transform="translate(760 2996.016)" fill="#12263f"/>
    <path id="Trazado_601648" data-name="Trazado 601648" d="M11.973-11.846H7.617V0H4.688V-11.846H.391v-2.373H11.973ZM17.939,0a3.134,3.134,0,0,1-.283-.947A3.415,3.415,0,0,1,14.99.2a3.752,3.752,0,0,1-2.573-.9A2.89,2.89,0,0,1,11.4-2.969a2.986,2.986,0,0,1,1.245-2.578,6.144,6.144,0,0,1,3.6-.908h1.3v-.605a1.741,1.741,0,0,0-.376-1.172,1.479,1.479,0,0,0-1.187-.439,1.682,1.682,0,0,0-1.118.342,1.161,1.161,0,0,0-.405.938H11.631a2.835,2.835,0,0,1,.566-1.7,3.744,3.744,0,0,1,1.6-1.226,5.837,5.837,0,0,1,2.324-.444,4.611,4.611,0,0,1,3.1.981,3.433,3.433,0,0,1,1.147,2.759v4.58a5.052,5.052,0,0,0,.42,2.275V0ZM15.605-1.963a2.431,2.431,0,0,0,1.152-.278,1.828,1.828,0,0,0,.781-.747V-4.8H16.484q-2.119,0-2.256,1.465l-.01.166a1.13,1.13,0,0,0,.371.869A1.441,1.441,0,0,0,15.605-1.963ZM25.518,0H22.686V-15h2.832Zm7.188.2A5.187,5.187,0,0,1,28.921-1.23a5.068,5.068,0,0,1-1.46-3.8V-5.3a6.383,6.383,0,0,1,.615-2.847,4.515,4.515,0,0,1,1.743-1.934,4.893,4.893,0,0,1,2.573-.679,4.385,4.385,0,0,1,3.413,1.367,5.555,5.555,0,0,1,1.245,3.877v1.152H30.322a2.622,2.622,0,0,0,.825,1.66,2.5,2.5,0,0,0,1.743.625,3.046,3.046,0,0,0,2.549-1.182l1.387,1.553a4.237,4.237,0,0,1-1.719,1.4A5.639,5.639,0,0,1,32.705.2Zm-.322-8.672a1.767,1.767,0,0,0-1.362.566,2.926,2.926,0,0,0-.669,1.621h3.926v-.225a2.086,2.086,0,0,0-.508-1.45A1.824,1.824,0,0,0,32.383-8.477Zm8.867-2.09.088,1.221a3.689,3.689,0,0,1,3.037-1.416,3.066,3.066,0,0,1,2.5.986,4.6,4.6,0,0,1,.84,2.949V0H44.893V-6.758a1.831,1.831,0,0,0-.391-1.3,1.749,1.749,0,0,0-1.3-.405,1.942,1.942,0,0,0-1.787,1.016V0H38.594V-10.566Zm11.982-2.6v2.6h1.807V-8.5H53.232v5.273a1.259,1.259,0,0,0,.225.84,1.128,1.128,0,0,0,.859.254,4.5,4.5,0,0,0,.83-.068V-.059A5.81,5.81,0,0,1,53.438.2q-2.969,0-3.027-3V-8.5H48.867v-2.07H50.41v-2.6Zm2.646,7.783a6.267,6.267,0,0,1,.605-2.8,4.432,4.432,0,0,1,1.743-1.9,5.086,5.086,0,0,1,2.642-.674A4.812,4.812,0,0,1,64.36-9.453,5.252,5.252,0,0,1,65.869-5.9l.02.723a5.523,5.523,0,0,1-1.357,3.9A4.718,4.718,0,0,1,60.889.2,4.742,4.742,0,0,1,57.241-1.27a5.62,5.62,0,0,1-1.362-3.984Zm2.822.205a3.939,3.939,0,0,0,.566,2.3,1.869,1.869,0,0,0,1.621.8,1.874,1.874,0,0,0,1.6-.786,4.31,4.31,0,0,0,.576-2.515,3.9,3.9,0,0,0-.576-2.285,1.874,1.874,0,0,0-1.621-.811,1.843,1.843,0,0,0-1.6.806A4.383,4.383,0,0,0,58.7-5.176Z" transform="translate(1000 3053.016)" fill="#fff"/>
    <path id="Trazado_601645" data-name="Trazado 601645" d="M4.2-5.01V0H1.27V-14.219H6.816a6.417,6.417,0,0,1,2.817.586,4.318,4.318,0,0,1,1.87,1.665,4.643,4.643,0,0,1,.654,2.456,4.083,4.083,0,0,1-1.431,3.3A5.959,5.959,0,0,1,6.768-5.01Zm0-2.373H6.816A2.573,2.573,0,0,0,8.589-7.93,1.989,1.989,0,0,0,9.2-9.492a2.345,2.345,0,0,0-.615-1.689,2.3,2.3,0,0,0-1.7-.664H4.2ZM19.922-7.92A7.667,7.667,0,0,0,18.906-8a2.067,2.067,0,0,0-2.1,1.084V0H13.984V-10.566H16.65l.078,1.26a2.615,2.615,0,0,1,2.354-1.455,2.957,2.957,0,0,1,.879.127Zm.566,2.539a6.266,6.266,0,0,1,.605-2.8,4.432,4.432,0,0,1,1.743-1.9,5.086,5.086,0,0,1,2.642-.674A4.812,4.812,0,0,1,28.97-9.453,5.252,5.252,0,0,1,30.479-5.9l.02.723a5.523,5.523,0,0,1-1.357,3.9A4.718,4.718,0,0,1,25.5.2,4.742,4.742,0,0,1,21.851-1.27a5.62,5.62,0,0,1-1.362-3.984Zm2.822.205a3.939,3.939,0,0,0,.566,2.3,1.869,1.869,0,0,0,1.621.8,1.874,1.874,0,0,0,1.6-.786,4.31,4.31,0,0,0,.576-2.515A3.9,3.9,0,0,0,27.1-7.666a1.874,1.874,0,0,0-1.621-.811,1.843,1.843,0,0,0-1.6.806A4.383,4.383,0,0,0,23.311-5.176ZM31.8-5.361A6.368,6.368,0,0,1,32.905-9.3a3.6,3.6,0,0,1,3.032-1.465,3.236,3.236,0,0,1,2.549,1.152V-15h2.832V0H38.77l-.137-1.123A3.321,3.321,0,0,1,35.918.2a3.587,3.587,0,0,1-2.993-1.47A6.573,6.573,0,0,1,31.8-5.361Zm2.822.205a4.16,4.16,0,0,0,.518,2.275,1.687,1.687,0,0,0,1.5.791,1.889,1.889,0,0,0,1.846-1.1v-4.17a1.862,1.862,0,0,0-1.826-1.1Q34.619-8.467,34.619-5.156ZM49.834-1.074A3.539,3.539,0,0,1,46.943.2a3.338,3.338,0,0,1-2.593-.977,4.169,4.169,0,0,1-.913-2.861v-6.924H46.26V-3.74q0,1.65,1.5,1.65a2.038,2.038,0,0,0,1.973-1v-7.48h2.832V0H49.912ZM59.092-2.08a1.851,1.851,0,0,0,1.27-.43,1.506,1.506,0,0,0,.508-1.143h2.646a3.62,3.62,0,0,1-.586,1.968A3.866,3.866,0,0,1,61.353-.3,4.936,4.936,0,0,1,59.141.2a4.587,4.587,0,0,1-3.574-1.44,5.7,5.7,0,0,1-1.309-3.979V-5.41a5.635,5.635,0,0,1,1.3-3.9,4.534,4.534,0,0,1,3.564-1.455A4.444,4.444,0,0,1,62.3-9.634a3.994,3.994,0,0,1,1.216,3H60.869a1.923,1.923,0,0,0-.508-1.333,1.7,1.7,0,0,0-1.289-.513,1.7,1.7,0,0,0-1.489.718,4.155,4.155,0,0,0-.5,2.329v.293a4.207,4.207,0,0,0,.5,2.344A1.722,1.722,0,0,0,59.092-2.08Zm10.43,0a1.851,1.851,0,0,0,1.27-.43A1.506,1.506,0,0,0,71.3-3.652h2.646a3.62,3.62,0,0,1-.586,1.968A3.866,3.866,0,0,1,71.782-.3,4.936,4.936,0,0,1,69.57.2,4.587,4.587,0,0,1,66-1.245a5.7,5.7,0,0,1-1.309-3.979V-5.41a5.635,5.635,0,0,1,1.3-3.9,4.534,4.534,0,0,1,3.564-1.455,4.444,4.444,0,0,1,3.179,1.128,3.994,3.994,0,0,1,1.216,3H71.3a1.923,1.923,0,0,0-.508-1.333A1.7,1.7,0,0,0,69.5-8.477a1.7,1.7,0,0,0-1.489.718,4.155,4.155,0,0,0-.5,2.329v.293a4.207,4.207,0,0,0,.5,2.344A1.722,1.722,0,0,0,69.521-2.08ZM78.535,0H75.7V-10.566h2.832Zm-3-13.3a1.39,1.39,0,0,1,.425-1.045,1.6,1.6,0,0,1,1.157-.41,1.6,1.6,0,0,1,1.152.41A1.382,1.382,0,0,1,78.7-13.3a1.386,1.386,0,0,1-.435,1.055,1.6,1.6,0,0,1-1.147.41,1.6,1.6,0,0,1-1.147-.41A1.386,1.386,0,0,1,75.537-13.3Zm4.883,7.92a6.266,6.266,0,0,1,.605-2.8,4.432,4.432,0,0,1,1.743-1.9,5.086,5.086,0,0,1,2.642-.674A4.812,4.812,0,0,1,88.9-9.453,5.252,5.252,0,0,1,90.41-5.9l.02.723a5.523,5.523,0,0,1-1.357,3.9A4.718,4.718,0,0,1,85.43.2,4.742,4.742,0,0,1,81.782-1.27,5.62,5.62,0,0,1,80.42-5.254Zm2.822.205a3.939,3.939,0,0,0,.566,2.3,1.869,1.869,0,0,0,1.621.8,1.874,1.874,0,0,0,1.6-.786,4.31,4.31,0,0,0,.576-2.515,3.9,3.9,0,0,0-.576-2.285,1.874,1.874,0,0,0-1.621-.811,1.843,1.843,0,0,0-1.6.806A4.383,4.383,0,0,0,83.242-5.176ZM85.967-15h3.076l-2.705,3.027H84.043Zm8.8,4.434.088,1.221a3.689,3.689,0,0,1,3.037-1.416,3.066,3.066,0,0,1,2.5.986,4.6,4.6,0,0,1,.84,2.949V0H98.408V-6.758a1.831,1.831,0,0,0-.391-1.3,1.749,1.749,0,0,0-1.3-.405,1.942,1.942,0,0,0-1.787,1.016V0H92.109V-10.566Z" transform="translate(1151 3215.016)" fill="#12263f"/>
    <path id="Trazado_600887" data-name="Trazado 600887" d="M-1627-8698.567V-8584.1" transform="translate(2029 11764.563)" fill="none" stroke="#083142" stroke-width="2" stroke-dasharray="6"/>
    <path id="Trazado_601653" data-name="Trazado 601653" d="M-35.148-3.609A4.185,4.185,0,0,1-36.48-.824a4.365,4.365,0,0,1-2.98.98,4.008,4.008,0,0,1-3.23-1.445,5.815,5.815,0,0,1-1.215-3.867V-6.25a6.481,6.481,0,0,1,.566-2.789,4.231,4.231,0,0,1,1.605-1.848,4.47,4.47,0,0,1,2.406-.645,4.11,4.11,0,0,1,2.906,1.012,4.235,4.235,0,0,1,1.273,2.8h-1.508A3.254,3.254,0,0,0-37.5-9.687a2.569,2.569,0,0,0-1.824-.609,2.685,2.685,0,0,0-2.254,1.063A4.875,4.875,0,0,0-42.4-6.211v1.1a5.011,5.011,0,0,0,.773,2.945A2.5,2.5,0,0,0-39.461-1.07a2.887,2.887,0,0,0,1.918-.566,3.143,3.143,0,0,0,.887-1.973Zm1.438-.7a4.993,4.993,0,0,1,.488-2.234A3.643,3.643,0,0,1-31.863-8.07a3.7,3.7,0,0,1,1.988-.539,3.565,3.565,0,0,1,2.793,1.2,4.6,4.6,0,0,1,1.066,3.18v.1a5.036,5.036,0,0,1-.473,2.215A3.589,3.589,0,0,1-27.84-.391a3.743,3.743,0,0,1-2.02.547,3.556,3.556,0,0,1-2.785-1.2A4.575,4.575,0,0,1-33.711-4.2Zm1.453.172a3.616,3.616,0,0,0,.652,2.258,2.088,2.088,0,0,0,1.746.852,2.075,2.075,0,0,0,1.75-.863A3.955,3.955,0,0,0-27.461-4.3a3.61,3.61,0,0,0-.66-2.254,2.1,2.1,0,0,0-1.754-.863A2.075,2.075,0,0,0-31.6-6.57,3.925,3.925,0,0,0-32.258-4.133Zm9.422-4.32.047,1.063a3.08,3.08,0,0,1,2.531-1.219q2.68,0,2.7,3.023V0H-19V-5.594a1.946,1.946,0,0,0-.418-1.352A1.675,1.675,0,0,0-20.7-7.383a2.086,2.086,0,0,0-1.234.375,2.546,2.546,0,0,0-.828.984V0H-24.2V-8.453Zm9.422-2.047v2.047h1.578v1.117h-1.578v5.242a1.171,1.171,0,0,0,.211.762.888.888,0,0,0,.719.254,3.5,3.5,0,0,0,.688-.094V0a4.19,4.19,0,0,1-1.109.156A1.8,1.8,0,0,1-14.367-.43a2.517,2.517,0,0,1-.492-1.664V-7.336H-16.4V-8.453h1.539V-10.5ZM-4.93,0a3.036,3.036,0,0,1-.2-.891A3.225,3.225,0,0,1-7.539.156,2.984,2.984,0,0,1-9.59-.551a2.287,2.287,0,0,1-.8-1.793,2.39,2.39,0,0,1,1-2.051,4.733,4.733,0,0,1,2.824-.73h1.406v-.664A1.623,1.623,0,0,0-5.609-7a1.821,1.821,0,0,0-1.336-.449,2.107,2.107,0,0,0-1.3.391,1.151,1.151,0,0,0-.523.945h-1.453A2,2,0,0,1-9.77-7.332a3.066,3.066,0,0,1,1.219-.934,4.1,4.1,0,0,1,1.691-.344,3.342,3.342,0,0,1,2.289.73,2.635,2.635,0,0,1,.859,2.012v3.891a4.757,4.757,0,0,0,.3,1.852V0Zm-2.4-1.1a2.54,2.54,0,0,0,1.289-.352,2.127,2.127,0,0,0,.883-.914V-4.1H-6.289q-2.656,0-2.656,1.555a1.316,1.316,0,0,0,.453,1.063A1.742,1.742,0,0,0-7.328-1.1ZM5.711-4.133A5.026,5.026,0,0,1,4.82-1.02,2.846,2.846,0,0,1,2.43.156,2.947,2.947,0,0,1-.047-.977L-.117,0H-1.445V-12H0v4.477A2.93,2.93,0,0,1,2.414-8.609,2.863,2.863,0,0,1,4.832-7.445a5.177,5.177,0,0,1,.879,3.188ZM4.266-4.3A3.906,3.906,0,0,0,3.7-6.578a1.888,1.888,0,0,0-1.641-.8A2.122,2.122,0,0,0,0-6.055V-2.4A2.181,2.181,0,0,0,2.07-1.07a1.878,1.878,0,0,0,1.617-.8A4.153,4.153,0,0,0,4.266-4.3ZM9.1,0H7.656V-8.453H9.1ZM7.539-10.7a.863.863,0,0,1,.215-.594.807.807,0,0,1,.637-.242.819.819,0,0,1,.641.242.854.854,0,0,1,.219.594.826.826,0,0,1-.219.586.834.834,0,0,1-.641.234.821.821,0,0,1-.637-.234A.834.834,0,0,1,7.539-10.7ZM12.984,0H11.539V-12h1.445Zm3.883,0H15.422V-8.453h1.445ZM15.3-10.7a.863.863,0,0,1,.215-.594.807.807,0,0,1,.637-.242.819.819,0,0,1,.641.242.854.854,0,0,1,.219.594.826.826,0,0,1-.219.586.834.834,0,0,1-.641.234.821.821,0,0,1-.637-.234A.834.834,0,0,1,15.3-10.7Zm3.523,6.4a4.952,4.952,0,0,1,.922-3.129,2.915,2.915,0,0,1,2.414-1.184,2.932,2.932,0,0,1,2.352,1.016V-12h1.445V0H24.633l-.07-.906A2.943,2.943,0,0,1,22.148.156a2.887,2.887,0,0,1-2.395-1.2,5.008,5.008,0,0,1-.926-3.141Zm1.445.164a3.749,3.749,0,0,0,.594,2.25,1.92,1.92,0,0,0,1.641.813A2.108,2.108,0,0,0,24.516-2.3V-6.187a2.125,2.125,0,0,0-1.992-1.2,1.929,1.929,0,0,0-1.656.82A4.128,4.128,0,0,0,20.273-4.133ZM33.422,0a3.036,3.036,0,0,1-.2-.891A3.225,3.225,0,0,1,30.813.156a2.984,2.984,0,0,1-2.051-.707,2.287,2.287,0,0,1-.8-1.793,2.39,2.39,0,0,1,1-2.051,4.733,4.733,0,0,1,2.824-.73H33.2v-.664A1.623,1.623,0,0,0,32.742-7a1.821,1.821,0,0,0-1.336-.449,2.108,2.108,0,0,0-1.3.391,1.151,1.151,0,0,0-.523.945H28.133a2,2,0,0,1,.449-1.223A3.066,3.066,0,0,1,29.8-8.266a4.1,4.1,0,0,1,1.691-.344,3.342,3.342,0,0,1,2.289.73,2.635,2.635,0,0,1,.859,2.012v3.891a4.757,4.757,0,0,0,.3,1.852V0Zm-2.4-1.1a2.54,2.54,0,0,0,1.289-.352,2.127,2.127,0,0,0,.883-.914V-4.1H32.063q-2.656,0-2.656,1.555a1.316,1.316,0,0,0,.453,1.063A1.742,1.742,0,0,0,31.023-1.1Zm5.531-3.2a4.952,4.952,0,0,1,.922-3.129,2.915,2.915,0,0,1,2.414-1.184,2.932,2.932,0,0,1,2.352,1.016V-12h1.445V0H42.359l-.07-.906A2.943,2.943,0,0,1,39.875.156a2.887,2.887,0,0,1-2.395-1.2,5.008,5.008,0,0,1-.926-3.141ZM38-4.133a3.749,3.749,0,0,0,.594,2.25,1.92,1.92,0,0,0,1.641.813A2.108,2.108,0,0,0,42.242-2.3V-6.187a2.125,2.125,0,0,0-1.992-1.2,1.929,1.929,0,0,0-1.656.82A4.128,4.128,0,0,0,38-4.133ZM-25.023,13.859H-28.68V24h-1.492V13.859H-33.82V12.625h8.8Zm4.961,2.984a4.331,4.331,0,0,0-.711-.055A1.9,1.9,0,0,0-22.7,18v6h-1.445V15.547h1.406l.023.977A2.251,2.251,0,0,1-20.7,15.391a1.477,1.477,0,0,1,.641.109Zm2.9,7.156h-1.445V15.547h1.445Zm-1.562-10.7a.863.863,0,0,1,.215-.594.807.807,0,0,1,.637-.242.819.819,0,0,1,.641.242.854.854,0,0,1,.219.594.826.826,0,0,1-.219.586.834.834,0,0,1-.641.234.821.821,0,0,1-.637-.234A.834.834,0,0,1-18.727,13.3ZM-7.7,19.867a5.026,5.026,0,0,1-.891,3.113,2.846,2.846,0,0,1-2.391,1.176,2.947,2.947,0,0,1-2.477-1.133l-.07.977h-1.328V12h1.445v4.477a2.93,2.93,0,0,1,2.414-1.086,2.863,2.863,0,0,1,2.418,1.164A5.177,5.177,0,0,1-7.7,19.742ZM-9.141,19.7a3.906,3.906,0,0,0-.57-2.281,1.888,1.888,0,0,0-1.641-.8,2.122,2.122,0,0,0-2.055,1.328V21.6a2.181,2.181,0,0,0,2.07,1.328,1.878,1.878,0,0,0,1.617-.8A4.153,4.153,0,0,0-9.141,19.7Zm8.484,3.461a3.07,3.07,0,0,1-2.477.992,2.628,2.628,0,0,1-2.059-.785,3.4,3.4,0,0,1-.715-2.324v-5.5h1.445v5.461q0,1.922,1.563,1.922A2.163,2.163,0,0,0-.7,21.7V15.547H.75V24H-.625ZM4.906,13.5v2.047H6.484v1.117H4.906v5.242a1.171,1.171,0,0,0,.211.762.888.888,0,0,0,.719.254,3.5,3.5,0,0,0,.688-.094V24a4.19,4.19,0,0,1-1.109.156,1.8,1.8,0,0,1-1.461-.586,2.517,2.517,0,0,1-.492-1.664V16.664H1.922V15.547H3.461V13.5ZM13.391,24a3.036,3.036,0,0,1-.2-.891,3.225,3.225,0,0,1-2.406,1.047,2.984,2.984,0,0,1-2.051-.707,2.287,2.287,0,0,1-.8-1.793,2.39,2.39,0,0,1,1-2.051,4.733,4.733,0,0,1,2.824-.73h1.406v-.664A1.623,1.623,0,0,0,12.711,17a1.821,1.821,0,0,0-1.336-.449,2.108,2.108,0,0,0-1.3.391,1.151,1.151,0,0,0-.523.945H8.1a2,2,0,0,1,.449-1.223,3.066,3.066,0,0,1,1.219-.934,4.1,4.1,0,0,1,1.691-.344,3.342,3.342,0,0,1,2.289.73,2.635,2.635,0,0,1,.859,2.012v3.891a4.757,4.757,0,0,0,.3,1.852V24Zm-2.4-1.1a2.54,2.54,0,0,0,1.289-.352,2.127,2.127,0,0,0,.883-.914V19.9H12.031q-2.656,0-2.656,1.555a1.316,1.316,0,0,0,.453,1.063A1.742,1.742,0,0,0,10.992,22.9Zm9.969-6.055a4.331,4.331,0,0,0-.711-.055A1.9,1.9,0,0,0,18.32,18v6H16.875V15.547h1.406l.023.977a2.251,2.251,0,0,1,2.016-1.133,1.477,1.477,0,0,1,.641.109ZM23.859,24H22.414V15.547h1.445ZM22.3,13.3a.863.863,0,0,1,.215-.594.807.807,0,0,1,.637-.242.819.819,0,0,1,.641.242.854.854,0,0,1,.219.594.826.826,0,0,1-.219.586.834.834,0,0,1-.641.234.821.821,0,0,1-.637-.234A.834.834,0,0,1,22.3,13.3ZM25.789,19.7a4.993,4.993,0,0,1,.488-2.234,3.643,3.643,0,0,1,1.359-1.531,3.7,3.7,0,0,1,1.988-.539,3.565,3.565,0,0,1,2.793,1.2,4.6,4.6,0,0,1,1.066,3.18v.1a5.036,5.036,0,0,1-.473,2.215,3.589,3.589,0,0,1-1.352,1.527,3.743,3.743,0,0,1-2.02.547,3.556,3.556,0,0,1-2.785-1.2A4.575,4.575,0,0,1,25.789,19.8Zm1.453.172a3.616,3.616,0,0,0,.652,2.258,2.211,2.211,0,0,0,3.5-.012,3.955,3.955,0,0,0,.648-2.418,3.61,3.61,0,0,0-.66-2.254,2.1,2.1,0,0,0-1.754-.863,2.075,2.075,0,0,0-1.727.852A3.925,3.925,0,0,0,27.242,19.867Z" transform="translate(402 3004.016)" fill="#12263f"/>
    <path id="Trazado_600888" data-name="Trazado 600888" d="M-1627-8698.567V-8584.1" transform="translate(2200 11608.62)" fill="none" stroke="#083142" stroke-width="2" stroke-dasharray="6"/>
    <path id="Trazado_601651" data-name="Trazado 601651" d="M-32.535-11.375l3.719,9.281,3.719-9.281h1.945V0h-1.5V-4.43l.141-4.781L-28.246,0h-1.148l-3.727-9.187.148,4.758V0h-1.5V-11.375ZM-15.512,0a3.036,3.036,0,0,1-.2-.891A3.225,3.225,0,0,1-18.121.156a2.984,2.984,0,0,1-2.051-.707,2.287,2.287,0,0,1-.8-1.793,2.39,2.39,0,0,1,1-2.051,4.733,4.733,0,0,1,2.824-.73h1.406v-.664A1.623,1.623,0,0,0-16.191-7a1.821,1.821,0,0,0-1.336-.449,2.108,2.108,0,0,0-1.3.391,1.151,1.151,0,0,0-.523.945H-20.8a2,2,0,0,1,.449-1.223,3.066,3.066,0,0,1,1.219-.934,4.1,4.1,0,0,1,1.691-.344,3.342,3.342,0,0,1,2.289.73,2.635,2.635,0,0,1,.859,2.012v3.891A4.757,4.757,0,0,0-14-.125V0Zm-2.4-1.1a2.54,2.54,0,0,0,1.289-.352,2.127,2.127,0,0,0,.883-.914V-4.1h-1.133q-2.656,0-2.656,1.555a1.316,1.316,0,0,0,.453,1.063A1.742,1.742,0,0,0-17.91-1.1Zm9.969-6.055a4.331,4.331,0,0,0-.711-.055A1.9,1.9,0,0,0-10.582-6V0h-1.445V-8.453h1.406l.023.977A2.251,2.251,0,0,1-8.582-8.609a1.477,1.477,0,0,1,.641.109Zm3.688,3.242-.906.945V0H-6.605V-12H-5.16v7.258l.773-.93,2.633-2.781H0L-3.285-4.922.387,0h-1.7ZM5,.156a3.693,3.693,0,0,1-2.8-1.129,4.19,4.19,0,0,1-1.078-3.02v-.266A5.073,5.073,0,0,1,1.609-6.5,3.748,3.748,0,0,1,2.953-8.051a3.378,3.378,0,0,1,1.871-.559A3.166,3.166,0,0,1,7.387-7.523,4.7,4.7,0,0,1,8.3-4.414v.6H2.574a3,3,0,0,0,.73,2.02,2.3,2.3,0,0,0,1.777.77,2.517,2.517,0,0,0,1.3-.312,3.259,3.259,0,0,0,.93-.828l.883.688A3.55,3.55,0,0,1,5,.156Zm-.18-7.578a1.928,1.928,0,0,0-1.469.637A3.1,3.1,0,0,0,2.621-5H6.855v-.109a2.753,2.753,0,0,0-.594-1.707A1.815,1.815,0,0,0,4.824-7.422ZM11.934-10.5v2.047h1.578v1.117H11.934v5.242a1.171,1.171,0,0,0,.211.762.888.888,0,0,0,.719.254,3.5,3.5,0,0,0,.688-.094V0a4.19,4.19,0,0,1-1.109.156A1.8,1.8,0,0,1,10.98-.43a2.517,2.517,0,0,1-.492-1.664V-7.336H8.949V-8.453h1.539V-10.5ZM16.77,0H15.324V-8.453H16.77ZM15.207-10.7a.863.863,0,0,1,.215-.594.807.807,0,0,1,.637-.242.819.819,0,0,1,.641.242.854.854,0,0,1,.219.594.826.826,0,0,1-.219.586.834.834,0,0,1-.641.234.821.821,0,0,1-.637-.234A.834.834,0,0,1,15.207-10.7Zm5.242,2.242L20.5-7.391a3.08,3.08,0,0,1,2.531-1.219q2.68,0,2.7,3.023V0H24.285V-5.594a1.946,1.946,0,0,0-.418-1.352,1.675,1.675,0,0,0-1.277-.437,2.086,2.086,0,0,0-1.234.375,2.546,2.546,0,0,0-.828.984V0H19.082V-8.453ZM27.566-4.3a4.968,4.968,0,0,1,.914-3.145A2.923,2.923,0,0,1,30.9-8.609a2.908,2.908,0,0,1,2.414,1.094l.07-.937h1.32V-.2a3.439,3.439,0,0,1-.973,2.586,3.589,3.589,0,0,1-2.613.945,4.348,4.348,0,0,1-1.789-.391A3.08,3.08,0,0,1,28,1.867L28.746,1A2.826,2.826,0,0,0,31.02,2.148a2.214,2.214,0,0,0,1.645-.594,2.269,2.269,0,0,0,.59-1.672V-.844a2.971,2.971,0,0,1-2.367,1,2.887,2.887,0,0,1-2.4-1.2A5.224,5.224,0,0,1,27.566-4.3Zm1.453.164a3.79,3.79,0,0,0,.586,2.246,1.9,1.9,0,0,0,1.641.816,2.117,2.117,0,0,0,2.008-1.242V-6.172a2.142,2.142,0,0,0-1.992-1.211,1.921,1.921,0,0,0-1.648.82A4.128,4.128,0,0,0,29.02-4.133ZM-19.031,20.391a4.185,4.185,0,0,1-1.332,2.785,4.365,4.365,0,0,1-2.98.98,4.008,4.008,0,0,1-3.23-1.445,5.815,5.815,0,0,1-1.215-3.867V17.75a6.481,6.481,0,0,1,.566-2.789,4.231,4.231,0,0,1,1.605-1.848,4.47,4.47,0,0,1,2.406-.645A4.11,4.11,0,0,1-20.3,13.48a4.235,4.235,0,0,1,1.273,2.8h-1.508a3.254,3.254,0,0,0-.848-1.969,2.569,2.569,0,0,0-1.824-.609,2.685,2.685,0,0,0-2.254,1.063,4.875,4.875,0,0,0-.816,3.023v1.1a5.011,5.011,0,0,0,.773,2.945,2.5,2.5,0,0,0,2.164,1.094,2.887,2.887,0,0,0,1.918-.566,3.143,3.143,0,0,0,.887-1.973ZM-15.641,24h-1.445V12h1.445Zm3.883,0H-13.2V15.547h1.445ZM-13.32,13.3a.863.863,0,0,1,.215-.594.807.807,0,0,1,.637-.242.819.819,0,0,1,.641.242.854.854,0,0,1,.219.594.826.826,0,0,1-.219.586.834.834,0,0,1-.641.234.821.821,0,0,1-.637-.234A.834.834,0,0,1-13.32,13.3Zm7.383,10.852a3.693,3.693,0,0,1-2.8-1.129,4.19,4.19,0,0,1-1.078-3.02v-.266a5.073,5.073,0,0,1,.48-2.246,3.748,3.748,0,0,1,1.344-1.547,3.378,3.378,0,0,1,1.871-.559,3.166,3.166,0,0,1,2.563,1.086,4.7,4.7,0,0,1,.914,3.109v.6H-8.367a3,3,0,0,0,.73,2.02,2.3,2.3,0,0,0,1.777.77,2.517,2.517,0,0,0,1.3-.312,3.259,3.259,0,0,0,.93-.828l.883.688A3.55,3.55,0,0,1-5.937,24.156Zm-.18-7.578a1.928,1.928,0,0,0-1.469.637A3.1,3.1,0,0,0-8.32,19h4.234v-.109a2.753,2.753,0,0,0-.594-1.707A1.815,1.815,0,0,0-6.117,16.578ZM.4,15.547l.047,1.063a3.08,3.08,0,0,1,2.531-1.219q2.68,0,2.7,3.023V24H4.234V18.406a1.946,1.946,0,0,0-.418-1.352,1.675,1.675,0,0,0-1.277-.437,2.086,2.086,0,0,0-1.234.375,2.546,2.546,0,0,0-.828.984V24H-.969V15.547ZM9.82,13.5v2.047H11.4v1.117H9.82v5.242a1.171,1.171,0,0,0,.211.762.888.888,0,0,0,.719.254,3.5,3.5,0,0,0,.688-.094V24a4.19,4.19,0,0,1-1.109.156,1.8,1.8,0,0,1-1.461-.586,2.517,2.517,0,0,1-.492-1.664V16.664H6.836V15.547H8.375V13.5Zm6.773,10.656a3.693,3.693,0,0,1-2.8-1.129,4.19,4.19,0,0,1-1.078-3.02v-.266A5.073,5.073,0,0,1,13.2,17.5a3.748,3.748,0,0,1,1.344-1.547,3.378,3.378,0,0,1,1.871-.559,3.166,3.166,0,0,1,2.563,1.086,4.7,4.7,0,0,1,.914,3.109v.6H14.164a3,3,0,0,0,.73,2.02,2.3,2.3,0,0,0,1.777.77,2.517,2.517,0,0,0,1.3-.312,3.259,3.259,0,0,0,.93-.828l.883.688A3.55,3.55,0,0,1,16.594,24.156Zm-.18-7.578a1.928,1.928,0,0,0-1.469.637A3.1,3.1,0,0,0,14.211,19h4.234v-.109a2.753,2.753,0,0,0-.594-1.707A1.815,1.815,0,0,0,16.414,16.578Zm10.07,5.18a1.064,1.064,0,0,0-.441-.91,4.249,4.249,0,0,0-1.539-.559,7.277,7.277,0,0,1-1.742-.562,2.479,2.479,0,0,1-.953-.781,1.869,1.869,0,0,1-.309-1.078,2.193,2.193,0,0,1,.879-1.758,3.432,3.432,0,0,1,2.246-.719,3.532,3.532,0,0,1,2.332.742,2.357,2.357,0,0,1,.895,1.9H26.4a1.3,1.3,0,0,0-.5-1.023,1.888,1.888,0,0,0-1.27-.43,1.976,1.976,0,0,0-1.234.344,1.082,1.082,0,0,0-.445.9.877.877,0,0,0,.414.789,5.1,5.1,0,0,0,1.5.508,7.8,7.8,0,0,1,1.754.578,2.558,2.558,0,0,1,1,.809,1.988,1.988,0,0,1,.324,1.152,2.163,2.163,0,0,1-.906,1.816,3.8,3.8,0,0,1-2.352.684,4.257,4.257,0,0,1-1.8-.359,2.922,2.922,0,0,1-1.223-1,2.42,2.42,0,0,1-.441-1.395h1.445a1.5,1.5,0,0,0,.582,1.152,2.258,2.258,0,0,0,1.434.426,2.331,2.331,0,0,0,1.316-.332A1.02,1.02,0,0,0,26.484,21.758ZM-7.43,44.391a4.185,4.185,0,0,1-1.332,2.785,4.365,4.365,0,0,1-2.98.98,4.008,4.008,0,0,1-3.23-1.445,5.815,5.815,0,0,1-1.215-3.867V41.75a6.481,6.481,0,0,1,.566-2.789,4.231,4.231,0,0,1,1.605-1.848,4.47,4.47,0,0,1,2.406-.645A4.11,4.11,0,0,1-8.7,37.48a4.235,4.235,0,0,1,1.273,2.8H-8.937a3.254,3.254,0,0,0-.848-1.969,2.569,2.569,0,0,0-1.824-.609,2.685,2.685,0,0,0-2.254,1.063,4.875,4.875,0,0,0-.816,3.023v1.1a5.011,5.011,0,0,0,.773,2.945,2.5,2.5,0,0,0,2.164,1.094,2.886,2.886,0,0,0,1.918-.566,3.143,3.143,0,0,0,.887-1.973Zm6.219-.992H-3.883V48H-5.391V36.625h3.766a4.457,4.457,0,0,1,2.957.875,3.148,3.148,0,0,1,1.035,2.547A3.062,3.062,0,0,1,1.793,41.9a3.428,3.428,0,0,1-1.6,1.18l2.672,4.828V48H1.258Zm-2.672-1.227h2.3A2.6,2.6,0,0,0,.2,41.594a1.953,1.953,0,0,0,.66-1.547A2.057,2.057,0,0,0,.23,38.43a2.666,2.666,0,0,0-1.816-.57h-2.3ZM6.406,36.625l3.719,9.281,3.719-9.281h1.945V48h-1.5V43.57l.141-4.781L10.7,48H9.547L5.82,38.813l.148,4.758V48h-1.5V36.625Z" transform="translate(573 2830.073)" fill="#12263f"/>
    <path id="Trazado_600889" data-name="Trazado 600889" d="M-1627-8698.567v98.442" transform="translate(2427 11562.141)" fill="none" stroke="#083142" stroke-width="2" stroke-dasharray="6"/>
    <path id="Trazado_601650" data-name="Trazado 601650" d="M-15.43-1.492A3.465,3.465,0,0,1-17.043-.254a6.517,6.517,0,0,1-2.41.41A4.674,4.674,0,0,1-21.922-.5,4.346,4.346,0,0,1-23.59-2.352,6.408,6.408,0,0,1-24.2-5.141v-.992A5.982,5.982,0,0,1-23-10.117a4.179,4.179,0,0,1,3.371-1.414,4.316,4.316,0,0,1,2.867.91A3.965,3.965,0,0,1-15.43-8.039h-1.5A2.478,2.478,0,0,0-19.617-10.3,2.656,2.656,0,0,0-21.9-9.238a5.165,5.165,0,0,0-.785,3.066v.93A4.841,4.841,0,0,0-21.812-2.2,2.837,2.837,0,0,0-19.445-1.07a5.217,5.217,0,0,0,1.477-.187,2.282,2.282,0,0,0,1.047-.633V-4.445h-2.633V-5.664h4.125ZM-7.937,0a3.036,3.036,0,0,1-.2-.891A3.225,3.225,0,0,1-10.547.156,2.984,2.984,0,0,1-12.6-.551a2.287,2.287,0,0,1-.8-1.793,2.39,2.39,0,0,1,1-2.051,4.733,4.733,0,0,1,2.824-.73h1.406v-.664A1.623,1.623,0,0,0-8.617-7a1.821,1.821,0,0,0-1.336-.449,2.107,2.107,0,0,0-1.3.391,1.151,1.151,0,0,0-.523.945h-1.453a2,2,0,0,1,.449-1.223,3.066,3.066,0,0,1,1.219-.934,4.1,4.1,0,0,1,1.691-.344,3.342,3.342,0,0,1,2.289.73,2.635,2.635,0,0,1,.859,2.012v3.891a4.757,4.757,0,0,0,.3,1.852V0Zm-2.4-1.1a2.54,2.54,0,0,0,1.289-.352,2.127,2.127,0,0,0,.883-.914V-4.1H-9.3q-2.656,0-2.656,1.555A1.316,1.316,0,0,0-11.5-1.484,1.742,1.742,0,0,0-10.336-1.1ZM.469-2.242a1.064,1.064,0,0,0-.441-.91,4.249,4.249,0,0,0-1.539-.559,7.277,7.277,0,0,1-1.742-.562,2.479,2.479,0,0,1-.953-.781,1.869,1.869,0,0,1-.309-1.078,2.193,2.193,0,0,1,.879-1.758,3.432,3.432,0,0,1,2.246-.719,3.532,3.532,0,0,1,2.332.742,2.357,2.357,0,0,1,.895,1.9H.383a1.3,1.3,0,0,0-.5-1.023,1.888,1.888,0,0,0-1.27-.43,1.976,1.976,0,0,0-1.234.344,1.082,1.082,0,0,0-.445.9.877.877,0,0,0,.414.789,5.1,5.1,0,0,0,1.5.508A7.8,7.8,0,0,1,.594-4.3a2.558,2.558,0,0,1,1,.809,1.988,1.988,0,0,1,.324,1.152A2.163,2.163,0,0,1,1.008-.527,3.8,3.8,0,0,1-1.344.156,4.257,4.257,0,0,1-3.141-.2a2.922,2.922,0,0,1-1.223-1A2.42,2.42,0,0,1-4.8-2.6h1.445a1.5,1.5,0,0,0,.582,1.152,2.258,2.258,0,0,0,1.434.426A2.331,2.331,0,0,0-.027-1.355,1.02,1.02,0,0,0,.469-2.242ZM5.758-10.5v2.047H7.336v1.117H5.758v5.242a1.171,1.171,0,0,0,.211.762.888.888,0,0,0,.719.254,3.5,3.5,0,0,0,.688-.094V0A4.19,4.19,0,0,1,6.266.156,1.8,1.8,0,0,1,4.8-.43a2.517,2.517,0,0,1-.492-1.664V-7.336H2.773V-8.453H4.313V-10.5ZM8.484-4.3a4.993,4.993,0,0,1,.488-2.234A3.643,3.643,0,0,1,10.332-8.07a3.7,3.7,0,0,1,1.988-.539,3.565,3.565,0,0,1,2.793,1.2,4.6,4.6,0,0,1,1.066,3.18v.1a5.036,5.036,0,0,1-.473,2.215A3.589,3.589,0,0,1,14.355-.391a3.743,3.743,0,0,1-2.02.547,3.556,3.556,0,0,1-2.785-1.2A4.575,4.575,0,0,1,8.484-4.2Zm1.453.172a3.616,3.616,0,0,0,.652,2.258,2.088,2.088,0,0,0,1.746.852,2.075,2.075,0,0,0,1.75-.863A3.955,3.955,0,0,0,14.734-4.3a3.61,3.61,0,0,0-.66-2.254,2.1,2.1,0,0,0-1.754-.863,2.075,2.075,0,0,0-1.727.852A3.925,3.925,0,0,0,9.938-4.133ZM22.914-2.242a1.064,1.064,0,0,0-.441-.91,4.249,4.249,0,0,0-1.539-.559,7.277,7.277,0,0,1-1.742-.562,2.479,2.479,0,0,1-.953-.781,1.869,1.869,0,0,1-.309-1.078,2.193,2.193,0,0,1,.879-1.758,3.432,3.432,0,0,1,2.246-.719,3.532,3.532,0,0,1,2.332.742,2.357,2.357,0,0,1,.895,1.9H22.828a1.3,1.3,0,0,0-.5-1.023,1.888,1.888,0,0,0-1.27-.43,1.976,1.976,0,0,0-1.234.344,1.082,1.082,0,0,0-.445.9.877.877,0,0,0,.414.789,5.1,5.1,0,0,0,1.5.508,7.8,7.8,0,0,1,1.754.578,2.558,2.558,0,0,1,1,.809,1.988,1.988,0,0,1,.324,1.152,2.163,2.163,0,0,1-.906,1.816A3.8,3.8,0,0,1,21.1.156,4.257,4.257,0,0,1,19.3-.2a2.922,2.922,0,0,1-1.223-1A2.42,2.42,0,0,1,17.641-2.6h1.445a1.5,1.5,0,0,0,.582,1.152,2.258,2.258,0,0,0,1.434.426,2.331,2.331,0,0,0,1.316-.332A1.02,1.02,0,0,0,22.914-2.242Zm-64.77,21.789V24h-1.5V12.625h4.2a4.215,4.215,0,0,1,2.926.953A3.231,3.231,0,0,1-35.176,16.1a3.189,3.189,0,0,1-1.035,2.551,4.4,4.4,0,0,1-2.965.895Zm0-1.227h2.7a2.7,2.7,0,0,0,1.844-.566,2.069,2.069,0,0,0,.641-1.637,2.138,2.138,0,0,0-.641-1.625,2.528,2.528,0,0,0-1.758-.633h-2.781ZM-29.4,16.844a4.331,4.331,0,0,0-.711-.055A1.9,1.9,0,0,0-32.043,18v6h-1.445V15.547h1.406l.023.977a2.251,2.251,0,0,1,2.016-1.133,1.477,1.477,0,0,1,.641.109Zm.789,2.852a4.993,4.993,0,0,1,.488-2.234,3.643,3.643,0,0,1,1.359-1.531,3.7,3.7,0,0,1,1.988-.539,3.565,3.565,0,0,1,2.793,1.2,4.6,4.6,0,0,1,1.066,3.18v.1a5.036,5.036,0,0,1-.473,2.215,3.589,3.589,0,0,1-1.352,1.527,3.743,3.743,0,0,1-2.02.547,3.556,3.556,0,0,1-2.785-1.2A4.575,4.575,0,0,1-28.613,19.8Zm1.453.172a3.616,3.616,0,0,0,.652,2.258,2.088,2.088,0,0,0,1.746.852,2.075,2.075,0,0,0,1.75-.863,3.955,3.955,0,0,0,.648-2.418,3.61,3.61,0,0,0-.66-2.254,2.1,2.1,0,0,0-1.754-.863,2.075,2.075,0,0,0-1.727.852A3.925,3.925,0,0,0-27.16,19.867Zm10.727,2.172,2.094-6.492h1.477L-15.895,24H-17l-3.062-8.453h1.477Zm8.469,2.117a3.693,3.693,0,0,1-2.8-1.129,4.19,4.19,0,0,1-1.078-3.02v-.266a5.073,5.073,0,0,1,.48-2.246,3.748,3.748,0,0,1,1.344-1.547,3.378,3.378,0,0,1,1.871-.559,3.166,3.166,0,0,1,2.563,1.086,4.7,4.7,0,0,1,.914,3.109v.6h-5.727a3,3,0,0,0,.73,2.02,2.3,2.3,0,0,0,1.777.77,2.517,2.517,0,0,0,1.3-.312,3.259,3.259,0,0,0,.93-.828l.883.688A3.55,3.55,0,0,1-7.965,24.156Zm-.18-7.578a1.928,1.928,0,0,0-1.469.637A3.1,3.1,0,0,0-10.348,19h4.234v-.109a2.753,2.753,0,0,0-.594-1.707A1.815,1.815,0,0,0-8.145,16.578ZM.512,24.156a3.693,3.693,0,0,1-2.8-1.129,4.19,4.19,0,0,1-1.078-3.02v-.266a5.073,5.073,0,0,1,.48-2.246,3.748,3.748,0,0,1,1.344-1.547,3.378,3.378,0,0,1,1.871-.559,3.166,3.166,0,0,1,2.563,1.086,4.7,4.7,0,0,1,.914,3.109v.6H-1.918a3,3,0,0,0,.73,2.02,2.3,2.3,0,0,0,1.777.77,2.517,2.517,0,0,0,1.3-.312,3.259,3.259,0,0,0,.93-.828l.883.688A3.55,3.55,0,0,1,.512,24.156Zm-.18-7.578a1.928,1.928,0,0,0-1.469.637A3.1,3.1,0,0,0-1.871,19H2.363v-.109a2.753,2.753,0,0,0-.594-1.707A1.815,1.815,0,0,0,.332,16.578Zm4.8,3.125a4.952,4.952,0,0,1,.922-3.129,2.915,2.915,0,0,1,2.414-1.184,2.932,2.932,0,0,1,2.352,1.016V12h1.445V24H10.934l-.07-.906a2.943,2.943,0,0,1-2.414,1.063,2.887,2.887,0,0,1-2.395-1.2,5.008,5.008,0,0,1-.926-3.141Zm1.445.164a3.749,3.749,0,0,0,.594,2.25,1.92,1.92,0,0,0,1.641.813A2.108,2.108,0,0,0,10.816,21.7V17.813a2.125,2.125,0,0,0-1.992-1.2,1.929,1.929,0,0,0-1.656.82A4.128,4.128,0,0,0,6.574,19.867Zm7.547-.172a4.993,4.993,0,0,1,.488-2.234,3.643,3.643,0,0,1,1.359-1.531,3.7,3.7,0,0,1,1.988-.539,3.565,3.565,0,0,1,2.793,1.2,4.6,4.6,0,0,1,1.066,3.18v.1a5.036,5.036,0,0,1-.473,2.215,3.589,3.589,0,0,1-1.352,1.527,3.743,3.743,0,0,1-2.02.547,3.556,3.556,0,0,1-2.785-1.2A4.575,4.575,0,0,1,14.121,19.8Zm1.453.172a3.616,3.616,0,0,0,.652,2.258,2.211,2.211,0,0,0,3.5-.012,3.955,3.955,0,0,0,.648-2.418,3.61,3.61,0,0,0-.66-2.254,2.1,2.1,0,0,0-1.754-.863,2.075,2.075,0,0,0-1.727.852A3.925,3.925,0,0,0,15.574,19.867Zm12.141-3.023A4.331,4.331,0,0,0,27,16.789,1.9,1.9,0,0,0,25.074,18v6H23.629V15.547h1.406l.023.977a2.251,2.251,0,0,1,2.016-1.133,1.477,1.477,0,0,1,.641.109Zm4.836,7.313a3.693,3.693,0,0,1-2.8-1.129,4.19,4.19,0,0,1-1.078-3.02v-.266a5.073,5.073,0,0,1,.48-2.246A3.748,3.748,0,0,1,30.5,15.949a3.378,3.378,0,0,1,1.871-.559,3.166,3.166,0,0,1,2.563,1.086,4.7,4.7,0,0,1,.914,3.109v.6H30.121a3,3,0,0,0,.73,2.02,2.3,2.3,0,0,0,1.777.77,2.517,2.517,0,0,0,1.3-.312,3.259,3.259,0,0,0,.93-.828l.883.688A3.55,3.55,0,0,1,32.551,24.156Zm-.18-7.578a1.928,1.928,0,0,0-1.469.637A3.1,3.1,0,0,0,30.168,19H34.4v-.109a2.753,2.753,0,0,0-.594-1.707A1.815,1.815,0,0,0,32.371,16.578Zm10.07,5.18a1.064,1.064,0,0,0-.441-.91,4.249,4.249,0,0,0-1.539-.559,7.277,7.277,0,0,1-1.742-.562,2.479,2.479,0,0,1-.953-.781,1.869,1.869,0,0,1-.309-1.078,2.193,2.193,0,0,1,.879-1.758,3.432,3.432,0,0,1,2.246-.719,3.532,3.532,0,0,1,2.332.742,2.357,2.357,0,0,1,.895,1.9H42.355a1.3,1.3,0,0,0-.5-1.023,1.888,1.888,0,0,0-1.27-.43,1.976,1.976,0,0,0-1.234.344,1.082,1.082,0,0,0-.445.9.877.877,0,0,0,.414.789,5.1,5.1,0,0,0,1.5.508,7.8,7.8,0,0,1,1.754.578,2.558,2.558,0,0,1,1,.809,1.988,1.988,0,0,1,.324,1.152,2.163,2.163,0,0,1-.906,1.816,3.8,3.8,0,0,1-2.352.684,4.257,4.257,0,0,1-1.8-.359,2.922,2.922,0,0,1-1.223-1,2.42,2.42,0,0,1-.441-1.395h1.445a1.5,1.5,0,0,0,.582,1.152,2.258,2.258,0,0,0,1.434.426,2.331,2.331,0,0,0,1.316-.332A1.02,1.02,0,0,0,42.441,21.758ZM-17.922,48H-19.43l-5.727-8.766V48h-1.508V36.625h1.508l5.742,8.8v-8.8h1.492Zm2.055-4.3a4.993,4.993,0,0,1,.488-2.234A3.643,3.643,0,0,1-14.02,39.93a3.7,3.7,0,0,1,1.988-.539,3.565,3.565,0,0,1,2.793,1.2,4.6,4.6,0,0,1,1.066,3.18v.1a5.036,5.036,0,0,1-.473,2.215A3.589,3.589,0,0,1-10,47.609a3.743,3.743,0,0,1-2.02.547,3.556,3.556,0,0,1-2.785-1.2A4.575,4.575,0,0,1-15.867,43.8Zm1.453.172a3.616,3.616,0,0,0,.652,2.258,2.088,2.088,0,0,0,1.746.852,2.075,2.075,0,0,0,1.75-.863A3.955,3.955,0,0,0-9.617,43.7a3.61,3.61,0,0,0-.66-2.254,2.1,2.1,0,0,0-1.754-.863,2.075,2.075,0,0,0-1.727.852A3.925,3.925,0,0,0-14.414,43.867ZM-11.375,36h1.75l-2.094,2.3h-1.164ZM-5,39.547l.039.938a3.122,3.122,0,0,1,2.508-1.094A2.417,2.417,0,0,1-.039,40.75a3.2,3.2,0,0,1,1.1-.984,3.242,3.242,0,0,1,1.6-.375q2.781,0,2.828,2.945V48H4.039V42.422a1.941,1.941,0,0,0-.414-1.355,1.823,1.823,0,0,0-1.391-.449A1.916,1.916,0,0,0,.9,41.1a1.949,1.949,0,0,0-.617,1.293V48H-1.172V42.461a1.613,1.613,0,0,0-1.8-1.844,1.934,1.934,0,0,0-1.945,1.211V48H-6.367V39.547ZM9.234,48H7.789V39.547H9.234ZM7.672,37.3a.863.863,0,0,1,.215-.594.807.807,0,0,1,.637-.242.819.819,0,0,1,.641.242.854.854,0,0,1,.219.594.826.826,0,0,1-.219.586.834.834,0,0,1-.641.234.821.821,0,0,1-.637-.234A.834.834,0,0,1,7.672,37.3Zm5.242,2.242.047,1.063a3.08,3.08,0,0,1,2.531-1.219q2.68,0,2.7,3.023V48H16.75V42.406a1.946,1.946,0,0,0-.418-1.352,1.675,1.675,0,0,0-1.277-.437,2.086,2.086,0,0,0-1.234.375,2.546,2.546,0,0,0-.828.984V48H11.547V39.547ZM25.594,48a3.036,3.036,0,0,1-.2-.891,3.225,3.225,0,0,1-2.406,1.047,2.984,2.984,0,0,1-2.051-.707,2.287,2.287,0,0,1-.8-1.793,2.39,2.39,0,0,1,1-2.051,4.733,4.733,0,0,1,2.824-.73h1.406v-.664A1.623,1.623,0,0,0,24.914,41a1.821,1.821,0,0,0-1.336-.449,2.107,2.107,0,0,0-1.3.391,1.151,1.151,0,0,0-.523.945H20.3a2,2,0,0,1,.449-1.223,3.066,3.066,0,0,1,1.219-.934,4.1,4.1,0,0,1,1.691-.344,3.342,3.342,0,0,1,2.289.73,2.635,2.635,0,0,1,.859,2.012v3.891a4.757,4.757,0,0,0,.3,1.852V48Zm-2.4-1.1a2.54,2.54,0,0,0,1.289-.352,2.127,2.127,0,0,0,.883-.914V43.9H24.234q-2.656,0-2.656,1.555a1.316,1.316,0,0,0,.453,1.063A1.742,1.742,0,0,0,23.2,46.9Z" transform="translate(800 2777.573)" fill="#12263f"/>
    <path id="Trazado_600890" data-name="Trazado 600890" d="M-1627-8698.567v98.442" transform="translate(2661 11621.654)" fill="none" stroke="#083142" stroke-width="2" stroke-dasharray="6"/>
    <path id="Trazado_601647" data-name="Trazado 601647" d="M-28.566-4.453V0h-1.5V-11.375h4.2a4.215,4.215,0,0,1,2.926.953A3.231,3.231,0,0,1-21.887-7.9a3.189,3.189,0,0,1-1.035,2.551,4.4,4.4,0,0,1-2.965.895Zm0-1.227h2.7a2.7,2.7,0,0,0,1.844-.566,2.069,2.069,0,0,0,.641-1.637,2.138,2.138,0,0,0-.641-1.625,2.528,2.528,0,0,0-1.758-.633h-2.781ZM-16.691.156a3.693,3.693,0,0,1-2.8-1.129,4.19,4.19,0,0,1-1.078-3.02v-.266a5.073,5.073,0,0,1,.48-2.246,3.748,3.748,0,0,1,1.344-1.547,3.378,3.378,0,0,1,1.871-.559,3.166,3.166,0,0,1,2.563,1.086,4.7,4.7,0,0,1,.914,3.109v.6h-5.727a3,3,0,0,0,.73,2.02,2.3,2.3,0,0,0,1.777.77,2.517,2.517,0,0,0,1.3-.312,3.259,3.259,0,0,0,.93-.828l.883.688A3.55,3.55,0,0,1-16.691.156Zm-.18-7.578a1.928,1.928,0,0,0-1.469.637A3.1,3.1,0,0,0-19.074-5h4.234v-.109a2.753,2.753,0,0,0-.594-1.707A1.815,1.815,0,0,0-16.871-7.422Zm9.234.266a4.331,4.331,0,0,0-.711-.055A1.9,1.9,0,0,0-10.277-6V0h-1.445V-8.453h1.406l.023.977A2.251,2.251,0,0,1-8.277-8.609a1.477,1.477,0,0,1,.641.109Zm6.25,4.914a1.064,1.064,0,0,0-.441-.91,4.249,4.249,0,0,0-1.539-.559,7.277,7.277,0,0,1-1.742-.562,2.479,2.479,0,0,1-.953-.781,1.869,1.869,0,0,1-.309-1.078,2.193,2.193,0,0,1,.879-1.758,3.432,3.432,0,0,1,2.246-.719,3.532,3.532,0,0,1,2.332.742,2.357,2.357,0,0,1,.895,1.9H-1.473a1.3,1.3,0,0,0-.5-1.023,1.888,1.888,0,0,0-1.27-.43,1.976,1.976,0,0,0-1.234.344,1.082,1.082,0,0,0-.445.9.877.877,0,0,0,.414.789,5.1,5.1,0,0,0,1.5.508A7.8,7.8,0,0,1-1.262-4.3a2.558,2.558,0,0,1,1,.809A1.988,1.988,0,0,1,.059-2.344,2.163,2.163,0,0,1-.848-.527,3.8,3.8,0,0,1-3.2.156,4.257,4.257,0,0,1-5-.2a2.922,2.922,0,0,1-1.223-1A2.42,2.42,0,0,1-6.66-2.6h1.445a1.5,1.5,0,0,0,.582,1.152A2.258,2.258,0,0,0-3.2-1.023a2.331,2.331,0,0,0,1.316-.332A1.02,1.02,0,0,0-1.387-2.242ZM1.559-4.3a4.993,4.993,0,0,1,.488-2.234A3.643,3.643,0,0,1,3.406-8.07a3.7,3.7,0,0,1,1.988-.539,3.565,3.565,0,0,1,2.793,1.2,4.6,4.6,0,0,1,1.066,3.18v.1a5.036,5.036,0,0,1-.473,2.215A3.589,3.589,0,0,1,7.43-.391,3.743,3.743,0,0,1,5.41.156a3.556,3.556,0,0,1-2.785-1.2A4.575,4.575,0,0,1,1.559-4.2Zm1.453.172a3.616,3.616,0,0,0,.652,2.258,2.088,2.088,0,0,0,1.746.852,2.075,2.075,0,0,0,1.75-.863A3.955,3.955,0,0,0,7.809-4.3a3.61,3.61,0,0,0-.66-2.254,2.1,2.1,0,0,0-1.754-.863,2.075,2.075,0,0,0-1.727.852A3.925,3.925,0,0,0,3.012-4.133Zm9.422-4.32.047,1.063a3.08,3.08,0,0,1,2.531-1.219q2.68,0,2.7,3.023V0H16.27V-5.594a1.946,1.946,0,0,0-.418-1.352,1.675,1.675,0,0,0-1.277-.437,2.086,2.086,0,0,0-1.234.375,2.546,2.546,0,0,0-.828.984V0H11.066V-8.453ZM25.113,0a3.036,3.036,0,0,1-.2-.891A3.225,3.225,0,0,1,22.5.156a2.984,2.984,0,0,1-2.051-.707,2.287,2.287,0,0,1-.8-1.793,2.39,2.39,0,0,1,1-2.051,4.733,4.733,0,0,1,2.824-.73h1.406v-.664A1.623,1.623,0,0,0,24.434-7,1.821,1.821,0,0,0,23.1-7.445a2.108,2.108,0,0,0-1.3.391,1.151,1.151,0,0,0-.523.945H19.824a2,2,0,0,1,.449-1.223,3.066,3.066,0,0,1,1.219-.934,4.1,4.1,0,0,1,1.691-.344,3.342,3.342,0,0,1,2.289.73,2.635,2.635,0,0,1,.859,2.012v3.891a4.757,4.757,0,0,0,.3,1.852V0Zm-2.4-1.1A2.54,2.54,0,0,0,24-1.453a2.127,2.127,0,0,0,.883-.914V-4.1H23.754Q21.1-4.1,21.1-2.547a1.316,1.316,0,0,0,.453,1.063A1.742,1.742,0,0,0,22.715-1.1ZM30.168,0H28.723V-12h1.445Z" transform="translate(1034 2893.531)" fill="#12263f"/>
    <path id="Trazado_600891" data-name="Trazado 600891" d="M-1627-8698.567v98.442" transform="translate(2833 11782.899)" fill="none" stroke="#083142" stroke-width="2" stroke-dasharray="6"/>
    <path id="Trazado_601646" data-name="Trazado 601646" d="M-21.961-10.141h-3.656V0h-1.492V-10.141h-3.648v-1.234h8.8ZM-18.93,0h-1.445V-8.453h1.445Zm-1.562-10.7a.863.863,0,0,1,.215-.594.807.807,0,0,1,.637-.242.819.819,0,0,1,.641.242.854.854,0,0,1,.219.594.826.826,0,0,1-.219.586.834.834,0,0,1-.641.234.821.821,0,0,1-.637-.234A.834.834,0,0,1-20.492-10.7ZM-13.109.156a3.693,3.693,0,0,1-2.8-1.129,4.19,4.19,0,0,1-1.078-3.02v-.266A5.073,5.073,0,0,1-16.5-6.5,3.748,3.748,0,0,1-15.16-8.051a3.378,3.378,0,0,1,1.871-.559,3.166,3.166,0,0,1,2.563,1.086,4.7,4.7,0,0,1,.914,3.109v.6h-5.727a3,3,0,0,0,.73,2.02,2.3,2.3,0,0,0,1.777.77,2.517,2.517,0,0,0,1.3-.312,3.259,3.259,0,0,0,.93-.828l.883.688A3.55,3.55,0,0,1-13.109.156Zm-.18-7.578a1.928,1.928,0,0,0-1.469.637A3.1,3.1,0,0,0-15.492-5h4.234v-.109a2.753,2.753,0,0,0-.594-1.707A1.815,1.815,0,0,0-13.289-7.422Zm6.508-1.031.039.938A3.122,3.122,0,0,1-4.234-8.609,2.417,2.417,0,0,1-1.82-7.25a3.2,3.2,0,0,1,1.1-.984,3.242,3.242,0,0,1,1.6-.375q2.781,0,2.828,2.945V0H2.258V-5.578a1.941,1.941,0,0,0-.414-1.355A1.823,1.823,0,0,0,.453-7.383,1.916,1.916,0,0,0-.883-6.9,1.949,1.949,0,0,0-1.5-5.609V0H-2.953V-5.539a1.613,1.613,0,0,0-1.8-1.844A1.934,1.934,0,0,0-6.7-6.172V0H-8.148V-8.453Zm19.8,4.32a5.062,5.062,0,0,1-.883,3.109A2.829,2.829,0,0,1,9.75.156,3.1,3.1,0,0,1,7.328-.82V3.25H5.883v-11.7H7.2l.07.938A2.977,2.977,0,0,1,9.727-8.609a2.882,2.882,0,0,1,2.41,1.148,5.117,5.117,0,0,1,.887,3.2ZM11.578-4.3a3.735,3.735,0,0,0-.609-2.258A1.963,1.963,0,0,0,9.3-7.383,2.125,2.125,0,0,0,7.328-6.219V-2.18A2.129,2.129,0,0,0,9.313-1.023a1.954,1.954,0,0,0,1.652-.824A4.077,4.077,0,0,0,11.578-4.3Zm2.9-.008a4.993,4.993,0,0,1,.488-2.234A3.643,3.643,0,0,1,16.324-8.07a3.7,3.7,0,0,1,1.988-.539,3.565,3.565,0,0,1,2.793,1.2,4.6,4.6,0,0,1,1.066,3.18v.1A5.036,5.036,0,0,1,21.7-1.918,3.589,3.589,0,0,1,20.348-.391a3.743,3.743,0,0,1-2.02.547,3.556,3.556,0,0,1-2.785-1.2A4.575,4.575,0,0,1,14.477-4.2Zm1.453.172a3.616,3.616,0,0,0,.652,2.258,2.088,2.088,0,0,0,1.746.852,2.075,2.075,0,0,0,1.75-.863A3.955,3.955,0,0,0,20.727-4.3a3.61,3.61,0,0,0-.66-2.254,2.1,2.1,0,0,0-1.754-.863,2.075,2.075,0,0,0-1.727.852A3.925,3.925,0,0,0,15.93-4.133ZM28.906-2.242a1.064,1.064,0,0,0-.441-.91,4.249,4.249,0,0,0-1.539-.559,7.277,7.277,0,0,1-1.742-.562,2.479,2.479,0,0,1-.953-.781,1.869,1.869,0,0,1-.309-1.078A2.193,2.193,0,0,1,24.8-7.891a3.432,3.432,0,0,1,2.246-.719,3.532,3.532,0,0,1,2.332.742,2.357,2.357,0,0,1,.895,1.9H28.82a1.3,1.3,0,0,0-.5-1.023,1.888,1.888,0,0,0-1.27-.43,1.976,1.976,0,0,0-1.234.344,1.082,1.082,0,0,0-.445.9.877.877,0,0,0,.414.789,5.1,5.1,0,0,0,1.5.508,7.8,7.8,0,0,1,1.754.578,2.558,2.558,0,0,1,1,.809,1.988,1.988,0,0,1,.324,1.152,2.163,2.163,0,0,1-.906,1.816,3.8,3.8,0,0,1-2.352.684A4.257,4.257,0,0,1,25.3-.2a2.922,2.922,0,0,1-1.223-1A2.42,2.42,0,0,1,23.633-2.6h1.445a1.5,1.5,0,0,0,.582,1.152,2.258,2.258,0,0,0,1.434.426,2.331,2.331,0,0,0,1.316-.332A1.02,1.02,0,0,0,28.906-2.242ZM-19.055,12.625l3.719,9.281,3.719-9.281h1.945V24h-1.5V19.57l.141-4.781L-14.766,24h-1.148l-3.727-9.187.148,4.758V24h-1.5V12.625ZM-3.742,24.156a3.693,3.693,0,0,1-2.8-1.129,4.19,4.19,0,0,1-1.078-3.02v-.266a5.073,5.073,0,0,1,.48-2.246,3.748,3.748,0,0,1,1.344-1.547,3.378,3.378,0,0,1,1.871-.559,3.166,3.166,0,0,1,2.563,1.086,4.7,4.7,0,0,1,.914,3.109v.6H-6.172a3,3,0,0,0,.73,2.02,2.3,2.3,0,0,0,1.777.77,2.517,2.517,0,0,0,1.3-.312,3.259,3.259,0,0,0,.93-.828l.883.688A3.55,3.55,0,0,1-3.742,24.156Zm-.18-7.578a1.928,1.928,0,0,0-1.469.637A3.1,3.1,0,0,0-6.125,19h4.234v-.109a2.753,2.753,0,0,0-.594-1.707A1.815,1.815,0,0,0-3.922,16.578ZM3.188,13.5v2.047H4.766v1.117H3.188v5.242a1.171,1.171,0,0,0,.211.762.888.888,0,0,0,.719.254,3.5,3.5,0,0,0,.688-.094V24a4.19,4.19,0,0,1-1.109.156,1.8,1.8,0,0,1-1.461-.586,2.517,2.517,0,0,1-.492-1.664V16.664H.2V15.547H1.742V13.5ZM11.672,24a3.036,3.036,0,0,1-.2-.891,3.225,3.225,0,0,1-2.406,1.047,2.984,2.984,0,0,1-2.051-.707,2.287,2.287,0,0,1-.8-1.793,2.39,2.39,0,0,1,1-2.051,4.733,4.733,0,0,1,2.824-.73h1.406v-.664A1.623,1.623,0,0,0,10.992,17a1.821,1.821,0,0,0-1.336-.449,2.108,2.108,0,0,0-1.3.391,1.151,1.151,0,0,0-.523.945H6.383a2,2,0,0,1,.449-1.223,3.066,3.066,0,0,1,1.219-.934,4.1,4.1,0,0,1,1.691-.344,3.342,3.342,0,0,1,2.289.73,2.635,2.635,0,0,1,.859,2.012v3.891a4.757,4.757,0,0,0,.3,1.852V24Zm-2.4-1.1a2.54,2.54,0,0,0,1.289-.352,2.127,2.127,0,0,0,.883-.914V19.9H10.313q-2.656,0-2.656,1.555a1.316,1.316,0,0,0,.453,1.063A1.742,1.742,0,0,0,9.273,22.9Zm10.8-1.141a1.064,1.064,0,0,0-.441-.91,4.249,4.249,0,0,0-1.539-.559,7.277,7.277,0,0,1-1.742-.562,2.479,2.479,0,0,1-.953-.781,1.869,1.869,0,0,1-.309-1.078,2.193,2.193,0,0,1,.879-1.758,3.432,3.432,0,0,1,2.246-.719,3.532,3.532,0,0,1,2.332.742,2.357,2.357,0,0,1,.895,1.9H19.992a1.3,1.3,0,0,0-.5-1.023,1.888,1.888,0,0,0-1.27-.43,1.976,1.976,0,0,0-1.234.344,1.082,1.082,0,0,0-.445.9.877.877,0,0,0,.414.789,5.1,5.1,0,0,0,1.5.508A7.8,7.8,0,0,1,20.2,19.7a2.558,2.558,0,0,1,1,.809,1.988,1.988,0,0,1,.324,1.152,2.163,2.163,0,0,1-.906,1.816,3.8,3.8,0,0,1-2.352.684,4.257,4.257,0,0,1-1.8-.359,2.922,2.922,0,0,1-1.223-1A2.42,2.42,0,0,1,14.8,21.4H16.25a1.5,1.5,0,0,0,.582,1.152,2.258,2.258,0,0,0,1.434.426,2.331,2.331,0,0,0,1.316-.332A1.02,1.02,0,0,0,20.078,21.758ZM-8.027,42.711l-1.391,1.445V48h-1.5V36.625h1.5V42.25l5.055-5.625h1.813l-4.477,5.023L-2.2,48H-4Zm8.641.836V48h-1.5V36.625h4.2a4.215,4.215,0,0,1,2.926.953A3.231,3.231,0,0,1,7.293,40.1a3.189,3.189,0,0,1-1.035,2.551,4.4,4.4,0,0,1-2.965.895Zm0-1.227h2.7a2.7,2.7,0,0,0,1.844-.566,2.069,2.069,0,0,0,.641-1.637,2.138,2.138,0,0,0-.641-1.625,2.528,2.528,0,0,0-1.758-.633H.613ZM10.816,48h-1.5V36.625h1.5Z" transform="translate(1206 3001.029)" fill="#12263f"/>
    <circle id="Elipse_8283" data-name="Elipse 8283" cx="5" cy="5" r="5" transform="translate(397 3053.016)" fill="#083142"/>
    <circle id="Elipse_8284" data-name="Elipse 8284" cx="5" cy="5" r="5" transform="translate(568 2895.016)" fill="#083142"/>
    <circle id="Elipse_8285" data-name="Elipse 8285" cx="5" cy="5" r="5" transform="translate(795 2846.016)" fill="#083142"/>
    <circle id="Elipse_8286" data-name="Elipse 8286" cx="5" cy="5" r="5" transform="translate(1029 2906.016)" fill="#083142"/>
    <circle id="Elipse_8287" data-name="Elipse 8287" cx="5" cy="5" r="5" transform="translate(1201 3065.016)" fill="#083142"/>
  </g>
</svg>
