<svg xmlns="http://www.w3.org/2000/svg" width="135" height="135" viewBox="0 0 135 135">
  <g id="Grupo_110663" data-name="Grupo 110663" transform="translate(-1000 -2574)">
    <circle id="Elipse_5086" data-name="Elipse 5086" cx="67.5" cy="67.5" r="67.5" transform="translate(1000 2574)" fill="#ffb476"/>
    <path id="Feature_One" data-name="Feature One" d="M-16.172,0V-42.656h13.74A20.212,20.212,0,0,1,7.734-40.093a18.019,18.019,0,0,1,7.046,7.236,21.848,21.848,0,0,1,2.563,10.474v1.963a21.974,21.974,0,0,1-2.476,10.5A18.1,18.1,0,0,1,7.9-2.651,19.767,19.767,0,0,1-2.139,0ZM-5.889-34.717V-7.91h3.574a8,8,0,0,0,6.8-3.149q2.373-3.149,2.373-9.36v-1.846q0-6.182-2.373-9.316a8.139,8.139,0,0,0-6.914-3.135Z" transform="translate(1067.172 2662.656)" fill="#12263f"/>
  </g>
</svg>
