<svg xmlns="http://www.w3.org/2000/svg" xmlns:xlink="http://www.w3.org/1999/xlink" width="210" height="170" viewBox="0 0 210 170">
  <defs>
    <clipPath id="clip-path">
      <path id="path8177" d="M0-682.665H108.083v108.083H0Z" transform="translate(0 682.665)"/>
    </clipPath>
  </defs>
  <g id="Grupo_1064254" data-name="Grupo 1064254" transform="translate(-1105 -3778.016)">
    <rect id="Rectángulo_373628" data-name="Rectángulo 373628" width="210" height="170" rx="12" transform="translate(1105 3778.016)" fill="#fff"/>
    <g id="g8163" transform="translate(1155.958 4491.639)">
      <g id="g8165" transform="translate(75.8 -600.499)">
        <path id="path8167" d="M-143.414,0h-26.977V24.334h30.7V3.723Z" transform="translate(170.392)" fill="#ffe477"/>
      </g>
      <g id="g8169" transform="translate(89.814 -600.499)">
        <path id="path8171" d="M-11.825-88.35h2.4l2.224-2.987-1.308-13.632h-4.229l-1.308,13.632Z" transform="translate(14.049 104.969)" fill="#ffb655"/>
      </g>
      <g id="g8173" transform="translate(0 -682.665)">
        <g id="g8175" clip-path="url(#clip-path)">
          <g id="g8181" transform="translate(1.584 82.166)">
            <path id="path8183" d="M-19.789,0H7.188V24.334h-30.7V3.723L-19.789,0" transform="translate(23.512)" fill="#7c84e8"/>
          </g>
          <g id="g8185" transform="translate(19.87 82.166)">
            <path id="path8187" d="M-24.559-88.35h-2.4l-2.224-2.987,1.308-13.632h4.228l1.308,13.632Z" transform="translate(29.179 104.969)" fill="#515be0"/>
          </g>
          <g id="g8189" transform="translate(42.792 48.483)">
            <path id="path8191" d="M-119.617-59.808v9.423l-7.065,7.065h-8.371l-7.065-7.065v-9.423a11.25,11.25,0,0,1,11.251-11.25,11.25,11.25,0,0,1,11.25,11.25" transform="translate(142.118 71.058)" fill="#ffdaaa"/>
          </g>
          <g id="g8193" transform="translate(32.284 76.221)">
            <path id="path8195" d="M-231.334-160.969v-25.647l-4.632-4.632h-34.251l-4.632,4.632v25.647Z" transform="translate(274.85 191.249)" fill="#787680"/>
          </g>
          <g id="g8197" transform="translate(46.608 76.221)">
            <path id="path8199" d="M-69.881-123.918h-2.981l-10.165-23.31h23.31Z" transform="translate(83.026 147.228)" fill="#57565c"/>
          </g>
          <g id="g8201" transform="translate(41.876 106.5)">
            <path id="path8203" d="M0,0Z" fill="#7c84e8"/>
          </g>
          <g id="g8205" transform="translate(42.386 76.221)">
            <path id="path8207" d="M-69.881-123.918h-2.981l-10.165-23.31h23.31Z" transform="translate(83.026 147.228)" fill="#fff"/>
          </g>
          <g id="g8209" transform="translate(49.783 76.221)">
            <path id="path8211" d="M-14.715-123.918h2.981l2.768-6.347-1.628-16.963h-5.261l-1.627,16.963Z" transform="translate(17.483 147.228)" fill="#ff7956"/>
          </g>
          <g id="g8213" transform="translate(79.973 59.874)">
            <path id="path8215" d="M-96.131-48.065v7.573l-5.678,5.678h-6.728l-5.678-5.678v-7.573a9.042,9.042,0,0,1,9.041-9.041,9.042,9.042,0,0,1,9.042,9.041" transform="translate(114.214 57.107)" fill="#ffdaaa"/>
          </g>
          <g id="g8217" transform="translate(80.292 92.122)">
            <path id="path8219" d="M0-76.434H0v0Z" transform="translate(0 90.812)" fill="#7c84e8"/>
          </g>
          <g id="g8221" transform="translate(85.592 82.166)">
            <path id="path8223" d="M-11.825-88.35h2.4l2.224-2.987-1.308-13.632h-4.229l-1.308,13.632Z" transform="translate(14.049 104.969)" fill="#b6e892"/>
          </g>
          <g id="g8225" transform="translate(10.028 59.874)">
            <path id="path8227" d="M-96.131-48.065v7.573l-5.678,5.678h-6.728l-5.678-5.678v-7.573a9.042,9.042,0,0,1,9.041-9.041,9.042,9.042,0,0,1,9.042,9.041" transform="translate(114.214 57.107)" fill="#ffdaaa"/>
          </g>
          <g id="g8229" transform="translate(27.792 92.122)">
            <path id="path8231" d="M0-76.434H0v0Z" transform="translate(0 90.812)" fill="#7c84e8"/>
          </g>
          <g id="g8233" transform="translate(15.648 82.166)">
            <path id="path8235" d="M-24.559-88.35h-2.4l-2.224-2.987,1.308-13.632h4.228l1.308,13.632Z" transform="translate(29.179 104.969)" fill="#ffb655"/>
          </g>
          <g id="g8237" transform="translate(1.583 1.583)">
            <path id="path8239" d="M-479.467-225.15a38.829,38.829,0,0,0-3.908-9.426l8.692-12.138-10.847-10.847-12.138,8.692a38.818,38.818,0,0,0-9.426-3.908L-509.53-267.5h-15.34l-2.436,14.725a38.819,38.819,0,0,0-9.426,3.908l-12.138-8.692-10.847,10.847,8.692,12.138a38.816,38.816,0,0,0-3.908,9.426l-14.725,2.436v15.34l10.309,1.705a9.027,9.027,0,0,1,7.178-3.543,9.041,9.041,0,0,1,9.041,9.041v7.573l-5.678,5.678h9.851v-1.313l4.632-4.632h12.94l-7.065-7.065v-1.134a17.91,17.91,0,0,1-6.693-13.98A17.944,17.944,0,0,1-517.2-232.987a17.944,17.944,0,0,1,17.944,17.944,17.91,17.91,0,0,1-6.693,13.979v1.135l-7.065,7.065h12.94l4.632,4.632v1.313h9.851l-5.678-5.678v-7.573a9.042,9.042,0,0,1,9.041-9.041,9.027,9.027,0,0,1,7.178,3.543l10.308-1.705v-15.34Z" transform="translate(569.659 267.502)" fill="#c6c5ca"/>
          </g>
          <g id="g8241" transform="translate(58.228 58.144)">
            <path id="path8243" d="M-71.225-8.447a11.366,11.366,0,0,0-.111-1.589A17.949,17.949,0,0,1-77.558-.159V.976l-7.065,7.065h6.333L-71.225.976Z" transform="translate(84.622 10.036)" fill="#898890"/>
          </g>
          <g id="g8245" transform="translate(41.876 106.5)">
            <path id="path8247" d="M0,0Z" fill="#515be0"/>
          </g>
          <g id="g8249" transform="translate(80.292 92.122)">
            <path id="path8251" d="M0-76.434H0v0Z" transform="translate(0 90.812)" fill="#515be0"/>
          </g>
          <g id="g8253" transform="translate(27.792 92.122)">
            <path id="path8255" d="M0-76.434H0v0Z" transform="translate(0 90.812)" fill="#515be0"/>
          </g>
          <path id="path8257" d="M478.76-139.363h6.333V-163.7H478.76Z" transform="translate(-402.96 245.863)" fill="#ffb655"/>
          <g id="g8259" transform="translate(1.584 82.166)">
            <path id="path8261" d="M-53.456,0h-6.333l-3.723,3.723V24.334h6.333V3.723Z" transform="translate(63.512)" fill="#515be0"/>
          </g>
          <g id="g8263" transform="translate(42.792 48.483)">
            <path id="path8265" d="M-33.667-109.9v-9.423a11.255,11.255,0,0,1,8.084-10.8,11.252,11.252,0,0,0-3.167-.452A11.251,11.251,0,0,0-40-119.323v9.423l7.065,7.065H-26.6l-7.065-7.065" transform="translate(40 130.573)" fill="#ff9478"/>
          </g>
          <g id="g8267" transform="translate(48.209 106.5)">
            <path id="path8269" d="M0,0Z" fill="#515be0"/>
          </g>
          <g id="g8271" transform="translate(42.386 76.221)">
            <path id="path8273" d="M-22.445,0h-4.222L-16.5,23.31h2.981l.621-1.423Z" transform="translate(26.667)" fill="#d8d7da"/>
          </g>
          <g id="g8275" transform="translate(49.783 76.221)">
            <path id="path8277" d="M-22.445-90.174l1.627-16.963h-4.222l-1.627,16.963,2.768,6.347h2.981l.621-1.423Z" transform="translate(26.667 107.137)" fill="#ff5023"/>
          </g>
          <g id="g8279" transform="translate(79.973 59.874)">
            <path id="path8281" d="M-33.667-88.322v-7.573a9.045,9.045,0,0,1,5.875-8.471,9.02,9.02,0,0,0-3.167-.57A9.042,9.042,0,0,0-40-95.894v7.573l5.678,5.678h6.333l-5.678-5.678" transform="translate(40 104.936)" fill="#ff9478"/>
          </g>
          <g id="g8283" transform="translate(10.028 59.874)">
            <path id="path8285" d="M-33.667-88.322v-7.573a9.045,9.045,0,0,1,5.875-8.471,9.02,9.02,0,0,0-3.167-.57A9.042,9.042,0,0,0-40-95.894v7.573l5.678,5.678h6.333l-5.678-5.678" transform="translate(40 104.936)" fill="#ff9478"/>
          </g>
          <g id="g8287" transform="translate(32.284 76.221)">
            <path id="path8289" d="M-58.292,0h-6.333l-4.632,4.632V30.28h6.333V4.632L-58.292,0" transform="translate(69.257)" fill="#57565c"/>
          </g>
          <g id="g8291" transform="translate(38.209 1.583)">
            <path id="path8293" d="M-14-99.055a38.826,38.826,0,0,1,9.426-3.908l2.436-14.725H-8.467L-10.9-102.962a38.767,38.767,0,0,0-5.726,2.022Z" transform="translate(16.629 117.688)" fill="#898890"/>
          </g>
          <g id="g8295" transform="translate(76.207 11.525)">
            <path id="path8297" d="M-19.67-46.206l8.447-6.049L-13.866-54.9l-9.505,6.806a38.965,38.965,0,0,1,3.7,1.885" transform="translate(23.371 54.897)" fill="#898890"/>
          </g>
          <g id="g8299" transform="translate(22.236 59.874)">
            <path id="path8301" d="M-64.9-88.322v-7.573a9.042,9.042,0,0,0-9.042-9.041,9.021,9.021,0,0,0-3.167.57,9.045,9.045,0,0,1,5.875,8.471v7.573l-5.678,5.678h6.333l5.678-5.678" transform="translate(77.108 104.936)" fill="#898890"/>
          </g>
          <g id="g8303" transform="translate(1.583 11.525)">
            <path id="path8305" d="M-33.667-266.8v-15.34l14.725-2.436A38.818,38.818,0,0,1-15.034-294l-8.692-12.138,8.2-8.2-3.69-2.643-10.847,10.847L-21.367-294a38.818,38.818,0,0,0-3.908,9.426L-40-282.139v15.34l10.309,1.705a9.079,9.079,0,0,1,.8-.914Z" transform="translate(40 316.986)" fill="#898890"/>
          </g>
          <g id="g8307" transform="translate(92.181 59.874)">
            <path id="path8309" d="M-16.832,0h0A9.02,9.02,0,0,0-20,.57a9.065,9.065,0,0,1,4.011,2.973l5.528-.915A9.013,9.013,0,0,0-16.832,0" transform="translate(19.999)" fill="#898890"/>
          </g>
          <g id="g8311" transform="translate(71.168 76.221)">
            <path id="path8313" d="M-33.667,0H-40l4.632,4.632V5.945h6.333V4.632L-33.667,0" transform="translate(40)" fill="#898890"/>
          </g>
          <g id="g8315" transform="translate(42.792 48.483)">
            <path id="path8317" d="M-119.617-59.808v9.423l-7.065,7.065h-8.371l-7.065-7.065v-9.423a11.25,11.25,0,0,1,11.251-11.25A11.25,11.25,0,0,1-119.617-59.808Z" transform="translate(142.118 71.058)" fill="none" stroke="#000" stroke-miterlimit="10" stroke-width="3"/>
          </g>
          <g id="g8319" transform="translate(32.284 76.221)">
            <path id="path8321" d="M-50.99-65.86V-47.97h24.333v0h9.592V-73.617L-21.7-78.249H-55.949l-4.632,4.632V-47.97h9.592Z" transform="translate(60.581 78.249)" fill="none" stroke="#000" stroke-miterlimit="10" stroke-width="3"/>
          </g>
          <g id="g8323" transform="translate(41.876 88.609)">
            <path id="path8325" d="M0-95.109H0v0Z" transform="translate(0 113)" fill="none" stroke="#000" stroke-miterlimit="10" stroke-width="3"/>
          </g>
          <g id="g8327" transform="translate(42.386 76.221)">
            <path id="path8329" d="M-69.881-123.918h-2.981l-10.165-23.31h23.31Z" transform="translate(83.026 147.228)" fill="none" stroke="#000" stroke-miterlimit="10" stroke-width="3"/>
          </g>
          <g id="g8331" transform="translate(49.783 76.221)">
            <path id="path8333" d="M-14.715-123.918h2.981l2.768-6.347-1.628-16.963h-5.261l-1.627,16.963Z" transform="translate(17.483 147.228)" fill="none" stroke="#000" stroke-miterlimit="10" stroke-width="3"/>
          </g>
          <g id="g8335" transform="translate(79.973 59.874)">
            <path id="path8337" d="M-96.131-48.065v7.573l-5.678,5.678h-6.728l-5.678-5.678v-7.573a9.042,9.042,0,0,1,9.041-9.041A9.042,9.042,0,0,1-96.131-48.065Z" transform="translate(114.214 57.107)" fill="none" stroke="#000" stroke-miterlimit="10" stroke-width="3"/>
          </g>
          <g id="g8339" transform="translate(85.592 82.166)">
            <path id="path8341" d="M-11.825-88.35h2.4l2.224-2.987-1.308-13.632h-4.229l-1.308,13.632Z" transform="translate(14.049 104.969)" fill="none" stroke="#000" stroke-miterlimit="10" stroke-width="3"/>
          </g>
          <g id="g8343" transform="translate(89.014 65.159)">
            <path id="path8345" d="M0,0A3.761,3.761,0,0,1,3.757,3.757V9.14L1.175,11.722" fill="none" stroke="#fff" stroke-miterlimit="10" stroke-width="3" stroke-dasharray="15 10 15 10 350"/>
          </g>
          <g id="g8347" transform="translate(54.042 53.76)">
            <path id="path8349" d="M0,0A5.979,5.979,0,0,1,5.973,5.973v7.237L2,17.183" fill="none" stroke="#fff" stroke-miterlimit="10" stroke-width="3" stroke-dasharray="15 10 15 10 350"/>
          </g>
          <g id="g8351" transform="translate(80.022 82.166)">
            <path id="path8353" d="M-1.436-52.929v14.378H24.771V-59.162l-3.723-3.723H-1.707" transform="translate(1.707 62.885)" fill="none" stroke="#000" stroke-miterlimit="10" stroke-width="3"/>
          </g>
          <g id="g8355" transform="translate(97.736 92.122)">
            <path id="path8357" d="M0-76.434V-90.812" transform="translate(0 90.812)" fill="none" stroke="#000" stroke-miterlimit="10" stroke-width="3"/>
          </g>
          <g id="g8359" transform="translate(10.028 59.874)">
            <path id="path8361" d="M-96.131-48.065v7.573l-5.678,5.678h-6.728l-5.678-5.678v-7.573a9.042,9.042,0,0,1,9.041-9.041A9.042,9.042,0,0,1-96.131-48.065Z" transform="translate(114.214 57.107)" fill="none" stroke="#000" stroke-miterlimit="10" stroke-width="3"/>
          </g>
          <g id="g8363" transform="translate(15.648 82.166)">
            <path id="path8365" d="M-24.559-88.35h-2.4l-2.224-2.987,1.308-13.632h4.228l1.308,13.632Z" transform="translate(29.179 104.969)" fill="none" stroke="#000" stroke-miterlimit="10" stroke-width="3"/>
          </g>
          <g id="g8367" transform="translate(19.07 65.159)">
            <path id="path8369" d="M0,0A3.761,3.761,0,0,1,3.757,3.757V9.14L1.175,11.722" fill="none" stroke="#fff" stroke-miterlimit="10" stroke-width="3" stroke-dasharray="15 10 15 10 350"/>
          </g>
          <g id="g8371" transform="translate(1.584 82.166)">
            <path id="path8373" d="M-140.76,0h-22.756l-3.723,3.723V24.334h26.208V9.956" transform="translate(167.238)" fill="none" stroke="#000" stroke-miterlimit="10" stroke-width="3"/>
          </g>
          <g id="g8375" transform="translate(10.348 92.122)">
            <path id="path8377" d="M0-76.434V-90.812" transform="translate(0 90.812)" fill="none" stroke="#000" stroke-miterlimit="10" stroke-width="3"/>
          </g>
          <g id="g8379" transform="translate(54.042 20.266)">
            <path id="path8381" d="M0,0A33.814,33.814,0,0,1,33.776,33.776" fill="none" stroke="#fff" stroke-miterlimit="10" stroke-width="3" stroke-dasharray="15 10 15 10 350"/>
          </g>
          <g id="g8383" transform="translate(1.583 1.583)">
            <path id="path8385" d="M-526.981-324.738l5.788-.958v-15.34l-14.725-2.436a38.814,38.814,0,0,0-3.908-9.426l8.692-12.138-10.847-10.847-12.138,8.691a38.829,38.829,0,0,0-9.426-3.907l-2.436-14.725h-15.34l-2.436,14.725a38.832,38.832,0,0,0-9.426,3.907l-12.138-8.691-10.847,10.847,8.692,12.138a38.814,38.814,0,0,0-3.908,9.426l-14.725,2.436v15.34l5.788.958" transform="translate(626.11 385.824)" fill="none" stroke="#000" stroke-miterlimit="10" stroke-width="3"/>
          </g>
          <g id="g8387" transform="translate(36.098 36.098)">
            <path id="path8389" d="M-13.138-143.728a17.861,17.861,0,0,1-2.471-9.093A17.943,17.943,0,0,1,2.334-170.765a17.943,17.943,0,0,1,17.944,17.944,17.861,17.861,0,0,1-2.471,9.092" transform="translate(15.609 170.765)" fill="none" stroke="#000" stroke-miterlimit="10" stroke-width="3"/>
          </g>
        </g>
      </g>
    </g>
  </g>
</svg>
