<svg xmlns="http://www.w3.org/2000/svg" width="120" height="120" viewBox="0 0 120 120">
  <g id="Elipse_8312" data-name="Elipse 8312" fill="#fff" stroke="#ff6148" stroke-width="1">
    <circle cx="60" cy="60" r="60" stroke="none"/>
    <circle cx="60" cy="60" r="59.5" fill="none"/>
  </g>
  <g id="estructura" transform="translate(25.596 22)">
    <rect id="Rectángulo_373855" data-name="Rectángulo 373855" width="13.674" height="13.674" transform="translate(9.401 55.424)" fill="#ffb954"/>
    <path id="Trazado_601284" data-name="Trazado 601284" d="M421.56,402.633a7.191,7.191,0,0,0,0,13.1,7.191,7.191,0,0,0,0-13.1Z" transform="translate(-359.62 -346.951)" fill="#ff5d5d"/>
    <rect id="Rectángulo_373856" data-name="Rectángulo 373856" width="7.814" height="14.383" transform="translate(11.686 23.778)" fill="#4dbaf6"/>
    <rect id="Rectángulo_373857" data-name="Rectángulo 373857" width="9.433" height="9.433" transform="translate(62.754 24.316) rotate(45)" fill="#62cd4d"/>
    <rect id="Rectángulo_373858" data-name="Rectángulo 373858" width="13.673" height="11.064" transform="translate(34.177 1.383)" fill="#ff5d5d"/>
    <circle id="Elipse_8314" data-name="Elipse 8314" cx="2.766" cy="2.766" r="2.766" transform="translate(32.656 28.204)" fill="#4dbaf6"/>
    <ellipse id="Elipse_8315" data-name="Elipse 8315" cx="2.991" cy="2.564" rx="2.991" ry="2.564" transform="translate(9.401 4.148)" fill="#ff5d5d"/>
    <path id="Trazado_601285" data-name="Trazado 601285" d="M93.668,31.965a1.383,1.383,0,0,0,0-1.956l-10.45-10.45a1.383,1.383,0,0,0-1.956,0L71.217,29.6H62.6a4.168,4.168,0,0,0-2.552-2.552V13.83H71.116A1.383,1.383,0,0,0,72.5,12.447V1.383A1.383,1.383,0,0,0,71.116,0H46.223A1.383,1.383,0,0,0,44.84,1.383V5.532H39.485a4.149,4.149,0,1,0-5.294,5.294V22.4H28.383A1.383,1.383,0,0,0,27,23.778V38.161a1.383,1.383,0,0,0,1.383,1.383h5.808v5.065a1.383,1.383,0,1,0,2.766,0V39.544h5.808a1.383,1.383,0,0,0,1.383-1.383V23.778A1.383,1.383,0,0,0,42.766,22.4H36.957V10.826A4.169,4.169,0,0,0,39.485,8.3H44.84v4.149a1.383,1.383,0,0,0,1.383,1.383H57.287V27.064a4.149,4.149,0,1,0,5.306,5.306h8.625l9.64,9.64V53.772a8.574,8.574,0,1,0,2.766,0V42.01ZM41.383,36.778H29.766V25.161H41.383ZM35.574,8.3a1.383,1.383,0,1,1,1.383-1.383A1.385,1.385,0,0,1,35.574,8.3ZM47.606,2.766H69.733v8.3H47.606ZM58.687,32.352a1.383,1.383,0,1,1,1.383-1.383A1.385,1.385,0,0,1,58.687,32.352Zm23.553-9.86,8.494,8.494-8.43,8.43c-.021,0-.042,0-.064,0s-.042,0-.064,0l-8.43-8.43Zm5.808,39.74a5.808,5.808,0,1,1-6.042-5.8,1.383,1.383,0,0,0,.234.021,1.4,1.4,0,0,0,.234-.021A5.815,5.815,0,0,1,88.049,62.233Z" transform="translate(-23.266)"/>
    <path id="Trazado_601286" data-name="Trazado 601286" d="M81.361,351.8a1.382,1.382,0,1,0-.978.405A1.393,1.393,0,0,0,81.361,351.8Z" transform="translate(-68.075 -301.114)"/>
    <path id="Trazado_601287" data-name="Trazado 601287" d="M324.053,444a1.383,1.383,0,1,0,.978.405A1.39,1.39,0,0,0,324.053,444Z" transform="translate(-278.046 -382.597)"/>
    <path id="Trazado_601288" data-name="Trazado 601288" d="M40.659,395.745H24.617v-6.362A1.383,1.383,0,0,0,23.234,388H1.383A1.383,1.383,0,0,0,0,389.383v14.383a1.383,1.383,0,0,0,1.383,1.383H23.234a1.383,1.383,0,0,0,1.383-1.383V398.51H40.659a1.383,1.383,0,0,0,0-2.766Zm-18.808,6.638H2.766V390.766H21.851Z" transform="translate(0 -334.341)"/>
    <path id="Trazado_601289" data-name="Trazado 601289" d="M196.361,404.361a1.382,1.382,0,1,0-.978.405A1.393,1.393,0,0,0,196.361,404.361Z" transform="translate(-167.171 -346.405)"/>
    <path id="Trazado_601290" data-name="Trazado 601290" d="M239.491,404.361a1.382,1.382,0,1,0-.978.405A1.393,1.393,0,0,0,239.491,404.361Z" transform="translate(-204.336 -346.405)"/>
    <path id="Trazado_601291" data-name="Trazado 601291" d="M282.611,404.361a1.382,1.382,0,1,0-.978.405A1.387,1.387,0,0,0,282.611,404.361Z" transform="translate(-241.493 -346.405)"/>
    <path id="Trazado_601292" data-name="Trazado 601292" d="M282.612,121.784a1.386,1.386,0,1,0,.4.978A1.4,1.4,0,0,0,282.612,121.784Z" transform="translate(-241.493 -104.594)"/>
    <path id="Trazado_601293" data-name="Trazado 601293" d="M281.633,164.5a1.383,1.383,0,1,0,.978.405A1.393,1.393,0,0,0,281.633,164.5Z" transform="translate(-241.493 -141.75)"/>
  </g>
</svg>
